<?xml version="1.0" encoding="UTF-8"?>
<svg version="1.1" xmlns="http://www.w3.org/2000/svg" width="512" height="512">
<path d="M0 0 C8.23212728 8.42813031 7.85998629 17.13139399 7.875 28.3125 C7.87800613 29.39031235 7.87800613 29.39031235 7.881073 30.48989868 C7.88897092 42.17543266 7.26236475 53.74100167 6.1875 65.375 C6.1201062 66.10446838 6.0527124 66.83393677 5.98327637 67.58551025 C5.38092234 73.98629154 4.74105788 80.35154013 3.625 86.6875 C4.17212646 86.46610352 4.71925293 86.24470703 5.28295898 86.01660156 C25.44418848 77.9243215 43.70174529 73.4553704 65.5 73.4375 C66.23798828 73.43682526 66.97597656 73.43615051 67.73632812 73.43545532 C78.95089353 73.45174494 89.71254229 73.93891448 100.625 76.6875 C101.30272461 76.84847168 101.98044922 77.00944336 102.67871094 77.17529297 C131.19489646 84.09495477 162.33351855 100.90012356 178.77734375 125.96875 C188.94882573 142.7089727 192.04592254 158.60016916 192 177.9375 C191.99918427 179.22755447 191.99918427 179.22755447 191.99835205 180.54367065 C191.95119344 196.85998503 190.49110124 212.60330627 187.625 228.6875 C187.30354004 230.51619629 187.30354004 230.51619629 186.97558594 232.38183594 C176.41157791 291.19891119 158.11600583 359.40234263 118.625 405.6875 C118.07714844 406.37972656 117.52929688 407.07195312 116.96484375 407.78515625 C112.29416919 413.51584206 106.81880455 417.68807192 100.625 421.6875 C99.92890625 422.14640625 99.2328125 422.6053125 98.515625 423.078125 C90.6443194 427.41039397 80.05755678 426.88427612 71.46875 424.9921875 C68.73633327 424.05782661 66.21346711 422.96575536 63.625 421.6875 C62.7484375 421.275 61.871875 420.8625 60.96875 420.4375 C40.88980942 410.2826335 24.746581 392.62679292 11.625 374.6875 C10.81411469 373.60653626 10.0029177 372.52580625 9.19140625 371.4453125 C-16.43765602 336.88280881 -33.25022633 297.7029987 -46.31274414 256.98535156 C-47.31330866 253.8790253 -48.33744533 250.7816415 -49.375 247.6875 C-49.7875 248.16058594 -50.2 248.63367188 -50.625 249.12109375 C-51.85644586 250.53120921 -53.0911182 251.93851028 -54.328125 253.34375 C-55.64508492 254.85171937 -56.94842294 256.37175258 -58.234375 257.90625 C-63.38580373 263.95172834 -69.10673927 268.83002033 -75.375 273.6875 C-76.29023438 274.41839844 -77.20546875 275.14929688 -78.1484375 275.90234375 C-105.80847936 297.46202021 -142.42534284 312.82239525 -177.9519043 308.91064453 C-205.22221485 305.19426826 -227.82974486 288.89987675 -244.57177734 267.56518555 C-263.97353335 241.778261 -271.38754354 213.81365268 -268.07470703 181.78417969 C-267.28543499 176.61419648 -265.98925276 171.65679408 -264.375 166.6875 C-264.16069336 166.01122559 -263.94638672 165.33495117 -263.72558594 164.63818359 C-251.36883072 126.62362443 -220.67002984 90.64342992 -189.375 66.6875 C-188.39789063 65.90503906 -187.42078125 65.12257813 -186.4140625 64.31640625 C-170.29024026 51.47341814 -152.43397618 41.52555602 -134.375 31.6875 C-133.00504883 30.93654053 -133.00504883 30.93654053 -131.60742188 30.17041016 C-32.07214107 -24.17377797 -32.07214107 -24.17377797 0 0 Z " fill="#D08123" transform="translate(296.375,46.3125)"/>
<path d="M0 0 C5.6561039 5.79077304 7.29222494 10.70659926 7.625 18.6875 C7.50782337 23.32553113 7.17405778 27.93776219 6.8125 32.5625 C6.71412842 33.84954834 6.61575684 35.13659668 6.5144043 36.46264648 C6.31439019 39.03354379 6.11014453 41.6041159 5.90136719 44.17431641 C5.66722755 47.15070279 5.46883596 50.12546603 5.2890625 53.10546875 C2.83021422 88.71675284 -20.04747487 124.93511534 -38.375 154.6875 C-38.82133789 155.41533691 -39.26767578 156.14317383 -39.72753906 156.89306641 C-74.89274568 214.01514456 -116.85849341 255.63825142 -180.875 278.8125 C-181.91906006 279.19083984 -182.96312012 279.56917969 -184.03881836 279.95898438 C-197.09206983 284.53406542 -197.09206983 284.53406542 -202.8828125 282.38671875 C-204.10077416 281.73862906 -205.30631044 281.0667775 -206.5 280.375 C-207.45918335 279.84108643 -207.45918335 279.84108643 -208.43774414 279.29638672 C-215.17934058 275.42813498 -221.61475806 270.91348679 -227.375 265.6875 C-227.375 265.0275 -227.375 264.3675 -227.375 263.6875 C-226.84769287 263.48705078 -226.32038574 263.28660156 -225.77709961 263.08007812 C-198.78528932 252.74615445 -176.54015073 238.25830196 -154.375 219.6875 C-153.85744141 219.25630859 -153.33988281 218.82511719 -152.80664062 218.38085938 C-136.06225562 204.39719735 -119.27391352 189.42040763 -105.15625 172.7421875 C-102.92847482 170.17242929 -100.58340163 167.72421035 -98.25 165.25 C-91.37981361 157.84374889 -85.38043853 149.79828327 -79.375 141.6875 C-78.55829834 140.59211914 -78.55829834 140.59211914 -77.72509766 139.47460938 C-59.30413562 114.70895344 -43.84483848 87.9135849 -29.375 60.6875 C-28.80604004 59.61806152 -28.23708008 58.54862305 -27.65087891 57.44677734 C-19.68697586 42.42173547 -12.18921151 27.26933031 -5.375 11.6875 C-5.95894531 12.7084375 -5.95894531 12.7084375 -6.5546875 13.75 C-11.19945988 21.79808486 -16.06860354 29.6843474 -21.02587891 37.54248047 C-22.35147866 39.65010252 -23.66699616 41.76371 -24.98046875 43.87890625 C-52.03175527 87.28350511 -81.73640449 129.01635459 -114.90722656 167.9609375 C-116.42947076 169.75157472 -117.94533944 171.54748563 -119.4609375 173.34375 C-124.31864352 179.08099985 -129.19044263 184.67293415 -134.59375 189.91015625 C-136.3912757 191.70374 -138.0397646 193.5685743 -139.6875 195.5 C-146.01905791 202.84345073 -152.99477453 209.6724391 -160.37109375 215.9609375 C-162.62733386 217.90491046 -164.80863893 219.92073518 -167 221.9375 C-212.04234242 262.39346409 -212.04234242 262.39346409 -230.08984375 261.5625 C-237.57294144 258.69717713 -242.28113396 250.28440566 -246.75 244 C-247.27408447 243.26330078 -247.79816895 242.52660156 -248.33813477 241.76757812 C-253.22711334 234.73573673 -253.22711334 234.73573673 -254.375 230.6875 C-253.7668457 228.26586914 -253.7668457 228.26586914 -252.55078125 225.72265625 C-252.10492676 224.76931396 -251.65907227 223.81597168 -251.19970703 222.83374023 C-250.70067871 221.81610596 -250.20165039 220.79847168 -249.6875 219.75 C-249.1807373 218.68531494 -248.67397461 217.62062988 -248.15185547 216.52368164 C-246.57846623 213.23543935 -244.97891659 209.96094117 -243.375 206.6875 C-242.46468455 204.79955592 -241.55452006 202.91153904 -240.64453125 201.0234375 C-234.10708148 187.5970232 -226.8823899 174.59240478 -219.375 161.6875 C-218.88418945 160.83978027 -218.39337891 159.99206055 -217.88769531 159.11865234 C-202.62702161 132.85934143 -185.33841379 107.82387913 -165.87939453 84.50048828 C-164.50572271 82.84503763 -163.15486811 81.17382327 -161.80859375 79.49609375 C-154.84088969 70.95375984 -147.08070239 63.1807418 -139.3125 55.375 C-138.75768951 54.81492249 -138.20287903 54.25484497 -137.6312561 53.67779541 C-130.55104525 46.54570578 -123.31228425 39.87764801 -115.375 33.6875 C-114.68994385 33.14939697 -114.0048877 32.61129395 -113.29907227 32.05688477 C-111.60334681 30.73514038 -109.89866795 29.42665767 -108.1875 28.125 C-107.33188477 27.47047852 -107.33188477 27.47047852 -106.45898438 26.80273438 C-105.09891185 25.76267892 -103.73715972 24.72482036 -102.375 23.6875 C-130.53255545 40.62975794 -157.10909252 63.81004495 -177.375 89.6875 C-178.26638644 90.75783521 -179.16111055 91.82539679 -180.05859375 92.890625 C-200.5677567 117.45867667 -216.52720175 146.44521978 -231.375 174.6875 C-231.86564941 175.61288574 -232.35629883 176.53827148 -232.86181641 177.49169922 C-241.61277284 194.09148097 -248.65817731 211.19352452 -255.375 228.6875 C-261.54995251 220.69185167 -264.55801919 211.05755915 -266.75 201.3125 C-266.91749756 200.57628418 -267.08499512 199.84006836 -267.25756836 199.08154297 C-268.91082968 191.17758281 -268.55776221 184.04050924 -266.75 176.1875 C-266.57178711 175.40850342 -266.39357422 174.62950684 -266.20996094 173.8269043 C-256.1594237 131.87739036 -222.96683812 92.40160617 -189.375 66.6875 C-188.39789063 65.90503906 -187.42078125 65.12257813 -186.4140625 64.31640625 C-170.29024026 51.47341814 -152.43397618 41.52555602 -134.375 31.6875 C-133.00504883 30.93654053 -133.00504883 30.93654053 -131.60742188 30.17041016 C-32.07214107 -24.17377797 -32.07214107 -24.17377797 0 0 Z " fill="#D08123" transform="translate(296.375,46.3125)"/>
<path d="M0 0 C0.33 0.66 0.66 1.32 1 2 C0.17407227 4.30541992 0.17407227 4.30541992 -1.18359375 7.23046875 C-1.69075928 8.3277832 -2.1979248 9.42509766 -2.72045898 10.55566406 C-3.2919998 11.76665686 -3.86437177 12.97725767 -4.4375 14.1875 C-4.7266629 14.80347046 -5.01582581 15.41944092 -5.31375122 16.05407715 C-15.94951371 38.69362295 -27.4898692 60.81560102 -40.36376953 82.26708984 C-41.97454495 84.95748377 -43.56570735 87.65859541 -45.15234375 90.36328125 C-51.35105066 100.8870355 -57.87729984 111.07826867 -65 121 C-65.82419434 122.15097168 -65.82419434 122.15097168 -66.66503906 123.32519531 C-74.04086273 133.58380881 -81.6374179 143.52676246 -90 153 C-90.721875 153.82113281 -91.44375 154.64226562 -92.1875 155.48828125 C-94.43592615 158.01362753 -96.71163254 160.5107727 -99 163 C-99.50370117 163.54881836 -100.00740234 164.09763672 -100.52636719 164.66308594 C-121.8615378 187.86335121 -121.8615378 187.86335121 -133.03515625 197.3125 C-135.4595773 199.39470655 -137.78350032 201.57502207 -140.125 203.75 C-145.9351731 209.04656664 -152.04722906 213.87808265 -158.27978516 218.66503906 C-159.88370465 219.90974979 -161.4643641 221.18427392 -163.04296875 222.4609375 C-180.05258182 236.05982608 -200.37903074 249.51703445 -222 254 C-214.68816514 262.06823157 -204.41339619 269.67272501 -194 273 C-188.25718857 272.72620684 -183.05749832 270.85531913 -177.6875 268.9375 C-176.80940674 268.62514404 -175.93131348 268.31278809 -175.02661133 267.9909668 C-152.54669341 259.84788598 -130.34194985 249.12287462 -111 235 C-110.45230957 234.60103516 -109.90461914 234.20207031 -109.34033203 233.79101562 C-93.89303175 222.42853594 -79.92341005 210.05086187 -68 195 C-67.19304687 193.98679688 -66.38609375 192.97359375 -65.5546875 191.9296875 C-59.23988428 183.91593998 -53.5226351 175.5747232 -48 167 C-47.52272461 166.25943359 -47.04544922 165.51886719 -46.55371094 164.75585938 C-25.92286225 132.63356077 -6.60369154 99.16277676 6 63 C6.34458252 62.06615479 6.68916504 61.13230957 7.04418945 60.17016602 C8.08192199 56.72828683 8.49374728 53.55566489 8.81640625 49.9765625 C8.87779282 49.31272552 8.93917938 48.64888855 9.00242615 47.9649353 C9.13086138 46.56172419 9.25588927 45.15819747 9.37768555 43.75439453 C9.55903099 41.66496923 9.75015774 39.57664003 9.94335938 37.48828125 C10.80683997 28.00216822 11.45136553 18.50913322 12 9 C12.33 9 12.66 9 13 9 C13.36501048 24.57003675 12.98855565 39.87468669 11.5625 55.375 C11.46127335 56.48195221 11.46127335 56.48195221 11.35800171 57.61126709 C10.75565445 64.10748857 10.13734655 70.57077309 9 77 C9.54712646 76.77860352 10.09425293 76.55720703 10.65795898 76.32910156 C26.5932532 69.93302023 43.05484821 63.69520623 60.5 63.9375 C61.3559375 63.94652344 62.211875 63.95554688 63.09375 63.96484375 C63.7228125 63.97644531 64.351875 63.98804688 65 64 C64.68289063 64.57363281 64.36578125 65.14726563 64.0390625 65.73828125 C63.01545443 67.60170037 62.00247198 69.47096941 60.99609375 71.34375 C59.51798136 74.08299004 57.97293807 76.77700776 56.41015625 79.46875 C55.50188506 81.08292891 54.59433547 82.69751407 53.6875 84.3125 C53.02065186 85.42975464 53.02065186 85.42975464 52.34033203 86.56958008 C48.86335614 92.86849803 48.23036735 98.51621807 48.06143188 105.64663696 C47.99005922 108.38081643 47.87384642 111.111807 47.75854492 113.84448242 C47.53388332 119.52128645 47.40810809 125.19576782 47.3203125 130.8762207 C47.27346254 133.24913875 47.20511877 135.62173036 47.11523438 137.9934082 C46.59769608 151.96211428 46.46173761 162.27599146 56.16210938 172.95532227 C56.65203369 173.47087677 57.14195801 173.98643127 57.64672852 174.51760864 C59.5823448 176.63790814 61.08148582 178.96120041 62.6015625 181.390625 C63.10695557 182.19242188 63.61234863 182.99421875 64.13305664 183.8203125 C64.62539795 184.62210938 65.11773926 185.42390625 65.625 186.25 C66.16568115 187.12914062 66.7063623 188.00828125 67.26342773 188.9140625 C84.03004595 216.67530672 88.61609285 243.74778638 88.4375 275.875 C88.4361203 276.95987701 88.4347406 278.04475403 88.43331909 279.1625061 C88.36347857 309.44179474 86.49534719 339.9174761 83 370 C82.67 370 82.34 370 82 370 C81.99120064 368.49593597 81.99120064 368.49593597 81.98222351 366.96148682 C81.92427575 357.37513807 81.85116241 347.78900072 81.76428509 338.20286942 C81.7201101 333.2780047 81.68074855 328.35321279 81.65356445 323.42822266 C81.32693532 266.00208091 72.90186183 214.78219717 47 163 C46.18844684 205.3721289 46.18844684 205.3721289 45.875 247.75 C45.87250244 248.57385193 45.87000488 249.39770386 45.86743164 250.246521 C45.82738733 266.1044689 46.67660619 281.68777696 48.67590332 297.42822266 C49.04356058 300.34566264 49.39885178 303.2644748 49.75292969 306.18359375 C50.46744543 312.06844409 51.19258594 317.95192442 51.921875 323.83496094 C52.22216036 326.26377765 52.5206846 328.69281279 52.81738281 331.12207031 C54.64004775 346.0388248 56.68038968 360.8889638 59.13647461 375.71533203 C60.85493955 386.09646612 62.17118788 396.50898346 63 407 C58.94469734 402.94469734 57.68734962 396.57886912 55.75 391.25 C55.37884064 390.23326202 55.37884064 390.23326202 55.00018311 389.19598389 C44.94509183 361.54713304 39.24849286 333.06698919 35 304 C34.89059082 303.27425781 34.78118164 302.54851562 34.66845703 301.80078125 C25.49385161 239.79096926 31.1190238 174.83145318 39 113 C24.50034791 143.53361404 11.81110848 175.1757169 3.5 208 C3.15328247 209.36753418 3.15328247 209.36753418 2.79956055 210.76269531 C-2.90597755 234.48560815 -3.01265461 259.52750421 -3.72579956 283.8192749 C-3.78259193 285.69808092 -3.84498442 287.57672795 -3.91360474 289.45513916 C-4.32970752 301.16634473 -3.71249931 312.1439853 -1.6628418 323.69067383 C-1.00352143 327.52238551 -0.87482543 331.11700082 -1 335 C-1.66 335 -2.32 335 -3 335 C-20.54067271 304.06411903 -33.66038601 271.99761069 -44 238 C-48.56038118 243.18495695 -48.56038118 243.18495695 -53.046875 248.43359375 C-58.12347644 254.40675095 -63.81563719 259.20753556 -70 264 C-70.91523438 264.73089844 -71.83046875 265.46179688 -72.7734375 266.21484375 C-100.43347936 287.77452021 -137.05034284 303.13489525 -172.5769043 299.22314453 C-199.84721485 295.50676826 -222.45474486 279.21237675 -239.19677734 257.87768555 C-253.44223147 238.94401529 -263.26291163 217.52023272 -263.0625 193.625 C-263.05798828 192.60277344 -263.05347656 191.58054688 -263.04882812 190.52734375 C-263.037103 188.01816806 -263.02069176 185.5091151 -263 183 C-262.67 183 -262.34 183 -262 183 C-261.87995605 183.56807373 -261.75991211 184.13614746 -261.63623047 184.72143555 C-259.18115479 196.14573644 -256.58764778 206.65037061 -251 217 C-249.17630358 214.26445537 -248.12584387 211.97322587 -246.9609375 208.92578125 C-236.34150492 181.69943075 -223.20245503 155.95971518 -208 131 C-207.44183594 130.07622559 -206.88367188 129.15245117 -206.30859375 128.20068359 C-196.1420205 111.39694202 -185.43294083 95.21636932 -173 80 C-172.3505542 79.19393311 -172.3505542 79.19393311 -171.68798828 78.37158203 C-165.06814075 70.19121841 -157.8518146 62.65084242 -150.4375 55.1875 C-149.57527832 54.31601318 -148.71305664 53.44452637 -147.82470703 52.54663086 C-141.85776125 46.60849726 -135.58114696 41.24234927 -129 36 C-127.7568527 34.97539442 -126.51565319 33.948416 -125.27734375 32.91796875 C-115.95417531 25.26048144 -106.13797195 18.53114298 -96 12 C-95.01 12.495 -95.01 12.495 -94 13 C-95.07314453 13.78310547 -95.07314453 13.78310547 -96.16796875 14.58203125 C-103.47372207 19.97864852 -110.49202963 25.63140932 -117.35717773 31.578125 C-118.49504169 32.56295479 -119.63816026 33.54173375 -120.78540039 34.515625 C-126.26322889 39.21468459 -131.40673515 44.22055807 -136.50854492 49.32324219 C-137.92668284 50.73919947 -139.35296665 52.14698289 -140.77929688 53.5546875 C-146.96305463 59.72555347 -152.55140732 66.17844164 -158 73 C-158.92340147 74.08980845 -159.85301091 75.17443876 -160.79296875 76.25 C-179.63540586 97.88960151 -195.45631562 122.32078336 -210 147 C-210.45761719 147.7724707 -210.91523438 148.54494141 -211.38671875 149.34082031 C-223.09060229 169.18130783 -233.69226656 189.68957608 -243.5625 210.5 C-244.045979 211.49040283 -244.52945801 212.48080566 -245.02758789 213.5012207 C-245.45289795 214.41863037 -245.87820801 215.33604004 -246.31640625 216.28125 C-246.69224854 217.07595703 -247.06809082 217.87066406 -247.45532227 218.68945312 C-248.18206338 221.77232084 -247.42661071 223.22042285 -246 226 C-244.52419508 228.28484732 -243.03143963 230.48922307 -241.4375 232.6875 C-240.99639893 233.29746826 -240.55529785 233.90743652 -240.10083008 234.53588867 C-233.64721963 244.2030992 -233.64721963 244.2030992 -224.69921875 250.97265625 C-220.81560289 251.01199823 -217.96489596 249.41450546 -214.625 247.625 C-213.92673096 247.26212891 -213.22846191 246.89925781 -212.5090332 246.52539062 C-180.90823189 229.8802865 -151.38225169 205.43468904 -128.07421875 178.35546875 C-125.98568397 175.98374282 -123.84480903 173.67116064 -121.68798828 171.36181641 C-116.67654893 165.99342355 -111.87392689 160.5345389 -107.2734375 154.8046875 C-105.2084753 152.25719117 -103.10080592 149.75765699 -100.96801758 147.26733398 C-95.0608254 140.36483584 -89.46634571 133.25549806 -84 126 C-83.44296387 125.26362305 -82.88592773 124.52724609 -82.31201172 123.76855469 C-68.20374212 105.11180021 -54.66899722 86.21617484 -41.78173828 66.69238281 C-39.84754684 63.7696282 -37.89437519 60.86021255 -35.93676758 57.953125 C-25.9370337 43.07592372 -16.59111878 27.79608188 -7.42675781 12.39404297 C-4.96109092 8.25675181 -2.4801171 4.12863996 0 0 Z " fill="#C27010" transform="translate(291,56)"/>
<path d="M0 0 C-20.49685112 35.35583844 -41.4269073 71.03439922 -67.83984375 102.3828125 C-68.55269531 103.24648437 -69.26554688 104.11015625 -70 105 C-70.52158691 105.62608154 -71.04317383 106.25216309 -71.58056641 106.8972168 C-76.32061395 112.75777019 -79.93378958 118.93789917 -83.5 125.5625 C-109.28052436 172.4026814 -137.29894168 202.41466723 -182.3125 231.0625 C-182.97008301 231.4862793 -183.62766602 231.91005859 -184.30517578 232.34667969 C-185.83106536 233.2969096 -187.41111579 234.1593319 -189 235 C-189.66 234.67 -190.32 234.34 -191 234 C-190.36835938 233.48953125 -189.73671875 232.9790625 -189.0859375 232.453125 C-178.26306716 223.65759349 -167.50708031 214.89156139 -157.890625 204.765625 C-156 203 -156 203 -154 203 C-153.73968994 202.41226807 -153.47937988 201.82453613 -153.21118164 201.21899414 C-151.9205997 198.85453148 -150.55805479 197.35846664 -148.62109375 195.49609375 C-147.95142578 194.84326416 -147.28175781 194.19043457 -146.59179688 193.51782227 C-145.88087891 192.83131592 -145.16996094 192.14480957 -144.4375 191.4375 C-138.88993912 185.9928772 -133.72654675 180.53218449 -128.921875 174.41796875 C-127.11305676 172.14224011 -125.21967601 170.01152873 -123.25 167.875 C-117.62810157 161.62595753 -112.67870413 154.8321336 -107.61621094 148.13037109 C-104.3875502 143.87458656 -101.1029474 139.66170157 -97.828125 135.44140625 C-96.00395602 133.15635315 -96.00395602 133.15635315 -95 131 C-95.44053711 131.32572998 -95.88107422 131.65145996 -96.33496094 131.98706055 C-108.27691285 140.78695905 -120.48041218 149.04726292 -133 157 C-133.91491211 157.58507324 -134.82982422 158.17014648 -135.77246094 158.77294922 C-151.8842537 169.06336818 -168.33597305 178.64427903 -185 188 C-186.02399902 188.57927246 -187.04799805 189.15854492 -188.10302734 189.75537109 C-190.87682591 191.32401154 -193.65582413 192.88288115 -196.4375 194.4375 C-197.24155273 194.8922168 -198.04560547 195.34693359 -198.87402344 195.81542969 C-202.56162144 197.85554801 -205.73634985 199.53379571 -210 200 C-209.40790428 196.25908841 -208.34883626 193.39618345 -206.55078125 190.0703125 C-206.03990967 189.12220703 -205.52903809 188.17410156 -205.00268555 187.19726562 C-204.1660437 185.67649414 -204.1660437 185.67649414 -203.3125 184.125 C-202.73089111 183.06216797 -202.14928223 181.99933594 -201.55004883 180.90429688 C-184.00000666 149.11731462 -163.77508641 118.70501278 -140.50439453 90.81298828 C-139.13072271 89.15753763 -137.77986811 87.48632327 -136.43359375 85.80859375 C-129.46588969 77.26625984 -121.70570239 69.4932418 -113.9375 61.6875 C-113.38268951 61.12742249 -112.82787903 60.56734497 -112.2562561 59.99029541 C-105.17604525 52.85820578 -97.93728425 46.19014801 -90 40 C-89.31494385 39.46189697 -88.6298877 38.92379395 -87.92407227 38.36938477 C-86.22834681 37.04764038 -84.52366795 35.73915767 -82.8125 34.4375 C-81.95688477 33.78297852 -81.95688477 33.78297852 -81.08398438 33.11523438 C-79.72391185 32.07517892 -78.36215972 31.03732036 -77 30 C-105.15755545 46.94225794 -131.73409252 70.12254495 -152 96 C-152.89138644 97.07033521 -153.78611055 98.13789679 -154.68359375 99.203125 C-175.1927567 123.77117667 -191.15220175 152.75771978 -206 181 C-206.49064941 181.92538574 -206.98129883 182.85077148 -207.48681641 183.80419922 C-216.23777284 200.40398097 -223.28317731 217.50602452 -230 235 C-236.17495251 227.00435167 -239.18301919 217.37005915 -241.375 207.625 C-241.54249756 206.88878418 -241.70999512 206.15256836 -241.88256836 205.39404297 C-243.53582968 197.49008281 -243.18276221 190.35300924 -241.375 182.5 C-241.19678711 181.72100342 -241.01857422 180.94200684 -240.83496094 180.1394043 C-230.7844237 138.18989036 -197.59183812 98.71410617 -164 73 C-163.02289063 72.21753906 -162.04578125 71.43507813 -161.0390625 70.62890625 C-144.91524026 57.78591814 -127.05897618 47.83805602 -109 38 C-107.63004883 37.24904053 -107.63004883 37.24904053 -106.23242188 36.48291016 C-20.57189891 -10.28594946 -20.57189891 -10.28594946 0 0 Z " fill="#D08123" transform="translate(271,40)"/>
<path d="M0 0 C1.19916693 3.57805483 0.85078592 6.41706591 0.328125 10.125 C0.15966064 11.37104004 -0.00880371 12.61708008 -0.18237305 13.90087891 C-0.27497406 14.56710266 -0.36757507 15.23332642 -0.46298218 15.91973877 C-2.23890157 28.79133058 -3.61730598 41.67655993 -4.6875 54.625 C-4.77795593 55.69113525 -4.77795593 55.69113525 -4.87023926 56.77880859 C-6.56691424 76.91501723 -7.20772175 97.04601712 -7.1875 117.25 C-7.18722809 118.28504669 -7.18695618 119.32009338 -7.18667603 120.38650513 C-7.14746941 153.11148182 -5.47108522 185.84522768 1 218 C1.20496094 219.02996094 1.40992188 220.05992187 1.62109375 221.12109375 C6.03343971 243.08310952 12.06205121 263.87832995 19.74902344 284.88671875 C20.16958008 286.04042969 20.59013672 287.19414062 21.0234375 288.3828125 C21.40419434 289.41809082 21.78495117 290.45336914 22.17724609 291.52001953 C23 294 23 294 23 296 C4.40199264 289.15329995 -10.67563045 269.59925128 -22 254 C-22.4218457 253.42830078 -22.84369141 252.85660156 -23.27832031 252.26757812 C-25.83089603 248.80626229 -28.32537889 245.31065442 -30.76953125 241.77197266 C-31.60748654 240.56525054 -32.45422613 239.36459188 -33.30859375 238.16943359 C-34.60223854 236.35612363 -35.86607869 234.52503417 -37.125 232.6875 C-37.87007813 231.61886719 -38.61515625 230.55023438 -39.3828125 229.44921875 C-40.92482845 226.16032966 -41.16098236 225.25384188 -41.0065918 221.86132812 C-40.91729385 217.00907344 -41.65375672 212.53030383 -42.51171875 207.76953125 C-44.27489956 196.99668127 -44.21082056 186.56589595 -43.8125 175.6875 C-43.75360039 173.75865039 -43.69550637 171.82977602 -43.63818359 169.90087891 C-41.70582204 108.37448717 -26.70720158 55.295192 0 0 Z " fill="#D08123" transform="translate(330,167)"/>
<path d="M0 0 C25.85214113 7.38632604 53.07266706 25.94682744 66.24975586 49.60766602 C74.42976757 64.94752542 76.41565161 79.13218042 76.375 96.25 C76.37445618 97.11003632 76.37391235 97.97007263 76.37335205 98.85617065 C76.32619344 115.17248503 74.86610124 130.91580627 72 147 C71.78569336 148.21913086 71.57138672 149.43826172 71.35058594 150.69433594 C64.0309048 191.44801915 52.09220802 230.87550717 36 269 C35.67 269 35.34 269 35 269 C34.7791311 261.88802156 35.63281616 255.36659532 36.875 248.375 C39.35576973 233.49365008 41.08643336 218.74719042 40.98828125 203.64453125 C40.92754505 183.49303006 43.76119976 167.37625492 50.75927734 148.49902344 C52.64541932 143.17982099 54.10735198 137.77847365 55.5 132.3125 C55.73033936 131.43489014 55.96067871 130.55728027 56.19799805 129.65307617 C60.8269967 111.4468482 64.48857071 89.12118627 55 72 C54.44183594 70.90429688 53.88367188 69.80859375 53.30859375 68.6796875 C42.29734195 48.12841587 25.87683192 30.84992807 10 14 C10.37874268 14.43425293 10.75748535 14.86850586 11.14770508 15.31591797 C40.12867745 48.79354661 50.22978147 88.41101956 48 132 C47.17780229 139.76449789 45.68422388 147.38234708 44 155 C43.66385658 156.66610218 43.3286747 158.33240837 43 160 C42.67 160 42.34 160 42 160 C41.92483154 159.08001221 41.84966309 158.16002441 41.7722168 157.2121582 C37.65969502 107.41116704 29.27198938 59.58548663 5.92431641 14.78417969 C4.41599665 11.8727162 2.9609169 8.9355192 1.5 6 C1.0153125 5.030625 0.530625 4.06125 0.03125 3.0625 C-0.3090625 2.381875 -0.649375 1.70125 -1 1 C-0.67 0.67 -0.34 0.34 0 0 Z " fill="#D08123" transform="translate(412,128)"/>
<path d="M0 0 C0.33 0 0.66 0 1 0 C0.97557327 1.08168961 0.95114655 2.16337921 0.92597961 3.27784729 C0.70186274 13.52986301 0.53756538 23.78137458 0.43006611 34.03529453 C0.37293659 39.30574609 0.29560605 44.57420246 0.17016602 49.84350586 C0.04961341 54.94008052 -0.01533635 60.03475116 -0.04364967 65.13264275 C-0.06379411 67.06593712 -0.10313043 68.99914083 -0.16303062 70.93161201 C-0.56541566 84.46587422 1.54581098 92.36128662 10.69484234 102.495718 C13.79375783 106.06742655 16.15676635 110.23038598 18.625 114.25 C19.16568115 115.12914062 19.7063623 116.00828125 20.26342773 116.9140625 C37.03004595 144.67530672 41.61609285 171.74778638 41.4375 203.875 C41.4361203 204.95987701 41.4347406 206.04475403 41.43331909 207.1625061 C41.36347857 237.44179474 39.49534719 267.9174761 36 298 C35.67 298 35.34 298 35 298 C34.99413376 296.99729065 34.98826752 295.9945813 34.98222351 294.96148682 C34.92427575 285.37513807 34.85116241 275.78900072 34.76428509 266.20286942 C34.7201101 261.2780047 34.68074855 256.35321279 34.65356445 251.42822266 C34.32693532 194.00208091 25.90186183 142.78219717 0 91 C-0.81155316 133.3721289 -0.81155316 133.3721289 -1.125 175.75 C-1.12749756 176.57385193 -1.12999512 177.39770386 -1.13256836 178.246521 C-1.17261267 194.1044689 -0.32339381 209.68777696 1.67590332 225.42822266 C2.04356058 228.34566264 2.39885178 231.2644748 2.75292969 234.18359375 C3.46744543 240.06844409 4.19258594 245.95192442 4.921875 251.83496094 C5.22216036 254.26377765 5.5206846 256.69281279 5.81738281 259.12207031 C7.64004775 274.0388248 9.68038968 288.8889638 12.13647461 303.71533203 C13.85493955 314.09646612 15.17118788 324.50898346 16 335 C11.94469734 330.94469734 10.68734962 324.57886912 8.75 319.25 C8.37884064 318.23326202 8.37884064 318.23326202 8.00018311 317.19598389 C-2.05490817 289.54713304 -7.75150714 261.06698919 -12 232 C-12.16411377 230.91138672 -12.16411377 230.91138672 -12.33154297 229.80078125 C-18.71587813 186.64999657 -17.48691993 141.35774265 -14 98 C-13.91655334 96.96129761 -13.91655334 96.96129761 -13.8314209 95.90161133 C-11.19990757 63.53642187 -6.40952657 31.81750355 0 0 Z " fill="#A45F0D" transform="translate(338,128)"/>
<path d="M0 0 C1.55819696 4.053556 0.54286595 7.88413831 -0.22265625 12.0078125 C-0.36299286 12.7972525 -0.50332947 13.5866925 -0.6479187 14.40005493 C-1.10969681 16.97691217 -1.58498308 19.55101586 -2.0625 22.125 C-2.22372345 23.00546997 -2.3849469 23.88593994 -2.55105591 24.79309082 C-10.52446088 68.28367154 -20.25939884 114.98702009 -49 150 C-49.44569336 150.55107422 -49.89138672 151.10214844 -50.35058594 151.66992188 C-76.52100921 183.89349041 -114.52898489 207.18752702 -156 213 C-167.61770017 214.05175009 -178.82303967 213.4837279 -190 210 C-187.31080124 207.31080124 -184.47612204 207.1113581 -180.875 206.375 C-129.39326233 194.97319233 -81.05271575 165.48380022 -52 121 C-28.66848408 83.50292084 -13.76244674 41.73240676 0 0 Z " fill="#D08123" transform="translate(297,123)"/>
<path d="M0 0 C22.59487613 19.54917182 31.10254405 66.45340054 37 94 C37.16193848 94.74749512 37.32387695 95.49499023 37.49072266 96.26513672 C40.95317685 112.52817915 43.0517761 129.21381404 43.7890625 145.8203125 C43.97625831 148.64211598 44.36666786 151.24863905 45 154 C54.53029164 111.96913269 48.68920925 69.79364108 26.2265625 32.91064453 C21.85288008 26.09765913 16.84011855 19.61292859 11 14 C11.33 13.34 11.66 12.68 12 12 C16.58557313 16.47837791 21.00013557 21.03140816 25.171875 25.8984375 C26.42805555 27.34250831 27.71112151 28.76349093 29.015625 30.1640625 C49.45194966 52.14413831 64.23778293 74.91446389 63.20458984 105.56445312 C61.87225891 127.93743742 53.75601048 151.10341856 45.86767578 171.99951172 C44.83893763 175.55696581 44.7270762 178.66864629 44.69140625 182.37109375 C44.66860313 183.83171187 44.64539219 185.29232367 44.62182617 186.75292969 C44.61267181 187.51617554 44.60351746 188.27942139 44.59408569 189.0657959 C44.24873288 214.99762094 41.76487368 240.4866313 37 266 C36.67 266 36.34 266 36 266 C35.97494385 264.79802979 35.9498877 263.59605957 35.92407227 262.35766602 C35.37770057 234.8304321 35.37770057 234.8304321 34.5 207.3125 C34.46463135 206.36769775 34.4292627 205.42289551 34.39282227 204.44946289 C34.19147534 199.6695663 33.79287347 194.96365046 33.22753906 190.21411133 C32.91780505 187.20018666 32.81212062 184.19331663 32.7097168 181.16625977 C32.00967516 160.68348538 29.63467891 140.35436108 25.640625 120.25927734 C25.03601358 117.18322458 24.45164772 114.10381923 23.87385559 111.02262878 C20.17037251 91.28183224 15.99025475 71.69063463 11.42453003 52.13233948 C9.8228599 45.264566 8.27725644 38.38469702 6.75 31.5 C6.50934814 30.41541504 6.26869629 29.33083008 6.02075195 28.21337891 C3.94614382 18.82304735 1.94991686 9.41695145 0 0 Z " fill="#A45E0D" transform="translate(410,129)"/>
<path d="M0 0 C0.99 0.495 0.99 0.495 2 1 C-18.49685112 36.35583844 -39.4269073 72.03439922 -65.83984375 103.3828125 C-66.55269531 104.24648437 -67.26554688 105.11015625 -68 106 C-68.52158691 106.62608154 -69.04317383 107.25216309 -69.58056641 107.8972168 C-74.32061395 113.75777019 -77.93378958 119.93789917 -81.5 126.5625 C-107.28052436 173.4026814 -135.29894168 203.41466723 -180.3125 232.0625 C-180.97008301 232.4862793 -181.62766602 232.91005859 -182.30517578 233.34667969 C-183.83106536 234.2969096 -185.41111579 235.1593319 -187 236 C-187.66 235.67 -188.32 235.34 -189 235 C-188.36835938 234.48953125 -187.73671875 233.9790625 -187.0859375 233.453125 C-176.26306716 224.65759349 -165.50708031 215.89156139 -155.890625 205.765625 C-154 204 -154 204 -152 204 C-151.73968994 203.41226807 -151.47937988 202.82453613 -151.21118164 202.21899414 C-149.9205997 199.85453148 -148.55805479 198.35846664 -146.62109375 196.49609375 C-145.95142578 195.84326416 -145.28175781 195.19043457 -144.59179688 194.51782227 C-143.88087891 193.83131592 -143.16996094 193.14480957 -142.4375 192.4375 C-136.88993912 186.9928772 -131.72654675 181.53218449 -126.921875 175.41796875 C-125.11305676 173.14224011 -123.21967601 171.01152873 -121.25 168.875 C-115.62810157 162.62595753 -110.67870413 155.8321336 -105.61621094 149.13037109 C-102.3875502 144.87458656 -99.1029474 140.66170157 -95.828125 136.44140625 C-94.00395602 134.15635315 -94.00395602 134.15635315 -93 132 C-93.44053711 132.32572998 -93.88107422 132.65145996 -94.33496094 132.98706055 C-106.27691285 141.78695905 -118.48041218 150.04726292 -131 158 C-131.91491211 158.58507324 -132.82982422 159.17014648 -133.77246094 159.77294922 C-148.81644243 169.38136926 -164.14034447 178.40833579 -179.70019531 187.14599609 C-182.85450371 188.91825253 -186.00168269 190.70265938 -189.1484375 192.48828125 C-190.97337514 193.51405907 -192.79885887 194.53886623 -194.625 195.5625 C-195.45418945 196.03397461 -196.28337891 196.50544922 -197.13769531 196.99121094 C-199.05843494 198.05664051 -201.02522069 199.03842445 -203 200 C-203.66 199.67 -204.32 199.34 -205 199 C-204.27018921 198.55684448 -204.27018921 198.55684448 -203.52563477 198.10473633 C-192.15280984 191.16007939 -181.38747023 183.7719427 -170.9296875 175.51660156 C-168.55638679 173.65135055 -166.15742274 171.82145243 -163.75561523 169.99316406 C-157.38515496 165.13639153 -151.14474745 160.13878607 -145 155 C-144.20988525 154.33943604 -144.20988525 154.33943604 -143.40380859 153.66552734 C-135.22564637 146.80465299 -127.33992328 139.67862569 -119.57421875 132.35546875 C-117.40891031 130.31438517 -115.23143293 128.29126835 -113.01953125 126.30078125 C-106.73375445 120.63924711 -100.67890627 114.78383965 -94.6875 108.8125 C-93.93428467 108.06387695 -93.18106934 107.31525391 -92.4050293 106.54394531 C-88.33578057 102.4634369 -84.44249613 98.29293011 -80.68188477 93.92700195 C-77.91983813 90.76241579 -75.01393983 87.73576531 -72.125 84.6875 C-67.29344346 79.54975391 -62.67939614 74.32013681 -58.2734375 68.80859375 C-55.58017226 65.48134683 -52.79676641 62.24024679 -50 59 C-45.67664046 53.983086 -41.44328232 48.90504516 -37.265625 43.765625 C-32.91285679 38.45224587 -28.45412595 33.22843347 -24 28 C-23.50032715 27.41250977 -23.0006543 26.82501953 -22.48583984 26.21972656 C-16.6985644 19.41917219 -10.87383015 12.67051111 -4.83984375 6.0859375 C-3.11087946 4.12571047 -1.53524117 2.11394578 0 0 Z " fill="#A45E0D" transform="translate(269,39)"/>
<path d="M0 0 C4.39371016 3.90748793 6.3739166 9.41061333 8.875 14.625 C9.7268689 16.39895142 9.7268689 16.39895142 10.59594727 18.20874023 C24.28611222 47.07640548 34.36104362 77.01798648 42 108 C42.23605957 108.94359375 42.47211914 109.8871875 42.71533203 110.859375 C56.19799162 165.14716988 58.6519531 223.00597525 48 278 C47.83693359 278.87446777 47.67386719 279.74893555 47.50585938 280.64990234 C43.00611018 304.33633111 34.83465945 328.01466915 25 350 C23.65241844 346.21215577 24.29606315 343.21230535 25.00390625 339.30859375 C25.25025943 337.89984175 25.49599435 336.49098154 25.74121094 335.08203125 C25.87491089 334.32873535 26.00861084 333.57543945 26.1463623 332.79931641 C29.08873276 316.09970258 31.2988351 299.34169088 33.25 282.5 C33.4363652 280.90259476 33.4363652 280.90259476 33.62649536 279.2729187 C35.26214875 265.19788727 36.72780667 251.11247921 38 237 C38.16918945 235.14689209 38.16918945 235.14689209 38.34179688 233.25634766 C40.76202376 205.68768944 42.82029235 176.24825794 37 149 C36.75830078 147.8557959 36.51660156 146.7115918 36.26757812 145.53271484 C34.29568412 136.32699625 32.17129663 127.16045922 30 118 C29.75378906 116.95424805 29.50757813 115.90849609 29.25390625 114.83105469 C27.83782327 108.82470274 26.39216977 102.82588495 24.93212891 96.83007812 C24.22967869 93.94373999 23.52887846 91.05702604 22.82958984 88.16992188 C21.73487189 83.6502505 20.63807613 79.13108753 19.53994751 74.61224365 C19.10359553 72.81600912 18.6676879 71.01966658 18.23226929 69.22320557 C15.61824338 58.44419509 12.90817537 47.70402729 10 37 C9.47906236 35.05992384 8.95822136 33.11982172 8.4375 31.1796875 C7.95922804 29.41121612 7.48006828 27.6429846 7 25.875 C6.74653809 24.94139648 6.49307617 24.00779297 6.23193359 23.04589844 C4.50743178 16.73983545 2.66797785 10.48916699 0.6640625 4.265625 C0 2 0 2 0 0 Z " fill="#A45E0D" transform="translate(360,121)"/>
<path d="M0 0 C1.41008448 4.23025343 -0.17146238 7.26421694 -1.578125 11.3125 C-1.86043472 12.14542068 -2.14274445 12.97834137 -2.43360901 13.83650208 C-3.3617898 16.56143867 -4.30476894 19.28093453 -5.25 22 C-5.72885147 23.38957413 -5.72885147 23.38957413 -6.21737671 24.80722046 C-11.61126456 40.44572187 -17.42602608 55.81500933 -24 71 C-24.56895996 72.33200439 -24.56895996 72.33200439 -25.14941406 73.69091797 C-47.00341466 124.68679512 -76.41075692 163.79051925 -126 190 C-126.62374512 190.33837891 -127.24749023 190.67675781 -127.89013672 191.02539062 C-155.03651579 205.71885117 -188.93242341 216.44775886 -220 216 C-216.58784928 214.06337392 -213.25483079 213.28991367 -209.4375 212.4375 C-190.72226306 207.97364201 -172.24991254 201.53017653 -155 193 C-154.09266113 192.55253418 -153.18532227 192.10506836 -152.25048828 191.64404297 C-139.96375864 185.52828189 -128.09516329 179.10133421 -117 171 C-116.45230957 170.60103516 -115.90461914 170.20207031 -115.34033203 169.79101562 C-99.89303175 158.42853594 -85.92341005 146.05086187 -74 131 C-73.19304687 129.98679688 -72.38609375 128.97359375 -71.5546875 127.9296875 C-65.23988428 119.91593998 -59.5226351 111.5747232 -54 103 C-53.52272461 102.25943359 -53.04544922 101.51886719 -52.55371094 100.75585938 C-32.01599154 68.77856338 -13.52088261 35.59173509 0 0 Z " fill="#A45E0D" transform="translate(297,120)"/>
<path d="M0 0 C0.33 0.66 0.66 1.32 1 2 C0.17407227 4.30541992 0.17407227 4.30541992 -1.18359375 7.23046875 C-1.69075928 8.3277832 -2.1979248 9.42509766 -2.72045898 10.55566406 C-3.2919998 11.76665686 -3.86437177 12.97725767 -4.4375 14.1875 C-4.87124435 15.11145569 -4.87124435 15.11145569 -5.31375122 16.05407715 C-15.94951371 38.69362295 -27.4898692 60.81560102 -40.36376953 82.26708984 C-41.97454495 84.95748377 -43.56570735 87.65859541 -45.15234375 90.36328125 C-51.35105066 100.8870355 -57.87729984 111.07826867 -65 121 C-65.82419434 122.15097168 -65.82419434 122.15097168 -66.66503906 123.32519531 C-74.04086273 133.58380881 -81.6374179 143.52676246 -90 153 C-90.721875 153.82113281 -91.44375 154.64226562 -92.1875 155.48828125 C-94.43592615 158.01362753 -96.71163254 160.5107727 -99 163 C-99.50370117 163.54881836 -100.00740234 164.09763672 -100.52636719 164.66308594 C-121.8615378 187.86335121 -121.8615378 187.86335121 -133.03515625 197.3125 C-135.4595773 199.39470655 -137.78350032 201.57502207 -140.125 203.75 C-145.9351731 209.04656664 -152.04722906 213.87808265 -158.27978516 218.66503906 C-159.88370465 219.90974979 -161.4643641 221.18427392 -163.04296875 222.4609375 C-181.2824066 237.04304952 -209.29073998 257.22969879 -234 256 C-231.28711538 254.19141025 -229.35741258 253.37287334 -226.3125 252.375 C-202.29086527 243.77778336 -180.52714736 228.27850537 -162 211 C-160.73382644 209.89049295 -159.46310151 208.78615471 -158.1875 207.6875 C-147.61501981 198.46606697 -137.18783241 188.97298979 -128.0390625 178.3203125 C-125.96446762 175.95956661 -123.83517731 173.66052195 -121.69018555 171.36401367 C-116.6777859 165.99509332 -111.87457305 160.53534369 -107.2734375 154.8046875 C-105.2084753 152.25719117 -103.10080592 149.75765699 -100.96801758 147.26733398 C-95.0608254 140.36483584 -89.46634571 133.25549806 -84 126 C-83.44296387 125.26362305 -82.88592773 124.52724609 -82.31201172 123.76855469 C-68.20374212 105.11180021 -54.66899722 86.21617484 -41.78173828 66.69238281 C-39.84754684 63.7696282 -37.89437519 60.86021255 -35.93676758 57.953125 C-25.9370337 43.07592372 -16.59111878 27.79608188 -7.42675781 12.39404297 C-4.96109092 8.25675181 -2.4801171 4.12863996 0 0 Z " fill="#A45F0D" transform="translate(291,56)"/>
<path d="M0 0 C1.4270808 3.8686286 0.59272608 6.81442116 -0.30859375 10.765625 C-0.63938836 12.25283375 -0.97011294 13.74005808 -1.30078125 15.22729492 C-1.48463379 16.03846771 -1.66848633 16.8496405 -1.85791016 17.68539429 C-2.89765397 22.28611832 -3.90137132 26.89461306 -4.90234375 31.50390625 C-5.13331757 32.56744827 -5.36429138 33.6309903 -5.6022644 34.72676086 C-9.23651869 51.5944265 -12.57445576 68.52432988 -15.95213699 85.44480896 C-16.49989594 88.18697904 -17.04882589 90.92891222 -17.59811401 93.67077637 C-18.47552704 98.05113161 -19.35076105 102.43191626 -20.22411919 106.81308174 C-20.55061344 108.44999725 -20.87765527 110.08680364 -21.2052784 111.72349358 C-21.6589229 113.99131644 -22.11007392 116.25962149 -22.56054688 118.52807617 C-22.8154187 119.80704269 -23.07029053 121.08600922 -23.33288574 122.4037323 C-24.29705326 127.60134945 -25.03848853 132.79385581 -25.46484375 138.0625 C-25.54162354 139.00730225 -25.61840332 139.95210449 -25.69750977 140.92553711 C-25.77670654 141.94010986 -25.85590332 142.95468262 -25.9375 144 C-26.02249756 145.08740479 -26.10749512 146.17480957 -26.19506836 147.29516602 C-26.46932529 150.8630245 -26.73622002 154.43135202 -27 158 C-27.08926758 159.20382324 -27.17853516 160.40764648 -27.27050781 161.64794922 C-28.16281079 173.91468158 -28.96682652 186.1654077 -29.27734375 198.4609375 C-29.29740982 199.24443069 -29.31747589 200.02792389 -29.33815002 200.8351593 C-29.43259557 204.66009219 -29.51168278 208.48465899 -29.57055664 212.31030273 C-29.59900546 213.69254796 -29.62756412 215.07479093 -29.65625 216.45703125 C-29.67494141 217.67366455 -29.69363281 218.89029785 -29.71289062 220.14379883 C-30 223 -30 223 -32 225 C-32.4651861 222.66786701 -32.92203436 220.3345152 -33.375 218 C-33.50132812 217.3709375 -33.62765625 216.741875 -33.7578125 216.09375 C-36.29117059 202.92028791 -37.3503663 189.9540122 -37.25 176.5625 C-37.24584579 175.46340302 -37.24584579 175.46340302 -37.24160767 174.34210205 C-37.18221814 160.82358374 -36.44628252 147.44507079 -35 134 C-34.89816406 133.00355469 -34.79632813 132.00710938 -34.69140625 130.98046875 C-33.23381573 116.96240686 -30.80962826 103.35048781 -27.60546875 89.63085938 C-27.04393754 87.1909157 -26.51388606 84.74723414 -26 82.296875 C-22.21183073 64.29666204 -16.71807954 46.88138932 -10.9375 29.4375 C-10.68210449 28.66327698 -10.42670898 27.88905396 -10.16357422 27.09136963 C-7.12150235 17.89271211 -3.904038 8.87535921 0 0 Z " fill="#A45E0D" transform="translate(317,131)"/>
<path d="M0 0 C0.99 0.495 0.99 0.495 2 1 C0.92685547 1.78310547 0.92685547 1.78310547 -0.16796875 2.58203125 C-7.47372207 7.97864852 -14.49202963 13.63140932 -21.35717773 19.578125 C-22.49504169 20.56295479 -23.63816026 21.54173375 -24.78540039 22.515625 C-30.26322889 27.21468459 -35.40673515 32.22055807 -40.50854492 37.32324219 C-41.92668284 38.73919947 -43.35296665 40.14698289 -44.77929688 41.5546875 C-50.96305463 47.72555347 -56.55140732 54.17844164 -62 61 C-62.92340147 62.08980845 -63.85301091 63.17443876 -64.79296875 64.25 C-83.63540586 85.88960151 -99.45631562 110.32078336 -114 135 C-114.45761719 135.7724707 -114.91523437 136.54494141 -115.38671875 137.34082031 C-130.63052935 163.18221157 -145.8537669 190.69200965 -156 219 C-157.03638581 215.8248705 -156.9586539 213.98126123 -155.91796875 210.82421875 C-155.65105225 210.00880615 -155.38413574 209.19339355 -155.10913086 208.35327148 C-154.80499268 207.47356689 -154.50085449 206.5938623 -154.1875 205.6875 C-153.86982666 204.7581665 -153.55215332 203.82883301 -153.22485352 202.87133789 C-142.92207063 173.4450144 -128.13337367 145.59665158 -112 119 C-111.43893555 118.0704248 -110.87787109 117.14084961 -110.29980469 116.18310547 C-100.13589316 99.38581118 -89.42854213 83.21098585 -77 68 C-76.3505542 67.19393311 -76.3505542 67.19393311 -75.68798828 66.37158203 C-69.06814075 58.19121841 -61.8518146 50.65084242 -54.4375 43.1875 C-53.57527832 42.31601318 -52.71305664 41.44452637 -51.82470703 40.54663086 C-45.85776125 34.60849726 -39.58114696 29.24234927 -33 24 C-31.7568527 22.97539442 -30.51565319 21.948416 -29.27734375 20.91796875 C-19.95417531 13.26048144 -10.13797195 6.53114298 0 0 Z " fill="#A55F0E" transform="translate(195,68)"/>
<path d="M0 0 C0.99 0.495 0.99 0.495 2 1 C1.49774902 1.36125977 0.99549805 1.72251953 0.47802734 2.09472656 C-10.42736077 9.9649018 -20.99243459 18.01243058 -31 27 C-31.76691162 27.68231689 -31.76691162 27.68231689 -32.54931641 28.37841797 C-45.78062625 40.18501207 -59.11995704 52.5252122 -70.03515625 66.53125 C-72.24273909 69.30499226 -74.59613063 71.89489347 -77 74.5 C-81.10736723 78.96287351 -84.95780809 83.57722629 -88.76953125 88.29296875 C-93.86383207 94.47571913 -99.24216923 100.42790571 -105 106 C-103.010151 100.73129122 -100.21771277 96.20439409 -97.25 91.4375 C-96.67652832 90.51509521 -96.10305664 89.59269043 -95.51220703 88.64233398 C-70.37362071 48.60390516 -42.64706229 21.32353114 0 0 Z " fill="#A45F0D" transform="translate(210,85)"/>
<path d="M0 0 C0.33 0 0.66 0 1 0 C1.33 3.63 1.66 7.26 2 11 C-0.40563753 8.59436247 -0.60358311 7.32990189 -1 4 C-0.5625 1.6875 -0.5625 1.6875 0 0 Z " fill="#B26A14" transform="translate(352,452)"/>
</svg>
