<?xml version="1.0" encoding="UTF-8"?>
<svg version="1.1" xmlns="http://www.w3.org/2000/svg" width="512" height="512">
<path d="M0 0 C7.60196709 7.35080078 11.87155169 15.44207787 12.0534668 26.14599609 C12.01906494 27.26055176 11.98466309 28.37510742 11.94921875 29.5234375 C11.89217773 31.4101416 11.89217773 31.4101416 11.83398438 33.33496094 C11.78579093 34.68166349 11.73694964 36.02834299 11.6875 37.375 C11.66421631 38.05630981 11.64093262 38.73761963 11.61694336 39.4395752 C10.43341335 73.69975995 10.43341335 73.69975995 8 81 C8.8971875 80.67386719 9.794375 80.34773438 10.71875 80.01171875 C20.04850911 76.71098317 29.21203478 74.50740775 39 73 C40.18078125 72.814375 41.3615625 72.62875 42.578125 72.4375 C59.98822938 70.35578838 78.92298739 71.0496642 96 75 C96.7513623 75.17160645 97.50272461 75.34321289 98.27685547 75.52001953 C109.40042525 78.14768991 119.74102035 81.98756555 130 87 C130.71075684 87.34579102 131.42151367 87.69158203 132.15380859 88.04785156 C159.33451573 101.44229185 181.89206874 121.88756058 192 151 C195.15213306 162.00274561 195.5229028 172.5801456 195.4375 183.9375 C195.43412628 184.81094055 195.43075256 185.6843811 195.42727661 186.58428955 C195.10200897 245.16572259 178.14307291 306.83837734 154 360 C153.53094238 361.03688965 153.06188477 362.0737793 152.57861328 363.14208984 C139.05575872 392.76931324 122.234746 425.26051508 91 439 C80.4556722 442.51477593 66.83268142 440.59585803 57 436 C55.43572266 435.27103516 55.43572266 435.27103516 53.83984375 434.52734375 C37.48188785 426.28012641 22.51132633 413.19405069 11 399 C10.1356413 397.9711654 9.27103493 396.94253886 8.40625 395.9140625 C-4.39808006 380.49071388 -15.28157609 363.51188833 -25 346 C-25.45552246 345.18466797 -25.91104492 344.36933594 -26.38037109 343.52929688 C-39.12348863 320.51670045 -49.29144127 296.14391702 -57 271 C-61.35417446 274.18910435 -65.54588371 277.37315821 -69.4375 281.125 C-99.21502869 308.17481614 -140.21598803 325.39269965 -180.56347656 324.13623047 C-207.56227729 322.62667828 -228.1840742 308.11754595 -246 289 C-249.15822897 285.44325634 -252.11756014 281.78287888 -255 278 C-255.59675537 277.2258374 -255.59675537 277.2258374 -256.20556641 276.43603516 C-272.50413951 255.13914818 -281.43587998 232.81849495 -281.3125 205.75 C-281.30758545 204.47237793 -281.3026709 203.19475586 -281.29760742 201.87841797 C-280.87589641 167.86904702 -264.73938813 138.1247541 -244 112 C-243.33097656 111.13890625 -242.66195312 110.2778125 -241.97265625 109.390625 C-232.41769741 97.36240865 -221.77563871 85.8730246 -210 76 C-209.18039795 75.30390625 -209.18039795 75.30390625 -208.34423828 74.59375 C-163.30113874 36.4682007 -104.79720346 5.37119273 -47 -7 C-45.75089844 -7.27714844 -44.50179687 -7.55429687 -43.21484375 -7.83984375 C-28.76469891 -10.57946229 -11.7845293 -9.64188761 0 0 Z " fill="#020100" transform="translate(301,40)"/>
<path d="M0 0 C16.15859655 31.96908045 28.53565928 65.00275871 37.19042969 99.75537109 C37.92012035 102.67985508 38.66527326 105.59989594 39.4140625 108.51953125 C47.07037023 138.88916898 50.2228968 169.98698841 50.25 201.25 C50.25133942 202.1700885 50.25267883 203.090177 50.25405884 204.03814697 C50.24948414 218.60366943 49.51806302 232.80236611 47.39697266 247.23339844 C47.03299233 249.77006822 46.729238 252.30449476 46.44921875 254.8515625 C43.15626333 282.78167863 34.15889996 310.31347556 23 336 C15.80312621 335.65176417 9.93831312 334.25845352 4 330 C1.91888227 327.1177125 0.91851926 324.12874443 -0.125 320.75 C-0.43864502 319.83395996 -0.75229004 318.91791992 -1.07543945 317.97412109 C-1.74055451 316.00966157 -2.38797401 314.03913626 -3.01904297 312.06347656 C-4.00538027 308.9831977 -5.04595814 305.92570225 -6.09765625 302.8671875 C-26.02510158 244.02473799 -28.85451529 178.80107769 -25.125 117.25 C-25.04677002 115.94248779 -24.96854004 114.63497559 -24.88793945 113.2878418 C-24.21158226 103.78453782 -24.21158226 103.78453782 -22 100 C-5.4503999 131.51466402 4.49548657 165.53584776 8 201 C8.08050598 201.80905792 8.16101196 202.61811584 8.24395752 203.45169067 C9.0948758 213.06308635 9.19286865 222.64681673 9.26036072 232.29025459 C9.28166434 235.31268996 9.3086526 238.33502992 9.33703613 241.35740662 C9.40630469 248.85001743 9.46639769 256.34269566 9.52606201 263.83538818 C9.57701234 270.19895318 9.63178592 276.56246174 9.69187927 282.92594719 C9.71839663 285.90175064 9.73923082 288.87755976 9.7598877 291.85340881 C9.77648592 293.67123678 9.79335734 295.48906229 9.81054688 297.30688477 C9.8168235 298.54507965 9.8168235 298.54507965 9.82322693 299.80828857 C9.86227795 303.36914327 10.04319208 306.5726629 11 310 C16.28182668 311.02411727 16.28182668 311.02411727 21.4375 310.1875 C23.15043305 309.06705694 23.15043305 309.06705694 24 307 C24.10364748 304.33533831 24.14680698 301.69663195 24.14526367 299.03149414 C24.14862228 298.20650421 24.1519809 297.38151428 24.15544128 296.53152466 C24.16499188 293.78272006 24.1668985 291.03397646 24.16796875 288.28515625 C24.17118583 286.35729447 24.17455024 284.42943293 24.17805481 282.50157166 C24.18406135 278.43683307 24.18589388 274.37211576 24.18530273 270.30737305 C24.18522237 266.18883791 24.19201277 262.0704161 24.20581055 257.9519043 C24.39508953 200.61768918 19.45755965 145.79280264 -7.5 94 C-7.86222656 93.29609131 -8.22445313 92.59218262 -8.59765625 91.86694336 C-10.39296944 88.51143639 -12.09710968 85.89252628 -14.671875 83.04296875 C-19.51519241 77.6786278 -21.30263689 74.20779255 -21.0703125 67.0234375 C-20.46733957 59.61677791 -19.245372 52.32091657 -18 45 C-17.6836829 43.00354725 -17.37502304 41.00601677 -17.06729126 39.00822449 C-15.09734603 26.25000757 -12.7917392 13.60359922 -10 1 C-6.58389775 0.05685873 -3.54865136 -0.08065117 0 0 Z " fill="#CF8123" transform="translate(356,128)"/>
<path d="M0 0 C3.17490199 0.6349804 5.86108009 1.30554005 8.75 2.75 C7.0233877 7.61943468 4.46900627 11.93084693 1.875 16.375 C1.38668701 17.21401855 0.89837402 18.05303711 0.39526367 18.91748047 C-4.39685376 27.09348194 -9.43024885 35.10471707 -14.54443359 43.08203125 C-16.4208945 46.01732538 -18.2830797 48.96141635 -20.14453125 51.90625 C-26.96189327 62.66449131 -33.88224759 73.29062302 -41.31640625 83.6328125 C-44.01086839 87.38662803 -46.61036158 91.20002129 -49.20043945 95.02636719 C-54.53746266 102.91012854 -60.0258591 110.56519251 -65.91943359 118.04541016 C-67.39694026 119.9382453 -68.85045819 121.84797885 -70.30078125 123.76171875 C-83.41969814 141.07233798 -97.03579369 158.04528316 -111.765625 174.01953125 C-113.07947735 175.46352936 -114.38863872 176.91260424 -115.65527344 178.39819336 C-120.90513046 184.54579843 -126.56894546 190.25506298 -132.28222656 195.9675293 C-133.98794598 197.67543056 -135.68549027 199.39118045 -137.3828125 201.10742188 C-144.03058002 207.78886793 -150.85658373 213.89280752 -158.25 219.75 C-159.2788736 220.62363639 -160.30251433 221.50355168 -161.31640625 222.39453125 C-169.73339997 229.7050657 -178.8623095 235.76653934 -188.25 241.75 C-189.31347656 242.43320312 -190.37695312 243.11640625 -191.47265625 243.8203125 C-197.18265482 247.32328274 -203.09459663 250.13501036 -209.25 252.75 C-210.34646851 253.22336792 -210.34646851 253.22336792 -211.46508789 253.70629883 C-217.51871448 256.17749758 -217.51871448 256.17749758 -221.25 254.75 C-223.42578125 252.2734375 -223.42578125 252.2734375 -225.5625 249.125 C-226.28050781 248.10148438 -226.99851563 247.07796875 -227.73828125 246.0234375 C-229.57004566 242.05698123 -229.58799171 239.77272018 -228.25 235.75 C-226.49495655 231.3997447 -224.51730925 227.17144786 -222.5 222.9375 C-221.9740625 221.81279297 -221.448125 220.68808594 -220.90625 219.52929688 C-219.86249444 217.3061492 -218.80650738 215.08869913 -217.73779297 212.87744141 C-216.79912665 210.90430135 -215.89683829 208.9130512 -215.04736328 206.89990234 C-212.15042051 200.30698753 -208.87122616 197.43271971 -202.625 194 C-200.91167366 192.9879937 -199.20213796 191.96954736 -197.49609375 190.9453125 C-196.62452637 190.42485352 -195.75295898 189.90439453 -194.85498047 189.36816406 C-187.30950684 184.68106011 -180.30824526 179.13022519 -173.25 173.75 C-172.47205078 173.15896484 -171.69410156 172.56792969 -170.89257812 171.95898438 C-161.83895283 165.06134313 -153.01139358 157.96848332 -144.4296875 150.4921875 C-141.49231295 147.93864411 -138.47609238 145.49505733 -135.4375 143.0625 C-131.21796263 139.64108627 -127.36597191 136.01159787 -123.61328125 132.0859375 C-121.76056029 130.25465298 -119.90370432 128.59124625 -117.921875 126.91015625 C-111.72446113 121.53325318 -106.00296962 115.65161472 -100.21362305 109.84399414 C-98.19235732 107.8173702 -96.16580426 105.79614453 -94.13867188 103.77539062 C-85.65432451 95.30994151 -85.65432451 95.30994151 -77.6496582 86.39477539 C-75.31879918 83.65572127 -72.83496704 81.06011291 -70.375 78.4375 C-65.91495644 73.6435086 -61.68690447 68.72489004 -57.5859375 63.6171875 C-54.91126862 60.33423273 -52.14831592 57.13700479 -49.375 53.9375 C-45.31728071 49.24749249 -41.41728039 44.46928497 -37.625 39.5625 C-33.53295201 34.27267242 -29.20477523 29.30326889 -24.65234375 24.3984375 C-22.23244349 21.73064502 -19.95114998 18.98861973 -17.6875 16.1875 C-16.9553125 15.29289062 -16.223125 14.39828125 -15.46875 13.4765625 C-13.9506146 11.61096654 -12.45139359 9.72986236 -10.96875 7.8359375 C-4.63060601 0.13031724 -4.63060601 0.13031724 0 0 Z " fill="#CF8123" transform="translate(276.25,47.25)"/>
<path d="M0 0 C0.33 0 0.66 0 1 0 C1.13311076 6.3375513 1.10400737 12.66211931 1 19 C0.99371582 19.88768066 0.98743164 20.77536133 0.98095703 21.68994141 C0.31903357 66.43106418 -32.3340344 114.893433 -56 151 C-56.40444336 151.62181152 -56.80888672 152.24362305 -57.22558594 152.88427734 C-74.12118945 178.8545783 -93.38335685 202.15223913 -119 220 C-119.65581055 220.46277344 -120.31162109 220.92554688 -120.98730469 221.40234375 C-145.02524559 238.19678836 -171.74535525 249.28281718 -199.5625 258.0625 C-200.80612305 258.45727539 -202.04974609 258.85205078 -203.33105469 259.25878906 C-204.5018457 259.61811523 -205.67263672 259.97744141 -206.87890625 260.34765625 C-207.9160376 260.66742432 -208.95316895 260.98719238 -210.02172852 261.31665039 C-213.1490506 262.03419892 -215.80293275 262.23976584 -219 262 C-221.08203125 260.35546875 -221.08203125 260.35546875 -222.8125 258.1875 C-223.39644531 257.47980469 -223.98039062 256.77210938 -224.58203125 256.04296875 C-226 254 -226 254 -227 251 C-226.3922876 250.72438232 -225.7845752 250.44876465 -225.15844727 250.16479492 C-199.72727075 238.54506833 -177.84256736 223.58282667 -157 205 C-156.47905762 204.5369043 -155.95811523 204.07380859 -155.42138672 203.59667969 C-148.27040863 197.2047188 -141.42080864 190.51671937 -134.625 183.75 C-133.50109863 182.63310791 -133.50109863 182.63310791 -132.35449219 181.49365234 C-128.2625247 177.38982673 -124.34151251 173.19484885 -120.55908203 168.80419922 C-118.46685936 166.38303957 -116.29621284 164.03781962 -114.125 161.6875 C-109.68315691 156.8121437 -105.48445353 151.78784511 -101.34570312 146.65478516 C-99.79022923 144.74204894 -98.21653448 142.84515231 -96.640625 140.94921875 C-90.32004687 133.34054448 -84.09967611 125.70368488 -78.25927734 117.71582031 C-76.79277851 115.71765168 -75.31259262 113.72995801 -73.83203125 111.7421875 C-48.38481223 77.51064599 -24.7157806 41.90435871 -3.22998047 5.05859375 C-2.20384927 3.34117846 -1.10974155 1.66461233 0 0 Z " fill="#CF8123" transform="translate(295,65)"/>
<path d="M0 0 C-0.11682129 0.69222656 -0.23364258 1.38445312 -0.35400391 2.09765625 C-5.46789905 32.5702483 -9.53150111 63.08661948 -12.1875 93.875 C-12.25928467 94.69685791 -12.33106934 95.51871582 -12.4050293 96.36547852 C-13.81267008 113.9344129 -14.23738705 131.56832005 -14.25 149.1875 C-14.25100708 150.18569763 -14.25201416 151.18389526 -14.25305176 152.21234131 C-14.21988143 201.63320028 -10.93672478 255.17050498 6.3984375 301.8828125 C7 304 7 304 6 306 C0.10147125 300.4428652 -4.97303122 294.34551797 -10 288 C-10.80695313 286.98679687 -11.61390625 285.97359375 -12.4453125 284.9296875 C-23.314984 271.13833728 -32.5412739 256.37932787 -41 241 C-41.36029297 240.34773437 -41.72058594 239.69546875 -42.09179688 239.0234375 C-43.07378049 236.83562025 -43.45886874 234.97846856 -43.78125 232.60546875 C-43.90008545 231.74598633 -44.0189209 230.88650391 -44.14135742 230.00097656 C-44.25970947 229.0725293 -44.37806152 228.14408203 -44.5 227.1875 C-44.62673096 226.20104492 -44.75346191 225.21458984 -44.8840332 224.19824219 C-45.26797746 221.13349649 -45.63502882 218.067056 -46 215 C-46.10876465 214.14035645 -46.2175293 213.28071289 -46.32958984 212.39501953 C-50.03531261 182.41342471 -49.02261252 151.00689249 -46 121 C-45.84724609 119.47028564 -45.84724609 119.47028564 -45.69140625 117.90966797 C-44.56323072 107.18677743 -42.75982861 97.18074415 -39.3125 86.96875 C-33.57687062 69.93055684 -30.82997695 52.012178 -27.6484375 34.3671875 C-27.50751175 33.59905731 -27.366586 32.83092712 -27.22138977 32.03952026 C-26.49344093 28.01345985 -25.85115477 23.99439926 -25.32641602 19.93652344 C-25.15567062 18.70459763 -25.15567062 18.70459763 -24.98147583 17.44778442 C-24.76776672 15.88377453 -24.57461928 14.31676644 -24.4057312 12.74728394 C-23.85063042 8.80982846 -23.36930224 7.28838734 -20.18310547 4.80029297 C-17.1215743 3.47138384 -14.26129299 2.6891789 -11 2 C-9.98550781 1.6390625 -8.97101563 1.278125 -7.92578125 0.90625 C-5.06327838 0.01960025 -2.96307049 -0.07242992 0 0 Z " fill="#CF8023" transform="translate(329,133)"/>
<path d="M0 0 C6.00345239 -0.19829171 11.28484503 0.45833253 17.125 1.8125 C17.89714844 1.97814453 18.66929687 2.14378906 19.46484375 2.31445312 C25.38940073 3.65176795 30.35936448 4.82135427 34.16796875 9.87890625 C34.86256238 11.09478392 35.53429947 12.32389276 36.1875 13.5625 C36.55842773 14.2443335 36.92935547 14.92616699 37.31152344 15.62866211 C45.35360199 30.87910827 52.32434739 47.38970746 57 64 C57.26232422 64.9276416 57.52464844 65.8552832 57.79492188 66.81103516 C68.13794088 103.915752 72.22779939 140.05628913 72.1875 178.4375 C72.18656342 179.5918454 72.18562683 180.7461908 72.18466187 181.93551636 C72.12931278 213.41333241 72.12931278 213.41333241 70.38476562 228.62695312 C70.0994969 231.12776069 69.83617431 233.62606225 69.59179688 236.13085938 C67.64566859 255.75874421 64.5990225 271.96766787 54 289 C53.13488601 290.474728 52.27279631 291.95123522 51.4140625 293.4296875 C46.26695458 302.12280493 40.35316945 310.15712185 34 318 C33.37609375 318.77859375 32.7521875 319.5571875 32.109375 320.359375 C30.79543435 321.95396317 29.40729186 323.48716125 28 325 C27.34 325 26.68 325 26 325 C27.27574888 320.59192462 28.57559392 316.20398888 30.1015625 311.875 C46.69625957 264.76747284 51.70432398 210.35643821 45.35058594 160.80859375 C44.94554185 157.56372799 44.60320067 154.31424614 44.2578125 151.0625 C40.94597067 121.39008379 34.21633283 92.38802156 25 64 C24.71302246 63.11538086 24.42604492 62.23076172 24.13037109 61.31933594 C17.72253019 41.83800505 9.89118448 22.81331822 1.3984375 4.15625 C0 1 0 1 0 0 Z " fill="#CF8023" transform="translate(374,129)"/>
<path d="M0 0 C0.33 0 0.66 0 1 0 C0.46813933 7.02755152 -0.67717144 13.71264476 -2.3125 20.5625 C-2.65015381 22.0019397 -2.65015381 22.0019397 -2.99462891 23.47045898 C-3.44990915 25.41048198 -3.90722937 27.35002749 -4.36669922 29.2890625 C-4.92481031 31.67813941 -5.45674542 34.07028437 -5.97265625 36.46875 C-13.63511861 71.6687059 -28.45684172 103.56890647 -53 130 C-53.80824219 130.88945312 -53.80824219 130.88945312 -54.6328125 131.796875 C-78.27891177 156.75004508 -116.12914932 177.11342618 -150.7578125 178.23828125 C-162.50399111 178.43827086 -172.95627841 178.42394695 -184 174 C-184.94359375 173.62617188 -185.8871875 173.25234375 -186.859375 172.8671875 C-187.56578125 172.58101562 -188.2721875 172.29484375 -189 172 C-189 171.34 -189 170.68 -189 170 C-187.52466797 169.5978125 -187.52466797 169.5978125 -186.01953125 169.1875 C-104.47427218 146.3991271 -52.87705342 93.8893579 -12 22 C-7.93009049 14.70468433 -3.94616754 7.36287927 0 0 Z " fill="#CF8023" transform="translate(284,169)"/>
<path d="M0 0 C-1.05574219 1.22009766 -1.05574219 1.22009766 -2.1328125 2.46484375 C-8.46862162 9.81003155 -14.69484949 17.23529444 -20.8449707 24.73657227 C-24.9069163 29.68655911 -29.01643213 34.59202458 -33.16821289 39.46679688 C-35.99602306 42.79301708 -38.76039176 46.16344623 -41.5 49.5625 C-45.62286987 54.6311178 -49.99155716 59.42840256 -54.43359375 64.21484375 C-56.56366185 66.52647016 -58.63951758 68.8661298 -60.6875 71.25 C-63.64911853 74.67105816 -66.81612793 77.83427156 -70.0390625 81.0078125 C-71.90478806 82.90327074 -73.64659255 84.85446735 -75.375 86.875 C-81.41810305 93.88169579 -88.04420482 100.27877762 -95.0703125 106.2890625 C-97.13308521 108.11799863 -99.0659072 110.03580458 -101 112 C-104.83564672 115.88007506 -108.85336978 119.45737974 -113 123 C-114.07714468 123.92931468 -115.15393909 124.85903544 -116.23046875 125.7890625 C-126.35711282 134.52395942 -136.66409555 142.99630743 -147.1875 151.25 C-148.31043457 152.13631104 -148.31043457 152.13631104 -149.45605469 153.04052734 C-154.12950184 156.68540345 -158.90556624 159.97045709 -164 163 C-162.4497852 157.22871841 -159.53114954 152.62759799 -156.375 147.625 C-155.80450928 146.71451904 -155.23401855 145.80403809 -154.64624023 144.8659668 C-144.01675087 128.00554543 -133.07915202 111.52764208 -120.58447266 95.98583984 C-119.0688597 94.08630274 -117.58208633 92.16822399 -116.10546875 90.23828125 C-110.6373981 83.10996705 -104.86102181 76.42037202 -98.69921875 69.8828125 C-96.58940965 67.62949974 -94.55678343 65.35374686 -92.5625 63 C-85.09879386 54.38380982 -76.7842748 46.25912526 -68 39 C-67.15912842 38.29641357 -67.15912842 38.29641357 -66.30126953 37.57861328 C-57.85167837 30.51976001 -49.36278514 23.82760982 -40 18 C-39.45085937 17.65018066 -38.90171875 17.30036133 -38.3359375 16.93994141 C-7.6749488 -2.55831627 -7.6749488 -2.55831627 0 0 Z " fill="#CE8023" transform="translate(247,53)"/>
<path d="M0 0 C0.99 0.495 0.99 0.495 2 1 C1.57589844 1.4125 1.15179688 1.825 0.71484375 2.25 C-3.02966537 5.93690129 -6.5642831 9.72964943 -9.9921875 13.7109375 C-11.94321272 15.93525808 -13.9408095 18.1108969 -15.95361328 20.27929688 C-56.5288568 64.04647814 -87.09256025 118.09677812 -112 172 C-118.06392567 162.29771893 -116.0108417 143.17451001 -113.61328125 132.5078125 C-113.41089844 131.68023437 -113.20851562 130.85265625 -113 130 C-112.82855469 129.11054688 -112.65710938 128.22109375 -112.48046875 127.3046875 C-107.80090532 105.14469035 -94.28545552 84.2084795 -80 67 C-79.5575293 66.45746582 -79.11505859 65.91493164 -78.65917969 65.35595703 C-67.44471654 51.63226764 -55.07009874 38.8089534 -41 28 C-40.03320312 27.22785156 -39.06640625 26.45570312 -38.0703125 25.66015625 C-13.05320505 5.91473354 -13.05320505 5.91473354 0 0 Z " fill="#CD7F23" transform="translate(151,94)"/>
<path d="M0 0 C8.08951509 3.55938664 14.97514175 8.70795463 22 14 C22.75667969 14.56589844 23.51335937 15.13179687 24.29296875 15.71484375 C38.8964728 27.54819857 47.96467895 44.63973095 51 63 C51.36907938 67.84341049 51.38247179 72.64484056 51.3125 77.5 C51.30310394 78.4829303 51.30310394 78.4829303 51.29351807 79.48571777 C51.00863667 108.8169641 45.84315574 137.53677807 38.75 165.9375 C38.57764832 166.63171051 38.40529663 167.32592102 38.22772217 168.04116821 C35.37721667 179.43417499 35.37721667 179.43417499 33 183 C32.99453156 182.08634674 32.99453156 182.08634674 32.98895264 181.15423584 C32.59645978 121.35247106 29.55388281 59.86670966 1.69921875 5.40625 C0 2 0 2 0 0 Z " fill="#CC7F23" transform="translate(429,145)"/>
<path d="M0 0 C-0.11609619 0.68642578 -0.23219238 1.37285156 -0.35180664 2.08007812 C-1.77390462 10.54404683 -3.13461592 19.0169204 -4.4375 27.5 C-4.54605316 28.20623505 -4.65460632 28.91247009 -4.76644897 29.6401062 C-6.96663247 44.05063046 -8.60990645 58.48797733 -10 73 C-10.33 73 -10.66 73 -11 73 C-11.33 71.02 -11.66 69.04 -12 67 C-12.66 67 -13.32 67 -14 67 C-14.17873657 68.04873291 -14.17873657 68.04873291 -14.36108398 69.11865234 C-15.05704376 72.25725274 -16.07486513 75.09852229 -17.22265625 78.1015625 C-17.67487549 79.29982666 -18.12709473 80.49809082 -18.59301758 81.73266602 C-18.9526207 82.6829216 -18.9526207 82.6829216 -19.31948853 83.65237427 C-28.46885061 107.94307192 -35.39291607 132.43124465 -40 158 C-40.17934082 158.94149902 -40.35868164 159.88299805 -40.54345703 160.85302734 C-44.67811032 183.20971769 -43.27386923 206.37137893 -43 229 C-43.33 229 -43.66 229 -44 229 C-44.75834845 224.3450313 -45.40259914 219.67796946 -46 215 C-46.09603516 214.25959473 -46.19207031 213.51918945 -46.29101562 212.75634766 C-50.00090869 182.64185855 -49.03612796 151.14106665 -46 121 C-45.84724609 119.47028564 -45.84724609 119.47028564 -45.69140625 117.90966797 C-44.56323072 107.18677743 -42.75982861 97.18074415 -39.3125 86.96875 C-33.57687062 69.93055684 -30.82997695 52.012178 -27.6484375 34.3671875 C-27.50751175 33.59905731 -27.366586 32.83092712 -27.22138977 32.03952026 C-26.49344093 28.01345985 -25.85115477 23.99439926 -25.32641602 19.93652344 C-25.15567062 18.70459763 -25.15567062 18.70459763 -24.98147583 17.44778442 C-24.76776672 15.88377453 -24.57461928 14.31676644 -24.4057312 12.74728394 C-23.85063042 8.80982846 -23.36930224 7.28838734 -20.18310547 4.80029297 C-17.1215743 3.47138384 -14.26129299 2.6891789 -11 2 C-9.98550781 1.6390625 -8.97101563 1.278125 -7.92578125 0.90625 C-5.06327838 0.01960025 -2.96307049 -0.07242992 0 0 Z " fill="#BE6E0F" transform="translate(329,133)"/>
<path d="M0 0 C0.99 0.495 0.99 0.495 2 1 C-17.80931883 37.48800961 -50.0279658 64.73480047 -89 79 C-89.65484375 79.24476074 -90.3096875 79.48952148 -90.984375 79.74169922 C-111.07898718 87.18172938 -135.64966867 90.15203331 -156 82 C-157.41539062 81.43925781 -157.41539062 81.43925781 -158.859375 80.8671875 C-159.56578125 80.58101563 -160.2721875 80.29484375 -161 80 C-161 79.34 -161 78.68 -161 78 C-158.27161565 77.18479365 -155.54235583 76.37275157 -152.8125 75.5625 C-152.04357422 75.33240234 -151.27464844 75.10230469 -150.48242188 74.86523438 C-141.7360423 72.2751048 -141.7360423 72.2751048 -139 72 C-137.515 72.99 -137.515 72.99 -136 74 C-122.94978398 75.91229615 -109.5135199 73.64519724 -97 70 C-96.17532227 69.76394043 -95.35064453 69.52788086 -94.50097656 69.28466797 C-76.38025857 63.97979186 -59.24674469 56.22091884 -44 45 C-42.9584375 44.24203125 -41.916875 43.4840625 -40.84375 42.703125 C-28.81524829 33.79092719 -18.07503886 23.95128068 -9 12 C-8.3800415 11.18523193 -8.3800415 11.18523193 -7.74755859 10.35400391 C-5.14014132 6.92092084 -2.5604071 3.46835288 0 0 Z " fill="#BE6D0F" transform="translate(256,261)"/>
<path d="M0 0 C2.39150548 2.39150548 2.99100925 4.29738985 4.13671875 7.4765625 C4.54559326 8.6094873 4.95446777 9.74241211 5.37573242 10.90966797 C5.80861572 12.13572754 6.24149902 13.36178711 6.6875 14.625 C6.91031647 15.25424377 7.13313293 15.88348755 7.36270142 16.53179932 C17.96964254 46.56524553 25.68728895 77.42845172 30 109 C30.11182617 109.81807129 30.22365234 110.63614258 30.33886719 111.47900391 C32.54751838 128.04388784 33.23552666 144.55528625 33.25 161.25 C33.25133942 162.1700885 33.25267883 163.090177 33.25405884 164.03814697 C33.24948414 178.60366943 32.51806302 192.80236611 30.39697266 207.23339844 C30.03299233 209.77006822 29.729238 212.30449476 29.44921875 214.8515625 C27.42894755 231.89381495 22.44630472 248.46404078 18 265 C17.67 265 17.34 265 17 265 C17.60038505 255.81391693 18.62976337 246.74380083 19.875 237.625 C21.98421393 221.78442214 23.62434568 205.922423 25 190 C25.10586426 188.8126123 25.21172852 187.62522461 25.32080078 186.40185547 C28.81458811 146.36449233 26.32410122 110.04208381 17 71 C16.52015191 68.95719119 16.04093345 66.91423433 15.5625 64.87109375 C13.26971187 55.14872761 10.86860595 45.45417475 8.4375 35.765625 C8.09903801 34.41596901 8.09903801 34.41596901 7.7537384 33.03904724 C6.61940078 28.51792207 5.48177164 23.99766533 4.33862305 19.47875977 C3.91710899 17.80486183 3.49563894 16.13095282 3.07421875 14.45703125 C2.87969116 13.69243591 2.68516357 12.92784058 2.48474121 12.14007568 C1.4726239 8.11019084 0.61655608 4.11430272 0 0 Z " fill="#9E5B0D" transform="translate(373,168)"/>
<path d="M0 0 C0 4.33203593 -2.41079787 7.02396784 -4.7578125 10.5 C-5.25269165 11.2437236 -5.7475708 11.9874472 -6.25744629 12.75370789 C-7.87218623 15.17444837 -9.49778234 17.58763241 -11.125 20 C-11.67532898 20.8198941 -12.22565796 21.63978821 -12.79266357 22.48452759 C-39.17347057 61.78380082 -66.09709707 92.87469766 -106.13647461 118.54785156 C-110.85620272 121.57699522 -115.4654571 124.69938767 -120 128 C-120.66 127.67 -121.32 127.34 -122 127 C-120.58460937 125.78376953 -120.58460937 125.78376953 -119.140625 124.54296875 C-112.0175017 118.40598053 -104.96101611 112.21948077 -98.06420898 105.828125 C-96.15640456 104.06263491 -94.23853787 102.31132469 -92.31054688 100.56762695 C-84.83550004 93.79845462 -77.63424263 86.78947135 -70.51635742 79.64672852 C-68.67545292 77.80041754 -66.82919728 75.95957727 -64.98242188 74.11914062 C-59.63808119 68.77780712 -54.34399051 63.44665635 -49.44360352 57.6887207 C-47.09312448 54.93914122 -44.59919762 52.32528437 -42.125 49.6875 C-37.66495644 44.8935086 -33.43690447 39.97489004 -29.3359375 34.8671875 C-26.66126923 31.58423347 -23.89833283 28.38698987 -21.125 25.1875 C-16.45912291 19.79500664 -11.99164803 14.27693746 -7.65283203 8.61791992 C-5.27319749 5.53221499 -2.82745946 2.68346847 0 0 Z " fill="#A05C0D" transform="translate(248,76)"/>
<path d="M0 0 C3.36591427 2.72478774 4.44226276 6.06856792 6 10 C5.34 10 4.68 10 4 10 C3.97667209 20.65863293 3.95898188 31.31725964 3.94818783 41.97591305 C3.94300325 46.92690378 3.93598755 51.87787685 3.92456055 56.82885742 C3.91357243 61.62050611 3.90768999 66.41213797 3.90512276 71.20379829 C3.90329684 73.01791206 3.89973252 74.83202506 3.89426994 76.64613152 C3.84937701 92.19514492 4.38058231 107.58745626 6.36669922 123.02734375 C6.85167109 126.83121525 7.32890807 130.63594551 7.80126953 134.44140625 C8.71549971 141.79504953 9.63846973 149.14758264 10.5625 156.5 C11.18952691 161.4894927 11.81571394 166.47908978 12.44140625 171.46875 C12.58308731 172.59390015 12.72476837 173.71905029 12.8707428 174.8782959 C13.62759691 180.9144178 14.34490223 186.95196576 15 193 C-13.8382605 149.74260925 -6.48015695 52.5063687 -1 4 C-0.69655153 2.65954936 -0.37531084 1.32213111 0 0 Z " fill="#9D5B0D" transform="translate(333,228)"/>
<path d="M0 0 C2.2507138 2.2507138 2.86997795 3.8851618 3.98828125 6.84765625 C4.36235107 7.83628662 4.7364209 8.82491699 5.12182617 9.84350586 C5.51474854 10.90577393 5.9076709 11.96804199 6.3125 13.0625 C6.71766846 14.15506104 7.12283691 15.24762207 7.5402832 16.37329102 C15.77173105 38.83274779 21.73224196 62.29490781 25 86 C25.09764648 86.69996094 25.19529297 87.39992188 25.29589844 88.12109375 C28.0159996 108.08681947 28.13582637 128.00590564 28.0625 148.125 C28.05747132 150.54817615 28.05291085 152.97135332 28.04882812 155.39453125 C28.03793935 161.2630435 28.0213113 167.13151681 28 173 C27.34 173 26.68 173 26 173 C25.97421875 171.83855469 25.9484375 170.67710937 25.921875 169.48046875 C25.11694466 142.39362683 23.28010919 114.55196207 17.62451172 88.01757812 C16.8608272 84.32753095 16.16559424 80.62568247 15.47265625 76.921875 C12.09937252 58.98433933 8.33374709 41.17024205 4.17428589 23.39857483 C0 5.54932622 0 5.54932622 0 0 Z " fill="#A05C0D" transform="translate(418,161)"/>
<path d="M0 0 C1 3 1 3 -0.265625 6.08984375 C-0.9156169 7.37824489 -1.57809824 8.66038803 -2.25 9.9375 C-2.60771484 10.63262695 -2.96542969 11.32775391 -3.33398438 12.04394531 C-4.54098234 14.37084886 -5.76770118 16.68640104 -7 19 C-7.44021484 19.82967285 -7.88042969 20.6593457 -8.33398438 21.51416016 C-28.62903132 59.57823002 -54.46039887 86.69557364 -92 108 C-92.67434082 108.38768555 -93.34868164 108.77537109 -94.04345703 109.17480469 C-96.08294081 110.34090616 -98.13254414 111.48642304 -100.1875 112.625 C-100.81156738 112.98045898 -101.43563477 113.33591797 -102.07861328 113.70214844 C-106.49878247 116.09504025 -106.49878247 116.09504025 -109.1965332 115.58349609 C-110.08924927 115.29466553 -110.08924927 115.29466553 -111 115 C-109.34677734 114.12601563 -109.34677734 114.12601563 -107.66015625 113.234375 C-63.82156649 89.69043631 -33.91047696 54.71414654 -8 13 C-7.54093262 12.26120605 -7.08186523 11.52241211 -6.60888672 10.76123047 C-4.39026758 7.18361108 -2.1858237 3.59778435 0 0 Z " fill="#9F5C0D" transform="translate(267,200)"/>
<path d="M0 0 C0.495 0.99 0.495 0.99 1 2 C0.14233398 3.83740234 0.14233398 3.83740234 -1.25390625 6.0859375 C-1.77170654 6.92447266 -2.28950684 7.76300781 -2.82299805 8.62695312 C-3.39703369 9.53380859 -3.97106934 10.44066406 -4.5625 11.375 C-5.14878174 12.31021484 -5.73506348 13.24542969 -6.33911133 14.20898438 C-15.48301629 28.65681512 -25.34969744 42.62351078 -36 56 C-37.10214844 57.3921875 -37.10214844 57.3921875 -38.2265625 58.8125 C-43.42560701 65.27915607 -48.94124589 71.41324287 -54.59375 77.48046875 C-55.93914471 78.93424248 -57.26690319 80.40427823 -58.59375 81.875 C-68.63867497 92.9906014 -79.36347424 103.45575589 -90 114 C-90.66 113.67 -91.32 113.34 -92 113 C-90.60587891 111.62328125 -90.60587891 111.62328125 -89.18359375 110.21875 C-80.68650386 101.83557498 -80.68650386 101.83557498 -72.6953125 92.9765625 C-70.5637683 90.49139806 -68.34316401 88.09559854 -66.125 85.6875 C-61.68315691 80.8121437 -57.48445353 75.78784511 -53.34570312 70.65478516 C-51.79022923 68.74204894 -50.21653448 66.84515231 -48.640625 64.94921875 C-42.32004687 57.34054448 -36.09967611 49.70368488 -30.25927734 41.71582031 C-28.79277851 39.71765168 -27.31259262 37.72995801 -25.83203125 35.7421875 C-18.84980938 26.34603031 -12.02965981 16.85152864 -5.35473633 7.234375 C-4.79810303 6.43257812 -4.24146973 5.63078125 -3.66796875 4.8046875 C-3.17578857 4.09296387 -2.6836084 3.38124023 -2.17651367 2.64794922 C-1 1 -1 1 0 0 Z " fill="#9E5C0D" transform="translate(247,141)"/>
<path d="M0 0 C0.33 0 0.66 0 1 0 C0.67 12.54 0.34 25.08 0 38 C-2.51397534 34.22903699 -3.70348578 30.40314566 -5.125 26.125 C-5.40214844 25.32191406 -5.67929687 24.51882813 -5.96484375 23.69140625 C-8.64414294 15.67990571 -8.64414294 15.67990571 -8 12 C-6.50390625 9.39453125 -6.50390625 9.39453125 -4.5625 6.8125 C-2.07297627 3.53383686 -2.07297627 3.53383686 0 0 Z " fill="#BC6C0F" transform="translate(265,280)"/>
<path d="M0 0 C0.66 0 1.32 0 2 0 C5.93272052 9.20180238 9.18153721 18.1070196 11 28 C11.13148438 28.70253906 11.26296875 29.40507812 11.3984375 30.12890625 C12.36181697 36.3648355 12.08630415 42.70938646 12 49 C11.67 49 11.34 49 11 49 C10.79697266 47.52080078 10.79697266 47.52080078 10.58984375 46.01171875 C8.61647703 32.63312397 5.23194817 19.69155646 1.70849609 6.64697266 C1.11671642 4.4360577 0.54654582 2.22244387 0 0 Z " fill="#A05D0E" transform="translate(366,263)"/>
<path d="M0 0 C2.06859136 1.57367604 4.04999882 3.21590046 6.02734375 4.90234375 C8.61101256 6.90600527 11.05773242 8.52359563 14.02734375 9.90234375 C5.11567183 12.75407877 5.11567183 12.75407877 1.02734375 11.90234375 C-2.55055813 8.7228062 -5.45062969 5.46842343 -6.97265625 0.90234375 C-4.355357 -0.89704948 -2.87413254 -1.59926979 0 0 Z " fill="#BB6C10" transform="translate(74.97265625,315.09765625)"/>
<path d="M0 0 C2.38871839 3.17744617 4.76572714 6.36311707 7.125 9.5625 C7.82882813 10.51253906 8.53265625 11.46257812 9.2578125 12.44140625 C11 15 11 15 12 18 C10.265625 17.859375 10.265625 17.859375 8 17 C5.859375 14.453125 5.859375 14.453125 3.75 11.25 C3.04359375 10.20328125 2.3371875 9.1565625 1.609375 8.078125 C-0.0058851 4.98874403 -0.37896029 3.41064263 0 0 Z " fill="#B86A10" transform="translate(47,285)"/>
<path d="M0 0 C0.33 0 0.66 0 1 0 C0.67 10.23 0.34 20.46 0 31 C-3 28 -3 28 -3.06518555 25.08911133 C-2.9237915 23.9317749 -2.78239746 22.77443848 -2.63671875 21.58203125 C-2.49169922 20.32841797 -2.34667969 19.07480469 -2.19726562 17.78320312 C-2.02769766 16.45959003 -1.85777117 15.13602282 -1.6875 13.8125 C-1.52779198 12.4773927 -1.3695709 11.14210663 -1.21289062 9.80664062 C-0.82321228 6.53570421 -0.4183427 3.2673735 0 0 Z " fill="#97580E" transform="translate(338,173)"/>
<path d="M0 0 C0 0.33 0 0.66 0 1 C-0.886875 1.144375 -1.77375 1.28875 -2.6875 1.4375 C-7.47515446 3.69582757 -8.83084926 7.3353661 -11 12 C-12.31625194 9.36749612 -11.74813658 8.19820944 -11.0625 5.375 C-10.86785156 4.55773437 -10.67320312 3.74046875 -10.47265625 2.8984375 C-10.23869141 1.95871094 -10.23869141 1.95871094 -10 1 C-6.58389775 0.05685873 -3.54865136 -0.08065117 0 0 Z " fill="#AD6510" transform="translate(356,128)"/>
<path d="M0 0 C0.66 0 1.32 0 2 0 C5.05498079 5.78217394 6.64451156 9.5589964 5 16 C3.15209462 12.68983906 2.25458513 9.42826509 1.375 5.75 C0.98441406 4.13351562 0.98441406 4.13351562 0.5859375 2.484375 C0.39257812 1.66453125 0.19921875 0.8446875 0 0 Z " fill="#95560D" transform="translate(366,263)"/>
<path d="M0 0 C0.33 0 0.66 0 1 0 C0.67 3.3 0.34 6.6 0 10 C-0.99 9.34 -1.98 8.68 -3 8 C-1.125 2.25 -1.125 2.25 0 0 Z " fill="#B06D1E" transform="translate(284,169)"/>
</svg>
