<?xml version="1.0" encoding="UTF-8"?>
<svg version="1.1" xmlns="http://www.w3.org/2000/svg" width="512" height="512">
<path d="M0 0 C0.82516113 0.01208496 1.65032227 0.02416992 2.50048828 0.03662109 C38.444263 1.13186077 77.68581863 13.09283475 103 39.6875 C111.70707816 49.91429406 117.44253841 62.5818139 120.8125 75.5 C121.19019531 74.98953125 121.56789063 74.4790625 121.95703125 73.953125 C135.54050791 56.0114837 159.39358628 29.82490745 182.8125 25.5 C191.02465528 24.62115531 198.09674059 26.10068585 204.85546875 30.97265625 C210.27449075 35.86017502 213.10759455 41.82727622 214.19140625 49.01171875 C214.55260921 56.43385694 212.25518237 62.82140197 208.17578125 68.96484375 C205.07847157 72.28741232 201.60776193 74.39657051 197.75 76.75 C190.66379957 81.21474193 184.05259132 85.88391781 177.8125 91.5 C176.91273438 92.30566406 176.01296875 93.11132812 175.0859375 93.94140625 C160.25110904 107.96136385 151.15541157 125.70157253 143.8125 144.5 C144.58102295 144.08226318 145.3495459 143.66452637 146.14135742 143.23413086 C181.09122085 124.36209001 215.96739301 112.68053621 255.7734375 123.53125 C285.52028206 132.76087892 307.31675093 152.2708055 321.89404297 179.70605469 C348.66566839 231.99683182 347.51880252 298.75673803 330.35131836 353.69873047 C320.52785075 383.85933966 304.77902065 412.87242072 284.8125 437.5 C283.70648438 438.89412109 283.70648438 438.89412109 282.578125 440.31640625 C268.80519157 457.48373285 253.29268081 474.23214441 235.4921875 487.26464844 C233.81073463 488.50129837 232.15512436 489.76746636 230.5 491.0390625 C221.23757521 498.03778842 211.29727499 503.54399664 200.8125 508.5 C199.77222656 509.00015625 198.73195313 509.5003125 197.66015625 510.015625 C183.88255883 515.38302921 163.86133479 514.75839072 150.01171875 509.91015625 C144.77189723 507.60054017 139.65687754 505.09049265 134.6015625 502.40234375 C122.34135427 496.01387661 109.45204699 494.65410836 96.08203125 498.31640625 C91.4173519 500.00505361 87.08470299 502.22243659 82.68920898 504.51000977 C65.65128867 513.36479873 44.31811621 516.42993433 25.6875 510.5625 C23.36447395 509.61519499 21.07196706 508.59025017 18.8125 507.5 C17.80533936 507.02530273 17.80533936 507.02530273 16.77783203 506.54101562 C2.01968158 499.49895338 -10.78661972 490.09677059 -23.1875 479.5 C-23.93644531 478.86320312 -24.68539062 478.22640625 -25.45703125 477.5703125 C-37.97368719 466.61024239 -50.098873 454.74749259 -60.1875 441.5 C-60.98027344 440.50097656 -61.77304688 439.50195312 -62.58984375 438.47265625 C-106.664465 382.72795696 -126.63110133 315.00559319 -118.55126953 244.38232422 C-113.59038116 205.07477515 -100.60225894 166.66173384 -68.85253906 140.76757812 C-53.48096122 129.06534467 -36.05712063 123.39520424 -17.1875 120.5 C-17.51363281 119.79617187 -17.83976562 119.09234375 -18.17578125 118.3671875 C-32.90982543 85.07433251 -26.5194173 45.32629874 -15.125 11.9375 C-14.89192139 11.24108398 -14.65884277 10.54466797 -14.41870117 9.82714844 C-11.52771753 1.79296149 -8.3802902 -0.20006921 0 0 Z " fill="#F34235" transform="translate(145.1875,-0.49999999999999994)"/>
<path d="M0 0 C0.82516113 0.01208496 1.65032227 0.02416992 2.50048828 0.03662109 C38.444263 1.13186077 77.68581863 13.09283475 103 39.6875 C111.70707816 49.91429406 117.44253841 62.5818139 120.8125 75.5 C121.19019531 74.98953125 121.56789063 74.4790625 121.95703125 73.953125 C135.54050791 56.0114837 159.39358628 29.82490745 182.8125 25.5 C191.02465528 24.62115531 198.09674059 26.10068585 204.85546875 30.97265625 C210.27449075 35.86017502 213.10759455 41.82727622 214.19140625 49.01171875 C214.55260921 56.43385694 212.25518237 62.82140197 208.17578125 68.96484375 C205.07847157 72.28741232 201.60776193 74.39657051 197.75 76.75 C190.66379957 81.21474193 184.05259132 85.88391781 177.8125 91.5 C176.91273438 92.30566406 176.01296875 93.11132812 175.0859375 93.94140625 C160.25110904 107.96136385 151.15541157 125.70157253 143.8125 144.5 C144.58102295 144.08226318 145.3495459 143.66452637 146.14135742 143.23413086 C181.09122085 124.36209001 215.96739301 112.68053621 255.7734375 123.53125 C285.52028206 132.76087892 307.31675093 152.2708055 321.89404297 179.70605469 C348.66566839 231.99683182 347.51880252 298.75673803 330.35131836 353.69873047 C320.52785075 383.85933966 304.77902065 412.87242072 284.8125 437.5 C283.70648438 438.89412109 283.70648438 438.89412109 282.578125 440.31640625 C268.80519157 457.48373285 253.29268081 474.23214441 235.4921875 487.26464844 C233.81073463 488.50129837 232.15512436 489.76746636 230.5 491.0390625 C221.23757521 498.03778842 211.29727499 503.54399664 200.8125 508.5 C199.77222656 509.00015625 198.73195313 509.5003125 197.66015625 510.015625 C183.88255883 515.38302921 163.86133479 514.75839072 150.01171875 509.91015625 C144.77189723 507.60054017 139.65687754 505.09049265 134.6015625 502.40234375 C122.34135427 496.01387661 109.45204699 494.65410836 96.08203125 498.31640625 C91.4173519 500.00505361 87.08470299 502.22243659 82.68920898 504.51000977 C65.65128867 513.36479873 44.31811621 516.42993433 25.6875 510.5625 C23.36447395 509.61519499 21.07196706 508.59025017 18.8125 507.5 C17.80533936 507.02530273 17.80533936 507.02530273 16.77783203 506.54101562 C2.01968158 499.49895338 -10.78661972 490.09677059 -23.1875 479.5 C-23.93644531 478.86320312 -24.68539062 478.22640625 -25.45703125 477.5703125 C-37.97368719 466.61024239 -50.098873 454.74749259 -60.1875 441.5 C-60.98027344 440.50097656 -61.77304688 439.50195312 -62.58984375 438.47265625 C-106.664465 382.72795696 -126.63110133 315.00559319 -118.55126953 244.38232422 C-113.59038116 205.07477515 -100.60225894 166.66173384 -68.85253906 140.76757812 C-53.48096122 129.06534467 -36.05712063 123.39520424 -17.1875 120.5 C-17.51363281 119.79617187 -17.83976562 119.09234375 -18.17578125 118.3671875 C-32.90982543 85.07433251 -26.5194173 45.32629874 -15.125 11.9375 C-14.89192139 11.24108398 -14.65884277 10.54466797 -14.41870117 9.82714844 C-11.52771753 1.79296149 -8.3802902 -0.20006921 0 0 Z M-66.1875 162.5 C-66.80238281 163.04011719 -67.41726562 163.58023438 -68.05078125 164.13671875 C-86.5634378 181.03217771 -94.40718125 208.818191 -99.1875 232.5 C-99.35556152 233.32419434 -99.52362305 234.14838867 -99.69677734 234.99755859 C-102.37617693 248.93876619 -102.49717557 262.97929217 -102.5625 277.125 C-102.57044586 278.0249469 -102.57839172 278.9248938 -102.58657837 279.85211182 C-102.67775638 293.30753481 -101.45529604 306.24090763 -99.1875 319.5 C-99.0630098 320.22891953 -98.93851959 320.95783905 -98.81025696 321.70884705 C-91.76094737 362.34827673 -71.0603579 400.78621075 -45.1875 432.5 C-44.76388184 433.02513184 -44.34026367 433.55026367 -43.90380859 434.09130859 C-31.13597763 449.83189198 -16.7435553 464.74033825 -0.1875 476.5 C0.708479 477.14654541 0.708479 477.14654541 1.62255859 477.80615234 C18.70886865 490.04273444 35.42742881 497.50851943 56.8125 495.5 C65.75207638 493.945202 74.02880797 489.68512847 81.92089844 485.35546875 C90.97614782 480.50427109 100.05623429 478.97409557 110.25 479.125 C111.2613501 479.13660156 112.2727002 479.14820313 113.31469727 479.16015625 C125.84358315 479.43482837 135.10707041 482.78123036 146.05078125 488.5625 C158.90527252 495.29257415 174.82545724 498.63028516 189.07421875 494.3671875 C193.09827612 492.98588658 196.96738549 491.31562971 200.8125 489.5 C201.78703125 489.04367187 202.7615625 488.58734375 203.765625 488.1171875 C228.45494421 475.48376393 251.30974483 453.48267769 267.8125 431.5 C268.72269224 430.34015115 269.63425582 429.1813777 270.546875 428.0234375 C287.65652153 406.06184358 301.26667925 381.63298872 310.8125 355.5 C311.12848145 354.63584473 311.44446289 353.77168945 311.77001953 352.88134766 C315.10260987 343.63516031 318.06063296 334.36607724 320.125 324.75 C320.34591309 323.72604126 320.34591309 323.72604126 320.57128906 322.68139648 C323.55269478 307.64345138 324.18776736 292.66153849 324.125 277.375 C324.12284485 276.42845551 324.1206897 275.48191101 324.11846924 274.50668335 C324.01674656 246.63966688 320.58059402 219.07638524 308.8125 193.5 C308.27882813 192.31277344 307.74515625 191.12554687 307.1953125 189.90234375 C296.33069543 166.89639193 278.84155496 150.45831035 255.08984375 141.7890625 C244.77690398 138.5372232 235.12569153 137.03195927 224.3125 137.1875 C223.19230469 137.18427734 222.07210938 137.18105469 220.91796875 137.17773438 C199.67159132 137.31251532 181.34478833 143.77201829 163.2890625 154.58203125 C150.27706411 162.36838727 136.75074831 166.92380085 121.8125 169.5 C120.70003906 169.69335938 119.58757812 169.88671875 118.44140625 170.0859375 C94.30720885 172.839678 72.2109047 163.42661262 52.09082031 151.08935547 C45.02036986 146.84278403 37.61652493 144.08677646 29.8125 141.5 C28.875271 141.16887207 27.93804199 140.83774414 26.97241211 140.49658203 C-5.87911876 130.13577318 -41.72143183 139.1287989 -66.1875 162.5 Z " fill="#010000" transform="translate(145.1875,-0.49999999999999994)"/>
<path d="M0 0 C28.75816462 -0.96728626 62.66610444 9.80585569 84.1171875 29.171875 C88.13895692 32.99294692 91.22739255 37.20331273 94 42 C94.45761719 42.78890625 94.91523438 43.5778125 95.38671875 44.390625 C101.75845447 56.25391673 105.77343768 70.50135449 104 84 C102.83296616 87.05091042 101.49779499 89.91696681 99.99780273 92.81640625 C97.08752578 98.51007762 95.03532935 104.36096054 93.0625 110.4375 C92.75626709 111.38044922 92.45003418 112.32339844 92.13452148 113.29492188 C91.41579284 115.5277529 90.70382602 117.76243459 90 120 C89.34 120 88.68 120 88 120 C87.6596875 118.76507813 87.319375 117.53015625 86.96875 116.2578125 C79.56579174 90.10554884 67.60965653 66.09926915 48.953125 46.10546875 C47.35939276 44.38742539 45.88541074 42.65134665 44.4375 40.8125 C41.25789547 37.14372554 37.74422411 34.07842517 34 31 C33.39800781 30.48695312 32.79601562 29.97390625 32.17578125 29.4453125 C29.09972882 26.99829551 27.27893749 26.04727754 23.3125 25.375 C19.90257971 25.74261481 19.90257971 25.74261481 17.5 28.0625 C15.50382058 31.97168471 15.89313102 33.77866163 17 38 C18.95060191 40.22715783 20.69198107 41.94944569 22.9375 43.8125 C24.13273085 44.86319664 25.32672913 45.91529695 26.51953125 46.96875 C27.1120166 47.48308594 27.70450195 47.99742188 28.31494141 48.52734375 C49.7330549 67.24569504 65.01532652 94.53142832 72 122 C72 122.99 72 123.98 72 125 C66.22621894 123.37879054 61.29011037 120.54419758 56.0625 117.6875 C47.52843382 113.13526107 39.37284935 109.5146669 30 107 C29.30922363 106.81356934 28.61844727 106.62713867 27.90673828 106.43505859 C20.59220276 104.49400032 13.98788187 102.87789023 6.375 103.125 C3.5234375 102.94921875 3.5234375 102.94921875 1 102 C-2.49661706 97.75955713 -4.22982315 93.11820255 -6 88 C-6.43183594 86.89011719 -6.86367187 85.78023438 -7.30859375 84.63671875 C-15.77852981 58.28906299 -9.80307091 25.0330665 0 0 Z " fill="#A2C200" transform="translate(147,18)"/>
<path d="M0 0 C20.14761808 3.69372998 37.6638282 15.87210438 49.5703125 32.453125 C60.38088325 48.37589653 66.9426033 65.64089143 71.1875 84.3125 C71.43765869 85.40264404 71.68781738 86.49278809 71.94555664 87.6159668 C75.48077058 103.81295747 76.37700578 119.66115662 76.3125 136.1875 C76.31100952 137.1336618 76.30951904 138.07982361 76.3079834 139.05465698 C76.2687171 152.9222548 75.73105703 166.36896397 73 180 C72.75220443 181.43850997 72.50609338 182.87731118 72.26171875 184.31640625 C65.75064207 219.87907553 47.69292421 254.37680618 26 283 C25.56864746 283.57411621 25.13729492 284.14823242 24.69287109 284.73974609 C17.96446752 293.65445094 10.7379598 301.95234227 3 310 C2.40058594 310.63196289 1.80117188 311.26392578 1.18359375 311.91503906 C-15.59844167 329.54996027 -38.22610616 350.19239288 -63 355 C-65.25390625 354.5703125 -65.25390625 354.5703125 -67 354 C-66.36835938 353.68289063 -65.73671875 353.36578125 -65.0859375 353.0390625 C-39.86996909 339.88606457 -17.09056679 318.50200878 0 296 C0.75667969 295.06027344 1.51335937 294.12054688 2.29296875 293.15234375 C18.84385518 272.33874889 32.46294101 248.94120731 42.14599609 224.18017578 C42.96062521 222.10051941 43.80023042 220.03259196 44.64453125 217.96484375 C48.81070158 207.56757681 51.6925844 196.95201781 54 186 C54.19899902 185.07058594 54.39799805 184.14117187 54.60302734 183.18359375 C61.99816472 147.18302329 60.30390541 105.22388891 50 70 C49.80680176 69.31599121 49.61360352 68.63198242 49.41455078 67.92724609 C41.91934428 41.77472109 27.10757888 19.70968356 5 4 C3.32441358 2.67789346 1.65486024 1.34795888 0 0 Z " fill="#C61E1D" transform="translate(393,140)"/>
<path d="M0 0 C1.26457031 -0.03738281 2.52914062 -0.07476562 3.83203125 -0.11328125 C7.1875 0.3125 7.1875 0.3125 9.60546875 2.08203125 C11.72839166 5.07509046 11.75839642 6.84821632 11.5859375 10.41015625 C10.97854423 13.31016139 9.52250208 14.59558671 7.1875 16.3125 C4.28957483 17.76146259 1.60674111 17.50851088 -1.625 17.625 C-16.5507167 18.45331004 -30.68760887 23.97742532 -41.0078125 35.08984375 C-58.16807126 56.22444815 -63.32140493 85.24740775 -64.015625 111.84375 C-64.04640137 112.96612061 -64.07717773 114.08849121 -64.10888672 115.24487305 C-64.16045451 117.46212784 -64.1939529 119.67989219 -64.20751953 121.89770508 C-64.37142572 129.58247706 -64.37142572 129.58247706 -66.7265625 133.48046875 C-69.21843532 135.66902372 -70.32703033 136.24777071 -73.625 136.6875 C-76.8125 136.3125 -76.8125 136.3125 -79.48046875 134.5546875 C-83.04090379 129.60466893 -82.47180506 125.00933294 -82.3125 119.0625 C-82.2933252 117.86463867 -82.27415039 116.66677734 -82.25439453 115.43261719 C-81.40841786 80.65154398 -74.91063002 43.4608563 -48.8125 18.3125 C-34.30762113 5.74296311 -18.8822731 0.47797461 0 0 Z " fill="#F4F2F2" transform="translate(141.8125,153.6875)"/>
<path d="M0 0 C2.9375 1.5 2.9375 1.5 5 4 C5.65701402 7.39457243 5.93583781 8.83539057 5 12 C1.17784271 17.19090281 -5.6009911 20.39853767 -10.890625 23.87890625 C-41.05400902 44.45518454 -58.91017311 75.15566359 -68 110 C-73.61 110 -79.22 110 -85 110 C-81.40032911 81.2026329 -67.67215207 54.23792258 -47.953125 33.10546875 C-46.35939276 31.38742539 -44.88541074 29.65134665 -43.4375 27.8125 C-35.06500012 18.15192321 -23.84719425 10.28026232 -13.125 3.375 C-12.11695313 2.72273438 -11.10890625 2.07046875 -10.0703125 1.3984375 C-6.43851668 -0.25573922 -3.9507143 -0.36468132 0 0 Z " fill="#9D502C" transform="translate(336,43)"/>
<path d="M0 0 C20.56911069 5.95815579 40.89778443 15.79286122 52 35 C52.45761719 35.78890625 52.91523438 36.5778125 53.38671875 37.390625 C59.75845447 49.25391673 63.77343768 63.50135449 62 77 C60.83296616 80.05091042 59.49779499 82.91696681 57.99780273 85.81640625 C55.08752578 91.51007762 53.03532935 97.36096054 51.0625 103.4375 C50.75626709 104.38044922 50.45003418 105.32339844 50.13452148 106.29492188 C49.41579284 108.5277529 48.70382602 110.76243459 48 113 C47.34 113 46.68 113 46 113 C45.01931786 109.75045534 44.04071988 106.50028665 43.0625 103.25 C42.78470703 102.32960938 42.50691406 101.40921875 42.22070312 100.4609375 C41.95322266 99.57148437 41.68574219 98.68203125 41.41015625 97.765625 C41.04096069 96.54020996 41.04096069 96.54020996 40.66430664 95.29003906 C40.44508545 94.53432617 40.22586426 93.77861328 40 93 C39.67805664 91.92709717 39.67805664 91.92709717 39.34960938 90.83251953 C38.83283502 88.12378467 39.99356521 86.91807801 41.4375 84.625 C47.03601854 73.9737795 43.95860313 61.11251337 41 50 C35.02349125 31.28632188 24.46787041 15.27840713 7.078125 5.328125 C4.74114049 4.15303109 2.40117971 3.03651792 0 2 C0 1.34 0 0.68 0 0 Z " fill="#8DA900" transform="translate(189,25)"/>
</svg>
