<?xml version="1.0" encoding="UTF-8"?>
<svg version="1.1" xmlns="http://www.w3.org/2000/svg" width="512" height="512">
<path d="M0 0 C35.35583813 0.46354496 74.73338888 10.23481864 100.1875 36.234375 C113.06010691 51.21889398 117.75128937 69.79719477 120 89 C120.94359375 87.54980469 120.94359375 87.54980469 121.90625 86.0703125 C126.92687074 78.40861036 132.01909846 70.95737526 138 64 C138.80824219 63.05769531 139.61648438 62.11539063 140.44921875 61.14453125 C152.1748131 47.7759155 170.8854325 28.51293543 189.1953125 25.46875 C195.27119911 25.53355946 199.33322695 25.68323493 204 30 C207.83549333 34.35380324 209.18493105 36.84982796 209.375 42.625 C209.42398437 43.62789062 209.47296875 44.63078125 209.5234375 45.6640625 C208.70201098 50.89912408 206.36851493 55.04584301 202.25 58.44384766 C200.31191606 59.72135795 198.34163015 60.87310508 196.3125 62 C194.8799479 62.84411556 193.45025101 63.69309528 192.0234375 64.546875 C191.3334668 64.95873047 190.64349609 65.37058594 189.93261719 65.79492188 C185.64334068 68.46948843 181.8376471 71.72797626 178 75 C177.3915625 75.47566406 176.783125 75.95132813 176.15625 76.44140625 C170.58674216 80.88435455 166.34879248 86.3947225 162 92 C161.31679688 92.86753906 160.63359375 93.73507813 159.9296875 94.62890625 C151.78089329 105.35016294 146.24983655 116.72866703 141.625 129.3125 C141.12419922 130.67242065 141.12419922 130.67242065 140.61328125 132.05981445 C138.51972632 137.96732246 137.0570015 143.82361562 136 150 C146.75508705 146.59563386 156.56164341 141.75574577 166.5 136.5 C185.91517762 126.2651531 203.88213274 119.38790381 226.25 119.5625 C226.92432068 119.56520905 227.59864136 119.56791809 228.293396 119.57070923 C257.14295737 119.74589864 281.43885559 129.9030525 301.74536133 150.45141602 C331.42423433 181.30226588 337.46959503 229.08102148 337.375 270 C337.37412384 270.9354364 337.37324768 271.8708728 337.37234497 272.83465576 C337.17856325 335.8921654 310.25730161 394.4277524 268.125 440.65625 C266.17505276 442.80692711 264.26973871 444.98824971 262.375 447.1875 C244.2859652 467.89632605 213.99526279 494.13666838 185.33203125 496.2734375 C167.35153101 496.93790536 152.24525778 491.91723795 136.4921875 483.5859375 C124.87506949 478.3101546 108.82339979 477.85327648 96.6875 481.81640625 C92.57905531 483.62579396 88.68546743 485.81883177 84.77197266 488.01000977 C76.28965091 492.65878793 66.7028601 495.58816383 57 496 C55.22689453 496.09474609 55.22689453 496.09474609 53.41796875 496.19140625 C26.03288239 497.21477517 2.55121651 479.47439171 -17 462 C-17.53189941 461.52981445 -18.06379883 461.05962891 -18.61181641 460.57519531 C-31.78641016 448.89169188 -43.45315301 436.09314924 -54 422 C-54.61174072 421.18958252 -54.61174072 421.18958252 -55.23583984 420.36279297 C-63.22367441 409.71984719 -70.19915751 398.42788924 -77 387 C-77.39461426 386.33919434 -77.78922852 385.67838867 -78.19580078 384.99755859 C-95.98172708 354.76887074 -107.00828694 316.95655502 -107.203125 281.8125 C-107.21013931 280.96044983 -107.21715363 280.10839966 -107.22438049 279.23052979 C-107.24181721 276.48696561 -107.24823537 273.7436176 -107.25 271 C-107.25067474 270.06103882 -107.25134949 269.12207764 -107.25204468 268.15466309 C-107.20639218 228.13235914 -100.55884392 186.15736898 -75 154 C-74.35546875 153.17242187 -73.7109375 152.34484375 -73.046875 151.4921875 C-57.23371183 132.42337309 -32.69393284 121.95140156 -8.4375 119.6640625 C-5.29268754 119.41329082 -2.14898688 119.19024086 1 119 C0.62488281 118.41734375 0.24976563 117.8346875 -0.13671875 117.234375 C-10.01672108 101.40646194 -13.6076883 85.551604 -13.4375 67 C-13.43412628 66.28111603 -13.43075256 65.56223206 -13.42727661 64.82156372 C-13.28418998 43.65030243 -10.07204772 18.95946977 0 0 Z " fill="#E54B3B" transform="translate(141,8)"/>
<path d="M0 0 C32.17218195 -0.8273756 60.4438575 2.76858413 85.046875 25.828125 C114.49035278 54.04383679 124.24259242 97.15352007 125.28945923 136.70410156 C125.36843704 141.13640047 125.38524787 145.56708015 125.375 150 C125.37412384 150.9354364 125.37324768 151.8708728 125.37234497 152.83465576 C125.17856325 215.8921654 98.25730161 274.4277524 56.125 320.65625 C54.17505276 322.80692711 52.26973871 324.98824971 50.375 327.1875 C32.2859652 347.89632605 1.99526279 374.13666838 -26.66796875 376.2734375 C-44.64846899 376.93790536 -59.75474222 371.91723795 -75.5078125 363.5859375 C-87.12493051 358.3101546 -103.17660021 357.85327648 -115.3125 361.81640625 C-119.42094469 363.62579396 -123.31453257 365.81883177 -127.22802734 368.01000977 C-135.71034909 372.65878793 -145.2971399 375.58816383 -155 376 C-156.77310547 376.09474609 -156.77310547 376.09474609 -158.58203125 376.19140625 C-185.96711761 377.21477517 -209.44878349 359.47439171 -229 342 C-229.53189941 341.52981445 -230.06379883 341.05962891 -230.61181641 340.57519531 C-243.78183121 328.89575258 -255.47254924 316.10251293 -266 302 C-266.4237793 301.43313477 -266.84755859 300.86626953 -267.28417969 300.28222656 C-274.04297504 291.17525634 -280.09357844 281.67647788 -286 272 C-285.34 271.67 -284.68 271.34 -284 271 C-281.5063047 272.24838129 -279.10751246 273.55791785 -276.6875 274.9375 C-233.92202696 298.40320999 -182.22590426 304.11541011 -135.09912109 292.51464844 C-133.14967743 292.03669691 -131.19416161 291.58370081 -129.23828125 291.1328125 C-91.46605143 281.90413797 -53.8614049 258.96396399 -29 229 C-28.26523437 228.1646875 -27.53046875 227.329375 -26.7734375 226.46875 C-6.51643007 203.06065252 7.37230087 175.13641845 15.3125 145.3125 C15.54300049 144.4477002 15.77350098 143.58290039 16.01098633 142.69189453 C19.91927138 127.16496554 21.55590192 112.05088749 21.4375 96.0625 C21.43412628 95.17225128 21.43075256 94.28200256 21.42727661 93.36477661 C21.25865865 62.47665656 15.54133908 33.73973398 1.82861328 5.90917969 C0.98233705 3.95930341 0.45618947 2.07274963 0 0 Z " fill="#C0392B" transform="translate(353,128)"/>
<path d="M0 0 C35.35583813 0.46354496 74.73338888 10.23481864 100.1875 36.234375 C111.1761856 49.02589183 117.88108801 66.21632015 119 83 C119.06171387 83.78802002 119.12342773 84.57604004 119.18701172 85.38793945 C119.52259283 92.98168057 117.6769406 98.18451784 114.375 104.9375 C107.3724709 120.12674582 102.84396914 135.53491548 100 152 C93.81154202 151.48838343 88.86033394 150.04096897 83.1875 147.5625 C82.36854248 147.21195557 81.54958496 146.86141113 80.70581055 146.50024414 C74.76402656 143.9040107 69.02464295 141.00171097 63.3125 137.9375 C47.46081223 129.4349955 32.22863481 122.5197373 14.05786133 121.47802734 C3.12368841 120.80341007 3.12368841 120.80341007 -0.42578125 118.265625 C-2.04785314 115.90167527 -3.01725115 113.68941558 -4 111 C-4.64001953 109.79150391 -4.64001953 109.79150391 -5.29296875 108.55859375 C-21.5320945 77.36613813 -12.44608928 37.94424165 -2.80615234 6.30810547 C-2.03133891 4.08972684 -1.10123548 2.07294895 0 0 Z " fill="#4EB96E" transform="translate(141,8)"/>
<path d="M0 0 C5.01791684 2.41935276 8.49958655 5.9991731 11 11 C11.2734375 13.5390625 11.2734375 13.5390625 11.375 16.625 C11.42398438 17.62789062 11.47296875 18.63078125 11.5234375 19.6640625 C10.70201098 24.89912408 8.36851493 29.04584301 4.25 32.44384766 C2.31191606 33.72135795 0.34163015 34.87310508 -1.6875 36 C-3.1200521 36.84411556 -4.54974899 37.69309528 -5.9765625 38.546875 C-6.6665332 38.95873047 -7.35650391 39.37058594 -8.06738281 39.79492188 C-12.35665932 42.46948843 -16.1623529 45.72797626 -20 49 C-20.6084375 49.47566406 -21.216875 49.95132813 -21.84375 50.44140625 C-27.41325784 54.88435455 -31.65120752 60.3947225 -36 66 C-36.68320312 66.86753906 -37.36640625 67.73507813 -38.0703125 68.62890625 C-50.19845535 84.58573734 -57.65429391 103.37975681 -62.18652344 122.81298828 C-63 125 -63 125 -65.9375 126.625 C-67.4534375 126.810625 -67.4534375 126.810625 -69 127 C-69.94383545 127.25499268 -69.94383545 127.25499268 -70.90673828 127.51513672 C-73.18756606 128.04344602 -75.21495808 128.12942369 -77.5546875 128.1328125 C-78.84826172 128.13474609 -78.84826172 128.13474609 -80.16796875 128.13671875 C-81.06128906 128.13285156 -81.95460938 128.12898437 -82.875 128.125 C-84.20337891 128.13080078 -84.20337891 128.13080078 -85.55859375 128.13671875 C-90.15275695 128.12987201 -94.48048642 127.93970084 -99 127 C-94.17598884 99.10463112 -85.15520655 70.85470492 -68 48 C-67.33355469 47.10539062 -66.66710937 46.21078125 -65.98046875 45.2890625 C-64.05037667 42.79684584 -62.05482344 40.39030482 -60 38 C-58.78763672 36.58654297 -58.78763672 36.58654297 -57.55078125 35.14453125 C-44.20525049 19.92898931 -21.8804637 -3.0509379 0 0 Z " fill="#A56943" transform="translate(339,34)"/>
<path d="M0 0 C5.49581411 1.19075972 8.61067119 4.12240067 12.75 7.8125 C13.71550781 8.64652344 14.68101562 9.48054688 15.67578125 10.33984375 C22.45228483 16.2866156 28.25507927 22.64303226 33.75 29.8125 C34.47703125 30.72386719 35.2040625 31.63523437 35.953125 32.57421875 C53.73444976 55.36042688 69.67439867 87.1625057 67.75 116.8125 C61.21426554 116.44940364 54.53495194 115.62393692 49.75 110.8125 C48.724495 107.49670049 48.20957126 104.4350847 47.78417969 101.00732422 C44.33081405 73.43237285 27.75339643 48.32649406 8.75 28.8125 C8.26289551 28.31024902 7.77579102 27.80799805 7.27392578 27.29052734 C1.41429211 21.19573201 1.41429211 21.19573201 -5 15.7109375 C-7.25 13.8125 -7.25 13.8125 -8.375 10.4375 C-8.25 6.8125 -8.25 6.8125 -6.25 3.375 C-3.25 0.8125 -3.25 0.8125 0 0 Z " fill="#24AE5F" transform="translate(170.25,42.1875)"/>
<path d="M0 0 C0.66 0.33 1.32 0.66 2 1 C-2.95 5.95 -7.9 10.9 -13 16 C-13.66 15.67 -14.32 15.34 -15 15 C-10.28109462 9.59947495 -5.69641143 4.38185495 0 0 Z " fill="#E13F31" transform="translate(80,148)"/>
</svg>
