<?xml version="1.0" encoding="UTF-8"?>
<svg version="1.1" xmlns="http://www.w3.org/2000/svg" width="512" height="512">
<path d="M0 0 C6.90431777 5.39659777 12.12801705 11.42185241 17.1875 18.49609375 C18.91213011 21.01757328 18.91213011 21.01757328 21 23 C23.29889678 22.83976323 23.29889678 22.83976323 25.91796875 22.171875 C26.91691162 21.94975342 27.91585449 21.72763184 28.94506836 21.4987793 C30.0150708 21.25168213 31.08507324 21.00458496 32.1875 20.75 C34.40031543 20.2687837 36.61385906 19.79090346 38.828125 19.31640625 C40.4359082 18.97053467 40.4359082 18.97053467 42.07617188 18.61767578 C52.09806746 16.50049176 61.83531103 15.82272181 72.0625 15.75 C73.0124585 15.74057373 73.96241699 15.73114746 74.94116211 15.72143555 C81.80690432 15.75135778 88.55110299 16.3179464 95.375 17 C106.91060615 18.12848724 118.35436191 18.30979016 129.9375 18.25 C130.94258606 18.24822754 131.94767212 18.24645508 132.98321533 18.24462891 C144.87790655 18.22006627 156.64089515 17.97483612 168.47900391 16.72509766 C192.75500666 14.1852954 216.35669042 17.3256057 240 23 C240.556875 22.154375 241.11375 21.30875 241.6875 20.4375 C253.49552701 2.75809277 268.77560103 -8.61213267 289.625 -13.8125 C310.08205684 -17.72837227 330.38100183 -14.18703013 348 -3 C364.2805133 8.19696137 376.18981981 25.50946289 380 45 C383.41950459 65.63828659 379.98356433 86.65173557 367.65576172 103.87841797 C363.00507617 109.93703534 357.96253258 115.21773413 352 120 C352.61152995 123.92339126 353.8253785 126.98495046 355.625 130.515625 C356.1624585 131.5890918 356.69991699 132.66255859 357.25366211 133.76855469 C357.82995361 134.91743164 358.40624512 136.06630859 359 137.25 C376.45413981 172.66858192 386.45777125 211.26991518 386.375 250.8125 C386.37512085 251.70541748 386.3752417 252.59833496 386.37536621 253.51831055 C386.34568864 268.99619738 385.08169872 283.79954188 382 299 C381.7836792 300.15435547 381.7836792 300.15435547 381.56298828 301.33203125 C373.89695811 341.99451369 354.09747702 381.37128797 326.0703125 411.7421875 C324.21571134 413.76475254 322.44964839 415.83483984 320.6875 417.9375 C281.04137433 463.10511805 216.46756113 484.29499555 158.26171875 488.53515625 C149.00871425 489.1312419 139.76978837 489.1993035 130.5 489.1875 C129.17873611 489.18659363 129.17873611 489.18659363 127.83078003 489.18566895 C114.13282802 489.16022393 100.59511492 488.81531288 87 487 C86.01644531 486.87109375 85.03289062 486.7421875 84.01953125 486.609375 C42.01283133 480.91712457 1.34907971 467.26685987 -33 442 C-33.59377441 441.56461914 -34.18754883 441.12923828 -34.79931641 440.68066406 C-42.05847244 435.30156266 -48.82881442 429.47101099 -55.4375 423.3125 C-56.41299805 422.40419434 -56.41299805 422.40419434 -57.40820312 421.47753906 C-92.66737459 388.04836571 -113.97953917 341.15638195 -123 294 C-123.16371094 293.19643066 -123.32742187 292.39286133 -123.49609375 291.56494141 C-128.64907204 265.51791374 -128.46000101 234.96962437 -123 209 C-122.80664062 208.04947754 -122.61328125 207.09895508 -122.4140625 206.11962891 C-117.10619721 180.64105639 -108.81104143 155.92987334 -96.84375 132.80078125 C-96.51068848 132.15407471 -96.17762695 131.50736816 -95.83447266 130.84106445 C-94.9454634 129.13520726 -94.03232348 127.44198474 -93.1171875 125.75 C-91.84966423 123.16197194 -91.84966423 123.16197194 -92.06640625 120.84765625 C-93.3141328 118.37830622 -94.89821669 117.15630475 -97.0625 115.4375 C-111.15855807 103.30729472 -119.45389622 85.20856443 -121.20703125 66.82958984 C-122.49303378 46.49697131 -116.86283391 27.86416183 -104 12 C-103.44570312 11.28199219 -102.89140625 10.56398438 -102.3203125 9.82421875 C-77.30816504 -20.99218303 -30.57938149 -22.25999094 0 0 Z " fill="#BD7C53" transform="translate(126,19)"/>
<path d="M0 0 C6.90431777 5.39659777 12.12801705 11.42185241 17.1875 18.49609375 C18.91213011 21.01757328 18.91213011 21.01757328 21 23 C23.29889678 22.83976323 23.29889678 22.83976323 25.91796875 22.171875 C26.91691162 21.94975342 27.91585449 21.72763184 28.94506836 21.4987793 C30.0150708 21.25168213 31.08507324 21.00458496 32.1875 20.75 C34.40031543 20.2687837 36.61385906 19.79090346 38.828125 19.31640625 C40.4359082 18.97053467 40.4359082 18.97053467 42.07617188 18.61767578 C60.0520421 14.82016813 79.98607778 13.98894774 98 18 C94.48825977 20.02429906 91.0221591 20.74819087 87.06640625 21.55078125 C85.68027731 21.84020167 84.2942117 22.12992559 82.90820312 22.41992188 C80.75058589 22.86485905 78.59240896 23.30646883 76.43286133 23.74194336 C63.75061462 26.31360079 51.96584066 30.04665625 40.5 36.1875 C39.78642334 36.56841797 39.07284668 36.94933594 38.33764648 37.34179688 C28.26383991 42.8789579 19.70348423 50.13877668 11.2734375 57.9140625 C9.1610576 59.8522255 7.00001928 61.71023271 4.8125 63.5625 C0.80351526 67.07733553 -2.61134126 70.89035004 -6 75 C-6.4120166 75.48903809 -6.8240332 75.97807617 -7.24853516 76.48193359 C-37.71445071 112.72492795 -59.22699243 157.19420465 -68.6875 203.5625 C-68.89020508 204.55499756 -69.09291016 205.54749512 -69.30175781 206.57006836 C-72.19709181 221.40080048 -73.35149623 235.74209272 -73.25 250.8125 C-73.24656586 251.64927277 -73.24313171 252.48604553 -73.23959351 253.34817505 C-72.94870929 313.81094989 -50.24926817 373.30218549 -8 417 C-7.53271484 417.49306641 -7.06542969 417.98613281 -6.58398438 418.49414062 C1.0068053 426.49579848 9.07764511 433.51719226 18 440 C18.65145996 440.47405273 19.30291992 440.94810547 19.97412109 441.43652344 C39.89087873 455.72618851 61.78019218 466.27195032 85 474 C86.51799194 474.50720581 86.51799194 474.50720581 88.06665039 475.0246582 C96.25638821 477.65843394 104.487724 479.47693907 112.9375 481.0625 C113.60355255 481.1897345 114.2696051 481.31696899 114.95584106 481.44805908 C126.91482533 483.73128233 138.91096428 485.5538824 151 487 C150.67 487.66 150.34 488.32 150 489 C105.19850117 489.42998855 105.19850117 489.42998855 87 487 C86.01644531 486.87109375 85.03289062 486.7421875 84.01953125 486.609375 C42.01283133 480.91712457 1.34907971 467.26685987 -33 442 C-33.59377441 441.56461914 -34.18754883 441.12923828 -34.79931641 440.68066406 C-42.05847244 435.30156266 -48.82881442 429.47101099 -55.4375 423.3125 C-56.41299805 422.40419434 -56.41299805 422.40419434 -57.40820312 421.47753906 C-92.66737459 388.04836571 -113.97953917 341.15638195 -123 294 C-123.16371094 293.19643066 -123.32742187 292.39286133 -123.49609375 291.56494141 C-128.64907204 265.51791374 -128.46000101 234.96962437 -123 209 C-122.80664062 208.04947754 -122.61328125 207.09895508 -122.4140625 206.11962891 C-117.10619721 180.64105639 -108.81104143 155.92987334 -96.84375 132.80078125 C-96.51068848 132.15407471 -96.17762695 131.50736816 -95.83447266 130.84106445 C-94.9454634 129.13520726 -94.03232348 127.44198474 -93.1171875 125.75 C-91.84966423 123.16197194 -91.84966423 123.16197194 -92.06640625 120.84765625 C-93.3141328 118.37830622 -94.89821669 117.15630475 -97.0625 115.4375 C-111.15855807 103.30729472 -119.45389622 85.20856443 -121.20703125 66.82958984 C-122.49303378 46.49697131 -116.86283391 27.86416183 -104 12 C-103.44570312 11.28199219 -102.89140625 10.56398438 -102.3203125 9.82421875 C-77.30816504 -20.99218303 -30.57938149 -22.25999094 0 0 Z " fill="#AB714C" transform="translate(126,19)"/>
<path d="M0 0 C6.3566762 12.74906407 10.3237103 25.27817755 13.1875 39.25 C13.35467529 40.06557373 13.52185059 40.88114746 13.6940918 41.72143555 C15.5690315 51.29319109 16.15717427 60.72260972 16.16796875 70.46484375 C16.17129715 71.53763077 16.17462555 72.61041779 16.17805481 73.7157135 C16.18309093 75.9772194 16.18546417 78.23873264 16.18530273 80.50024414 C16.18747397 83.89677761 16.20562363 87.29297758 16.22460938 90.68945312 C16.29911559 119.05675635 14.80629424 152.14326159 -5.3125 174.41015625 C-22.78051157 190.86728752 -48.27909875 191.35047416 -70.79492188 191.26074219 C-73.99368239 191.25002117 -77.19188147 191.2606896 -80.390625 191.2734375 C-99.92153895 191.28822883 -119.96259046 190.61293097 -136 178 C-137.546875 176.88625 -137.546875 176.88625 -139.125 175.75 C-158.04079345 157.65663235 -161.40202667 128.19836177 -162.07015991 103.39547729 C-162.18857395 97.57069001 -162.22900554 91.74679359 -162.24023438 85.92089844 C-162.2499195 82.90010814 -162.28105556 79.88000638 -162.3125 76.859375 C-162.45101841 51.4017629 -159.72554232 23.13541218 -146 1 C-132.29375174 1.8062499 -120.33752142 9.30899951 -108.66210938 15.91601562 C-99.77119253 20.84357589 -91.09443255 24.48439478 -81 26 C-80.85002705 31.86740322 -80.74202849 37.73365543 -80.67041016 43.60253906 C-80.64051033 45.59264598 -80.59977431 47.5826243 -80.54736328 49.57226562 C-80.16290667 64.55853501 -81.09527824 75.8802429 -90.75 88 C-98.02021432 95.49348386 -106.8514903 99.76467871 -117.125 101.0625 C-122.13791712 101.7004878 -122.13791712 101.7004878 -127 103 C-127.05395478 104.62463842 -127.09277195 106.24978541 -127.125 107.875 C-127.14820313 108.77992188 -127.17140625 109.68484375 -127.1953125 110.6171875 C-127.24324836 113.18806994 -127.24324836 113.18806994 -125 115 C-109.4231898 116.86834822 -97.21736781 111.57935762 -84.97265625 102.49609375 C-80.51879107 98.91935738 -77.24171592 94.67852041 -74 90 C-70.34103638 91.21965454 -69.81693913 92.39874114 -67.625 95.5 C-59.44628652 105.99401104 -47.21094488 113.22097002 -34 115 C-31.77342912 115.13605368 -29.54300713 115.21891279 -27.3125 115.25 C-26.19488281 115.27578125 -25.07726562 115.3015625 -23.92578125 115.328125 C-21.0195944 115.24049286 -21.0195944 115.24049286 -19.12109375 113.671875 C-17.40930081 111.11909668 -17.75037276 108.99552682 -18 106 C-18.33 105.01 -18.66 104.02 -19 103 C-19.83809204 102.85751831 -19.83809204 102.85751831 -20.69311523 102.7121582 C-41.38696161 99.11332126 -41.38696161 99.11332126 -48 94 C-49.03447266 93.24589844 -49.03447266 93.24589844 -50.08984375 92.4765625 C-57.57993766 86.53470029 -62.45558262 78.18882973 -65 69 C-65.37725997 65.59494152 -65.35189622 62.23493091 -65.29296875 58.8125 C-65.28872391 57.86938965 -65.28447906 56.9262793 -65.28010559 55.95458984 C-65.2634357 52.96942482 -65.22580575 49.98495782 -65.1875 47 C-65.17243804 44.96485356 -65.15875229 42.92969645 -65.14648438 40.89453125 C-65.11357055 35.9294223 -65.06186999 30.96482913 -65 26 C-64.1961084 25.80591553 -63.3922168 25.61183105 -62.56396484 25.41186523 C-61.49871582 25.15091064 -60.4334668 24.88995605 -59.3359375 24.62109375 C-58.2845459 24.36513428 -57.2331543 24.1091748 -56.14990234 23.84545898 C-46.77959221 21.33039279 -38.6653592 16.75773101 -30.25 12.0625 C-8.61846873 0 -8.61846873 0 0 0 Z " fill="#FECB7F" transform="translate(329,216)"/>
<path d="M0 0 C6.44061541 4.82315375 13.4853385 11.26851549 16.08203125 19.05859375 C14.3340625 19.69861328 14.3340625 19.69861328 12.55078125 20.3515625 C2.5060741 24.14403673 -6.91445459 28.50947275 -16.29296875 33.74609375 C-36.8932335 45.21391197 -36.8932335 45.21391197 -47.91796875 45.05859375 C-47.92335321 50.92689088 -47.88905455 56.79323495 -47.8203125 62.66113281 C-47.8023107 64.65097432 -47.79455481 66.64093917 -47.79785156 68.63085938 C-47.81288546 83.57455687 -46.8812252 97.01775485 -35.91015625 108.37890625 C-27.42225489 115.5353721 -19.17301135 118.20656937 -8.29296875 119.203125 C-4.16812216 120.24865903 -2.55397636 121.7697202 0.08203125 125.05859375 C0.64453125 128.12109375 0.64453125 128.12109375 0.08203125 131.05859375 C-2.06206833 133.84340073 -3.23058635 134.93734713 -6.73046875 135.5546875 C-23.22631734 135.25145499 -35.83058834 130.35703355 -48.01171875 119.05859375 C-50.67056134 116.26898841 -52.73775051 113.22982028 -54.91796875 110.05859375 C-55.57796875 110.05859375 -56.23796875 110.05859375 -56.91796875 110.05859375 C-58.09131838 111.49970779 -59.20566144 112.98900323 -60.29296875 114.49609375 C-68.57314138 125.0480827 -80.47281283 133.03676579 -93.91796875 135.05859375 C-96.29031083 135.19845972 -98.66670001 135.27832281 -101.04296875 135.30859375 C-102.87214844 135.34726562 -102.87214844 135.34726562 -104.73828125 135.38671875 C-107.91796875 135.05859375 -107.91796875 135.05859375 -109.8203125 133.7890625 C-111.36999612 131.34596697 -111.33211257 128.92921772 -111.4140625 126.09375 C-110.67596524 123.06580771 -109.38548954 121.92645431 -106.91796875 120.05859375 C-103.88671875 119.44140625 -103.88671875 119.44140625 -100.41796875 119.18359375 C-90.44020369 117.99996709 -80.62555451 113.79811578 -73.91796875 106.05859375 C-67.53331345 97.07166188 -64.48405204 88.82051957 -64.40625 77.87109375 C-64.3882988 76.9279834 -64.3703476 75.98487305 -64.35185242 75.01318359 C-64.29807231 72.02836454 -64.26395786 69.0437024 -64.23046875 66.05859375 C-64.19726714 64.02341582 -64.16277488 61.9882585 -64.12695312 59.953125 C-64.04236459 54.98839507 -63.97540011 50.02370907 -63.91796875 45.05859375 C-64.59525024 45.00122543 -65.27253174 44.94385712 -65.97033691 44.88475037 C-66.86377808 44.8034639 -67.75721924 44.72217743 -68.67773438 44.63842773 C-70.00303162 44.52143776 -70.00303162 44.52143776 -71.35510254 44.40208435 C-75.02936475 43.90963784 -78.08471284 42.68880354 -81.41796875 41.12109375 C-82.08739502 40.81896973 -82.75682129 40.5168457 -83.4465332 40.20556641 C-89.61661267 37.35082789 -95.49328922 33.99791674 -101.3918457 30.62695312 C-107.71151695 27.05852103 -114.06922133 24.47233568 -120.91796875 22.05859375 C-123.27094359 21.09707911 -125.59286219 20.08596642 -127.91796875 19.05859375 C-121.29638283 6.34514877 -109.50189598 -3.98699444 -95.91796875 -8.94140625 C-90.95739036 -10.44410398 -85.96836765 -11.77343005 -80.91796875 -12.94140625 C-79.81763306 -13.21174683 -79.81763306 -13.21174683 -78.69506836 -13.48754883 C-52.35106479 -19.46007208 -22.50371446 -14.97235085 0 0 Z " fill="#3E2823" transform="translate(311.91796875,196.94140625)"/>
<path d="M0 0 C15.50744267 12.12392001 25.760892 29.37319614 28.9765625 48.78125 C31.48262796 69.28740305 27.32344486 89.46621683 14.7421875 106.13671875 C9.9597745 112.13182101 4.85271226 117.21283153 -1.57421875 121.45703125 C-4.75944416 116.68249502 -7.9413142 111.90576302 -11.1171875 107.125 C-12.3320222 105.29817107 -13.54686603 103.4713482 -14.76171875 101.64453125 C-15.37724609 100.71705078 -15.99277344 99.78957031 -16.62695312 98.83398438 C-17.22185547 97.94001953 -17.81675781 97.04605469 -18.4296875 96.125 C-18.96231201 95.32344482 -19.49493652 94.52188965 -20.04370117 93.69604492 C-21.49776255 91.56887999 -23.01138801 89.50519133 -24.57421875 87.45703125 C-23.4277274 84.74714259 -22.20018177 83.04362196 -20.19921875 80.83203125 C-14.30128843 73.79651793 -12.82862208 66.01586799 -13.1328125 56.98828125 C-14.21216829 48.35343493 -17.71139351 40.97425288 -24.23046875 35.1484375 C-33.25753261 28.63390641 -42.62122805 27.13236944 -53.57421875 28.45703125 C-60.44394024 30.32067864 -67.60784313 34.50746782 -71.57421875 40.45703125 C-75.61776419 39.77474567 -78.87348159 37.69869834 -82.38671875 35.70703125 C-91.56901166 30.65138214 -101.14275326 26.96538623 -111.57421875 25.45703125 C-105.94874078 9.63715921 -91.86908038 -0.7595415 -77.4921875 -8.12109375 C-52.04531674 -19.43081409 -22.4581478 -16.52745246 0 0 Z " fill="#996443" transform="translate(477.57421875,18.54296875)"/>
<path d="M0 0 C7.709155 6.02567989 16.81994799 14.45984398 20 24 C18.80375 24.391875 17.6075 24.78375 16.375 25.1875 C15.55 25.4659375 14.725 25.744375 13.875 26.03125 C11.85844294 26.71074205 9.83713544 27.37622089 7.8125 28.03125 C0.3567689 30.53908682 -6.32239237 33.54164518 -13.11376953 37.49682617 C-14.70433455 38.40187704 -16.3495976 39.20931292 -18 40 C-21 39 -21 39 -23.0625 36.75 C-28.94214942 30.56468074 -37.6596128 27.84440947 -45.9375 27.5625 C-55.37350526 27.47906633 -62.8283781 30.90260729 -69.9375 37.125 C-76.6254339 44.61614164 -78.87696203 53.67295348 -78.484375 63.53125 C-77.25188191 72.35749081 -73.81877712 79.29125636 -67 85 C-68.39370419 89.02224474 -70.28999848 91.86974493 -72.9375 95.1875 C-77.59994383 101.22525141 -81.49474104 107.58919658 -85.28100586 114.20776367 C-85.7219458 114.95904541 -86.16288574 115.71032715 -86.6171875 116.484375 C-87.00503418 117.16209961 -87.39288086 117.83982422 -87.79248047 118.53808594 C-88.19096191 119.02051758 -88.58944336 119.50294922 -89 120 C-93.76830195 120 -96.0016062 116.82753462 -99.375 113.6796875 C-113.41370885 99.34850555 -121.27105609 80.37106994 -121.4375 60.375 C-121.13905352 42.13845931 -115.48395187 26.16354064 -104 12 C-103.44570312 11.28199219 -102.89140625 10.56398438 -102.3203125 9.82421875 C-77.30816504 -20.99218303 -30.57938149 -22.25999094 0 0 Z " fill="#996443" transform="translate(126,19)"/>
<path d="M0 0 C4.62 0 9.24 0 14 0 C14.029729 1.51968384 14.029729 1.51968384 14.06005859 3.07006836 C14.13673611 6.86668719 14.2253519 10.66295341 14.31738281 14.45922852 C14.355418 16.09522486 14.39031288 17.73129761 14.421875 19.36743164 C14.7214739 34.70783162 15.77117944 50.48477272 26.97265625 62.25 C35.38021244 69.50738955 43.76528351 72.14983739 54.625 73.14453125 C58.74984659 74.19006528 60.36399239 75.71112645 63 79 C63.5625 82.0625 63.5625 82.0625 63 85 C60.85590042 87.78480698 59.6873824 88.87875338 56.1875 89.49609375 C39.69165141 89.19286124 27.08738041 84.2984398 14.90625 73 C12.24740741 70.21039466 10.18021824 67.17122653 8 64 C7.34 64 6.68 64 6 64 C4.82665037 65.44111404 3.71230731 66.93040948 2.625 68.4375 C-5.65517263 78.98948895 -17.55484408 86.97817204 -31 89 C-33.37234208 89.13986597 -35.74873126 89.21972906 -38.125 89.25 C-39.34445313 89.27578125 -40.56390625 89.3015625 -41.8203125 89.328125 C-45 89 -45 89 -46.90234375 87.73046875 C-48.45202737 85.28737322 -48.41414382 82.87062397 -48.49609375 80.03515625 C-47.75799649 77.00721396 -46.46752079 75.86786056 -44 74 C-40.96875 73.3828125 -40.96875 73.3828125 -37.5 73.125 C-27.52223494 71.94137334 -17.70758576 67.73952203 -11 60 C-3.5829605 49.55990174 -0.97390481 39.33141639 -0.68359375 26.66015625 C-0.66281265 25.89319931 -0.64203156 25.12624237 -0.62062073 24.33604431 C-0.55579168 21.91161128 -0.49655379 19.48707987 -0.4375 17.0625 C-0.39425121 15.40819338 -0.35063501 13.75389633 -0.30664062 12.09960938 C-0.20017976 8.06650434 -0.09872938 4.03330141 0 0 Z " fill="#242322" transform="translate(249,243)"/>
<path d="M0 0 C8.79619825 5.3761556 14.20023663 12.65886698 16.72265625 22.6640625 C18.02239546 32.17041953 16.65941332 40.3913285 11.72265625 48.6640625 C9.58238799 51.26864516 7.32984919 53.53022159 4.72265625 55.6640625 C1.4975746 52.52825647 -1.39719167 49.34088506 -4.15234375 45.7890625 C-14.23738338 33.40363366 -25.63524731 23.02149603 -38.70605469 13.86816406 C-40.37898331 12.58617463 -41.81949308 11.18343513 -43.27734375 9.6640625 C-33.65957607 -4.55350711 -14.86210085 -7.16101226 0 0 Z " fill="#EE9899" transform="translate(448.27734375,49.3359375)"/>
<path d="M0 0 C3.75620838 2.44556257 6.11478262 4.90959714 8 9 C7.33355469 9.47308594 6.66710937 9.94617187 5.98046875 10.43359375 C-9.49194788 21.53478219 -23.45708282 33.77796221 -35.23046875 48.79296875 C-36.73206788 50.66582418 -38.26266263 52.34872268 -40 54 C-47.2962311 48.02844486 -51.18133378 40.90371495 -52.48046875 31.53515625 C-52.91951843 20.79623831 -50.19543493 12.02692292 -42.875 4.0625 C-30.32077086 -7.29412175 -14.67477856 -8.2757611 0 0 Z " fill="#EE9899" transform="translate(99,51)"/>
<path d="M0 0 C4.58669856 2.65990921 7.32094167 6.07737341 9.9375 10.6875 C11.57978917 17.10735768 11.31387846 21.80900775 8.0625 27.6875 C5.12985359 32.17354343 2.49071009 34.222859 -2.375 36.375 C-3.365 36.87 -3.365 36.87 -4.375 37.375 C-10.04263711 38.00703997 -14.9363685 37.92817966 -19.7734375 34.71875 C-24.39894744 30.83783435 -28.00769155 26.91690293 -28.6484375 20.73828125 C-28.85151901 14.63802506 -28.70762096 10.05852078 -24.9765625 5.06640625 C-18.08686776 -2.20978357 -9.33822897 -4.17577409 0 0 Z " fill="#232221" transform="translate(156.375,155.625)"/>
<path d="M0 0 C5.66295626 2.6242968 9.24282039 6.49279758 11.64453125 12.27734375 C12.32922279 18.66187002 12.58072197 24.9444402 8.64453125 30.27734375 C3.76980832 35.26039385 -0.58541104 38.26492179 -7.66796875 38.65234375 C-12.60903098 38.4963966 -16.45856479 37.38013073 -20.35546875 34.27734375 C-24.92601066 28.68339789 -27.73762059 23.96605957 -27.6328125 16.72265625 C-27.01251461 11.25355088 -24.4809736 6.98336572 -20.35546875 3.40234375 C-13.94967938 -1.13509038 -7.70462599 -2.36377414 0 0 Z " fill="#232221" transform="translate(372.35546875,154.72265625)"/>
</svg>
