<?xml version="1.0" encoding="UTF-8"?>
<svg version="1.1" xmlns="http://www.w3.org/2000/svg" width="512" height="512">
<path d="M0 0 C4.9750151 2.30982844 7.31542622 5.2822377 10 10 C10.48101807 13.34103394 10.48101807 13.34103394 10.45410156 17.01513672 C10.45468567 17.68900925 10.45526978 18.36288177 10.45587158 19.05717468 C10.4531042 21.26521911 10.4220799 23.47188152 10.390625 25.6796875 C10.38315773 27.21810163 10.37746709 28.75652532 10.37347412 30.29495239 C10.35825581 34.32949426 10.31900778 38.36345333 10.2746582 42.39776611 C10.23362275 46.52030556 10.21544552 50.64293986 10.1953125 54.765625 C10.15250897 62.84401642 10.08430482 70.92193556 10 79 C11.15185791 78.99476318 12.30371582 78.98952637 13.49047852 78.98413086 C26.32726328 78.93123491 39.16326213 78.93550172 52 79 C52.70433167 79.00281982 53.40866333 79.00563965 54.13433838 79.00854492 C70.25169606 79.08441785 83.89849265 80.03785742 96 92 C105.56673724 103.24511219 106.52750793 113.80894513 107 128 C108.12535156 128.4021875 108.12535156 128.4021875 109.2734375 128.8125 C120.57611022 133.13997167 129.27904584 139.12452279 135 150 C135.33902344 150.639375 135.67804688 151.27875 136.02734375 151.9375 C139.29351014 159.6438465 138.43625259 168.80348495 138 177 C137.67 177.66 137.34 178.32 137 179 C137.886875 179.25652344 138.77375 179.51304687 139.6875 179.77734375 C149.27554371 183.31632686 155.47135143 191.10941067 159.9921875 199.9375 C163.18578597 207.72379722 162.74065133 216.70978576 163 225 C163.60585938 225.25652344 164.21171875 225.51304687 164.8359375 225.77734375 C175.69366283 230.73848902 184.26323157 238.18973296 188.9609375 249.265625 C192.94042427 260.58343141 191.69887617 272.09860728 187 283 C184.85934338 286.57753573 182.33966556 289.62692632 179.43359375 292.60546875 C177.79826985 294.26375335 177.79826985 294.26375335 176 297 C176.64791335 299.00615372 177.31875294 301.00491933 178 303 C179.49314501 315.54733375 178.1363422 326.82206519 170.375 337.0625 C168.65064272 339.14452964 166.91183177 341.08816823 165 343 C165.20735887 345.61148012 165.20735887 345.61148012 165.875 348.5625 C168.19033011 361.28924917 166.90149932 372.69740957 159.6484375 383.75390625 C154.13641892 391.26435811 147.74726351 395.63187174 139 399 C137.68 399 136.36 399 135 399 C135.04640625 400.17175781 135.0928125 401.34351563 135.140625 402.55078125 C135.54183273 416.92228733 133.21375892 428.06045635 123.1875 438.97265625 C113.6640368 448.01610618 102.61097599 449.26272867 90 449 C90.04640625 450.02738281 90.0928125 451.05476563 90.140625 452.11328125 C90.52316366 464.13197686 88.97513071 473.43596483 80.97265625 482.93359375 C71.64600528 492.7034915 61.71857171 496.35862573 48.30871582 496.70095825 C47.0002771 496.7145639 45.69183838 496.72816956 44.34375 496.7421875 C42.93645626 496.76966128 41.52918841 496.79848983 40.12194824 496.82858276 C35.74814658 496.91452836 31.37442847 496.96021619 27 497 C25.62223212 497.01459987 24.24446517 497.02928726 22.86669922 497.04406738 C14.0897629 497.13217551 5.31372536 497.14168586 -3.46356201 497.12695312 C-5.49997446 497.12500002 -7.53634381 497.12695297 -9.57275391 497.13037109 C-18.35484609 497.14493474 -27.13509625 497.1081563 -35.91674805 497.01887512 C-38.05907622 496.99946475 -40.20136467 496.98723116 -42.34375 496.97595215 C-45.96380429 496.95430679 -49.58264965 496.9051021 -53.20213318 496.83785629 C-55.2081751 496.80585329 -57.21454423 496.79691491 -59.2208252 496.78884888 C-71.67366025 496.50255001 -81.92537733 492.65967968 -91 484 C-99.41311724 474.96578014 -102.39722173 464.11526281 -102 452 C-101.67 451.01 -101.34 450.02 -101 449 C-101.60585937 449.02320313 -102.21171875 449.04640625 -102.8359375 449.0703125 C-115.51784996 449.34346138 -125.67217821 446.67963835 -135.11328125 437.98046875 C-145.55135382 427.02373419 -147.10819962 414.6069491 -147 400 C-148.12535156 399.61521484 -148.12535156 399.61521484 -149.2734375 399.22265625 C-160.53656716 395.00962161 -169.56498067 387.92385073 -175 377 C-178.6155238 367.63813038 -179.19379522 359.42283166 -176 349.9375 C-175.05712308 346.94371421 -175.05712308 346.94371421 -175 344 C-176.60718924 341.24545621 -178.47574619 339.39792937 -180.7890625 337.2109375 C-187.31902187 330.68097813 -189.94619905 321.04254606 -190.25 312 C-190.10659188 306.49533457 -188.73355542 301.20066626 -187 296 C-187.50789063 295.56171875 -188.01578125 295.1234375 -188.5390625 294.671875 C-195.99035224 287.80664175 -201.48528441 279.02038309 -202.23828125 268.75 C-202.51032915 255.00442184 -199.47280068 244.33396438 -190 234 C-184.81817237 229.49124232 -179.7648208 226.3235519 -173 225 C-173.09539062 224.33355469 -173.19078125 223.66710937 -173.2890625 222.98046875 C-174.77027301 210.6657535 -172.55380002 200.22098202 -164.91796875 190.29296875 C-160.72718705 185.41681219 -156.88855047 181.64383899 -151 179 C-150.34 179 -149.68 179 -149 179 C-149.09539062 178.18917969 -149.19078125 177.37835938 -149.2890625 176.54296875 C-150.59941842 163.45464623 -148.88856612 153.14504535 -141.09375 142.36328125 C-135.01804448 134.99979032 -127.43490182 129.99455169 -118 128 C-118.02320313 127.32195312 -118.04640625 126.64390625 -118.0703125 125.9453125 C-118.34674354 111.68936883 -115.02977925 100.51441449 -105.1015625 89.97265625 C-97.00872884 82.37622317 -87.39950489 79.59699451 -76.5 79.3125 C-75.56599365 79.27906494 -74.6319873 79.24562988 -73.66967773 79.21118164 C-56.45830613 78.69635155 -39.21663013 78.91961203 -22 79 C-22.00888245 78.14888641 -22.01776489 77.29777283 -22.0269165 76.42086792 C-22.10716769 68.38777809 -22.1680178 60.3548235 -22.20724869 52.32142448 C-22.22809606 48.19164765 -22.2563609 44.06220291 -22.30175781 39.93261719 C-22.34531833 35.94498571 -22.36915855 31.95767304 -22.37950897 27.96982193 C-22.38688213 26.4507966 -22.40128042 24.9317881 -22.42292023 23.41289902 C-22.45209175 21.27993239 -22.45595054 19.14827173 -22.45410156 17.01513672 C-22.46298401 15.8026828 -22.47186646 14.59022888 -22.48101807 13.34103394 C-21.73992114 8.19355581 -19.2000503 5.14004778 -15.5 1.625 C-10.33499991 -0.77303575 -5.5997712 -0.75381535 0 0 Z " fill="#FEC106" transform="translate(262,8)"/>
<path d="M0 0 C4.9750151 2.30982844 7.31542622 5.2822377 10 10 C10.48101807 13.34103394 10.48101807 13.34103394 10.45410156 17.01513672 C10.45468567 17.68900925 10.45526978 18.36288177 10.45587158 19.05717468 C10.4531042 21.26521911 10.4220799 23.47188152 10.390625 25.6796875 C10.38315773 27.21810163 10.37746709 28.75652532 10.37347412 30.29495239 C10.35825581 34.32949426 10.31900778 38.36345333 10.2746582 42.39776611 C10.23362275 46.52030556 10.21544552 50.64293986 10.1953125 54.765625 C10.15250897 62.84401642 10.08430482 70.92193556 10 79 C11.15185791 78.99476318 12.30371582 78.98952637 13.49047852 78.98413086 C26.32726328 78.93123491 39.16326213 78.93550172 52 79 C52.70433167 79.00281982 53.40866333 79.00563965 54.13433838 79.00854492 C70.25169606 79.08441785 83.89849265 80.03785742 96 92 C105.56673724 103.24511219 106.52750793 113.80894513 107 128 C108.12535156 128.4021875 108.12535156 128.4021875 109.2734375 128.8125 C120.57611022 133.13997167 129.27904584 139.12452279 135 150 C135.33902344 150.639375 135.67804688 151.27875 136.02734375 151.9375 C139.29351014 159.6438465 138.43625259 168.80348495 138 177 C137.67 177.66 137.34 178.32 137 179 C135.84313187 178.6757435 134.68626373 178.35148701 133.49433899 178.01740456 C129.348718 176.98616521 125.35211299 176.70955606 121.09057617 176.7215271 C119.95938795 176.7128385 119.95938795 176.7128385 118.80534744 176.70397437 C116.30117672 176.68709129 113.7971916 176.68410804 111.29296875 176.68115234 C109.48885146 176.67184608 107.68473846 176.66167637 105.88063049 176.65071106 C100.99903756 176.62347575 96.11747339 176.60828085 91.23582458 176.59528303 C86.1282116 176.57962415 81.02065708 176.55284273 75.91308594 176.5272522 C66.24835693 176.48051321 56.58361686 176.44374548 46.91883278 176.41057932 C35.91277451 176.37232344 24.90677503 176.32292236 13.90076637 176.27259517 C-8.73277881 176.16934789 -31.36636178 176.08006408 -54 176 C-53.47731534 173.23723823 -52.89130413 170.6739124 -52 168 C-51.49818009 162.75968388 -51.3962406 158.35242106 -53.5625 153.5 C-57.35159828 149.61374535 -60.97877494 148.26695425 -66.3125 147.5625 C-74.99144642 148.59220551 -82.29883099 152.34455806 -88 159 C-91.54353118 164.41766545 -93.99592443 169.8611276 -96 176 C-97.29099609 176.01981934 -98.58199219 176.03963867 -99.91210938 176.06005859 C-104.72805407 176.13645985 -109.54371017 176.2251229 -114.359375 176.31738281 C-116.43874388 176.35553044 -118.51817555 176.39040745 -120.59765625 176.421875 C-123.59658158 176.46783554 -126.59507988 176.52577764 -129.59375 176.5859375 C-130.51490601 176.59748871 -131.43606201 176.60903992 -132.38513184 176.62094116 C-137.91038968 176.74565326 -142.66786309 177.57540074 -148 179 C-150.71070785 176.28929215 -149.91943937 169.61250837 -150 166 C-149.10698073 153.53142911 -143.40187094 143.17737578 -134 135 C-128.98061207 131.89125848 -123.80830793 129.22788457 -118 128 C-118.02320313 127.32195312 -118.04640625 126.64390625 -118.0703125 125.9453125 C-118.34674354 111.68936883 -115.02977925 100.51441449 -105.1015625 89.97265625 C-97.00872884 82.37622317 -87.39950489 79.59699451 -76.5 79.3125 C-75.56599365 79.27906494 -74.6319873 79.24562988 -73.66967773 79.21118164 C-56.45830613 78.69635155 -39.21663013 78.91961203 -22 79 C-22.00888245 78.14888641 -22.01776489 77.29777283 -22.0269165 76.42086792 C-22.10716769 68.38777809 -22.1680178 60.3548235 -22.20724869 52.32142448 C-22.22809606 48.19164765 -22.2563609 44.06220291 -22.30175781 39.93261719 C-22.34531833 35.94498571 -22.36915855 31.95767304 -22.37950897 27.96982193 C-22.38688213 26.4507966 -22.40128042 24.9317881 -22.42292023 23.41289902 C-22.45209175 21.27993239 -22.45595054 19.14827173 -22.45410156 17.01513672 C-22.46298401 15.8026828 -22.47186646 14.59022888 -22.48101807 13.34103394 C-21.73992114 8.19355581 -19.2000503 5.14004778 -15.5 1.625 C-10.33499991 -0.77303575 -5.5997712 -0.75381535 0 0 Z " fill="#FFD500" transform="translate(262,8)"/>
<path d="M0 0 C17.43635695 12.52993813 28.32718377 32.39042105 33 53 C33.22429687 53.93585938 33.44859375 54.87171875 33.6796875 55.8359375 C39.04032055 82.05163613 33.63311671 111.68615824 19.29296875 134.12939453 C15.74459979 139.26300537 11.45086052 143.65200991 7 148 C6.44183594 148.59039062 5.88367188 149.18078125 5.30859375 149.7890625 C-5.69334604 160.53247107 -22.99085018 165.53256335 -37.92651367 165.42236328 C-55.52928703 164.77966567 -69.05857482 156.24204847 -81 144 C-94.06988994 129.48034076 -100.54906933 112.9925321 -104 94 C-104.25692627 92.84153564 -104.25692627 92.84153564 -104.51904297 91.65966797 C-108.72764508 68.38631195 -103.28332102 42.22616647 -90.62890625 22.3359375 C-68.5701797 -9.29744015 -33.77764802 -21.17968377 0 0 Z " fill="#6D4C40" transform="translate(291,291)"/>
<path d="M0 0 C1.94846581 -0.00065712 1.94846581 -0.00065712 3.93629456 -0.00132751 C7.45832751 -0.00217952 10.98004671 0.01531528 14.50200748 0.03639436 C18.19750898 0.05529567 21.89301964 0.0569221 25.58856201 0.06047058 C32.56871803 0.06975189 39.54873115 0.09431193 46.52882457 0.12451905 C54.48298205 0.15818583 62.43714677 0.17457976 70.3913579 0.18960536 C86.73722556 0.22086556 103.08294994 0.27354883 119.42871094 0.34057617 C119.42871094 1.00057617 119.42871094 1.66057617 119.42871094 2.34057617 C118.67847656 2.6319043 117.92824219 2.92323242 117.15527344 3.22338867 C95.39019846 11.94038344 80.68527334 26.63140531 71.30126953 48.13745117 C63.02744132 69.02805716 61.16539946 93.69457171 67.42871094 115.34057617 C67.79222656 116.59870117 68.15574219 117.85682617 68.53027344 119.15307617 C73.53232723 135.55568719 81.69448118 149.71189048 94.42871094 161.34057617 C89.59399583 164.05822006 84.55005231 164.32400984 79.11621094 164.96557617 C78.01929932 165.09746338 76.9223877 165.22935059 75.79223633 165.36523438 C64.66325583 166.59771579 53.60952443 166.65102166 42.42871094 166.34057617 C42.22375 167.05084961 42.01878906 167.76112305 41.80761719 168.49291992 C41.53820312 169.41202148 41.26878906 170.33112305 40.99121094 171.27807617 C40.724375 172.19459961 40.45753906 173.11112305 40.18261719 174.05541992 C39.42871094 176.34057617 39.42871094 176.34057617 38.42871094 177.34057617 C26.46519768 178.37983086 15.6216762 175.77686593 6.30371094 168.15307617 C-3.08280865 159.50420056 -6.60553342 149.72134999 -7.45800781 137.23510742 C-7.57416588 134.26706856 -7.59328907 131.31057677 -7.57128906 128.34057617 C-8.32152344 128.08405273 -9.07175781 127.8275293 -9.84472656 127.56323242 C-21.10785622 123.35019778 -30.13626973 116.26442691 -35.57128906 105.34057617 C-39.18681287 95.97870655 -39.76508428 87.76340783 -36.57128906 78.27807617 C-35.62841214 75.28429038 -35.62841214 75.28429038 -35.57128906 72.34057617 C-37.17847831 69.58603238 -39.04703525 67.73850554 -41.36035156 65.55151367 C-47.89031094 59.0215543 -50.51748811 49.38312223 -50.82128906 40.34057617 C-50.45874014 30.66624435 -47.15202249 24.20266436 -41.57128906 16.34057617 C-40.82878906 15.26807617 -40.08628906 14.19557617 -39.32128906 13.09057617 C-28.20740135 1.97668846 -15.16944036 -0.13628846 0 0 Z " fill="#FECC03" transform="translate(122.5712890625,279.659423828125)"/>
<path d="M0 0 C3.77450078 4.07248769 5.15820078 6.6323467 5.25 12.125 C5.27578125 13.03507812 5.3015625 13.94515625 5.328125 14.8828125 C5.03236924 17.69249218 4.48949796 19.59714271 3.47949219 22.19482422 C3.2040155 22.90919647 2.92853882 23.62356873 2.64471436 24.35958862 C2.32558075 25.17159225 2.32558075 25.17159225 2 26 C3.39810724 25.99446924 3.39810724 25.99446924 4.82445908 25.98882675 C27.53592287 25.89990753 50.24736401 25.83423963 72.9589653 25.79275131 C83.94227039 25.77215301 94.92546028 25.74408469 105.90869141 25.69824219 C115.48509751 25.65829074 125.06142014 25.63254734 134.63790727 25.62364602 C139.70550514 25.61844534 144.7728643 25.60627894 149.84038544 25.57707977 C154.61742644 25.5497793 159.39413206 25.5415844 164.17124367 25.54756927 C165.917459 25.54647555 167.66368642 25.53860928 169.40983391 25.5231781 C181.64303264 25.42044071 192.94045554 26.09607221 203 34 C203.99 34.721875 204.98 35.44375 206 36.1875 C212.33058574 41.62083737 216.21596092 48.97182413 218 57 C218 62.94 218 68.88 218 75 C107.45 75 -3.1 75 -117 75 C-118.25381474 61.20803788 -117.33958889 51.56972095 -109.0234375 40.328125 C-102.14608049 32.11417918 -94.5276783 27.9215009 -84 26 C-80.52721919 25.74795484 -77.07414219 25.76568586 -73.59375 25.8046875 C-72.14579041 25.80893234 -72.14579041 25.80893234 -70.6685791 25.81326294 C-67.61225522 25.82437876 -64.55623399 25.84946715 -61.5 25.875 C-59.41667093 25.88504092 -57.33333722 25.89416482 -55.25 25.90234375 C-50.16655163 25.92428989 -45.08332697 25.95875983 -40 26 C-39.69529785 24.73615479 -39.3905957 23.47230957 -39.07666016 22.17016602 C-36.94238024 13.31758826 -31.55221002 6.03926226 -24 1 C-15.63271314 -3.42664941 -8.62970009 -4.72191137 0 0 Z " fill="#FFD500" transform="translate(206,158)"/>
<path d="M0 0 C0.91375019 -0.00438225 1.82750038 -0.00876451 2.76893997 -0.01327956 C5.83790543 -0.0266587 8.90684218 -0.0328445 11.97583008 -0.03897095 C14.17367177 -0.04687273 16.37151216 -0.05514173 18.5693512 -0.06375122 C25.79467531 -0.08996683 33.0200052 -0.10528042 40.24536133 -0.11953735 C42.73392745 -0.1248976 45.22249353 -0.13027511 47.71105957 -0.13566971 C58.06527199 -0.15729953 68.41948286 -0.17603496 78.77371216 -0.1872921 C81.45941167 -0.19022157 84.14511113 -0.19318326 86.83081055 -0.19619751 C87.49828914 -0.19694356 88.16576773 -0.19768961 88.85347295 -0.19845827 C99.65399158 -0.21109819 110.45434508 -0.24430423 121.25478661 -0.28599934 C132.35620828 -0.32850314 143.45756142 -0.35158989 154.55906582 -0.35721266 C160.78692285 -0.36086175 167.01450001 -0.37283632 173.24227905 -0.4053154 C179.1061211 -0.43545758 184.96951483 -0.44168562 190.83341789 -0.42993164 C192.97954927 -0.42971141 195.12570181 -0.43797429 197.27176094 -0.45558548 C212.60983562 -0.57454927 223.75739507 0.6261738 235.86645508 10.9859314 C239.28866155 14.37153673 241.820309 17.90033533 244.05786133 22.15390015 C244.39688477 22.79327515 244.7359082 23.43265015 245.08520508 24.09140015 C248.35137147 31.79774665 247.49411392 40.9573851 247.05786133 49.15390015 C246.72786133 49.81390015 246.39786133 50.47390015 246.05786133 51.15390015 C244.90099319 50.82964365 243.74412506 50.50538715 242.55220032 50.1713047 C238.40657933 49.14006536 234.40997432 48.86345621 230.1484375 48.87542725 C229.01724928 48.86673864 229.01724928 48.86673864 227.86320877 48.85787451 C225.35903805 48.84099144 222.85505292 48.83800819 220.35083008 48.83505249 C218.54671279 48.82574623 216.74259979 48.81557652 214.93849182 48.80461121 C210.05689889 48.7773759 205.17533472 48.76218099 200.29368591 48.74918318 C195.18607292 48.73352429 190.07851841 48.70674287 184.97094727 48.68115234 C175.30621826 48.63441335 165.64147819 48.59764563 155.97669411 48.56447947 C144.97063584 48.52622359 133.96463636 48.47682251 122.9586277 48.42649531 C100.32508252 48.32324804 77.69149955 48.23396422 55.05786133 48.15390015 C55.58054599 45.39113837 56.16655719 42.82781255 57.05786133 40.15390015 C57.55968124 34.91358403 57.66162073 30.5063212 55.49536133 25.65390015 C51.70626305 21.7676455 48.07908639 20.4208544 42.74536133 19.71640015 C34.06641491 20.74610565 26.75903034 24.49845821 21.05786133 31.15390015 C17.51433014 36.5715656 15.06193689 42.01502774 13.05786133 48.15390015 C11.76686523 48.17371948 10.47586914 48.19353882 9.14575195 48.21395874 C4.32980726 48.29035999 -0.48584884 48.37902305 -5.30151367 48.47128296 C-7.38088255 48.50943058 -9.46031423 48.54430759 -11.53979492 48.57577515 C-14.53872025 48.62173569 -17.53721856 48.67967779 -20.53588867 48.73983765 C-21.45704468 48.75138885 -22.37820068 48.76294006 -23.32727051 48.77484131 C-28.85252835 48.8995534 -33.61000176 49.72930089 -38.94213867 51.15390015 C-41.65284652 48.4431923 -40.86157804 41.76640852 -40.94213867 38.15390015 C-40.04911941 25.68532926 -34.34400962 15.33127592 -24.94213867 7.15390015 C-16.53081391 1.94437363 -9.78917579 0.00569481 0 0 Z " fill="#FFC107" transform="translate(152.942138671875,135.84609985351563)"/>
<path d="M0 0 C9.36832685 -1.21441274 18.15084291 2.4260184 25.8125 7.625 C34.31354771 14.21239194 40.25389787 23.32600175 42 34 C42.89401957 46.69214662 41.38267994 56.95227052 32.97265625 66.93359375 C23.64600528 76.7034915 13.71857171 80.35862573 0.30871582 80.70095825 C-0.9997229 80.7145639 -2.30816162 80.72816956 -3.65625 80.7421875 C-5.06354374 80.76966128 -6.47081159 80.79848983 -7.87805176 80.82858276 C-12.25185342 80.91452836 -16.62557153 80.96021619 -21 81 C-22.37776788 81.01459987 -23.75553483 81.02928726 -25.13330078 81.04406738 C-33.9102371 81.13217551 -42.68627464 81.14168586 -51.46356201 81.12695312 C-53.49997446 81.12500002 -55.53634381 81.12695297 -57.57275391 81.13037109 C-66.35484609 81.14493474 -75.13509625 81.1081563 -83.91674805 81.01887512 C-86.05907622 80.99946475 -88.20136467 80.98723116 -90.34375 80.97595215 C-93.96380429 80.95430679 -97.58264965 80.9051021 -101.20213318 80.83785629 C-103.2081751 80.80585329 -105.21454423 80.79691491 -107.2208252 80.78884888 C-119.67366025 80.50255001 -129.92537733 76.65967968 -139 68 C-146.57541619 59.86532489 -150.38290129 49.45676673 -150.296875 38.359375 C-149.59283964 32.76414659 -147.51909225 27.03818451 -145 22 C-144.15127319 21.97812622 -144.15127319 21.97812622 -143.28540039 21.95581055 C-130.52746827 21.59421868 -117.98394481 20.71519432 -105.34008789 18.9284668 C-93.07565973 17.27062549 -93.07565973 17.27062549 -87.8046875 20.234375 C-87.16789062 20.73453125 -86.53109375 21.2346875 -85.875 21.75 C-73.37847865 30.66074976 -58.74438243 32.45531381 -43.84765625 30.609375 C-25.67315969 26.72018232 -10.24130902 15.36196352 0 0 Z " fill="#EFB506" transform="translate(310,424)"/>
<path d="M0 0 C40.92 0 81.84 0 124 0 C122.33302866 7.50137105 120.34442042 13.8389738 117.5 20.875 C117.05785156 21.97054199 116.61570312 23.06608398 116.16015625 24.19482422 C106.29866626 48.16760352 92.56673114 69.87645814 74.91015625 88.87890625 C73.13904247 90.84560315 71.57193299 92.87379037 70 95 C70.77077881 95.01458252 71.54155762 95.02916504 72.33569336 95.04418945 C75.87010173 95.11923166 79.40362307 95.21570647 82.9375 95.3125 C84.14986328 95.33505859 85.36222656 95.35761719 86.61132812 95.38085938 C100.32900653 95.78978746 108.61347672 99.29125901 118.1875 109.0625 C126.60696918 119.05958174 128.2410503 130.33051222 127.24365234 142.96142578 C125.94665566 153.81305131 119.56271261 163.70558643 111.1640625 170.5 C102.10775677 176.77729495 91.65910251 177.11754707 81 178 C80.86464844 177.40574219 80.72929687 176.81148437 80.58984375 176.19921875 C77.73268797 165.19831358 72.46743747 157.02963822 62.97265625 150.65625 C56.13980948 146.84924996 48.77323584 144.7066578 41 144 C42.38861562 140.42137866 43.92789933 136.92714657 45.51293945 133.43164062 C57.0970757 107.66328473 58.82467196 77.75465247 49.21484375 50.9921875 C40.50602524 29.5421715 27.76073867 13.65341483 6.3125 4.5625 C4.21234159 3.69852506 2.10956483 2.84074627 0 2 C0 1.34 0 0.68 0 0 Z " fill="#FEC007" transform="translate(270,280)"/>
<path d="M0 0 C11.27205165 8.06251379 19.14237791 21.39573165 22.21484375 34.8203125 C22.89129074 39.97293606 23.00211428 45.06118559 23.02734375 50.25390625 C23.03290283 51.21965576 23.03846191 52.18540527 23.04418945 53.18041992 C22.88124314 69.50986932 17.70497561 85.68451459 6.6171875 97.94921875 C0.52963583 103.76835985 -6.24478186 107.6477584 -14.78515625 108.12890625 C-23.25472781 107.68078077 -31.27468797 103.48247475 -37.28515625 97.62890625 C-42.11975933 91.84686264 -46.52252635 85.67114587 -49.28515625 78.62890625 C-49.65640625 77.71753906 -50.02765625 76.80617188 -50.41015625 75.8671875 C-56.93923556 57.07341408 -54.49301829 35.86309386 -45.97265625 18.19140625 C-40.55028775 7.97985453 -33.86171041 1.10149357 -23.28515625 -3.74609375 C-14.89199047 -5.49466995 -7.38383744 -4.43030246 0 0 Z " fill="#5D4037" transform="translate(271.28515625,316.37109375)"/>
<path d="M0 0 C1.87236583 0.02513134 3.7447644 0.04793591 5.6171875 0.06835938 C10.16228031 0.12293233 14.70577046 0.20893236 19.25 0.3125 C19.64179443 2.23171265 19.64179443 2.23171265 20.04150391 4.18969727 C20.3946733 5.89863819 20.7480365 7.60753906 21.1015625 9.31640625 C21.35788452 10.5759613 21.35788452 10.5759613 21.61938477 11.86096191 C25.91429488 32.52959111 34.46675263 50.8995024 50.25 65.3125 C45.41528489 68.03014389 40.37134137 68.29593367 34.9375 68.9375 C33.84058838 69.06938721 32.74367676 69.20127441 31.61352539 69.3371582 C20.48454489 70.56963961 9.43081349 70.62294548 -1.75 70.3125 C-1.95496094 71.02277344 -2.15992188 71.73304688 -2.37109375 72.46484375 C-2.64050781 73.38394531 -2.90992188 74.30304688 -3.1875 75.25 C-3.45433594 76.16652344 -3.72117188 77.08304687 -3.99609375 78.02734375 C-4.75 80.3125 -4.75 80.3125 -5.75 81.3125 C-17.71351326 82.35175469 -28.55703474 79.74878976 -37.875 72.125 C-47.21325206 63.52059879 -50.95677559 53.56402571 -51.6796875 41.0859375 C-51.98611162 28.99920833 -46.25088971 18.36630043 -38.234375 9.66796875 C-27.31999751 -0.79605822 -14.08950351 -0.33088607 0 0 Z " fill="#FED500" transform="translate(166.75,375.6875)"/>
<path d="M0 0 C40.92 0 81.84 0 124 0 C121.74548302 10.1453264 121.74548302 10.1453264 119.86328125 14.890625 C119.45392334 15.92445313 119.04456543 16.95828125 118.62280273 18.0234375 C118.19040283 19.08820313 117.75800293 20.15296875 117.3125 21.25 C116.6474646 22.90128906 116.6474646 22.90128906 115.96899414 24.5859375 C108.0465859 43.9534141 108.0465859 43.9534141 104 48 C102.2507128 48.09365006 100.49763746 48.11744438 98.74584961 48.11352539 C97.62476303 48.11344986 96.50367645 48.11337433 95.34861755 48.11329651 C93.51896202 48.10555458 93.51896202 48.10555458 91.65234375 48.09765625 C90.41078018 48.0962413 89.16921661 48.09482635 87.89002991 48.09336853 C84.58394509 48.08870591 81.27792854 48.07971497 77.97186279 48.06866455 C74.6003885 48.05844827 71.22890717 48.05387045 67.85742188 48.04882812 C61.23826225 48.03777395 54.61913507 48.02101736 48 48 C47.54689453 47.06406006 47.09378906 46.12812012 46.62695312 45.16381836 C35.98048395 23.38040864 22.4398152 10.94316723 0 2 C0 1.34 0 0.68 0 0 Z " fill="#FED500" transform="translate(270,280)"/>
<path d="M0 0 C11.67439151 1.83803458 21.11508327 8.56456808 28 18 C34.67139802 28.46493807 36.5235215 37.8010397 33.875 49.9375 C31.06901232 60.24360427 25.30686289 69.21755962 16.0625 74.76171875 C7.25088255 79.39429704 7.25088255 79.39429704 2 79 C1.61521484 77.76636719 1.61521484 77.76636719 1.22265625 76.5078125 C-2.46787768 65.74686172 -8.05910081 57.87538796 -17.8828125 51.9375 C-25.58578279 48.52659065 -33.10176406 48.57697644 -41.4375 48.375 C-42.74138672 48.33632813 -44.04527344 48.29765625 -45.38867188 48.2578125 C-48.59230999 48.16393299 -51.79594832 48.07824846 -55 48 C-51.44265984 43.15543911 -47.77995905 38.51365992 -43.8125 34 C-39.64251541 29.1599937 -35.86262434 24.14289037 -32.25 18.875 C-31.54472168 17.86663086 -31.54472168 17.86663086 -30.82519531 16.83789062 C-28.72348825 13.78004855 -26.97469449 10.94323879 -25.45703125 7.5390625 C-20.46528131 -3.33931692 -10.41002571 -1.337763 0 0 Z " fill="#EFB505" transform="translate(394,328)"/>
<path d="M0 0 C15.26312896 -0.33709978 26.50374813 0.13894893 38.3359375 11.1796875 C46.84030067 20.31634533 50.54318456 29.99047615 50.3125 42.51953125 C49.30615434 53.72770607 45.18605296 62.73118144 36.625 70 C35.325625 70.99 35.325625 70.99 34 72 C33.50371094 71.27554688 33.00742187 70.55109375 32.49609375 69.8046875 C25.55064351 59.92027065 18.33874014 52.04079871 5.93945312 49.59326172 C1.310805 48.86452637 -3.33205055 48.39241231 -8 48 C-7.16101513 41.4389498 -5.84643919 34.98633963 -4.5625 28.5 C-2.70884655 19.0254765 -1.06107379 9.59717487 0 0 Z " fill="#EFB505" transform="translate(403,232)"/>
<path d="M0 0 C4.97447267 2.3095766 7.31899945 5.280301 10 10 C10.48101807 13.3789978 10.48101807 13.3789978 10.45410156 17.10693359 C10.45468567 17.79055969 10.45526978 18.47418579 10.45587158 19.17852783 C10.45310371 21.41902975 10.42207681 23.65817051 10.390625 25.8984375 C10.38315791 27.45927199 10.37746719 29.02011589 10.37347412 30.58096313 C10.35825441 34.67468478 10.31900507 38.76783222 10.2746582 42.86132812 C10.22640249 47.78054439 10.20815396 52.69995342 10.18484497 57.61933899 C10.14615089 65.07995779 10.0694735 72.53931851 10 80 C-0.56 80 -11.12 80 -22 80 C-22.16043524 62.77103812 -22.16043524 62.77103812 -22.1953125 55.41015625 C-22.21919659 50.39321915 -22.24740929 45.3765749 -22.30175781 40.35986328 C-22.34531419 36.31387758 -22.3691577 32.26820605 -22.37950897 28.22200394 C-22.38688286 26.68065065 -22.40128257 25.13931398 -22.42292023 23.59809494 C-22.45208611 21.43400064 -22.45595076 19.27119375 -22.45410156 17.10693359 C-22.46298401 15.87671478 -22.47186646 14.64649597 -22.48101807 13.3789978 C-21.74442897 8.20469542 -19.21864835 5.15771594 -15.5 1.625 C-10.33499991 -0.77303575 -5.5997712 -0.75381535 0 0 Z " fill="#6D4C40" transform="translate(262,8)"/>
<path d="M0 0 C-0.62793764 17.89622283 -11.76133604 34.69588864 -24 47 C-24.58910156 47.62390625 -25.17820312 48.2478125 -25.78515625 48.890625 C-37.2506007 60.07888288 -54.21695366 65.5382734 -69.92651367 65.42236328 C-80.98947169 65.01844189 -91.93804628 61.41554246 -101 55 C-102.80078125 52.8125 -102.80078125 52.8125 -104 51 C-99.0301292 49.04632665 -94.10877605 47.4293177 -88.94921875 46.06176758 C-58.60732958 37.96695212 -31.21017143 23.36918949 -6.609375 4.03125 C-1.43076923 0 -1.43076923 0 0 0 Z " fill="#5E4036" transform="translate(323,391)"/>
<path d="M0 0 C4.62971788 4.99522192 5.4136038 8.31333715 5.34375 14.984375 C4.47195783 22.63236994 -0.28776096 29.94164577 -6 35 C-13.42561626 40.20146178 -19.82806448 43.14848584 -29 42 C-33.41777034 39.74943775 -36.21655791 37.07347161 -39 33 C-40.61289933 25.10307731 -39.10565429 18.27322328 -34.89453125 11.5078125 C-26.425075 0.29669722 -13.51607615 -7.39558884 0 0 Z " fill="#FFFEFA" transform="translate(206,158)"/>
<path d="M0 0 C0.54269531 0.69738281 1.08539063 1.39476562 1.64453125 2.11328125 C4.67471626 5.82689108 7.92570511 9.30263018 11.19726562 12.80273438 C14.89659656 16.79319311 14.89659656 16.79319311 16 19 C9.98024532 20.45365928 4.03678987 21.51134117 -2.125 22.125 C-2.96450195 22.20991699 -3.80400391 22.29483398 -4.66894531 22.38232422 C-15.0956519 23.33107434 -25.5416528 23.18502792 -36 23 C-29.42005251 12.73675687 -22.5402868 5.13968308 -10.3828125 2.09375 C-6.9295839 1.34335022 -3.47446397 0.6441422 0 0 Z " fill="#FEC007" transform="translate(201,423)"/>
<path d="M0 0 C9.98485742 4.38359594 16.66980606 11.91577612 20.875 21.9375 C23.103324 29.20887306 22.16564254 37.54608582 22 45 C15.07 44.67 8.14 44.34 1 44 C1.01160156 41.82921875 1.02320313 39.6584375 1.03515625 37.421875 C1.04299529 35.27701971 1.04904434 33.13216612 1.05493164 30.98730469 C1.05990456 29.51724512 1.06668527 28.04719035 1.07543945 26.57714844 C1.12707848 17.67093501 0.9431858 8.86828584 0 0 Z " fill="#FEC106" transform="translate(402,188)"/>
<path d="M0 0 C2.5625 1.4375 2.5625 1.4375 4 4 C4.42242745 8.63790141 3.67902272 12.65224322 0.8125 16.375 C-2.96820961 19.9036623 -5.98133806 21.71738733 -11.125 22.4375 C-14 22 -14 22 -16.375 20.5 C-18.63286045 17.02636853 -18.75030151 13.96587939 -18 10 C-14.06052703 2.12105407 -8.56638978 -1.10534062 0 0 Z " fill="#FFFDF8" transform="translate(153,189)"/>
<path d="M0 0 C13.00493838 1.28816039 26.00467981 2.61814469 39 4 C38.5247412 5.64696604 38.04468109 7.29254728 37.5625 8.9375 C37.29566406 9.85402344 37.02882812 10.77054687 36.75390625 11.71484375 C36 14 36 14 35 15 C23.11606922 16.03234146 12.30483186 13.45222392 3 5.9375 C1.25 4.46484375 1.25 4.46484375 0 3 C0 2.01 0 1.02 0 0 Z " fill="#FEC206" transform="translate(126,442)"/>
<path d="M0 0 C4.29 0 8.58 0 13 0 C9.02429083 4.94539433 5.29403111 8.50593947 0 12 C0 8.04 0 4.08 0 0 Z " fill="#FBD102" transform="translate(325,376)"/>
</svg>
