<?xml version="1.0" encoding="UTF-8"?>
<svg version="1.1" xmlns="http://www.w3.org/2000/svg" width="512" height="512">
<path d="M0 0 C2.17530918 0.43992579 4.35084601 0.8787272 6.52659607 1.31646729 C12.23391191 2.46780427 17.93806924 3.63409227 23.6416626 4.80371094 C29.38885892 5.97962439 35.13885689 7.14165881 40.88867188 8.3046875 C48.3864113 9.82246569 55.8833271 11.34410804 63.37818813 12.87604141 C66.25488464 13.46337405 69.13220334 14.04758596 72.009552 14.63171387 C75.73538048 15.38927443 79.45697864 16.1644497 83.17672729 16.95129395 C84.95757385 17.32205375 86.73842683 17.69278269 88.51928711 18.06347656 C89.31635102 18.23594784 90.11341494 18.40841911 90.9346323 18.58611679 C100.8763921 20.63604444 109.54511082 19.28029741 119.46337891 17.5625 C120.86044383 17.32545371 122.25761284 17.0890202 123.65487671 16.85314941 C126.65212589 16.34603337 129.64866761 15.83498342 132.64473343 15.32092285 C137.39456669 14.50635816 142.14624446 13.7029408 146.89828491 12.90136719 C159.55674063 10.76443855 172.21292245 8.61417964 184.86756837 6.45480728 C193.18560315 5.03544264 201.50470722 3.62273174 209.82597196 2.22241592 C214.537083 1.429091 219.24628524 0.62550613 223.95428014 -0.18609619 C226.9015076 -0.69166046 229.85031793 -1.18747003 232.7996254 -1.68074036 C234.79012198 -2.01651997 236.77869319 -2.36365357 238.76715088 -2.71130371 C250.03313887 -4.57713556 261.25706303 -5.78966994 272.19702148 -1.91113281 C272.94860031 -1.66396515 273.70017914 -1.41679749 274.47453308 -1.16213989 C276.90435853 -0.35735318 279.32288156 0.47667918 281.7421875 1.3125 C283.45364206 1.88747159 285.16565457 2.46078477 286.87818909 3.03253174 C290.44174506 4.22699485 294.00029317 5.43497893 297.55541992 6.65429688 C302.0968613 8.21164843 306.64628379 9.74382436 311.19923306 11.26716232 C314.72484664 12.44801432 318.24759985 13.63719921 321.76939583 14.82938385 C323.44614513 15.39691053 325.12337823 15.96301006 326.80111504 16.52761078 C329.14541983 17.31900375 331.48607459 18.12035915 333.82592773 18.92480469 C334.50812378 19.15354279 335.19031982 19.38228088 335.89318848 19.61795044 C343.17447626 22.14693325 348.76331581 24.75895802 352.55859375 31.765625 C354.16816664 35.9236883 354.28415502 40.58479514 352.875 44.8203125 C350.62673951 49.76461981 347.99104814 52.65347618 343.55859375 55.765625 C334.15059483 58.90162464 325.40039898 55.46289528 316.47366333 52.32064819 C314.13718739 51.49931187 311.794354 50.69909304 309.44897461 49.90356445 C301.98156513 47.36354975 294.53651857 44.76219546 287.10205078 42.12747192 C283.88591268 40.9926632 280.66347029 39.87650066 277.43988037 38.76306152 C275.17817145 37.97306185 272.92770862 37.15563057 270.67626953 36.33691406 C269.26385392 35.846842 267.85095325 35.35816499 266.4375 34.87109375 C264.62100952 34.22370239 264.62100952 34.22370239 262.76782227 33.56323242 C253.13022264 31.10743731 241.65542421 34.24595408 232.04492188 35.86694336 C230.76358368 36.07845535 229.48224548 36.28996735 228.16207886 36.50788879 C224.69066005 37.08120107 221.22045287 37.66154338 217.75049019 38.24359584 C214.10193014 38.85466992 210.45244004 39.46014497 206.80310059 40.06654358 C200.68673322 41.08382547 194.57117224 42.10584918 188.45605469 43.13061523 C181.39461134 44.31389145 174.3318326 45.48892654 167.26831865 46.65977377 C161.18240248 47.66879653 155.09723566 48.6822467 149.01267195 49.69939333 C145.38741877 50.30541698 141.76193047 50.90992227 138.13575745 51.51041985 C134.10176845 52.17875074 130.06939172 52.85636039 126.03710938 53.53491211 C124.84121185 53.73186676 123.64531433 53.92882141 122.41317749 54.13174438 C121.31442291 54.31815994 120.21566833 54.5045755 119.08361816 54.69664001 C118.13169838 54.85573318 117.17977859 55.01482634 116.19901276 55.1787405 C110.45047089 56.45646578 107.08427958 58.81573889 103.0390625 62.9921875 C102.28391106 63.75370621 102.28391106 63.75370621 101.51350403 64.53060913 C99.91714798 66.14367323 98.33157816 67.76688106 96.74609375 69.390625 C95.66150441 70.49027134 94.57622493 71.58923745 93.49023438 72.6875 C90.83829983 75.37239918 88.19598529 78.06644188 85.55859375 80.765625 C86.86832405 80.77109344 86.86832405 80.77109344 88.20451355 80.77667236 C96.48587503 80.81474465 104.76685036 80.87181281 113.04793835 80.94952774 C117.30402723 80.98881814 121.55991493 81.02109598 125.81616211 81.03662109 C129.93373723 81.05191054 134.05075853 81.08656901 138.1680851 81.13393402 C139.72867292 81.1486225 141.28933986 81.1566587 142.84999657 81.15750885 C155.33259355 81.17113065 167.67535528 82.17004189 177.5546875 90.6484375 C185.75903308 99.3165765 189.09231917 108.23015682 188.80078125 119.97265625 C188.02779084 128.88698118 184.54112131 136.12823821 178.55859375 142.765625 C174.53787214 146.12131072 170.5512467 149.10140735 165.55859375 150.765625 C166.42641479 150.77964355 166.42641479 150.77964355 167.31176758 150.79394531 C182.52506741 151.10272187 194.04552329 151.43081355 205.46484375 162.54296875 C212.78631191 170.31519894 215.2178075 179.19377652 214.90625 189.74609375 C213.76189097 199.68530194 209.00891062 208.00546326 201.55859375 214.578125 C198.65568336 216.69483049 195.78269009 218.20283386 192.55859375 219.765625 C193.74195313 219.80300781 194.9253125 219.84039062 196.14453125 219.87890625 C209.79180915 220.4031905 220.88581139 221.7109474 231.3125 231.39453125 C238.51873597 239.17871096 240.9125087 248.24647241 240.76171875 258.61328125 C240.13920862 268.27415967 236.1243121 275.70166496 229.55859375 282.765625 C224.71475197 286.57203379 219.83717877 289.43517316 213.55859375 289.765625 C213.55859375 290.425625 213.55859375 291.085625 213.55859375 291.765625 C214.38359375 291.8275 215.20859375 291.889375 216.05859375 291.953125 C225.64942932 294.17956897 232.12683508 301.42128882 237.265625 309.453125 C241.49000903 317.0085188 241.82187117 326.37516284 239.87109375 334.69921875 C236.42294131 345.05804339 230.36663486 352.63575202 220.66796875 357.765625 C214.31485059 360.6383393 208.09774871 360.99825053 201.24609375 361.328125 C200.41013672 361.37130859 199.57417969 361.41449219 198.71289062 361.45898438 C196.6616244 361.56447807 194.61012895 361.66549815 192.55859375 361.765625 C193.19925781 362.1059375 193.83992188 362.44625 194.5 362.796875 C204.69956142 368.51227753 210.73495015 375.44191592 214.140625 386.6875 C215.9416059 395.6419097 214.64600285 404.64559782 210.55859375 412.765625 C204.68674754 421.03696829 197.44083492 427.16445016 187.55859375 429.765625 C183.77126331 430.13944888 179.98647851 430.27285825 176.18359375 430.390625 C175.16136719 430.42929687 174.13914062 430.46796875 173.0859375 430.5078125 C170.57699778 430.60160464 168.06805611 430.68730379 165.55859375 430.765625 C166.37046143 431.16068237 166.37046143 431.16068237 167.19873047 431.5637207 C168.27018311 432.09098755 168.27018311 432.09098755 169.36328125 432.62890625 C170.06952637 432.97477783 170.77577148 433.32064941 171.50341797 433.67700195 C179.48494091 437.90480081 184.57216563 445.19067998 187.43359375 453.640625 C190.00920195 463.54445175 189.0004158 473.04745312 184.33984375 482.14453125 C178.81058035 491.22173866 171.58016629 496.00466479 161.48856163 498.953722 C153.78494373 500.7547595 145.74131707 500.31101895 137.88208008 500.26733398 C135.9259655 500.27112403 133.96985362 500.27662968 132.01374817 500.28370667 C126.7370396 500.29758635 121.46065981 500.28654557 116.18396974 500.26999545 C110.64467293 500.25607431 105.10539384 500.26261282 99.56608582 500.26612854 C90.26999657 500.26882442 80.97403692 500.25540636 71.67797852 500.23217773 C60.94705006 500.2055485 50.21633782 500.20383073 39.48538762 500.2155661 C29.136086 500.22636158 18.78686221 500.22014441 8.43756676 500.20601082 C4.04426917 500.20026876 -0.34897113 500.20031961 -4.74226952 500.20507622 C-9.91755799 500.20986426 -15.09261097 500.19966877 -20.26785469 500.17812157 C-22.16163718 500.17257926 -24.05544241 500.17206478 -25.94922638 500.17707443 C-39.79437019 500.20909449 -51.89717771 499.66825396 -62.57421875 489.79296875 C-70.61028694 481.38623321 -73.07815519 473.44177822 -72.90795898 462.02124023 C-72.46798796 451.89515525 -68.93143313 445.32923494 -61.96875 437.97265625 C-58.16245696 434.6487682 -54.0690637 432.68944538 -49.44140625 430.765625 C-50.06072021 430.75104248 -50.68003418 430.73645996 -51.31811523 430.72143555 C-54.17228398 430.64615083 -57.02538374 430.54976186 -59.87890625 430.453125 C-60.85279297 430.43056641 -61.82667969 430.40800781 -62.83007812 430.38476562 C-73.6061126 429.98832289 -81.62923525 427.39280834 -89.44140625 419.765625 C-97.56671955 409.98429546 -99.3000229 401.21006794 -98.63671875 388.77587891 C-98.20035881 384.28464418 -96.69725503 380.62673295 -94.44140625 376.765625 C-94.04050781 376.06179688 -93.63960937 375.35796875 -93.2265625 374.6328125 C-89.25778012 368.58185734 -83.63718397 365.29346996 -77.44140625 361.765625 C-78.62476563 361.72824219 -79.808125 361.69085938 -81.02734375 361.65234375 C-94.35916997 361.141535 -105.0662192 360.02982484 -115.44140625 350.765625 C-117.84951551 347.94180003 -119.69964928 345.03644914 -121.44140625 341.765625 C-122.06015625 340.610625 -122.67890625 339.455625 -123.31640625 338.265625 C-126.24362483 329.53655402 -125.8488456 317.27501549 -121.83203125 308.97265625 C-116.85012845 301.06598466 -110.26690995 294.11797407 -100.94140625 291.953125 C-99.70390625 291.8603125 -99.70390625 291.8603125 -98.44140625 291.765625 C-98.44140625 291.105625 -98.44140625 290.445625 -98.44140625 289.765625 C-99.24578125 289.724375 -100.05015625 289.683125 -100.87890625 289.640625 C-110.01287653 287.3971937 -116.92850599 280.45070323 -121.76171875 272.62890625 C-125.85649001 264.19596824 -125.74662137 253.76652529 -123.78125 244.73046875 C-120.60984759 235.84779619 -113.59272267 228.39870005 -105.44140625 223.765625 C-96.60542369 220.01436209 -86.89003121 220.08685609 -77.44140625 219.765625 C-78.40240234 219.27255859 -78.40240234 219.27255859 -79.3828125 218.76953125 C-88.29282312 213.86968935 -94.29984476 207.35974151 -97.78125 197.69921875 C-100.27549284 186.61533487 -98.92568807 176.34392497 -93.15625 166.59375 C-88.01820565 158.97971213 -80.2775255 154.12920752 -71.44140625 151.765625 C-67.7762489 151.3012255 -64.13269891 151.16722517 -60.44140625 151.078125 C-59.47589844 151.04396484 -58.51039062 151.00980469 -57.515625 150.97460938 C-55.15766843 150.89289801 -52.80004762 150.82350381 -50.44140625 150.765625 C-51.385 150.27255859 -51.385 150.27255859 -52.34765625 149.76953125 C-61.17027156 144.86660196 -68.40145648 138.52262435 -71.81640625 128.765625 C-73.8717469 118.89998988 -73.97420212 107.47715454 -68.44140625 98.765625 C-62.52508925 90.39772633 -54.89611406 84.35329861 -44.70361328 82.18254089 C-41.15303881 81.72877113 -37.92399821 81.81845873 -34.3515625 82.03637695 C-32.93234878 82.11434095 -31.51304693 82.1907124 -30.09367371 82.26571655 C-29.34714224 82.30592297 -28.60061077 82.34612938 -27.83145714 82.38755417 C12.11708462 86.20370717 12.11708462 86.20370717 47.46389771 72.02732849 C53.84217574 65.72593261 59.12076354 58.53615831 63.55859375 50.765625 C45.14390161 46.78314373 26.71575621 42.87549145 8.25097656 39.13110352 C5.58551497 38.58983707 2.92165151 38.04145815 0.25878906 37.48754883 C-3.66452234 36.67159143 -7.59173883 35.87614103 -11.51953125 35.08203125 C-12.7028302 34.83320694 -13.88612915 34.58438263 -15.10528564 34.32801819 C-16.21555115 34.10705978 -17.32581665 33.88610138 -18.46972656 33.65844727 C-19.43340149 33.46114517 -20.39707642 33.26384308 -21.38995361 33.06056213 C-27.84349175 32.43679756 -33.45095724 33.89500714 -39.5090332 35.99047852 C-40.49377625 36.32719574 -40.49377625 36.32719574 -41.49841309 36.67071533 C-42.90991713 37.15415575 -44.32027119 37.6409648 -45.7295475 38.13086128 C-47.96928043 38.90827398 -50.21262883 39.67427409 -52.45732117 40.4372406 C-58.83422375 42.60639814 -65.20554965 44.79148747 -71.57104492 46.99389648 C-75.4788032 48.34506267 -79.39192182 49.67961836 -83.30870628 51.00437737 C-84.78943198 51.50882638 -86.26806657 52.01946177 -87.74437904 52.53668404 C-106.12694449 58.97349663 -106.12694449 58.97349663 -114.51582336 56.04029846 C-119.06903566 53.68883033 -122.16888575 50.31066601 -124.44140625 45.765625 C-124.9346938 39.91086789 -125.29884913 34.57578219 -122.75390625 29.203125 C-118.0404874 24.23492675 -113.74841389 21.8600611 -107.35546875 19.76953125 C-106.5578714 19.49935684 -105.76027405 19.22918243 -104.93850708 18.95082092 C-102.3178791 18.06605125 -99.69251717 17.1964732 -97.06640625 16.328125 C-95.23578098 15.71664616 -93.40538022 15.10449481 -91.57519531 14.49169922 C-88.73757385 13.54224301 -85.89953843 12.59415314 -83.05993652 11.65063477 C-77.42097938 9.77487927 -71.79872988 7.85811847 -66.18991089 5.89408875 C-62.69567025 4.67150866 -59.19619308 3.46437246 -55.69598389 2.25900269 C-54.04560148 1.68678834 -52.39744791 1.10809851 -50.75177002 0.52249146 C-48.44083199 -0.29812433 -46.12234417 -1.0928413 -43.80078125 -1.8828125 C-43.14490021 -2.12273422 -42.48901917 -2.36265594 -41.81326294 -2.60984802 C-28.14580624 -7.15043161 -13.60002566 -2.81038941 0 0 Z " fill="#F2D45A" transform="translate(137.44140625,4.234375)"/>
<path d="M0 0 C1.10302963 -0.00029205 2.20605927 -0.00058411 3.34251404 -0.00088501 C6.97858622 0.00050532 10.61445201 0.01605282 14.25048828 0.03173828 C16.77539966 0.03546946 19.30031249 0.03831594 21.82522583 0.04031372 C27.78556656 0.04716274 33.74584137 0.0629164 39.70614827 0.0830127 C48.35297802 0.11153148 56.99983302 0.12197255 65.646698 0.1346283 C77.74645996 0.15400823 89.84602932 0.19233674 101.94580078 0.22705078 C101.94580078 23.32705078 101.94580078 46.42705078 101.94580078 70.22705078 C130.65580078 70.22705078 159.36580078 70.22705078 188.94580078 70.22705078 C188.61580078 47.12705078 188.28580078 24.02705078 187.94580078 0.22705078 C215.74566218 0.06661554 215.74566218 0.06661554 227.62548828 0.03173828 C235.7212995 0.00785738 243.81693061 -0.01974427 251.91259766 -0.07470703 C258.4418784 -0.11901401 264.97103758 -0.14210928 271.50046158 -0.15245819 C273.9874592 -0.15983028 276.47444656 -0.17422616 278.96136093 -0.19586945 C282.45363886 -0.22504454 285.94511917 -0.22889918 289.4375 -0.22705078 C290.45818069 -0.24143188 291.47886139 -0.25581299 292.5304718 -0.27062988 C301.89910608 -0.21722143 311.06393642 2.60426838 317.94580078 9.22705078 C325.41630298 17.94004814 328.63198885 26.74159413 328.29345703 38.20751953 C327.21588938 47.56661835 323.02843366 55.67234922 316.02783203 61.94580078 C307.52883206 68.65294196 299.22332402 70.27969173 288.63330078 70.78955078 C287.37936523 70.85432617 287.37936523 70.85432617 286.10009766 70.92041016 C284.04883143 71.02590385 281.99733598 71.12692393 279.94580078 71.22705078 C280.58646484 71.56736328 281.22712891 71.90767578 281.88720703 72.25830078 C292.08676846 77.97370331 298.12215718 84.9033417 301.52783203 96.14892578 C303.32881293 105.10333549 302.03320988 114.1070236 297.94580078 122.22705078 C292.07395457 130.49839407 284.82804195 136.62587594 274.94580078 139.22705078 C271.15847034 139.60087466 267.37368554 139.73428403 263.57080078 139.85205078 C262.54857422 139.89072266 261.52634766 139.92939453 260.47314453 139.96923828 C257.96420481 140.06303042 255.45526314 140.14872958 252.94580078 140.22705078 C253.75766846 140.62210815 253.75766846 140.62210815 254.5859375 141.02514648 C255.30023926 141.37665771 256.01454102 141.72816895 256.75048828 142.09033203 C257.4567334 142.43620361 258.16297852 142.7820752 258.890625 143.13842773 C266.87214794 147.36622659 271.95937266 154.65210576 274.82080078 163.10205078 C277.39640898 173.00587753 276.38762283 182.5088789 271.72705078 191.60595703 C266.19778738 200.68316444 258.96737332 205.46609057 248.87576866 208.41514778 C241.17215077 210.21618528 233.1285241 209.77244473 225.26928711 209.72875977 C223.31317253 209.73254981 221.35706065 209.73805547 219.4009552 209.74513245 C214.12424663 209.75901213 208.84786685 209.74797136 203.57117677 209.73142123 C198.03187996 209.7175001 192.49260087 209.7240386 186.95329285 209.72755432 C177.65720361 209.7302502 168.36124395 209.71683214 159.06518555 209.69360352 C148.33425709 209.66697428 137.60354485 209.66525652 126.87259465 209.67699188 C116.52329303 209.68778736 106.17406924 209.68157019 95.82477379 209.6674366 C91.4314762 209.66169454 87.0382359 209.66174539 82.64493752 209.666502 C77.46964904 209.67129004 72.29459607 209.66109455 67.11935234 209.63954735 C65.22556986 209.63400504 63.33176462 209.63349056 61.43798065 209.63850021 C47.59283684 209.67052027 35.49002932 209.12967974 24.81298828 199.25439453 C16.77692009 190.84765899 14.30905184 182.903204 14.47924805 171.48266602 C14.91921907 161.35658103 18.4557739 154.79066072 25.41845703 147.43408203 C29.22475007 144.11019398 33.31814333 142.15087116 37.94580078 140.22705078 C37.32648682 140.21246826 36.70717285 140.19788574 36.0690918 140.18286133 C33.21492305 140.10757661 30.36182329 140.01118765 27.50830078 139.91455078 C26.0474707 139.88071289 26.0474707 139.88071289 24.55712891 139.84619141 C13.78109443 139.44974867 5.75797178 136.85423412 -2.05419922 129.22705078 C-10.17951252 119.44572124 -11.91281587 110.67149372 -11.24951172 98.23730469 C-10.81315177 93.74606996 -9.310048 90.08815873 -7.05419922 86.22705078 C-6.65330078 85.52322266 -6.25240234 84.81939453 -5.83935547 84.09423828 C-1.87057309 78.04328312 3.75002306 74.75489574 9.94580078 71.22705078 C8.76244141 71.18966797 7.57908203 71.15228516 6.35986328 71.11376953 C-6.97196294 70.60296078 -17.67901216 69.49125062 -28.05419922 60.22705078 C-30.46230848 57.40322581 -32.31244225 54.49787493 -34.05419922 51.22705078 C-34.67294922 50.07205078 -35.29169922 48.91705078 -35.92919922 47.72705078 C-38.8564178 38.9979798 -38.46163857 26.73644127 -34.44482422 18.43408203 C-26.00562327 5.04040638 -15.4814071 -0.107549 0 0 Z " fill="#F0C419" transform="translate(50.05419921875,294.77294921875)"/>
<path d="M0 0 C1.24782649 -0.00467997 2.49565297 -0.00935994 3.78129238 -0.01418173 C7.21478979 -0.02401898 10.64778904 -0.02055819 14.08125532 -0.01122308 C17.79568778 -0.00440013 21.51007854 -0.01492976 25.22450256 -0.02316284 C32.48886871 -0.03646754 39.75314159 -0.03363716 47.01751132 -0.02492492 C52.92344484 -0.01813641 58.82935231 -0.01723669 64.73528862 -0.02049637 C65.57739618 -0.02095607 66.41950374 -0.02141577 67.28712971 -0.0218894 C68.99810053 -0.02284862 70.70907134 -0.02382126 72.42004215 -0.02480717 C88.4444956 -0.03335137 104.46889746 -0.02354191 120.49334245 -0.00740607 C134.23068978 0.00599867 147.96796105 0.00366585 161.70530701 -0.01016235 C177.67586723 -0.02623112 193.64638232 -0.03253005 209.6169495 -0.02332556 C211.3211501 -0.02236996 213.0253507 -0.02142685 214.72955132 -0.02049637 C215.98715378 -0.01980213 215.98715378 -0.01980213 217.27016236 -0.01909386 C223.16667695 -0.01650805 229.0631628 -0.0208661 234.95967293 -0.02793503 C242.14879502 -0.03636453 249.3378189 -0.03403936 256.5269298 -0.0180928 C260.19200732 -0.01022992 263.85692129 -0.00708445 267.52199745 -0.01704025 C271.50075926 -0.02768441 275.47925558 -0.01494098 279.45800781 0 C281.18316906 -0.01003825 281.18316906 -0.01003825 282.94318205 -0.02027929 C294.70601743 0.06527921 304.19809055 2.91009395 312.91941833 11.00985718 C320.12565431 18.79403689 322.51942703 27.86179833 322.36863708 38.22860718 C321.74641895 47.88495406 317.73487388 55.32414913 311.16551208 62.38095093 C302.60421313 68.98990436 294.70364085 70.68158638 284.11131287 70.60800171 C283.00828323 70.60829376 281.9052536 70.60858582 280.76879883 70.60888672 C277.13272665 70.60749639 273.49686085 70.59194889 269.86082458 70.57626343 C267.33591321 70.57253225 264.81100038 70.56968577 262.28608704 70.56768799 C256.3257463 70.56083897 250.3654715 70.5450853 244.4051646 70.52498901 C237.61677325 70.50259969 230.8283783 70.49162897 224.03995919 70.48159814 C210.08176939 70.46071817 196.12364478 70.42556117 182.16551208 70.38095093 C182.49551208 71.37095093 182.82551208 72.36095093 183.16551208 73.38095093 C183.2550354 75.54308486 183.28309748 77.70793504 183.27903748 79.87191772 C183.27915801 80.53639577 183.27927855 81.20087381 183.27940273 81.88548756 C183.27865708 84.03374913 183.27104471 86.18192365 183.26316833 88.33016968 C183.26216125 89.64424805 183.26115417 90.95832642 183.26011658 92.31222534 C183.25487618 97.23097605 183.24091496 102.14971435 183.22801208 107.06845093 C183.20738708 118.06157593 183.18676208 129.05470093 183.16551208 140.38095093 C154.45551208 140.38095093 125.74551208 140.38095093 96.16551208 140.38095093 C96.16551208 117.28095093 96.16551208 94.18095093 96.16551208 70.38095093 C88.12434021 70.42735718 80.08316833 70.47376343 71.79832458 70.52157593 C66.69414495 70.54202194 61.59001604 70.56127834 56.48582458 70.57626343 C48.39001337 70.60014432 40.29438226 70.62774598 32.19871521 70.68270874 C25.66943447 70.72701572 19.14027528 70.75011099 12.61085129 70.7604599 C10.12385367 70.76783199 7.63686631 70.78222787 5.14995193 70.80387115 C1.657674 70.83304625 -1.8338063 70.83690089 -5.32618713 70.83505249 C-6.34686783 70.84943359 -7.36754852 70.8638147 -8.41915894 70.87863159 C-19.16817743 70.81735389 -26.87886366 67.25901233 -34.63136292 59.89657593 C-42.51650009 50.89297957 -43.51112301 40.90711479 -43.0092926 29.43954468 C-42.2176089 20.11625277 -36.54438808 13.78151443 -29.99073792 7.65829468 C-21.31468705 0.42232602 -10.86721787 -0.06335629 0 0 Z " fill="#EFC319" transform="translate(55.83448791503906,224.61904907226563)"/>
<path d="M0 0 C2.17530918 0.43992579 4.35084601 0.8787272 6.52659607 1.31646729 C12.23391191 2.46780427 17.93806924 3.63409227 23.6416626 4.80371094 C29.38885892 5.97962439 35.13885689 7.14165881 40.88867188 8.3046875 C48.3864113 9.82246569 55.8833271 11.34410804 63.37818813 12.87604141 C66.25488464 13.46337405 69.13220334 14.04758596 72.009552 14.63171387 C75.73538048 15.38927443 79.45697864 16.1644497 83.17672729 16.95129395 C84.95757385 17.32205375 86.73842683 17.69278269 88.51928711 18.06347656 C89.31635102 18.23594784 90.11341494 18.40841911 90.9346323 18.58611679 C100.8763921 20.63604444 109.54511082 19.28029741 119.46337891 17.5625 C120.86044383 17.32545371 122.25761284 17.0890202 123.65487671 16.85314941 C126.65212589 16.34603337 129.64866761 15.83498342 132.64473343 15.32092285 C137.39456669 14.50635816 142.14624446 13.7029408 146.89828491 12.90136719 C159.55674063 10.76443855 172.21292245 8.61417964 184.86756837 6.45480728 C193.18560315 5.03544264 201.50470722 3.62273174 209.82597196 2.22241592 C214.537083 1.429091 219.24628524 0.62550613 223.95428014 -0.18609619 C226.9015076 -0.69166046 229.85031793 -1.18747003 232.7996254 -1.68074036 C234.79012198 -2.01651997 236.77869319 -2.36365357 238.76715088 -2.71130371 C250.03313887 -4.57713556 261.25706303 -5.78966994 272.19702148 -1.91113281 C272.94860031 -1.66396515 273.70017914 -1.41679749 274.47453308 -1.16213989 C276.90435853 -0.35735318 279.32288156 0.47667918 281.7421875 1.3125 C283.45364206 1.88747159 285.16565457 2.46078477 286.87818909 3.03253174 C290.44174506 4.22699485 294.00029317 5.43497893 297.55541992 6.65429688 C302.0968613 8.21164843 306.64628379 9.74382436 311.19923306 11.26716232 C314.72484664 12.44801432 318.24759985 13.63719921 321.76939583 14.82938385 C323.44614513 15.39691053 325.12337823 15.96301006 326.80111504 16.52761078 C329.14541983 17.31900375 331.48607459 18.12035915 333.82592773 18.92480469 C334.50812378 19.15354279 335.19031982 19.38228088 335.89318848 19.61795044 C343.17447626 22.14693325 348.76331581 24.75895802 352.55859375 31.765625 C354.16816664 35.9236883 354.28415502 40.58479514 352.875 44.8203125 C350.62673951 49.76461981 347.99104814 52.65347618 343.55859375 55.765625 C334.15059483 58.90162464 325.40039898 55.46289528 316.47366333 52.32064819 C314.13718739 51.49931187 311.794354 50.69909304 309.44897461 49.90356445 C301.98156513 47.36354975 294.53651857 44.76219546 287.10205078 42.12747192 C283.88591268 40.9926632 280.66347029 39.87650066 277.43988037 38.76306152 C275.17817145 37.97306185 272.92770862 37.15563057 270.67626953 36.33691406 C269.26385392 35.846842 267.85095325 35.35816499 266.4375 34.87109375 C264.62100952 34.22370239 264.62100952 34.22370239 262.76782227 33.56323242 C253.13022264 31.10743731 241.65542421 34.24595408 232.04492188 35.86694336 C230.76358368 36.07845535 229.48224548 36.28996735 228.16207886 36.50788879 C224.69066005 37.08120107 221.22045287 37.66154338 217.75049019 38.24359584 C214.10193014 38.85466992 210.45244004 39.46014497 206.80310059 40.06654358 C200.68673322 41.08382547 194.57117224 42.10584918 188.45605469 43.13061523 C181.39461134 44.31389145 174.3318326 45.48892654 167.26831865 46.65977377 C161.18240248 47.66879653 155.09723566 48.6822467 149.01267195 49.69939333 C145.38741877 50.30541698 141.76193047 50.90992227 138.13575745 51.51041985 C134.10176845 52.17875074 130.06939172 52.85636039 126.03710938 53.53491211 C124.84121185 53.73186676 123.64531433 53.92882141 122.41317749 54.13174438 C121.31442291 54.31815994 120.21566833 54.5045755 119.08361816 54.69664001 C118.13169838 54.85573318 117.17977859 55.01482634 116.19901276 55.1787405 C110.13611615 56.52633724 107.85314321 58.27612912 104.359375 63.4296875 C97.2532474 72.96554308 89.85923027 82.114715 77.48925781 83.94091797 C62.91693091 85.28952554 48.09157945 84.17886573 33.55859375 82.765625 C34.8388225 79.95593033 36.16573504 77.9117012 38.35595703 75.74121094 C38.91638702 75.18093201 39.47681702 74.62065308 40.05422974 74.043396 C40.65637299 73.45157532 41.25851624 72.85975464 41.87890625 72.25 C42.49756561 71.63417053 43.11622498 71.01834106 43.75363159 70.3838501 C45.72563189 68.42302164 47.70448112 66.46927199 49.68359375 64.515625 C51.02389539 63.18535701 52.36374458 61.854633 53.703125 60.5234375 C56.98305964 57.2655235 60.26915317 54.01393967 63.55859375 50.765625 C45.14390161 46.78314373 26.71575621 42.87549145 8.25097656 39.13110352 C5.58551497 38.58983707 2.92165151 38.04145815 0.25878906 37.48754883 C-3.66452234 36.67159143 -7.59173883 35.87614103 -11.51953125 35.08203125 C-12.7028302 34.83320694 -13.88612915 34.58438263 -15.10528564 34.32801819 C-16.21555115 34.10705978 -17.32581665 33.88610138 -18.46972656 33.65844727 C-19.43340149 33.46114517 -20.39707642 33.26384308 -21.38995361 33.06056213 C-27.84349175 32.43679756 -33.45095724 33.89500714 -39.5090332 35.99047852 C-40.49377625 36.32719574 -40.49377625 36.32719574 -41.49841309 36.67071533 C-42.90991713 37.15415575 -44.32027119 37.6409648 -45.7295475 38.13086128 C-47.96928043 38.90827398 -50.21262883 39.67427409 -52.45732117 40.4372406 C-58.83422375 42.60639814 -65.20554965 44.79148747 -71.57104492 46.99389648 C-75.4788032 48.34506267 -79.39192182 49.67961836 -83.30870628 51.00437737 C-84.78943198 51.50882638 -86.26806657 52.01946177 -87.74437904 52.53668404 C-106.12694449 58.97349663 -106.12694449 58.97349663 -114.51582336 56.04029846 C-119.06903566 53.68883033 -122.16888575 50.31066601 -124.44140625 45.765625 C-124.9346938 39.91086789 -125.29884913 34.57578219 -122.75390625 29.203125 C-118.0404874 24.23492675 -113.74841389 21.8600611 -107.35546875 19.76953125 C-106.5578714 19.49935684 -105.76027405 19.22918243 -104.93850708 18.95082092 C-102.3178791 18.06605125 -99.69251717 17.1964732 -97.06640625 16.328125 C-95.23578098 15.71664616 -93.40538022 15.10449481 -91.57519531 14.49169922 C-88.73757385 13.54224301 -85.89953843 12.59415314 -83.05993652 11.65063477 C-77.42097938 9.77487927 -71.79872988 7.85811847 -66.18991089 5.89408875 C-62.69567025 4.67150866 -59.19619308 3.46437246 -55.69598389 2.25900269 C-54.04560148 1.68678834 -52.39744791 1.10809851 -50.75177002 0.52249146 C-48.44083199 -0.29812433 -46.12234417 -1.0928413 -43.80078125 -1.8828125 C-43.14490021 -2.12273422 -42.48901917 -2.36265594 -41.81326294 -2.60984802 C-28.14580624 -7.15043161 -13.60002566 -2.81038941 0 0 Z " fill="#805232" transform="translate(137.44140625,4.234375)"/>
<path d="M0 0 C0.84967563 -0.00367669 1.69935125 -0.00735338 2.57477462 -0.01114148 C5.43273952 -0.02218788 8.29066806 -0.0260238 11.14865112 -0.02983093 C13.19357926 -0.03609492 15.23850626 -0.04274166 17.28343201 -0.04974365 C22.84772682 -0.06716069 28.41201305 -0.07770762 33.97632837 -0.08594918 C37.45274537 -0.0910985 40.92915969 -0.09717431 44.4055748 -0.10346031 C55.28239063 -0.12251549 66.15919966 -0.1367452 77.03602898 -0.14507228 C89.59126107 -0.15484289 102.14631677 -0.18115656 114.70148671 -0.22157317 C124.40521841 -0.25173844 134.10889958 -0.2665416 143.81267726 -0.26985329 C149.60837364 -0.27220354 155.40388166 -0.28116076 161.19952774 -0.30631447 C166.65456351 -0.32960682 172.10928705 -0.33382358 177.56435966 -0.32355309 C179.56338858 -0.32305788 181.56243293 -0.32937371 183.56141472 -0.34310913 C186.2975813 -0.36085345 189.03263047 -0.35370944 191.76879883 -0.34057617 C192.55374509 -0.35154542 193.33869135 -0.36251466 194.14742386 -0.37381631 C203.19150629 -0.26952065 211.26128116 3.98614346 217.76535034 10.14717102 C224.51494879 18.10314566 227.39756908 27.0377834 227.04660034 37.42060852 C225.98459402 47.71616977 221.54662181 56.19531764 213.70285034 62.95967102 C202.18470233 71.00097085 189.53743099 70.72363298 176.08883667 70.64888 C174.13272209 70.65267005 172.17661021 70.6581757 170.22050476 70.66525269 C164.94379619 70.67913237 159.66741641 70.66809159 154.39072633 70.65154147 C148.85142952 70.63762033 143.31215043 70.64415884 137.77284241 70.64767456 C128.47675317 70.65037044 119.18079351 70.63695238 109.88473511 70.61372375 C99.15380665 70.58709452 88.42309441 70.58537675 77.69214422 70.59711212 C67.34284259 70.6079076 56.9936188 70.60169043 46.64432335 70.58755684 C42.25102576 70.58181478 37.85778546 70.58186563 33.46448708 70.58662224 C28.2891986 70.59141028 23.11414563 70.58121479 17.9389019 70.55966759 C16.04511942 70.55412528 14.15131418 70.5536108 12.25753021 70.55862045 C-1.5876136 70.59064051 -13.69042112 70.04979998 -24.36746216 60.17451477 C-32.40353035 51.76777923 -34.8713986 43.82332424 -34.70120239 32.40278625 C-34.26123633 22.27681532 -30.72725179 15.69691433 -23.75027466 8.35029602 C-16.69903745 2.1749889 -9.1840038 -0.00212091 0 0 Z " fill="#F2D45A" transform="translate(99.23464965820313,433.8528289794922)"/>
<path d="M0 0 C0.80858111 -0.00367669 1.61716223 -0.00735338 2.4502458 -0.01114148 C5.1513616 -0.02212731 7.85243886 -0.02601347 10.55357361 -0.02983093 C12.49393332 -0.03609948 14.43429183 -0.04274663 16.37464905 -0.04974365 C22.74019034 -0.07074157 29.10573175 -0.08114274 35.47129822 -0.09111023 C37.66700694 -0.09515952 39.86271553 -0.09927649 42.058424 -0.10346031 C52.37674066 -0.12250338 62.69505021 -0.13673572 73.01338106 -0.14507228 C84.90351154 -0.1548387 96.79345557 -0.18114652 108.68352038 -0.22157317 C117.88716697 -0.25178642 127.09076027 -0.26654613 136.29445547 -0.26985329 C141.78507264 -0.27219798 147.27549041 -0.28108274 152.76605415 -0.30631447 C157.93633784 -0.32969113 163.10629219 -0.33378995 168.27661514 -0.32355309 C170.16592572 -0.32305993 172.05525304 -0.3293148 173.94451332 -0.34310913 C187.25439587 -0.43479124 200.1502116 -0.11582355 210.80723572 9.02998352 C219.0115813 17.69812252 222.34486738 26.61170284 222.05332947 38.35420227 C221.1947557 48.25549655 216.92994415 56.76541156 209.34239197 63.26045227 C202.12998815 68.50682433 196.17304333 70.44973592 187.22245789 70.41459656 C186.37092455 70.41912767 185.51939122 70.42365878 184.64205384 70.4283272 C181.79569173 70.44096255 178.94952117 70.43935138 176.10313416 70.43769836 C174.05938471 70.4436842 172.01563753 70.45048987 169.97189331 70.45805359 C164.42422133 70.47571632 158.87661106 70.48040912 153.32891369 70.48168516 C149.86101071 70.48310729 146.39312339 70.4873781 142.9252243 70.4926796 C130.82126877 70.51118158 118.71735727 70.51935009 106.61338806 70.51777649 C95.34011493 70.51657542 84.06703336 70.53767072 72.7938087 70.56926382 C63.1078275 70.59543895 53.42190882 70.60614324 43.73589253 70.60486567 C37.9541928 70.60435635 32.17266327 70.61002279 26.39099884 70.63122177 C20.95067919 70.65062456 15.51069174 70.65071447 10.07036018 70.63618851 C8.07820461 70.63410178 6.08602813 70.63879313 4.09390831 70.65090942 C-10.15531703 70.73193337 -20.20369511 69.90234147 -30.98573303 59.66279602 C-38.87714445 50.65203546 -39.86174676 40.67119127 -39.35487366 29.19697571 C-38.61191972 20.02367972 -32.97183799 12.98555821 -26.18885803 7.14717102 C-17.57135183 1.69347326 -10.10844053 -0.00249162 0 0 Z " fill="#F0C418" transform="translate(104.18885803222656,85.85282897949219)"/>
<path d="M0 0 C1.10302963 -0.00029205 2.20605927 -0.00058411 3.34251404 -0.00088501 C6.97858622 0.00050532 10.61445201 0.01605282 14.25048828 0.03173828 C16.77539966 0.03546946 19.30031249 0.03831594 21.82522583 0.04031372 C27.78556656 0.04716274 33.74584137 0.0629164 39.70614827 0.0830127 C48.35297802 0.11153148 56.99983302 0.12197255 65.646698 0.1346283 C77.74645996 0.15400823 89.84602932 0.19233674 101.94580078 0.22705078 C101.94580078 22.99705078 101.94580078 45.76705078 101.94580078 69.22705078 C73.60810141 69.42786912 73.60810141 69.42786912 59.57185745 69.47832012 C51.9922436 69.50598591 44.41290604 69.54106308 36.83349609 69.60424805 C30.18750555 69.65962499 23.54173501 69.68849933 16.895504 69.701437 C14.36383232 69.71065331 11.83217642 69.72865064 9.30063248 69.75570107 C5.7459645 69.79216264 2.19252113 69.7969887 -1.36230469 69.79467773 C-2.40168686 69.81265411 -3.44106903 69.83063049 -4.51194763 69.84915161 C-13.50911385 69.78613752 -21.60590572 66.67534428 -28.05419922 60.22705078 C-36.35662395 49.49776344 -38.42282495 39.55713558 -37.05419922 26.22705078 C-35.27602814 17.61578201 -29.86030489 10.91713192 -22.96826172 5.62548828 C-15.46662595 0.71062347 -8.8102669 -0.06120473 0 0 Z " fill="#F2D45A" transform="translate(50.05419921875,294.77294921875)"/>
<path d="M0 0 C27.7998614 -0.16043524 27.7998614 -0.16043524 39.6796875 -0.1953125 C47.77549872 -0.2191934 55.87112983 -0.24679505 63.96679688 -0.30175781 C70.49607762 -0.34606479 77.0252368 -0.36916006 83.5546608 -0.37950897 C86.04165842 -0.38688106 88.52864578 -0.40127694 91.01556015 -0.42292023 C94.50783808 -0.45209532 97.99931839 -0.45594996 101.49169922 -0.45410156 C102.51237991 -0.46848267 103.53306061 -0.48286377 104.58467102 -0.49768066 C113.95330529 -0.44427222 123.11813564 2.37721759 130 9 C137.47050219 17.71299736 140.68618807 26.51454335 140.34765625 37.98046875 C139.2700886 47.33956756 135.08263288 55.44529844 128.08203125 61.71875 C120.12028528 68.00190736 113.7197317 69.44398962 103.74047852 69.34057617 C102.62754929 69.34101425 101.51462006 69.34145233 100.3679657 69.34190369 C96.70476483 69.33982069 93.04202676 69.31651194 89.37890625 69.29296875 C86.83300527 69.28737108 84.28710105 69.28310179 81.74119568 69.28010559 C75.73478864 69.26983794 69.72857897 69.24621557 63.72225088 69.21605712 C56.20874587 69.17915475 48.69521372 69.16279585 41.18164062 69.14648438 C27.78763209 69.11731662 14.39398326 69.05721208 1 69 C0.67 46.23 0.34 23.46 0 0 Z " fill="#F3D45A" transform="translate(238,295)"/>
<path d="M0 0 C2.50375412 2.175702 4.75660116 4.40923627 6.96875 6.87890625 C7.85820312 7.87083984 7.85820312 7.87083984 8.765625 8.8828125 C15.35864431 16.96089309 18.10168441 26.29073494 18.08227539 36.59692383 C18.08239593 37.26164294 18.08251646 37.92636206 18.08264065 38.61122417 C18.08189824 40.74866345 18.07430083 42.88601396 18.06640625 45.0234375 C18.06539917 46.33550171 18.06439209 47.64756592 18.06335449 48.99938965 C18.05812576 53.89673742 18.04416449 58.79407272 18.03125 63.69140625 C18.010625 74.64328125 17.99 85.59515625 17.96875 96.87890625 C-10.74125 96.87890625 -39.45125 96.87890625 -69.03125 96.87890625 C-69.11375 85.55578125 -69.19625 74.23265625 -69.28125 62.56640625 C-69.31766602 59.01205811 -69.35408203 55.45770996 -69.39160156 51.7956543 C-69.40966797 47.40197754 -69.40966797 47.40197754 -69.4130249 45.33479309 C-69.4191037 43.91355862 -69.4330378 42.4923427 -69.45355225 41.07124329 C-69.65768715 26.16436361 -66.50659293 14.91809735 -56.15234375 3.875 C-40.41887941 -10.84135149 -17.58547377 -12.3052993 0 0 Z " fill="#A56B42" transform="translate(221.03125,268.12109375)"/>
<path d="M0 0 C3.29757897 2.36145307 6.13828795 5.13828795 9 8 C10.95223586 8.10951521 12.90807728 8.15588423 14.86328125 8.17578125 C16.06017578 8.19962891 17.25707031 8.22347656 18.49023438 8.24804688 C21.02652464 8.29081518 23.56303444 8.32217407 26.09960938 8.34179688 C27.30037109 8.36951172 28.50113281 8.39722656 29.73828125 8.42578125 C31.39404175 8.44765503 31.39404175 8.44765503 33.08325195 8.4699707 C36.62572298 9.11370592 37.81099822 10.19645021 40 13 C40.734551 16.06783067 40.55318308 18.90331531 40 22 C37.30191772 26.20900836 33.72462009 26.90970306 29 28 C29.515625 28.680625 30.03125 29.36125 30.5625 30.0625 C32.44299626 33.90525323 32.11509388 35.91132242 31 40 C29.4375 42.4375 29.4375 42.4375 27 44 C23.00464162 44.72195388 20.00639356 44.60383613 16.5 42.5 C16.005 42.005 15.51 41.51 15 41 C14.91363281 41.61488281 14.82726562 42.22976563 14.73828125 42.86328125 C13.59193676 49.4573913 13.59193676 49.4573913 10.75 52.0625 C7.50883675 53.16744202 5.40074933 53.49594261 2 53 C-0.69990662 51.20006226 -2.5418865 49.916227 -4 47 C-4.07070535 45.1222783 -4.08465711 43.24227892 -4.0703125 41.36328125 C-4.080625 40.22826172 -4.0909375 39.09324219 -4.1015625 37.92382812 C-4.1170605 35.5358448 -4.10963012 33.14759141 -4.078125 30.75976562 C-4.03658865 24.39500183 -4.03658865 24.39500183 -6.59423828 18.77172852 C-8.45477327 16.95010288 -8.45477327 16.95010288 -10.43847656 15.52099609 C-12.49839829 13.514537 -12.52356574 12.13380876 -12.625 9.3125 C-12.32915358 5.76838067 -11.74473788 3.43976701 -9 1 C-5.49702123 -0.16765959 -3.67754393 -0.55510097 0 0 Z " fill="#2FA8CB" transform="translate(459,312)"/>
<path d="M0 0 C1.18583094 2.56930037 1.16499219 3.82061813 1.19140625 6.58984375 C1.90682817 13.65250599 7.39176181 17.0526902 12.48632812 21.3984375 C17.86285011 26.28706306 17.86285011 26.28706306 18.67553711 29.85351562 C18.74154117 33.56167607 18.55071229 35.75636033 16.5625 38.9375 C13.31033206 40.93883412 10.93767501 41.37061096 7.125 41.4375 C4.1875 40 4.1875 40 2.125 38.4375 C1.8775 39.695625 1.63 40.95375 1.375 42.25 C0.7002662 44.84336462 0.22892846 46.30447158 -1.4375 48.4375 C-5.25126815 50.00212283 -8.82792663 50.22608415 -12.875 49.4375 C-16.62256687 46.25206816 -17.42745138 43.24864769 -17.875 38.4375 C-18.555625 38.953125 -19.23625 39.46875 -19.9375 40 C-23.78025323 41.88049626 -25.78632242 41.55259388 -29.875 40.4375 C-32.76711586 38.38257557 -33.68858711 36.96178626 -34.875 33.625 C-34.875 28.82300638 -32.57156454 25.25286776 -29.35839844 21.81469727 C-27.67550345 20.22831686 -25.96646755 18.67494101 -24.25 17.125 C-19.46652419 12.61867556 -16.44520593 9.33226818 -16.1484375 2.4609375 C-15.79702922 -0.13948377 -14.88518669 -0.94345801 -12.875 -2.5625 C-8.48430811 -4.60103552 -3.58298319 -2.98581932 0 0 Z " fill="#2EA7CC" transform="translate(402.875,462.5625)"/>
<path d="M0 0 C2.9375 1.9375 2.9375 1.9375 5 5 C5.13891602 6.98217773 5.13891602 6.98217773 5.12890625 9.18359375 C5.69539103 15.36610217 9.52935344 18.21510464 14 22.125 C21.70019978 28.93875066 21.70019978 28.93875066 23.078125 33.81640625 C22.98743891 37.51186447 22.2942937 39.13213288 20 42 C16.28986601 44.47342266 14.38939738 44.38503486 10 44 C7.5625 42.5 7.5625 42.5 6 41 C5.9175 42.0725 5.835 43.145 5.75 44.25 C4.92464787 48.37676065 4.43342988 49.65081114 1 52 C-2.93411967 53.07294173 -5.05546078 53.41979521 -8.8125 51.75 C-12.71954307 48.62436554 -13.36249025 45.7813231 -14 41 C-14.53625 41.495 -15.0725 41.99 -15.625 42.5 C-18.75912943 44.47945017 -20.34350241 44.58503961 -24 44 C-27.375 42 -27.375 42 -30 39 C-30.8985922 34.78352889 -31.06181745 32.65827047 -28.734375 29.0234375 C-26.21739587 26.07127974 -23.50912729 23.44942507 -20.6015625 20.8828125 C-15.20673097 15.97683302 -12.98477675 12.76251737 -12.51171875 5.3828125 C-12 3 -12 3 -10.203125 1.2109375 C-6.85175835 -0.63112573 -3.67007066 -0.75003428 0 0 Z " fill="#2FA8CB" transform="translate(390,104)"/>
<path d="M0 0 C4.1602038 1.60007839 7.61769693 4.23442419 10 8 C10.97463004 12.6113093 10.91341838 16.50199386 8.4375 20.5625 C5.17994589 22.48362165 2.77864098 22.93370805 -1 23 C-4.57387602 21.41161066 -5.81089572 20.28365642 -8 17 C-8.65721554 12.69158699 -8.94071255 10.39187061 -6.46875 6.734375 C-4.71434925 4.73550858 -2.91654085 2.84300451 -1 1 C-0.67 0.67 -0.34 0.34 0 0 Z " fill="#ECC31B" transform="translate(385,134)"/>
<path d="M0 0 C4.1636504 1.94605399 7.43951254 4.11398687 10 8 C10.80039904 11.17920736 10.76085459 13.81611616 10 17 C8.0625 20.0625 8.0625 20.0625 5 22 C1.84209693 22.6799044 -0.84616468 22.71196655 -4 22 C-6.80959214 19.87567423 -7.66685232 18.33767693 -8.51171875 14.9453125 C-8.92615346 11.01837379 -8.63445924 8.83307256 -6.203125 5.640625 C-4.20930695 3.64680695 -2.18052689 1.78627984 0 0 Z " fill="#EEC41A" transform="translate(394,490)"/>
<path d="M0 0 C10.69509595 -0.61407249 10.69509595 -0.61407249 15.1875 1.5 C17.67311767 4.92843816 18.52655372 7.77136862 18 12 C16.72958298 14.9959088 15.66577123 15.82386022 13 18 C8.77281384 19.10570262 6.03351897 18.60029857 2.26953125 16.4140625 C0 14 0 14 -0.48828125 10.546875 C-0.43027344 9.29390625 -0.37226563 8.0409375 -0.3125 6.75 C-0.26738281 5.48671875 -0.22226562 4.2234375 -0.17578125 2.921875 C-0.11777344 1.95765625 -0.05976563 0.9934375 0 0 Z " fill="#ECC31C" transform="translate(473,338)"/>
<path d="M0 0 C3.48256393 2.43651909 7.07500001 5.15000002 9 9 C7.9275 9.0825 6.855 9.165 5.75 9.25 C2.06786195 9.74260965 2.06786195 9.74260965 -0.375 11.5625 C-2.68785335 15.03178003 -2.72395554 17.8593331 -3 22 C-4.12588014 21.04270084 -5.2506715 20.08412105 -6.375 19.125 C-7.00148438 18.59132813 -7.62796875 18.05765625 -8.2734375 17.5078125 C-11.95671422 14.29119528 -11.95671422 14.29119528 -12.30078125 11.9765625 C-12.33239304 5.6331296 -12.33239304 5.6331296 -10.6875 2.5 C-7.4739897 -0.3564536 -4.10642243 -0.61983735 0 0 Z " fill="#EDC41B" transform="translate(459,312)"/>
<path d="M0 0 C3 2 3 2 5 5 C5.39956124 7.80730687 5.24224238 10.14153994 5 13 C3 12 1 11 -1 10 C-6.27981804 9.40002068 -8.8313401 10.82387817 -13 14 C-13.4390692 5.36497244 -13.4390692 5.36497244 -10 1 C-6.76823243 -0.61588379 -3.49384717 -0.57451407 0 0 Z " fill="#ECC31C" transform="translate(390,104)"/>
<path d="M0 0 C1.58393325 3.54055667 1.25544109 6.51617821 1.0625 10.375 C-2.8125 8.5 -2.8125 8.5 -3.9375 7.375 C-9.33977629 7.01484825 -12.45868671 7.01589003 -16.9375 10.375 C-17.42445652 3.1923913 -17.42445652 3.1923913 -15.1875 -0.5625 C-10.43800596 -4.91620287 -4.98573828 -4.18158695 0 0 Z " fill="#ECC31B" transform="translate(402.9375,462.625)"/>
<path d="M0 0 C0.66 0.33 1.32 0.66 2 1 C-1.63 4.63 -5.26 8.26 -9 12 C-9 8.47601214 -8.44884893 7.98495633 -6.1875 5.4375 C-5.40439453 4.53837891 -5.40439453 4.53837891 -4.60546875 3.62109375 C-3 2 -3 2 0 0 Z " fill="#F2D247" transform="translate(54,161)"/>
</svg>
