<?xml version="1.0" encoding="UTF-8"?>
<svg version="1.1" xmlns="http://www.w3.org/2000/svg" width="512" height="512">
<path d="M0 0 C2.3317979 0.02399299 4.66283446 0.02529999 6.99473953 0.02445602 C34.12015777 0.13884712 34.12015777 0.13884712 41.6199379 6.88448715 C43.78122996 9.28310442 45.54022604 11.88102103 47.29353714 14.5867424 C49.35367622 16.60227288 49.35367622 16.60227288 51.48103714 18.2742424 C53.60816639 20.0232367 55.42196128 21.73905782 57.2012167 23.84931564 C60.16314465 27.28797237 62.61725137 30.11364589 67.0737896 31.37141037 C70.29273981 31.61090068 73.39614775 31.5735639 76.62092972 31.4304924 C77.82572479 31.41425323 79.03051987 31.39801407 80.27182388 31.38128281 C83.55979388 31.33121439 86.84421774 31.24227659 90.13092256 31.14138031 C93.60603543 31.04908112 97.08150143 31.02265392 100.557621 30.99323654 C111.63226966 30.88824419 122.70495306 30.69895772 133.77674115 30.42577463 C198.0533429 28.84560462 198.0533429 28.84560462 217.86955643 46.50355148 C221.43966598 49.57173588 225.36090031 51.78193118 229.46541214 54.05158615 C230.76205549 54.81253172 232.05643629 55.57734939 233.34822464 56.34650803 C235.21605651 57.4477403 237.08431044 58.54825277 238.95271683 59.64850998 C239.58854691 60.02322433 240.22437698 60.39793869 240.87947464 60.78400803 C241.83152786 61.34416862 241.83152786 61.34416862 242.80281448 61.9156456 C244.07064031 62.66863971 245.33345327 63.43014338 246.59090042 64.20034409 C249.81046816 66.16768007 253.01397736 67.955397 256.43416214 69.55231857 C270.08729459 76.31437206 273.73645919 87.27852887 278.79353714 101.0242424 C279.63132253 103.1712499 280.47374058 105.31645569 281.32088089 107.45978928 C282.8428304 111.357197 284.35129255 115.25813979 285.80330276 119.18220139 C286.23721329 120.35274315 286.23721329 120.35274315 286.67988968 121.54693222 C287.29353714 123.5867424 287.29353714 123.5867424 287.29353714 126.5867424 C288.12167923 126.84197678 288.94982132 127.09721115 289.80305862 127.3601799 C293.72382122 128.73794526 297.39633374 130.42067199 301.14119339 132.2117424 C301.87551086 132.55930588 302.60982834 132.90686935 303.36639786 133.26496506 C305.69781896 134.3690085 308.02704566 135.47758402 310.35603714 136.5867424 C312.68891054 137.69522475 315.0222493 138.80270436 317.35638809 139.90851974 C318.80410678 140.59464065 320.25105722 141.28238565 321.69711685 141.97199631 C325.19890787 143.63412187 328.68961044 145.14517172 332.29353714 146.5867424 C332.29353714 173.6467424 332.29353714 200.7067424 332.29353714 228.5867424 C327.34353714 228.5867424 322.39353714 228.5867424 317.29353714 228.5867424 C317.29353714 243.4367424 317.29353714 258.2867424 317.29353714 273.5867424 C297.29353714 273.5867424 297.29353714 273.5867424 291.48103714 269.0867424 C290.03637713 267.29163258 288.63614848 265.4594027 287.29353714 263.5867424 C286.14115634 262.24104282 284.97544487 260.90658444 283.79353714 259.5867424 C283.24697464 258.9473674 282.70041214 258.3079924 282.13728714 257.6492424 C279.14125774 254.29775188 275.90457096 251.19039213 272.70759964 248.0320549 C270.60420115 245.90142795 268.61823469 243.73193818 266.66853714 241.4617424 C265.83322464 240.51234787 265.83322464 240.51234787 264.98103714 239.54377365 C263.80041475 238.17457964 262.65710057 236.77272867 261.54353714 235.34846115 C259.43196735 232.73781581 259.43196735 232.73781581 255.29353714 229.5867424 C251.00353714 229.2567424 246.71353714 228.9267424 242.29353714 228.5867424 C242.29353714 243.4367424 242.29353714 258.2867424 242.29353714 273.5867424 C221.29353714 273.5867424 221.29353714 273.5867424 216.41853714 270.0867424 C215.3285736 268.62146123 214.28453892 267.12068664 213.29353714 265.5867424 C212.18827141 264.27814948 211.06296936 262.98622374 209.91853714 261.7117424 C209.35392776 261.05432053 208.78931839 260.39689865 208.20759964 259.7195549 C205.98901886 257.24742204 203.65647045 254.92112062 201.29353714 252.5867424 C198.34170689 249.67047637 195.48964855 246.74068405 192.79353714 243.5867424 C192.24052933 242.95639084 191.68752151 242.32603928 191.11775589 241.67658615 C189.74487389 240.10379842 188.39750757 238.50868231 187.06306839 236.90314865 C186.25224808 235.99435959 185.44142776 235.08557053 184.60603714 234.1492424 C183.88029495 233.30490646 183.15455276 232.46057053 182.40681839 231.59064865 C178.22091224 228.55176082 178.22091224 228.55176082 167.29353714 228.5867424 C167.29353714 238.4867424 167.29353714 248.3867424 167.29353714 258.5867424 C152.37990566 259.95207486 145.38678618 258.85215068 133.91463089 249.40314865 C133.17454788 248.7806926 132.43446487 248.15823654 131.67195511 247.51691818 C127.41320215 244.06077972 122.87212025 241.00628804 118.35603714 237.8992424 C116.6797353 236.72941511 115.00391545 235.55889669 113.32869339 234.38752365 C105.30092456 228.79102717 104.9115518 229.48802916 92.29353714 228.5867424 C92.29353714 243.4367424 92.29353714 258.2867424 92.29353714 273.5867424 C85.36353714 273.5867424 78.43353714 273.5867424 71.29353714 273.5867424 C63.55742603 265.85063129 63.55742603 265.85063129 60.98103714 262.7742424 C58.21735685 259.56340485 55.30734118 256.56407075 52.29353714 253.5867424 C48.73791094 250.07395507 45.40199108 246.47677221 42.16463089 242.6726799 C39.02671931 239.17446533 35.61913419 235.94640811 32.23494339 232.6883049 C30.29353714 230.5867424 30.29353714 230.5867424 30.29353714 228.5867424 C26.00353714 228.5867424 21.71353714 228.5867424 17.29353714 228.5867424 C17.29353714 238.4867424 17.29353714 248.3867424 17.29353714 258.5867424 C-0.23895229 260.20321306 -8.33810655 256.6479179 -21.70646286 245.5867424 C-22.86315348 244.61982134 -24.01944494 243.65242243 -25.17521286 242.68439865 C-26.17552536 241.86842209 -27.17583786 241.05244553 -28.20646286 240.2117424 C-29.02115036 239.48213303 -29.83583786 238.75252365 -30.67521286 238.0008049 C-35.45137915 235.77274795 -39.60460738 236.80570426 -44.70646286 237.5867424 C-45.8994902 237.74578049 -47.09251755 237.90481857 -48.32169724 238.06867599 C-51.62007348 238.53217058 -54.89583038 239.05148304 -58.1766777 239.62141037 C-59.52706029 239.84782766 -60.88046557 240.05691671 -62.23624802 240.24836349 C-71.73596056 241.60021918 -78.3618253 244.18916631 -84.75382614 251.37287521 C-88.20255478 257.04917727 -87.89152704 262.31982599 -87.39396286 268.7742424 C-87.34433395 270.01238693 -87.29470505 271.25053146 -87.24357224 272.52619553 C-87.1151925 275.54895482 -86.91792109 278.56865682 -86.70646286 281.5867424 C-82.74646286 282.5767424 -78.78646286 283.5667424 -74.70646286 284.5867424 C-73.70646286 288.5867424 -73.70646286 288.5867424 -73.70646286 292.5867424 C-68.75646286 293.9067424 -63.80646286 295.2267424 -58.70646286 296.5867424 C-58.37646286 294.2767424 -58.04646286 291.9667424 -57.70646286 289.5867424 C-52.42646286 290.9067424 -47.14646286 292.2267424 -41.70646286 293.5867424 C-42.03646286 296.2267424 -42.36646286 298.8667424 -42.70646286 301.5867424 C-41.94720505 301.71951584 -41.18794724 301.85228928 -40.40568161 301.98908615 C-39.41181442 302.16568771 -38.41794724 302.34228928 -37.39396286 302.5242424 C-36.40783005 302.69826584 -35.42169724 302.87228928 -34.40568161 303.05158615 C-31.70646286 303.5867424 -31.70646286 303.5867424 -28.70646286 304.5867424 C-28.04646286 302.6067424 -27.38646286 300.6267424 -26.70646286 298.5867424 C-22.27211719 298.90924027 -18.51506367 299.28164858 -14.32560349 300.86237717 C-0.02158736 306.10956737 11.09889911 300.09327162 24.35603714 294.2742424 C27.64835643 292.86600474 30.94548694 291.47178603 34.2518959 290.09695053 C36.2945711 289.24391717 38.32877746 288.37021425 40.35239029 287.47289658 C48.58331582 283.9745282 53.73607783 284.68897285 62.29353714 287.1492424 C63.24228714 287.41865646 64.19103714 287.68807053 65.16853714 287.96564865 C65.86978714 288.17060959 66.57103714 288.37557053 67.29353714 288.5867424 C66.69389624 295.8659275 65.14508981 302.61032481 63.23103714 309.6492424 C62.94937698 310.70562912 62.66771683 311.76201584 62.37752151 312.85041428 C61.68863985 315.43080155 60.99387885 318.00944654 60.29353714 320.5867424 C65.28919343 322.0297509 70.01354917 323.34393102 75.06941605 321.6648674 C77.86881958 320.11144116 80.47678654 318.41344856 83.10603714 316.5867424 C85.10015229 315.28622533 87.09496587 313.98677865 89.09041214 312.6883049 C90.10554886 312.01186935 91.12068558 311.33543381 92.16658401 310.63850021 C97.30694315 307.26564121 102.58574526 304.12603497 107.85603714 300.9617424 C109.73371717 299.82599656 111.61010609 298.68811229 113.48494339 297.5476799 C114.32388138 297.03825851 115.16281937 296.52883713 116.02717972 296.00397873 C117.97339319 294.78694014 119.84482204 293.51272976 121.71541214 292.18439865 C124.73597256 290.31256651 126.53780787 290.38021325 129.99275589 291.0242424 C134.45523665 292.1152394 138.88410267 293.29795549 143.29353714 294.5867424 C145.0026203 299.68679163 143.42189416 303.86036153 141.98494339 308.82502365 C141.73937195 309.70579071 141.49380051 310.58655777 141.24078751 311.49401474 C140.4562113 314.29878407 139.65636608 317.09893204 138.85603714 319.8992424 C138.32051855 321.80325455 137.78600156 323.7075487 137.25252151 325.61213303 C135.94444792 330.27368487 134.62266618 334.93115234 133.29353714 339.5867424 C144.23065661 343.9458622 153.42330605 338.69627933 163.48103714 334.3992424 C165.19286496 333.6902905 166.90575107 332.9838883 168.61970901 332.28010178 C171.77725866 330.98117156 174.92709711 329.66614271 178.07161331 328.33600998 C179.47876545 327.75254488 180.88606993 327.16944704 182.29353714 326.5867424 C182.97791855 326.291819 183.66229996 325.9968956 184.3674202 325.69303513 C185.37365936 325.28016754 185.37365936 325.28016754 186.40022659 324.8589592 C187.27430916 324.49063225 187.27430916 324.49063225 188.16604996 324.11486435 C196.61571062 322.01734231 202.88633936 325.18468589 211.29353714 327.5867424 C208.98353714 337.4867424 206.67353714 347.3867424 204.29353714 357.5867424 C214.55927541 360.05295967 214.55927541 360.05295967 222.30720901 356.0020256 C223.1070723 355.43185715 223.90693558 354.86168869 224.73103714 354.2742424 C226.54050747 353.07111926 228.35181174 351.87075123 230.16463089 350.6726799 C231.13513382 350.01880295 232.10563675 349.36492599 233.10554886 348.69123459 C238.452421 345.16159468 243.93203743 341.85290825 249.41392899 338.538311 C251.26751852 337.41501005 253.11580279 336.28340011 254.96321487 335.14997482 C256.11484051 334.44766427 257.26660803 333.74558632 258.41853714 333.04377365 C259.43174026 332.42478195 260.44494339 331.80579025 261.48884964 331.16804123 C268.07617244 327.45407102 268.07617244 327.45407102 271.42171097 327.81867599 C272.10773392 328.03862228 272.79375687 328.25856857 273.50056839 328.4851799 C274.2514473 328.71721115 275.0023262 328.9492424 275.77595901 329.1883049 C276.5448848 329.44353928 277.31381058 329.69877365 278.10603714 329.9617424 C279.28842972 330.3329924 279.28842972 330.3329924 280.49470901 330.7117424 C282.43224341 331.3223593 284.36356195 331.95263809 286.29353714 332.5867424 C285.69866666 338.34759337 284.60027541 343.68143876 283.00838089 349.2429924 C282.78783539 350.03073044 282.56728989 350.81846848 282.34006119 351.63007736 C281.64242126 354.1171797 280.93687656 356.60195614 280.23103714 359.0867424 C279.75329675 360.7845109 279.2760782 362.48242634 278.79939651 364.1804924 C277.63679943 368.3176313 276.46711332 372.45270516 275.29353714 376.5867424 C279.25353714 377.5767424 283.21353714 378.5667424 287.29353714 379.5867424 C285.9846247 387.09158146 284.52236032 394.50955497 282.66853714 401.8992424 C282.45841995 402.84863693 282.24830276 403.79803146 282.03181839 404.77619553 C280.20162745 411.94194311 277.56045203 414.85304905 271.29353714 418.5867424 C269.65106182 419.66142581 268.00916058 420.73698698 266.36775589 421.8133049 C264.57433709 422.94952463 262.77867046 424.08220236 260.98103714 425.2117424 C260.02116898 425.81856857 259.06130081 426.42539474 258.07234573 427.05060959 C256.10027609 428.29684579 254.12729591 429.54164233 252.15340042 430.78498459 C248.6915695 432.96599127 245.23474649 435.15483201 241.7788887 437.34528732 C240.21437844 438.33386751 238.64734016 439.318459 237.07771683 440.2989006 C233.30118176 442.65983536 229.57352909 445.06191105 225.90681839 447.59064865 C225.2021846 448.06405685 224.49755081 448.53746506 223.77156448 449.02521896 C222.46425708 449.90551641 221.16998278 450.80568253 219.8936348 451.73029709 C210.90453834 457.69362791 198.23651613 452.52301409 188.38728714 450.54938889 C186.78837326 450.2326297 185.18937614 449.9162905 183.59030342 449.60033417 C179.23790079 448.73914315 174.88667123 447.87215275 170.53561544 447.00418639 C165.88653515 446.07787217 161.23635619 445.15710574 156.58629227 444.23574448 C148.62730626 442.6580295 140.6689688 441.0770796 132.71107864 439.49384689 C120.27188824 437.01912169 107.83143202 434.55080054 95.39070511 432.08381271 C92.26677101 431.4642999 89.14283898 430.8447767 86.01890767 430.22524989 C83.93734244 429.81244221 81.85577555 429.39964293 79.774207 428.98685205 C72.48241056 427.54077169 65.19078601 426.09382665 57.89921951 424.64658737 C33.4328889 419.79089151 8.96374672 414.94986088 -15.51115036 410.13752365 C-16.21939736 409.99825856 -16.92764437 409.85899347 -17.6573534 409.71550822 C-30.08162883 407.27260807 -42.50654572 404.83297742 -54.93156052 402.39384079 C-56.70556716 402.04553192 -56.70556716 402.04553192 -58.51541233 401.6901865 C-60.8440978 401.23306692 -63.17282669 400.77616846 -65.50160122 400.31950283 C-70.94390046 399.25180291 -76.38529528 398.17993548 -81.82458115 397.09698105 C-90.75523272 395.32190334 -99.68489842 393.57031481 -108.65111542 391.98289871 C-112.40981796 391.31504881 -116.16404032 390.6238365 -119.9180603 389.93021011 C-121.64573687 389.61805541 -123.37559831 389.31771029 -125.10759735 389.03050613 C-139.69268798 386.61025654 -139.69268798 386.61025654 -143.84489059 381.96223068 C-146.30998483 378.07503757 -147.47894286 373.93752719 -148.69205856 369.52814865 C-149.85074315 366.16838165 -151.43874597 363.43112576 -153.29044724 360.3992424 C-165.6178115 339.78691813 -166.6504175 322.0173373 -165.73643112 298.36896896 C-165.57963772 293.86325444 -165.51378736 289.3561486 -165.43888474 284.84846115 C-165.28065003 276.09091899 -165.02665629 267.33985782 -164.70646286 258.5867424 C-165.2497448 258.33035335 -165.79302673 258.07396429 -166.35277176 257.80980587 C-171.58863732 255.08905976 -175.96177179 252.21170934 -179.70646286 247.5867424 C-181.33466298 241.95503246 -181.23576229 236.51560806 -181.16154099 230.69099045 C-181.1797446 228.98496303 -181.20258553 227.27897979 -181.22968674 225.57307053 C-181.28817635 220.95849645 -181.27722423 216.34655529 -181.24990654 211.73178458 C-181.23357531 207.87009367 -181.25185747 204.00888079 -181.27015066 200.14722282 C-181.31295951 191.03066962 -181.29993137 181.91538733 -181.25040817 172.7989006 C-181.20027474 163.41663128 -181.23715662 154.03762769 -181.31833315 144.65564889 C-181.38550679 136.5803577 -181.40175896 128.5060712 -181.37698698 120.43053848 C-181.36250354 115.6162392 -181.36601151 110.80379162 -181.41717148 105.98970222 C-181.46282105 101.45807146 -181.44429602 96.9309799 -181.3780899 92.39964676 C-181.3641987 90.74539362 -181.37201674 89.0907798 -181.4041748 87.43678093 C-181.63866647 74.29150247 -181.63866647 74.29150247 -176.86715317 69.10776329 C-174.67346018 67.00685764 -172.36723041 65.14817755 -169.94995499 63.31325626 C-166.30446639 60.4995337 -164.34199071 57.28059192 -162.01896286 53.32502365 C-156.02748531 44.25317475 -149.33508707 36.13818299 -138.70646286 32.5867424 C-125.39164779 30.15244338 -111.0648993 31.70103028 -97.62805176 32.25888443 C-74.77040727 34.55433538 -74.77040727 34.55433538 -54.4047966 27.06986618 C-51.47075658 23.92258871 -48.99032128 20.6268393 -46.64396286 17.0242424 C-35.07395678 -0.69699907 -19.56128442 -0.21092126 0 0 Z " fill="#010101" transform="translate(179.70646286010742,27.413257598876953)"/>
<path d="M0 0 C1.18737762 -0.00846954 2.37475525 -0.01693909 3.59811401 -0.02566528 C14.34571363 0.0042718 24.41345749 0.05422542 32.62428284 7.69743347 C34.839515 10.06386687 36.86687404 12.51787997 38.81768799 15.10534668 C40.94727886 17.81205199 43.57458506 19.8694185 46.22783566 22.03574085 C48.0625 23.6875 48.0625 23.6875 49.50309849 25.49223614 C51.95902411 28.50194076 53.87428029 30.41034187 57.72546196 31.30864906 C61.01643723 31.51805857 64.24029019 31.50447107 67.53686523 31.4152832 C68.78015091 31.40999603 70.02343658 31.40470886 71.30439758 31.39926147 C74.00068221 31.38379686 76.69347479 31.35588639 79.38903618 31.3071537 C83.66612051 31.23147557 87.94231159 31.21307846 92.21998596 31.20365906 C102.85009409 31.17178174 113.4794593 31.0733275 124.10882568 30.9453125 C132.3618908 30.84619174 140.6137677 30.76957427 148.86749226 30.76227444 C152.41586005 30.75709868 155.9616406 30.73229885 159.50930595 30.65896034 C174.95248123 30.34675201 187.18079399 30.14978876 199.40865517 40.38556576 C202.37197068 42.71833716 205.65693952 44.52498327 208.921875 46.3984375 C210.22604602 47.16639203 211.5295272 47.93552039 212.83203125 48.70629883 C213.48252441 49.08992584 214.13301758 49.47355286 214.80322266 49.86880493 C216.88602 51.10617763 218.95742035 52.36109641 221.02734375 53.61987305 C229.76822764 58.9167874 229.76822764 58.9167874 239.015625 63.24609375 C252.5695847 69.0587427 256.72062187 78.56786287 262 91.6875 C264.94756708 99.20096115 267.69138599 106.79120195 270.37036133 114.40405273 C272.58215618 120.69885052 272.58215618 120.69885052 277.20703125 125.22265625 C278.41746094 125.72667969 279.62789063 126.23070312 280.875 126.75 C281.54281494 127.04398682 282.21062988 127.33797363 282.89868164 127.64086914 C284.40573308 128.30280099 285.92023242 128.94794542 287.44042969 129.57910156 C291.57467486 131.32672475 295.63725302 133.22712249 299.71166992 135.10913086 C303.79742792 136.9926019 307.89774074 138.84339761 311.99975586 140.69116211 C314.0625 141.6875 314.0625 141.6875 315.0625 142.6875 C315.1560919 144.40615409 315.17994611 146.12865744 315.17602539 147.84985352 C315.17594986 148.95091934 315.17587433 150.05198517 315.17579651 151.18641663 C315.17063522 152.3843132 315.16547394 153.58220978 315.16015625 154.81640625 C315.15803383 156.64545753 315.15803383 156.64545753 315.15586853 158.51145935 C315.15024967 162.4243307 315.13769396 166.33714581 315.125 170.25 C315.11998743 172.89518147 315.1154241 175.54036383 315.11132812 178.18554688 C315.10027411 184.68621726 315.08351764 191.18685461 315.0625 197.6875 C314.40535253 197.68619849 313.74820507 197.68489697 313.07114404 197.68355602 C273.89618851 197.60712616 234.72144984 197.57860402 195.54642626 197.61009431 C190.81521213 197.61385706 186.08399779 197.61722991 181.3527832 197.62036133 C179.94026692 197.62130606 179.94026692 197.62130606 178.49921495 197.62226988 C163.36364523 197.63146886 148.22828273 197.60927127 133.09275626 197.57493024 C117.49714204 197.54026464 101.90179462 197.54059012 86.30617195 197.57167059 C77.57367039 197.58811554 68.84175774 197.58956017 60.10931206 197.55073357 C24.65751944 197.400797 -9.22198255 197.78447482 -43.91459256 206.17483109 C-50.88897753 207.80997069 -57.82079781 208.53488462 -64.95629215 209.03832912 C-82.82807894 210.3567423 -90.64374962 218.11682502 -102.09594727 231.16583252 C-109.56294852 239.59195979 -115.09600118 245.44687803 -126.68896484 246.34423828 C-135.8860088 246.11681618 -144.56293464 245.01016346 -151.625 238.6875 C-152.90523623 237.25395399 -154.18357839 235.81583455 -155.37688351 234.30915546 C-156.95072192 232.54661713 -156.95072192 232.54661713 -159.34242344 231.15510082 C-163.51084581 228.45995242 -166.41698709 226.353753 -167.93177605 221.50464821 C-168.37360428 217.53961662 -168.50896841 213.62729139 -168.53295898 209.64379883 C-168.5776822 208.12307263 -168.6263178 206.60245726 -168.67854309 205.08197021 C-168.8049699 200.96285378 -168.86574822 196.84540824 -168.9064548 192.72463822 C-168.93367862 190.13646241 -168.97278817 187.54872383 -169.01548958 184.96076012 C-169.14684411 176.82300822 -169.23890569 168.68626107 -169.27309841 160.54750806 C-169.30849755 152.14955657 -169.42359484 143.76234717 -169.67456055 135.36791992 C-171.66168225 67.55341182 -171.66168225 67.55341182 -158.54602528 52.06146908 C-153.38736462 46.64246214 -147.52294121 42.19342014 -141.01502991 38.52128601 C-137.90520303 36.88066529 -137.90520303 36.88066529 -135.96334839 34.44952393 C-132.95899004 31.83642053 -130.78671606 32.36005905 -126.87524414 32.60180664 C-125.41188306 32.67561676 -123.94850318 32.7490547 -122.48510742 32.82217407 C-121.71033051 32.86825428 -120.93555359 32.91433449 -120.13729858 32.96181107 C-115.98799548 33.1952464 -111.83551884 33.32277198 -107.68188477 33.45288086 C-106.38012393 33.49392818 -106.38012393 33.49392818 -105.0520649 33.53580475 C-75.7068323 36.10279865 -75.7068323 36.10279865 -49.16772461 27.06188965 C-46.07411935 23.97529075 -43.46514032 20.7288956 -41 17.125 C-29.95580612 1.04134313 -19.1813055 -0.1793561 0 0 Z " fill="#F5DEB9" transform="translate(181.9375,42.3125)"/>
<path d="M0 0 C0.99 0.33 1.98 0.66 3 1 C4.35517718 1.09038932 5.71432232 1.12788466 7.07250977 1.12939453 C7.88667862 1.13254669 8.70084747 1.13569885 9.53968811 1.13894653 C10.4147551 1.1369223 11.28982208 1.13489807 12.19140625 1.1328125 C13.0924559 1.13376923 13.99350555 1.13472595 14.92185974 1.13571167 C16.82575551 1.13639198 18.72965361 1.13454806 20.63354492 1.13037109 C23.55457743 1.12501453 26.47545661 1.13032431 29.39648438 1.13671875 C31.24479201 1.13605806 33.09309954 1.1347771 34.94140625 1.1328125 C35.81849747 1.13483673 36.69558868 1.13686096 37.59925842 1.13894653 C41.93580411 1.2549763 41.93580411 1.2549763 46 0 C46.33 7.26 46.66 14.52 47 22 C58.88 24.97 58.88 24.97 71 28 C71.99 25.69 72.98 23.38 74 21 C82.415 22.98 82.415 22.98 91 25 C91.33 22.69 91.66 20.38 92 18 C97.28 19.32 102.56 20.64 108 22 C107.67 24.64 107.34 27.28 107 30 C107.74765625 30.12117188 108.4953125 30.24234375 109.265625 30.3671875 C110.25046875 30.53476562 111.2353125 30.70234375 112.25 30.875 C113.71179688 31.11863281 113.71179688 31.11863281 115.203125 31.3671875 C117.77264117 31.94855848 119.72071056 32.70840265 122 34 C121.67 36.64 121.34 39.28 121 42 C122.15113281 42.23074219 123.30226563 42.46148437 124.48828125 42.69921875 C135.24283703 44.88894677 145.83876797 47.44552264 156.43115234 50.31152344 C160.14976013 51.30814708 163.87719366 52.2699084 167.60424805 53.234375 C175.23689968 55.20978108 182.85339731 57.22064111 190.4375 59.375 C200.33052991 62.17878229 210.32103739 64.60853153 220.30639648 67.05810547 C227.77211793 68.89669962 235.17632026 70.88609031 242.56152344 73.02905273 C248.33907712 74.66050197 254.16878857 76.07473739 260 77.5 C266.99451226 79.20959619 273.95920224 80.96144362 280.875 82.96875 C288.53462408 85.18713443 296.25617912 87.10294914 304 89 C312.91192524 91.18320848 321.76079693 93.4733801 330.57470703 96.03125 C336.32793551 97.65839259 342.13172852 99.07416964 347.9375 100.5 C357.6522966 102.90864304 367.34531565 105.35957484 377 108 C379.63408405 108.71991973 382.26820611 109.43970021 384.90234375 110.15942383 C386.78783736 110.67460457 388.67325513 111.19006293 390.55859375 111.70581055 C399.6896199 114.19890453 408.84154731 116.60991881 418 119 C417.71572583 120.58467728 417.42225182 122.1677057 417.125 123.75 C416.88136719 125.07257813 416.88136719 125.07257813 416.6328125 126.421875 C415.54698291 130.8456252 414.23362795 133.20419253 410.31640625 135.59375 C409.56319092 136.06063232 408.80997559 136.52751465 408.03393555 137.00854492 C407.21836182 137.5007251 406.40278809 137.99290527 405.5625 138.5 C403.83057522 139.56876099 402.09880885 140.63777872 400.3671875 141.70703125 C399.47741211 142.25182129 398.58763672 142.79661133 397.67089844 143.35791016 C394.29052169 145.43619297 390.93389527 147.55051022 387.58105469 149.67285156 C385.99014911 150.67958129 384.39705575 151.68286232 382.80175781 152.68261719 C379.14682963 154.97743025 375.5278616 157.30122955 371.9765625 159.75390625 C371.35370361 160.17712158 370.73084473 160.60033691 370.08911133 161.03637695 C368.44190043 162.16160512 366.80821259 163.30656052 365.17578125 164.453125 C358.96452898 167.47853201 352.18509502 165.8718217 345.65625 164.53125 C344.86644745 164.37546478 344.0766449 164.21967957 343.26290894 164.05917358 C340.67378462 163.54663425 338.08695465 163.02337027 335.5 162.5 C333.67282307 162.13620647 331.84550932 161.77309955 330.01806641 161.41064453 C325.27793105 160.4685645 320.53965258 159.51748129 315.80187988 158.56359863 C311.3660899 157.67133869 306.92911451 156.78502283 302.4921875 155.8984375 C297.44685482 154.88990103 292.40166933 153.8806559 287.35717773 152.86791992 C275.82131633 150.55336355 264.27536392 148.2970253 252.72167969 146.07324219 C245.18312871 144.62086081 237.65119588 143.14004202 230.125 141.625 C206.35338723 136.84618081 182.55995281 132.16242372 158.70779419 127.80206299 C151.58662221 126.49404621 144.48086938 125.12316182 137.3828125 123.6953125 C136.31374664 123.48087997 135.24468079 123.26644745 134.14321899 123.04551697 C123.02479675 120.81138571 111.91450884 118.5375556 100.80410767 116.26394653 C83.53549062 112.73153731 66.26793984 109.20307422 48.94873047 105.92602539 C46.81536882 105.52093003 44.68567947 105.09597201 42.56030273 104.65087891 C39.79306554 104.14498476 37.13943181 103.80358113 34.34790039 103.53271484 C27.6903433 102.74365675 21.39907166 101.95985602 16.60913086 96.89672852 C13.36623963 92.7628884 11.06541069 88.22606333 8.8125 83.5 C8.38642456 82.65961182 7.96034912 81.81922363 7.5213623 80.95336914 C-4.7723635 56.06479942 -1.80465939 26.93484833 0 0 Z " fill="#F5DFB9" transform="translate(30,299)"/>
<path d="M0 0 C8.56265839 -0.2326838 17.12397629 -0.40986421 25.68902397 -0.51812172 C29.66719835 -0.57010757 33.64319579 -0.64048967 37.62011719 -0.75439453 C41.4653031 -0.86382496 45.30840926 -0.92299579 49.15503311 -0.94877243 C50.61521256 -0.96711586 52.07529009 -1.00294029 53.5345726 -1.05730057 C64.93901234 -1.4648625 64.93901234 -1.4648625 70.04962158 2.1675415 C72.55255323 4.66795896 74.76937563 7.25801593 77 10 C78.32523807 11.21969982 79.67834288 12.410097 81.0625 13.5625 C81.70044495 14.12077484 82.33838989 14.67904968 82.9956665 15.25424194 C84.41131021 16.48725602 85.84426048 17.70053382 87.28900146 18.89932251 C92.66439016 23.70678392 95.07709987 27.18500796 95.707901 34.41029358 C95.74757492 35.43763107 95.78724884 36.46496857 95.828125 37.5234375 C95.92431374 39.1617881 95.92431374 39.1617881 96.02244568 40.83323669 C97.81174318 80.27810326 97.81174318 80.27810326 86.25024414 94.13467407 C75.22655802 105.97015367 61.45223427 107.47323491 46.03910828 108.0622406 C41.44214025 108.19436934 36.84855013 108.21274412 32.25 108.1875 C31.10426828 108.18254705 31.10426828 108.18254705 29.93539047 108.17749405 C25.4519123 108.14455473 20.97846842 108.03504132 16.49961662 107.82728958 C15.10868827 107.76343402 13.7172584 107.70960545 12.32553291 107.66648483 C1.69117301 107.28684828 1.69117301 107.28684828 -2.31001282 104.24226379 C-4.06373917 102.24485788 -5.54108288 100.21816005 -7 98 C-8.2557834 96.68604481 -9.52578893 95.38511072 -10.82421875 94.11328125 C-11.46037109 93.48486328 -12.09652344 92.85644531 -12.75195312 92.20898438 C-13.39068359 91.58314453 -14.02941406 90.95730469 -14.6875 90.3125 C-15.98549829 89.04023012 -17.28113586 87.76554662 -18.57421875 86.48828125 C-19.41859497 85.66130737 -19.41859497 85.66130737 -20.2800293 84.81762695 C-20.84761963 84.21781006 -21.41520996 83.61799316 -22 83 C-22.71679932 82.34265869 -23.43359863 81.68531738 -24.17211914 81.00805664 C-27.01180188 76.33492575 -26.64993216 71.75439049 -26.671875 66.3828125 C-26.6918454 64.68703568 -26.6918454 64.68703568 -26.71221924 62.95700073 C-26.73244707 60.56824236 -26.74185405 58.17937127 -26.74121094 55.79052734 C-26.74995539 52.1436055 -26.82259069 48.50153344 -26.8984375 44.85546875 C-26.91017539 42.53126651 -26.91811314 40.20704134 -26.921875 37.8828125 C-26.95061707 36.79719025 -26.97935913 35.71156799 -27.00897217 34.5930481 C-26.91976336 27.16718099 -26.91976336 27.16718099 -24.31382751 23.86024475 C-22.28845878 22.08676396 -20.20828541 20.5365511 -18 19 C-16.49451616 17.57393354 -15.0027152 16.13303458 -13.53515625 14.66796875 C-12.79845703 13.93255859 -12.06175781 13.19714844 -11.30273438 12.43945312 C-10.19381836 11.32473633 -10.19381836 11.32473633 -9.0625 10.1875 C-8.29615234 9.42501953 -7.52980469 8.66253906 -6.74023438 7.87695312 C-6.01255859 7.14798828 -5.28488281 6.41902344 -4.53515625 5.66796875 C-3.879104 5.01078857 -3.22305176 4.3536084 -2.54711914 3.67651367 C-0.91729521 2.06619412 -0.91729521 2.06619412 0 0 Z " fill="#71859D" transform="translate(147,75)"/>
<path d="M0 0 C0.99 0.33 1.98 0.66 3 1 C5.22574335 1.22451458 7.45581519 1.40782878 9.6875 1.5625 C10.86699219 1.64628906 12.04648437 1.73007812 13.26171875 1.81640625 C14.61716797 1.90728516 14.61716797 1.90728516 16 2 C15.96891144 2.60847275 15.93782288 3.2169455 15.90579224 3.84385681 C12.64451732 43.27406291 12.64451732 43.27406291 28.40429688 77.94433594 C29.93023281 79.91012244 30.75869622 81.63346819 31.703125 83.9140625 C35.40860948 88.89251954 40.08985077 88.97175808 46 90 C47.58860041 90.30445109 49.17661857 90.61195012 50.76416016 90.921875 C56.27326007 91.98696895 61.79214143 92.99518446 67.3125 94 C71.05890948 94.68578561 74.80492187 95.37371654 78.55078125 96.0625 C79.89597336 96.30939575 79.89597336 96.30939575 81.26834106 96.5612793 C88.86223203 97.96084969 96.43512115 99.45138857 104 101 C104.14381104 100.09878418 104.28762207 99.19756836 104.43579102 98.26904297 C105.875 89.25 105.875 89.25 107 87 C117.53616001 88.62753691 127.99009981 90.5641076 138.4375 92.6875 C151.12109401 95.26501998 163.83351448 97.65756918 176.5625 100 C193.42696355 103.10539177 210.22916881 106.42077653 227 110 C226.67 114.95 226.34 119.9 226 125 C228.29453125 125.45890625 230.5890625 125.9178125 232.953125 126.390625 C233.73497665 126.54700439 234.51682831 126.70338379 235.32237244 126.86450195 C239.26639103 127.65334573 243.21044119 128.44203124 247.15454102 129.23046875 C260.95911583 131.99029676 260.95911583 131.99029676 266.51171875 133.109375 C274.07625682 134.63236 281.64535333 136.12757219 289.22265625 137.5859375 C292.31519619 138.18181521 295.40763251 138.77822803 298.5 139.375 C299.27933899 139.5253067 300.05867798 139.6756134 300.8616333 139.83047485 C311.20712659 141.82937969 321.51885004 143.93490506 331.8125 146.1875 C342.16008968 148.4511744 352.52801617 150.40523646 362.9765625 152.140625 C368.00802065 152.98018676 373.0045064 153.96958744 378 155 C374.65059363 157.72780483 371.26467616 160.32725261 367.6875 162.75 C366.36298828 163.67039062 366.36298828 163.67039062 365.01171875 164.609375 C358.86073364 167.44951858 352.06940635 165.84806728 345.65625 164.53125 C344.86644745 164.37546478 344.0766449 164.21967957 343.26290894 164.05917358 C340.67378462 163.54663425 338.08695465 163.02337027 335.5 162.5 C333.67282307 162.13620647 331.84550932 161.77309955 330.01806641 161.41064453 C325.27793105 160.4685645 320.53965258 159.51748129 315.80187988 158.56359863 C311.3660899 157.67133869 306.92911451 156.78502283 302.4921875 155.8984375 C297.44685482 154.88990103 292.40166933 153.8806559 287.35717773 152.86791992 C275.82131633 150.55336355 264.27536392 148.2970253 252.72167969 146.07324219 C245.18312871 144.62086081 237.65119588 143.14004202 230.125 141.625 C206.35338723 136.84618081 182.55995281 132.16242372 158.70779419 127.80206299 C151.58662221 126.49404621 144.48086938 125.12316182 137.3828125 123.6953125 C136.31374664 123.48087997 135.24468079 123.26644745 134.14321899 123.04551697 C123.02479675 120.81138571 111.91450884 118.5375556 100.80410767 116.26394653 C83.53549062 112.73153731 66.26793984 109.20307422 48.94873047 105.92602539 C46.81536882 105.52093003 44.68567947 105.09597201 42.56030273 104.65087891 C39.79306554 104.14498476 37.13943181 103.80358113 34.34790039 103.53271484 C27.6903433 102.74365675 21.39907166 101.95985602 16.60913086 96.89672852 C13.36623963 92.7628884 11.06541069 88.22606333 8.8125 83.5 C8.38642456 82.65961182 7.96034912 81.81922363 7.5213623 80.95336914 C-4.7723635 56.06479942 -1.80465939 26.93484833 0 0 Z " fill="#ECB280" transform="translate(30,299)"/>
<path d="M0 0 C4.127573 1.50786411 7.81778894 3.53829299 11.57421875 5.7890625 C12.20718872 6.1647084 12.84015869 6.54035431 13.49230957 6.92738342 C15.55969165 8.15607461 17.6237121 9.3902828 19.6875 10.625 C21.12470866 11.4816059 22.56196503 12.33813174 23.99926758 13.19458008 C37.07947786 21.00123315 50.05123304 28.97748865 63 37 C67.29 39.64 71.58 42.28 76 45 C76 56.55 76 68.1 76 80 C38.38 80 0.76 80 -38 80 C-38 42 -38 42 -26 29 C-21.86912951 24.49789362 -21.86912951 24.49789362 -17.7421875 19.9921875 C-15.83566639 17.90946805 -13.92344635 15.83215258 -12.0078125 13.7578125 C-11.51482666 13.22293213 -11.02184082 12.68805176 -10.51391602 12.13696289 C-9.14701042 10.65417498 -7.7786316 9.17274555 -6.41015625 7.69140625 C-4.17420983 5.19453901 -2.06454895 2.63936536 0 0 Z " fill="#060505" transform="translate(369,131)"/>
<path d="M0 0 C4.04879928 0.01746671 8.09757737 0.01141489 12.14640379 0.0083909 C19.14102559 0.00630554 26.13549677 0.01872852 33.1300807 0.04134226 C43.24272979 0.07401532 53.35530693 0.08428483 63.46800308 0.08929422 C79.87986201 0.09802303 96.29164088 0.12457266 112.7034564 0.16250467 C128.63476747 0.19928756 144.56605669 0.2275685 160.49740171 0.24453592 C161.97335148 0.24611226 161.97335148 0.24611226 163.47911842 0.24772045 C168.41597445 0.25294105 173.35283063 0.25799577 178.28968692 0.26296806 C219.16887721 0.3043548 260.04797734 0.37503681 300.92708921 0.46426249 C300.92708921 5.74426249 300.92708921 11.02426249 300.92708921 16.46426249 C299.32637288 16.46112008 297.72565655 16.45797768 296.07643366 16.45474005 C257.85457872 16.38174135 219.63293327 16.35613265 181.41101548 16.38685679 C176.67980134 16.39061954 171.94858701 16.3939924 167.21737242 16.39712381 C165.80485613 16.39806854 165.80485613 16.39806854 164.36380417 16.39903236 C149.22823445 16.40823135 134.09287195 16.38603375 118.95734548 16.35169273 C103.36173125 16.31702713 87.76638384 16.31735261 72.17076117 16.34843308 C63.43825957 16.36487802 54.70634699 16.36631821 45.97390127 16.32749605 C9.66296064 16.17409324 -25.05087541 16.67989194 -60.56337214 25.39001513 C-67.36691186 27.04603767 -74.24822604 28.27353933 -81.13541079 29.52676249 C-83.16806135 29.91296325 -85.20063411 30.29957423 -87.23306704 30.68691874 C-90.89105587 31.33236444 -94.3457654 31.65910482 -98.07291079 31.46426249 C-92.95258653 22.21522607 -85.77829096 12.88070848 -75.57584047 9.20400858 C-67.90116927 7.24074339 -60.14663156 6.12340536 -52.28946924 5.12903833 C-48.9786683 4.65816759 -45.84612666 3.87597259 -42.62594879 2.96420503 C-28.70453239 -0.76811913 -14.28993521 -0.07749439 0 0 Z " fill="#EFB582" transform="translate(196.07291078567505,223.53573751449585)"/>
<path d="M0 0 C8.56265839 -0.2326838 17.12397629 -0.40986421 25.68902397 -0.51812172 C29.66719835 -0.57010757 33.64319579 -0.64048967 37.62011719 -0.75439453 C41.4653031 -0.86382496 45.30840926 -0.92299579 49.15503311 -0.94877243 C50.61521256 -0.96711586 52.07529009 -1.00294029 53.5345726 -1.05730057 C64.93901234 -1.4648625 64.93901234 -1.4648625 70.04962158 2.1675415 C72.55255323 4.66795896 74.76937563 7.25801593 77 10 C78.32523807 11.21969982 79.67834288 12.410097 81.0625 13.5625 C81.70044495 14.12077484 82.33838989 14.67904968 82.9956665 15.25424194 C84.41131021 16.48725602 85.84426048 17.70053382 87.28900146 18.89932251 C92.66439016 23.70678392 95.07709987 27.18500796 95.707901 34.41029358 C95.74757492 35.43763107 95.78724884 36.46496857 95.828125 37.5234375 C95.92431374 39.1617881 95.92431374 39.1617881 96.02244568 40.83323669 C97.81174318 80.27810326 97.81174318 80.27810326 86.25024414 94.13467407 C75.22655802 105.97015367 61.45223427 107.47323491 46.03910828 108.0622406 C41.44214025 108.19436934 36.84855013 108.21274412 32.25 108.1875 C31.10426828 108.18254705 31.10426828 108.18254705 29.93539047 108.17749405 C25.4519123 108.14455473 20.97846842 108.03504132 16.49961662 107.82728958 C15.10868827 107.76343402 13.7172584 107.70960545 12.32553291 107.66648483 C1.69117301 107.28684828 1.69117301 107.28684828 -2.31001282 104.24226379 C-4.06373917 102.24485788 -5.54108288 100.21816005 -7 98 C-8.2557834 96.68604481 -9.52578893 95.38511072 -10.82421875 94.11328125 C-11.46037109 93.48486328 -12.09652344 92.85644531 -12.75195312 92.20898438 C-13.39068359 91.58314453 -14.02941406 90.95730469 -14.6875 90.3125 C-15.98549829 89.04023012 -17.28113586 87.76554662 -18.57421875 86.48828125 C-19.41859497 85.66130737 -19.41859497 85.66130737 -20.2800293 84.81762695 C-20.84761963 84.21781006 -21.41520996 83.61799316 -22 83 C-22.71679932 82.34265869 -23.43359863 81.68531738 -24.17211914 81.00805664 C-27.01180188 76.33492575 -26.64993216 71.75439049 -26.671875 66.3828125 C-26.6918454 64.68703568 -26.6918454 64.68703568 -26.71221924 62.95700073 C-26.73244707 60.56824236 -26.74185405 58.17937127 -26.74121094 55.79052734 C-26.74995539 52.1436055 -26.82259069 48.50153344 -26.8984375 44.85546875 C-26.91017539 42.53126651 -26.91811314 40.20704134 -26.921875 37.8828125 C-26.95061707 36.79719025 -26.97935913 35.71156799 -27.00897217 34.5930481 C-26.91976336 27.16718099 -26.91976336 27.16718099 -24.31382751 23.86024475 C-22.28845878 22.08676396 -20.20828541 20.5365511 -18 19 C-16.49451616 17.57393354 -15.0027152 16.13303458 -13.53515625 14.66796875 C-12.79845703 13.93255859 -12.06175781 13.19714844 -11.30273438 12.43945312 C-10.19381836 11.32473633 -10.19381836 11.32473633 -9.0625 10.1875 C-8.29615234 9.42501953 -7.52980469 8.66253906 -6.74023438 7.87695312 C-6.01255859 7.14798828 -5.28488281 6.41902344 -4.53515625 5.66796875 C-3.879104 5.01078857 -3.22305176 4.3536084 -2.54711914 3.67651367 C-0.91729521 2.06619412 -0.91729521 2.06619412 0 0 Z M-9.58105469 30.40594482 C-13.50229419 37.5745873 -13.50300537 44.72398927 -13 52.6875 C-12.97627319 53.54308502 -12.95254639 54.39867004 -12.92810059 55.28018188 C-12.64179138 65.40819187 -11.95948827 74.316095 -4.25 81.6875 C-2.46828028 83.18628081 -0.70397844 84.53988036 1.26074219 85.7878418 C3 87 3 87 4.7883606 89.02952576 C7.42420665 91.37794962 8.64733674 91.56349911 12.12548828 91.73974609 C13.65956833 91.82644058 13.65956833 91.82644058 15.22463989 91.91488647 C19.94455002 92.06802491 24.66238468 92.21421769 29.38427734 92.29052734 C31.85425196 92.34630408 34.32368957 92.44126564 36.79052734 92.57763672 C48.86948475 93.24263787 59.51814195 93.53636871 69.23754883 85.51341248 C76.83606221 78.12456214 81.01758208 70.88140977 81.41741943 60.20875549 C81.39478315 57.56837476 81.27127316 54.94871518 81.125 52.3125 C81.10516052 51.41022675 81.08532104 50.50795349 81.06488037 49.57833862 C80.8328375 39.84261261 80.39922261 31.24442502 73.33544922 23.8894043 C70.59179335 21.62181242 67.82781087 19.64786691 64.69580078 17.95336914 C63 17 63 17 61 15 C58.74723723 14.5837254 58.74723723 14.5837254 56.1015625 14.48730469 C54.56725586 14.40038361 54.56725586 14.40038361 53.00195312 14.31170654 C48.2575919 14.1152539 43.51380034 13.96815796 38.76660156 13.86035156 C36.28283706 13.78758377 33.7998282 13.67898957 31.31933594 13.53222656 C13.40419551 12.4891395 0.92808976 14.73816012 -9.58105469 30.40594482 Z " fill="#040403" transform="translate(147,75)"/>
<path d="M0 0 C25.08 0 50.16 0 76 0 C76 0.33 76 0.66 76 1 C38.38 1.495 38.38 1.495 0 2 C0 1.34 0 0.68 0 0 Z M-4 4 C-3.34 4.33 -2.68 4.66 -2 5 C-2.98823761 5.58598969 -3.97647522 6.17197937 -4.99465942 6.77572632 C-10.86291899 10.9253255 -15.12803585 15.39317224 -16.85335541 22.52985382 C-18.14479019 32.61533622 -18.03432086 42.78689794 -17.94642019 52.9387784 C-17.92391615 56.5199949 -17.9459796 60.1003896 -17.96796429 63.6815666 C-18.01949122 72.13453354 -18.00078045 80.58527244 -17.93505859 89.03808594 C-17.86850252 97.72992897 -17.91089119 106.41631935 -18.00846279 115.10774672 C-18.08930929 122.60158241 -18.10740363 130.09374964 -18.07480061 137.58795106 C-18.05567833 142.05047286 -18.05837871 146.51000959 -18.11959457 150.97221756 C-19.26683258 170.00898249 -19.26683258 170.00898249 -12.61676025 186.85998535 C-3.73379016 194.7663316 6.59099834 195.66536434 18 195.25 C19.56507156 195.23798098 21.1301951 195.23144736 22.6953125 195.23046875 C26.46713586 195.21649979 30.23045465 195.12967441 34 195 C32.64537146 196.63250106 31.2806463 198.25726098 29.87792969 199.84863281 C28.57695729 201.33903437 27.31936986 202.86800443 26.09863281 204.42480469 C21.87309656 209.36351162 18.7858483 211.57466343 12.234375 212.265625 C9.74025845 212.32389334 7.24390929 212.31655117 4.75 212.25 C3.45473389 212.23195313 2.15946777 212.21390625 0.82495117 212.1953125 C-6.52070682 211.85337307 -12.2429569 211.19048794 -17.6875 206 C-18.96773623 204.56645399 -20.24607839 203.12833455 -21.43938351 201.62165546 C-23.01322192 199.85911713 -23.01322192 199.85911713 -25.40492344 198.46760082 C-29.57334581 195.77245242 -32.47948709 193.666253 -33.99427605 188.81714821 C-34.43610428 184.85211662 -34.57146841 180.93979139 -34.59545898 176.95629883 C-34.6401822 175.43557263 -34.6888178 173.91495726 -34.74104309 172.39447021 C-34.8674699 168.27535378 -34.92824822 164.15790824 -34.9689548 160.03713822 C-34.99617862 157.44896241 -35.03528817 154.86122383 -35.07798958 152.27326012 C-35.20934411 144.13550822 -35.30140569 135.99876107 -35.33559841 127.86000806 C-35.37099755 119.4620569 -35.48608296 111.07484666 -35.73706055 102.68041992 C-37.72516311 34.86201152 -37.72516311 34.86201152 -24.43921375 19.20465755 C-18.47564713 12.94405863 -11.63246573 8.01398204 -4 4 Z " fill="#ECB381" transform="translate(48,75)"/>
<path d="M0 0 C4.5350244 0.52472731 7.54878935 1.63289473 11.39453125 4.0703125 C12.4213501 4.71282959 13.44816895 5.35534668 14.50610352 6.01733398 C15.59721436 6.71286377 16.6883252 7.40839355 17.8125 8.125 C19.53707249 9.20925862 21.26389953 10.28985908 22.99095154 11.37016296 C24.18088018 12.11462931 25.37013336 12.86017632 26.55873108 13.60676575 C34.07924745 18.32338999 41.71343948 22.84859615 49.34106445 27.38916016 C50.33323975 27.98132324 51.32541504 28.57348633 52.34765625 29.18359375 C53.22429932 29.70493896 54.10094238 30.22628418 55.00415039 30.76342773 C57 32 57 32 58 33 C58 36.96 58 40.92 58 45 C30.94 45 3.88 45 -24 45 C-24 27 -24 27 -20.25 21.6875 C-18.51718538 20.10596285 -16.7652691 18.54522855 -15 17 C-12.82440213 14.75406736 -10.72774239 12.43898119 -8.625 10.125 C-8.11356445 9.57674561 -7.60212891 9.02849121 -7.07519531 8.46362305 C-4.5455662 5.75001329 -2.1491077 3.02629452 0 0 Z " fill="#516073" transform="translate(371,151)"/>
<path d="M0 0 C4.00501614 1.52199007 5.60500689 3.93174239 8.04101562 7.375 C15.35356241 16.9395491 23.12838252 25.75983371 35.51420593 27.76318359 C47.10758744 29.06486719 58.81056969 28.59573935 70.44140625 28.11151123 C75.58978393 27.92380996 80.73945927 27.8767311 85.890625 27.81640625 C95.93299572 27.67876653 105.96447102 27.38993877 116 27 C116 31.95 116 36.9 116 42 C104.24843671 42.6797933 92.50171627 43.19091484 80.73431873 43.50255299 C75.26532465 43.65236683 69.80999352 43.85424005 64.34887695 44.18774414 C25.59464096 46.49410222 25.59464096 46.49410222 12.54833984 35.45068359 C6.01645721 29.53027889 0.34940475 22.82520876 -4.88545227 15.74687195 C-6.71057656 12.96306564 -6.71057656 12.96306564 -9 12 C-8.45015228 8.12488273 -6.72444669 6.40423494 -3.9375 3.75 C-3.20402344 3.04359375 -2.47054687 2.3371875 -1.71484375 1.609375 C-1.14894531 1.07828125 -0.58304688 0.5471875 0 0 Z " fill="#040303" transform="translate(110,168)"/>
<path d="M0 0 C3.63780116 0.15070434 7.25144952 0.14363866 10.8918457 0.11645508 C29.6207565 0.2978306 29.6207565 0.2978306 35.72145081 5.83259583 C37.7608094 8.06499468 39.47381576 10.46637728 41.17504883 12.9621582 C42.49136343 14.31229576 43.8223306 15.64849578 45.17504883 16.9621582 C44.06203903 16.94764114 44.06203903 16.94764114 42.92654419 16.93283081 C35.89486132 16.85008457 28.86496025 16.81605128 21.83293343 16.83518791 C18.21831894 16.84334773 14.60573253 16.83341947 10.99145508 16.78051758 C7.49566172 16.73004266 4.00290017 16.72921874 0.50692368 16.76120377 C-1.45943513 16.76671892 -3.4257328 16.72230519 -5.39157104 16.67672729 C-12.27680567 16.78540893 -16.43466516 17.67399512 -21.64526367 22.34692383 C-26.32984023 27.76046758 -27.23858452 31.99343936 -27.02026367 39.0012207 C-27.02831024 40.00808929 -27.03635681 41.01495789 -27.04464722 42.05233765 C-27.05951321 45.23263961 -27.00593121 48.40739575 -26.94995117 51.5871582 C-26.94800708 53.75773181 -26.9505688 55.9283144 -26.95776367 58.09887695 C-26.96554985 63.3878591 -26.91731734 68.67402662 -26.82495117 73.9621582 C-27.50746445 73.37670982 -27.50746445 73.37670982 -28.20376587 72.7794342 C-28.81432831 72.25586838 -29.42489075 71.73230255 -30.05395508 71.19287109 C-30.69375305 70.64164581 -31.33355103 70.09042053 -31.99273682 69.52249146 C-33.37367841 68.34646689 -34.78147598 67.20187133 -36.20141602 66.07324219 C-42.04450586 60.69826931 -43.0059009 55.32504634 -43.35101318 47.71517944 C-43.38868136 46.01351834 -43.41046483 44.31143949 -43.41723633 42.609375 C-43.44964562 40.04879914 -43.61996462 37.5220658 -43.79760742 34.96801758 C-44.16023582 24.60000809 -41.50636722 17.50718453 -34.43823242 9.8215332 C-24.29518222 -0.00985595 -13.57075427 -0.59429238 0 0 Z " fill="#515F72" transform="translate(177.824951171875,88.037841796875)"/>
<path d="M0 0 C10.53616001 1.62753691 20.99009981 3.5641076 31.4375 5.6875 C44.12109401 8.26501998 56.83351448 10.65756918 69.5625 13 C86.42696355 16.10539177 103.22916881 19.42077653 120 23 C119.34 27.62 118.68 32.24 118 37 C113.03585131 37 109.38136883 36.85471218 104.66137695 35.93359375 C103.44107788 35.69888367 102.22077881 35.46417358 100.96350098 35.22235107 C99.63841428 34.96080218 98.31334145 34.69918308 96.98828125 34.4375 C95.59228474 34.16695369 94.1961635 33.89705033 92.79992676 33.62774658 C89.8374013 33.05522787 86.87564219 32.47895825 83.91445923 31.89953613 C76.98669819 30.54411439 70.05554759 29.20621711 63.12439537 27.86826324 C61.58134006 27.57032513 60.03833196 27.27214239 58.49537086 26.97371674 C42.78306412 23.93541124 27.04397036 21.05646151 11.28442383 18.2734375 C10.01943054 18.04790192 10.01943054 18.04790192 8.72888184 17.81781006 C7.18165033 17.54205062 5.633832 17.26955448 4.08532715 17.0010376 C-0.88738929 16.11261071 -0.88738929 16.11261071 -2 15 C-2.28641996 9.46254751 -1.6393565 5.35220739 0 0 Z " fill="#030302" transform="translate(137,386)"/>
<path d="M0 0 C2.99220268 1.36370299 5.29026529 2.94908083 7.75 5.125 C8.67039062 5.93324219 8.67039062 5.93324219 9.609375 6.7578125 C10.29773438 7.37269531 10.29773438 7.37269531 11 8 C10.4165913 11.1705127 9.53089908 12.85649897 7.3046875 15.171875 C6.75731934 15.74953613 6.20995117 16.32719727 5.64599609 16.92236328 C4.76935303 17.82704346 4.76935303 17.82704346 3.875 18.75 C2.67626927 20.01224823 1.47834477 21.27526264 0.28125 22.5390625 C-0.57919922 23.44253418 -0.57919922 23.44253418 -1.45703125 24.36425781 C-3.22954072 26.24334221 -4.93988439 28.16729216 -6.625 30.125 C-10.10227284 34.16425633 -13.72349895 38.06764441 -17.35791016 41.96533203 C-21.56292874 46.50853201 -22.13459236 48.57614013 -22.31640625 54.7578125 C-22.33718735 55.42086395 -22.35796844 56.08391541 -22.37937927 56.76705933 C-22.44479231 58.88626694 -22.50372105 61.005599 -22.5625 63.125 C-22.60569309 64.56121081 -22.64930764 65.99740902 -22.69335938 67.43359375 C-22.80125909 70.95560344 -22.90039243 74.47770688 -23 78 C-27.95 78 -32.9 78 -38 78 C-38.25500195 73.08541701 -38.47279206 68.19429607 -38.60424805 63.27832031 C-38.65906812 61.61346203 -38.73376561 59.94912085 -38.82983398 58.28613281 C-39.68961956 43.00309937 -39.68961956 43.00309937 -34.1867218 36.62286377 C-31.89467087 34.27954197 -29.47963025 32.14514575 -27 30 C-25.80725522 28.68994321 -24.63286344 27.36217081 -23.5 26 C-20.09968581 22.07656055 -16.58367918 18.26219913 -13.06665039 14.44384766 C-9.76533798 10.85314751 -6.52624887 7.21623952 -3.33984375 3.5234375 C-2.27112096 2.30827165 -1.1442894 1.1442894 0 0 Z " fill="#030202" transform="translate(339,117)"/>
<path d="M0 0 C4.62 0 9.24 0 14 0 C13.88205078 3.28130859 13.88205078 3.28130859 13.76171875 6.62890625 C13.36439721 25.48623233 15.04351544 39.07854142 26.48193359 54.8605957 C31 61.22788678 31 61.22788678 31 64 C29.2335343 65.0076952 27.46166177 66.00591714 25.6875 67 C24.70136719 67.556875 23.71523437 68.11375 22.69921875 68.6875 C20 70 20 70 17 70 C16.5560791 69.19780029 16.1121582 68.39560059 15.65478516 67.5690918 C14.00460902 64.58853943 12.35328132 61.60863125 10.70117188 58.62915039 C9.98684276 57.34034381 9.27297143 56.05128338 8.55957031 54.76196289 C7.53310944 52.9070423 6.50499696 51.05304567 5.4765625 49.19921875 C4.85861816 48.08377686 4.24067383 46.96833496 3.60400391 45.8190918 C2.47568464 43.83603204 1.26559568 41.89839352 0 40 C-0.24050903 38.12068176 -0.24050903 38.12068176 -0.22705078 35.98754883 C-0.22689972 35.18694534 -0.22674866 34.38634186 -0.22659302 33.56147766 C-0.21627045 32.70201035 -0.20594788 31.84254303 -0.1953125 30.95703125 C-0.1924826 30.0734343 -0.18965271 29.18983734 -0.18673706 28.27946472 C-0.17554097 25.45700546 -0.15043751 22.63486338 -0.125 19.8125 C-0.11496946 17.89909312 -0.10584374 15.98568127 -0.09765625 14.07226562 C-0.07560351 9.38138818 -0.04107762 4.69074787 0 0 Z " fill="#FEFEFE" transform="translate(46,316)"/>
<path d="M0 0 C4.95 0 9.9 0 15 0 C15 19.8 15 39.6 15 60 C10.05 60 5.1 60 0 60 C0 40.2 0 20.4 0 0 Z " fill="#FEFEFE" transform="translate(31,150)"/>
<path d="M0 0 C4.62851665 1.36479106 8.41942971 3.26545865 12.53515625 5.7734375 C13.13629745 6.13845367 13.73743866 6.50346985 14.35679626 6.87954712 C15.6199021 7.64827823 16.88123837 8.41992379 18.14086914 9.19433594 C20.05636048 10.37122783 21.97782023 11.5378415 23.90039062 12.703125 C29.17674308 15.92171243 34.15697515 19.12558012 39 23 C19.53 23 0.06 23 -20 23 C-18.22143058 19.44286117 -17.08476818 17.88610569 -14.3125 15.25 C-10.86489092 11.89641662 -7.66538932 8.41813999 -4.54296875 4.76171875 C-3.08919634 3.10184189 -1.57858414 1.54066019 0 0 Z " fill="#71859D" transform="translate(377,172)"/>
<path d="M0 0 C0.66 0.33 1.32 0.66 2 1 C-0.31 9.25 -2.62 17.5 -5 26 C-15.125 24.875 -15.125 24.875 -18.59765625 23.80859375 C-19.70463867 23.47504883 -19.70463867 23.47504883 -20.83398438 23.13476562 C-21.56939453 22.90466797 -22.30480469 22.67457031 -23.0625 22.4375 C-23.83271484 22.20353516 -24.60292969 21.96957031 -25.39648438 21.72851562 C-27.2664808 21.15938628 -29.13356895 20.58071506 -31 20 C-25.86202064 15.74430591 -20.28937797 12.30030458 -14.62426758 8.80737305 C-12.80224782 7.68116302 -10.98809042 6.5429501 -9.17382812 5.40429688 C-8.01869088 4.68935763 -6.86310758 3.97513846 -5.70703125 3.26171875 C-4.6600708 2.61162842 -3.61311035 1.96153809 -2.53442383 1.29174805 C-1.69806396 0.86547119 -0.8617041 0.43919434 0 0 Z " fill="#E7AE7D" transform="translate(303,337)"/>
<path d="M0 0 C8.58 0 17.16 0 26 0 C26 8.91 26 17.82 26 27 C16.61669204 18.95716461 6.91038245 10.36557367 0 0 Z " fill="#E8AF7D" transform="translate(456,255)"/>
<path d="M0 0 C8.58 0 17.16 0 26 0 C26 8.91 26 17.82 26 27 C16.40356092 18.77448079 7.59257758 10.12343677 0 0 Z " fill="#E8AF7E" transform="translate(380,255)"/>
<path d="M0 0 C8.58 0 17.16 0 26 0 C26 8.91 26 17.82 26 27 C16.32181801 18.70441544 7.95334535 9.94168169 0 0 Z " fill="#E8AF7D" transform="translate(230,255)"/>
<path d="M0 0 C0.66 0 1.32 0 2 0 C0.81639747 8.64341319 -1.25048805 16.72476987 -4 25 C-9.60698523 24.38821421 -14.96895646 23.43345826 -20.4375 22.0625 C-21.15615234 21.89298828 -21.87480469 21.72347656 -22.61523438 21.54882812 C-24.4278675 21.09866522 -26.21713556 20.5564889 -28 20 C-28.33 19.34 -28.66 18.68 -29 18 C-28.15703369 17.49025635 -27.31406738 16.9805127 -26.44555664 16.45532227 C-23.32684063 14.56891143 -20.20926735 12.68061932 -17.09204102 10.79174805 C-15.74111677 9.97352315 -14.38988057 9.15581309 -13.03833008 8.33862305 C-11.09895462 7.16589473 -9.16069796 5.99133705 -7.22265625 4.81640625 C-6.61535172 4.44971329 -6.00804718 4.08302032 -5.38233948 3.70521545 C-2.53278136 2.06447198 -2.53278136 2.06447198 0 0 Z " fill="#E8AF7D" transform="translate(444,375)"/>
<path d="M0 0 C7.92 1.98 7.92 1.98 16 4 C15 12 15 12 12 19 C7.05 18.01 2.1 17.02 -3 16 C-1.125 4.5 -1.125 4.5 0 0 Z " fill="#030302" transform="translate(122,317)"/>
<path d="M0 0 C4.95 0 9.9 0 15 0 C15 4.95 15 9.9 15 15 C10.05 15 5.1 15 0 15 C0 10.05 0 5.1 0 0 Z " fill="#FEFEFE" transform="translate(31,120)"/>
<path d="M0 0 C-0.99 4.62 -1.98 9.24 -3 14 C-10.34625166 12.90228423 -17.02981847 11.55573323 -24 9 C-20.35749621 6.57166414 -16.59609411 5.04127061 -12.5625 3.375 C-11.79873047 3.05015625 -11.03496094 2.7253125 -10.24804688 2.390625 C-9.13719727 1.93042969 -9.13719727 1.93042969 -8.00390625 1.4609375 C-7.33174072 1.18040527 -6.6595752 0.89987305 -5.96704102 0.61083984 C-4 0 -4 0 0 0 Z " fill="#E5AD7C" transform="translate(228,330)"/>
<path d="M0 0 C-0.28284018 1.77226453 -0.57660498 3.542788 -0.875 5.3125 C-1.03742188 6.29863281 -1.19984375 7.28476562 -1.3671875 8.30078125 C-2 11 -2 11 -4 14 C-6.81505058 13.38504727 -9.62664944 12.75862099 -12.4375 12.125 C-13.64116211 11.86396484 -13.64116211 11.86396484 -14.86914062 11.59765625 C-16.9282378 11.12849487 -18.96658343 10.57027241 -21 10 C-21.33 9.34 -21.66 8.68 -22 8 C-18.71057634 6.66108439 -15.41810891 5.32982297 -12.125 4 C-11.18785156 3.6184375 -10.25070312 3.236875 -9.28515625 2.84375 C-8.38925781 2.4828125 -7.49335938 2.121875 -6.5703125 1.75 C-5.74289551 1.41484375 -4.91547852 1.0796875 -4.06298828 0.734375 C-2 0 -2 0 0 0 Z " fill="#E1AA7A" transform="translate(371,368)"/>
<path d="M0 0 C6.6 0 13.2 0 20 0 C20 4.62 20 9.24 20 14 C16.37577348 12.55030939 14.20607111 11.62737898 11.23046875 9.43359375 C10.56982422 8.94826172 9.90917969 8.46292969 9.22851562 7.96289062 C8.55498047 7.45951172 7.88144531 6.95613281 7.1875 6.4375 C6.49462891 5.93025391 5.80175781 5.42300781 5.08789062 4.90039062 C3.37002554 3.62933971 1.68202411 2.31811449 0 1 C0 0.67 0 0.34 0 0 Z " fill="#DCA577" transform="translate(312,255)"/>
<path d="M0 0 C0 4.29 0 8.58 0 13 C-5.3762621 10.08785803 -10.17918273 6.75648099 -15 3 C-10.12206417 -0.25195722 -5.77608621 -0.11325659 0 0 Z " fill="#E3AB7B" transform="translate(181,256)"/>
</svg>
