<?xml version="1.0" standalone="no"?>
<!DOCTYPE svg PUBLIC "-//W3C//DTD SVG 20010904//EN"
 "http://www.w3.org/TR/2001/REC-SVG-20010904/DTD/svg10.dtd">
<svg version="1.0" xmlns="http://www.w3.org/2000/svg"
 width="512.000000pt" height="512.000000pt" viewBox="0 0 512.000000 512.000000"
 preserveAspectRatio="xMidYMid meet">

<g transform="translate(0.000000,512.000000) scale(0.100000,-0.100000)"
fill="#000000" stroke="none">
<path d="M2110 4314 c-278 -50 -485 -165 -693 -384 -119 -125 -247 -293 -346
-455 -144 -233 -184 -291 -252 -357 -116 -114 -284 -182 -558 -224 -133 -20
-161 -36 -161 -93 0 -27 7 -44 25 -61 l26 -24 125 18 c352 50 577 156 722 339
28 35 103 147 167 248 146 230 188 288 295 414 171 199 317 304 512 371 166
56 384 59 545 7 199 -65 362 -193 438 -342 23 -46 58 -152 52 -158 -2 -1 -18
2 -36 7 -250 71 -482 -13 -575 -210 -29 -61 -31 -72 -31 -180 1 -93 5 -126 22
-173 48 -128 128 -214 240 -258 89 -34 245 -38 371 -9 233 54 459 176 677 366
212 185 356 251 528 242 54 -2 87 -11 130 -32 32 -15 57 -32 55 -36 -2 -5 -25
-24 -53 -42 -64 -44 -140 -144 -160 -210 -20 -68 -19 -162 2 -224 24 -71 128
-174 208 -205 53 -21 77 -23 200 -23 135 0 144 1 250 37 151 51 218 86 229
118 14 42 0 79 -38 94 -31 13 -41 11 -167 -33 -126 -44 -140 -47 -239 -47 -63
0 -120 5 -143 14 -46 16 -102 63 -123 102 -19 38 -17 106 5 154 24 53 103 122
155 136 94 26 107 32 122 54 27 41 9 82 -65 155 -79 78 -143 114 -247 140 -97
25 -167 25 -269 1 -156 -38 -306 -123 -465 -266 -280 -250 -647 -397 -854
-341 -81 22 -127 61 -165 139 -104 212 8 407 233 407 62 0 135 -19 211 -54
116 -53 155 -26 155 108 -1 277 -181 534 -474 676 -146 71 -239 92 -416 96
-80 1 -156 0 -170 -2z"/>
<path d="M1195 2494 c-288 -182 -606 -220 -943 -114 -98 31 -124 30 -164 -7
-24 -22 -23 -74 2 -101 27 -29 183 -77 312 -96 259 -39 508 -2 736 109 l112
55 73 -39 c174 -96 418 -148 637 -137 205 10 352 48 514 131 l86 45 86 -45
c164 -84 310 -121 519 -131 216 -10 409 30 593 122 l105 53 111 -54 c289 -141
626 -162 960 -59 88 28 116 50 116 96 0 40 -14 63 -47 77 -24 10 -40 7 -111
-19 -300 -109 -677 -67 -938 106 -63 42 -87 42 -144 3 -329 -223 -850 -222
-1174 1 -25 16 -54 30 -66 30 -12 0 -54 -20 -94 -44 -330 -206 -810 -206
-1127 -1 -38 25 -80 45 -92 45 -12 0 -40 -12 -62 -26z"/>
<path d="M1146 1995 c-237 -154 -573 -195 -865 -108 -125 38 -157 40 -187 12
-30 -28 -32 -77 -4 -107 27 -29 183 -77 312 -96 259 -39 508 -2 736 109 l112
55 73 -39 c174 -96 418 -148 637 -137 205 10 352 48 514 131 l86 45 86 -45
c164 -84 310 -121 519 -131 216 -10 409 30 593 122 l105 53 111 -54 c284 -139
626 -162 933 -64 106 34 139 63 129 113 -14 69 -55 84 -140 52 -124 -47 -210
-61 -376 -61 -163 0 -222 9 -355 52 -89 28 -144 54 -225 107 -30 20 -65 36
-78 36 -13 0 -43 -14 -68 -30 -74 -51 -204 -109 -309 -136 -88 -24 -120 -27
-265 -28 -244 -1 -392 36 -567 144 -45 27 -90 50 -101 50 -10 0 -56 -22 -101
-49 -343 -207 -811 -200 -1137 15 -28 19 -62 34 -75 34 -13 0 -55 -20 -93 -45z"/>
<path d="M1146 1515 c-237 -154 -573 -195 -865 -108 -125 38 -157 40 -187 12
-30 -28 -32 -77 -4 -107 27 -29 183 -77 312 -96 259 -39 508 -2 736 109 l112
55 73 -39 c174 -96 418 -148 637 -137 205 10 352 48 514 131 l86 45 86 -45
c164 -84 310 -121 519 -131 216 -10 409 30 593 122 l105 53 111 -54 c284 -139
626 -162 933 -64 106 34 139 63 129 113 -14 69 -55 84 -140 52 -124 -47 -210
-61 -376 -61 -163 0 -222 9 -355 52 -89 28 -144 54 -225 107 -30 20 -65 36
-78 36 -13 0 -43 -14 -68 -30 -74 -51 -204 -109 -309 -136 -88 -24 -120 -27
-265 -28 -244 -1 -392 36 -567 144 -45 27 -90 50 -101 50 -10 0 -56 -22 -101
-49 -343 -207 -811 -200 -1137 15 -28 19 -62 34 -75 34 -13 0 -55 -20 -93 -45z"/>
</g>
</svg>
