<?xml version="1.0" encoding="UTF-8"?>
<svg version="1.1" xmlns="http://www.w3.org/2000/svg" width="512" height="512">
<path d="M0 0 C0.79148437 0.24669434 1.58296875 0.49338867 2.3984375 0.74755859 C35.54697531 11.39404284 60.63039171 34.00073599 76.87109375 64.515625 C82.09300535 74.86647236 87.27529955 87.27503017 87 99 C87.56376815 98.99631283 88.1275363 98.99262566 88.70838833 98.98882675 C102.45603383 98.90030763 116.20362909 98.8344647 129.95149899 98.79275131 C136.60003188 98.77189899 143.24830389 98.74362393 149.89672852 98.69824219 C156.3158069 98.6547014 162.73468736 98.63084514 169.15390205 98.62049103 C171.5998604 98.61311453 174.04580822 98.59870999 176.49168205 98.57707977 C179.92429681 98.54793741 183.3560993 98.54404867 186.78881836 98.54589844 C187.79439285 98.53151733 188.79996735 98.51713623 189.83601379 98.50231934 C199.44135965 98.5581305 206.29304298 101.69483033 213.27734375 108.20703125 C220.03605682 115.24161016 221.41390806 122.54745384 221.36352539 131.95507812 C221.13327539 140.87035806 217.97958822 146.75062242 212 153.20703125 C205.00952874 159.47387951 198.09492541 161.11131205 188.953125 161.31640625 C188.18192322 161.33718735 187.41072144 161.35796844 186.6161499 161.37937927 C184.16085428 161.44458572 181.70545479 161.50362484 179.25 161.5625 C177.58202065 161.60571274 175.91405168 161.6493279 174.24609375 161.69335938 C170.16416804 161.80023736 166.08213818 161.90158566 162 162 C162.61814575 163.40282227 162.61814575 163.40282227 163.2487793 164.83398438 C163.79498247 166.08714225 164.34094971 167.34040299 164.88671875 168.59375 C165.15770386 169.20702148 165.42868896 169.82029297 165.70788574 170.45214844 C172.64439895 186.44569068 172.8191378 203.08517321 170 220 C169.67 220.66 169.34 221.32 169 222 C170.11072876 221.97643433 170.11072876 221.97643433 171.24389648 221.95239258 C174.64168473 221.88952461 178.03935004 221.85084559 181.4375 221.8125 C182.60216797 221.78736328 183.76683594 221.76222656 184.96679688 221.73632812 C195.86047954 221.64426883 204.62606168 223.72789567 213 231 C220.30855904 239.71405117 222.1129088 248.78129773 221.28564453 259.984375 C220.32281068 266.77852569 216.61475391 272.88877915 211.625 277.5 C203.89770775 283.29546918 196.82307101 285.15494138 187.2287035 285.13142776 C186.44927835 285.1334804 185.6698532 285.13553303 184.8668091 285.13764787 C182.2454035 285.14331893 179.62405043 285.14186048 177.00263977 285.14044189 C175.10804264 285.14302547 173.21344605 285.1460386 171.31885022 285.1494453 C166.10472643 285.15751945 160.89061639 285.1593051 155.67648709 285.16004276 C150.05601388 285.16189259 144.43554782 285.16943956 138.81507874 285.17617798 C126.52170798 285.18976466 114.22834048 285.19578651 101.93496346 285.20018864 C94.26040023 285.20295043 86.58583825 285.20718766 78.91127586 285.21169281 C57.66678715 285.22388579 36.42229977 285.23422051 15.17780781 285.2375679 C13.80416139 285.23778953 12.43051498 285.23801132 11.05686856 285.23823325 C9.67991808 285.23845389 8.30296759 285.23867438 6.92601711 285.2388947 C4.16365007 285.23933725 1.40128305 285.23978437 -1.36108398 285.24023438 C-2.38844241 285.24039846 -2.38844241 285.24039846 -3.43655555 285.24056586 C-25.6440899 285.24419641 -47.8515916 285.26011667 -70.05911344 285.28342474 C-93.54184812 285.30802613 -117.02455751 285.32173416 -140.50730735 285.32293582 C-153.30669015 285.3238529 -166.1060302 285.32961366 -178.90540123 285.34775543 C-189.80383526 285.36314828 -200.70221334 285.36828167 -211.60065617 285.36001733 C-217.16132863 285.356108 -222.72188837 285.35705437 -228.282547 285.37107468 C-233.37468379 285.38379629 -238.46662297 285.38263126 -243.55875943 285.37048396 C-245.39928904 285.36852397 -247.23983256 285.37161935 -249.08034261 285.38032833 C-261.35814285 285.43473883 -272.11766603 285.2842458 -281.953125 277.10546875 C-289.2620155 269.58735429 -291.32610283 261.79171134 -291.3894043 251.6237793 C-291.27092686 245.08673461 -289.77817432 240.39889534 -286 235 C-285.29875 233.9275 -284.5975 232.855 -283.875 231.75 C-276.71807914 224.90424961 -268.77953503 222.03311151 -259.04296875 221.68359375 C-257.37524414 221.62075195 -257.37524414 221.62075195 -255.67382812 221.55664062 C-254.52333984 221.51732422 -253.37285156 221.47800781 -252.1875 221.4375 C-250.43276367 221.37272461 -250.43276367 221.37272461 -248.64257812 221.30664062 C-245.76182969 221.20081721 -242.88099877 221.09873175 -240 221 C-240.25136719 219.14761719 -240.25136719 219.14761719 -240.5078125 217.2578125 C-243.46187471 193.59471497 -240.34771353 171.62576102 -225.4375 152.1875 C-224.30373384 150.78184747 -223.15684789 149.38671831 -222 148 C-221.23300781 147.03449219 -220.46601563 146.06898438 -219.67578125 145.07421875 C-208.41609098 131.62990724 -191.03479463 123.07793797 -174 120 C-172.7625 119.773125 -171.525 119.54625 -170.25 119.3125 C-166.46679851 118.94873063 -162.7993963 118.93334392 -159 119 C-159.03480469 118.34257813 -159.06960937 117.68515625 -159.10546875 117.0078125 C-159.91924031 88.40955471 -148.35322964 60.56947085 -130 39 C-129.26007813 38.10925781 -128.52015625 37.21851563 -127.7578125 36.30078125 C-112.12223571 18.13346516 -89.90051039 5.45184658 -67 -1 C-65.88496094 -1.32097656 -64.76992187 -1.64195313 -63.62109375 -1.97265625 C-43.80998313 -6.64816534 -19.40824507 -6.11273076 0 0 Z " fill="#EBEFF6" transform="translate(291,4)"/>
<path d="M0 0 C1.05177626 -0.00453111 2.10355252 -0.00906223 3.18720078 -0.01373065 C6.7052694 -0.02637284 10.22318318 -0.02475436 13.74127197 -0.02310181 C16.26629841 -0.02908717 18.79132301 -0.03589274 21.31634521 -0.04345703 C27.45995303 -0.0592892 33.6035043 -0.06556541 39.7471306 -0.06668179 C44.74353786 -0.06763355 49.73993249 -0.07175022 54.73633575 -0.07808304 C68.91634516 -0.09568881 83.09632434 -0.10492302 97.27634475 -0.10342209 C98.04014182 -0.10334218 98.8039389 -0.10326227 99.59088135 -0.10317993 C100.73798338 -0.10305729 100.73798338 -0.10305729 101.90825918 -0.10293217 C114.29676644 -0.10211958 126.68515203 -0.12125207 139.0736241 -0.14945666 C151.80801723 -0.17821896 164.54235109 -0.1919951 177.27677751 -0.19026911 C184.42055035 -0.18960634 191.56419565 -0.19504904 198.70793915 -0.21662521 C205.42867355 -0.23679438 212.14909453 -0.23612923 218.86985779 -0.22159195 C221.33245996 -0.21950321 223.79507898 -0.22420852 226.25765228 -0.23631287 C229.62781155 -0.25180153 232.99704741 -0.24243224 236.3671875 -0.22705078 C237.33423607 -0.23733791 238.30128463 -0.24762503 239.2976377 -0.25822389 C248.96362037 -0.16119923 257.64746686 2.50151555 264.71881104 9.28305054 C270.38842867 15.82888181 272.95824978 23.09086402 273.75006104 31.64242554 C272.92119169 41.25730989 269.45186943 49.86625703 262.10552979 56.31430054 C251.66151628 64.07912779 241.4596474 63.60468604 228.87896729 63.65805054 C218.3872552 63.8617731 209.95794424 65.84292127 202.19537354 73.22836304 C196.45160902 79.89112988 194.02388959 87.5176477 194.43756104 96.26742554 C195.70743442 104.322051 199.26584883 112.00412637 205.76959229 117.09164429 C213.66035267 122.09761055 221.16863121 123.57089956 230.35699463 123.52279663 C231.21016769 123.52641708 232.06334076 123.53003754 232.94236755 123.5337677 C234.78162956 123.54062232 236.62091173 123.54317458 238.460186 123.54182053 C241.37893988 123.54084874 244.29733205 123.55387436 247.21603394 123.57080078 C255.50990022 123.61687615 263.80372724 123.64166973 272.09771729 123.64828491 C277.18401418 123.65331815 282.26993051 123.67765612 287.35609818 123.7136116 C289.28482395 123.72336394 291.21360236 123.72576668 293.14234543 123.72043991 C306.27753359 123.68585935 316.73327701 124.00294124 326.75006104 133.47445679 C333.99680281 141.17411992 335.00732077 149.23710986 334.74615479 159.34945679 C334.04728242 168.22248182 329.74878952 174.20369621 323.43756104 180.26742554 C316.83841954 185.3851271 310.90999079 186.56649049 302.80418396 186.53485107 C301.51970028 186.54164774 301.51970028 186.54164774 300.20926744 186.54858172 C297.34675213 186.56121765 294.48442728 186.55960587 291.62188721 186.55795288 C289.56666317 186.56393863 287.51144137 186.57074429 285.45622253 186.57830811 C279.87762702 186.59597056 274.29909287 186.6006636 268.7204721 186.60193968 C265.23381586 186.6033617 261.74717521 186.60763226 258.26052284 186.61293411 C246.09288162 186.63143521 233.92528421 186.63960462 221.75762939 186.63803101 C210.42185275 186.63682959 199.08626651 186.65793179 187.75053805 186.68951833 C178.01276829 186.71568374 168.2750607 186.72639819 158.53725606 186.72512019 C152.72373054 186.72461063 146.91037423 186.73029038 141.09688377 186.75147629 C135.62784059 186.77086295 130.15912797 186.77098 124.69007301 186.75644302 C122.68620953 186.75435438 120.68232533 186.75905912 118.67849731 186.77116394 C115.93590855 186.78665458 113.19445426 186.77728321 110.45188904 186.76190186 C109.66509819 186.77218898 108.87830734 186.78247611 108.06767434 186.79307497 C99.2758906 186.6846403 92.49388353 182.96593995 86.16021729 177.06039429 C80.16736523 170.82293603 78.41892833 164.37004495 77.56256104 155.95492554 C76.34066929 145.83262114 73.16906564 138.15719375 65.43756104 131.26742554 C59.22387778 127.31534023 53.6770792 126.11940215 46.36149597 126.12939453 C45.52886012 126.12657325 44.69622427 126.12375197 43.83835703 126.1208452 C41.03800098 126.11248781 38.23768441 126.11115995 35.43731689 126.10971069 C33.43341968 126.10504318 31.42952353 126.09989973 29.42562866 126.09431458 C25.10403988 126.0830252 20.78245804 126.07459495 16.4608593 126.06819534 C9.6234416 126.05752076 2.78607348 126.03727615 -4.05131531 126.01507568 C-23.49665042 125.95313708 -42.94198303 125.8991728 -62.38739014 125.86605835 C-73.12224431 125.84769709 -83.85701582 125.81874007 -94.59180921 125.77805364 C-100.27178382 125.75700497 -105.95165434 125.74152942 -111.63167 125.73924637 C-116.97918963 125.73709454 -122.32649274 125.72117045 -127.67394638 125.69485664 C-129.6322186 125.68768195 -131.59051711 125.68555377 -133.54879951 125.68895912 C-147.27508968 125.70900812 -158.3003304 125.52195989 -169.12493896 116.01742554 C-176.50244175 107.69408906 -178.22151388 100.40076355 -177.96478271 89.45883179 C-177.45212625 81.43329521 -173.53963601 74.77345034 -167.81243896 69.26742554 C-157.73805783 61.79475535 -148.09726972 61.70847417 -135.9885273 61.78157043 C-133.01455144 61.79897871 -130.04153518 61.79124555 -127.06755066 61.77731323 C-119.68464893 61.74781247 -112.30193658 61.76082517 -104.91900635 61.77249146 C-98.66759872 61.78072736 -92.41661389 61.77262996 -86.16526604 61.74336243 C-83.25209816 61.73632235 -80.33969722 61.7528755 -77.42658997 61.77047729 C-65.90237155 61.76872352 -54.90581847 61.45209979 -46.05853271 53.02914429 C-40.61170806 46.61525938 -38.25013988 39.38340617 -37.14447021 31.15805054 C-36.24276769 24.46849679 -35.23101365 18.98930695 -31.56243896 13.26742554 C-31.02618896 12.40117554 -30.48993896 11.53492554 -29.93743896 10.64242554 C-21.35868247 2.06366904 -11.65182408 -0.03697657 0 0 Z " fill="#BEC3D2" transform="translate(177.56243896484375,325.7325744628906)"/>
<path d="M0 0 C2.13463314 -0.00542556 4.26926254 -0.01255065 6.40388489 -0.02124023 C12.18066628 -0.03942365 17.95716085 -0.03242682 23.73394704 -0.01972389 C29.78890183 -0.00957177 35.84383266 -0.01899559 41.89878845 -0.02526855 C52.06440626 -0.03253794 62.22990769 -0.0229752 72.39550781 -0.00390625 C84.13809788 0.01786688 95.88041017 0.01080491 107.62299353 -0.01121187 C117.71754392 -0.029379 127.81201082 -0.03191791 137.90657228 -0.0214572 C143.93016801 -0.01523028 149.95363326 -0.01436479 155.97722054 -0.02760315 C161.6400455 -0.03918024 167.30251314 -0.03110159 172.96529961 -0.00802612 C175.04010806 -0.00274927 177.11494672 -0.00423522 179.18974304 -0.01307678 C182.02847339 -0.0240561 184.86606857 -0.01023987 187.70472717 0.00964355 C188.92751211 -0.00374078 188.92751211 -0.00374078 190.17499977 -0.0173955 C199.06644223 0.10287763 205.85706008 3.74217099 212.27319336 9.72460938 C219.03190643 16.75918829 220.40975767 24.06503197 220.359375 33.47265625 C220.129125 42.38793619 216.97543783 48.26820055 210.99584961 54.72460938 C204.15956872 60.85322838 197.39616777 62.66213735 188.43261719 62.67529297 C187.67595764 62.68037369 186.9192981 62.68545441 186.13970947 62.69068909 C184.49899762 62.70137401 182.85827136 62.71000153 181.21753883 62.71680832 C178.61448793 62.72863325 176.01160026 62.74809697 173.40861511 62.76992798 C166.00830578 62.83141102 158.60801288 62.88548744 151.20751953 62.91894531 C146.67697986 62.93997662 142.14673795 62.97534931 137.61636925 63.01970291 C135.89616098 63.03379844 134.17590004 63.04257068 132.45563698 63.04575729 C120.13990853 63.07097878 109.3385824 63.44003207 99.99584961 72.51757812 C94.74607883 79.19304807 92.90164819 86.01484714 92.12084961 94.39257812 C91.44642075 100.44798584 90.57063061 105.4916484 86.99584961 110.51757812 C86.57432617 111.12859375 86.15280273 111.73960937 85.71850586 112.36914062 C80.41511658 119.27383027 73.30736458 122.47794543 64.99584961 124.51757812 C62.1655145 124.78769229 59.35641361 124.79654417 56.51469421 124.78500366 C55.68680777 124.78953478 54.85892132 124.79406589 54.00594741 124.79873431 C51.24560661 124.81134424 48.48546398 124.80976015 45.72509766 124.80810547 C43.74031319 124.81409283 41.75553105 124.82089886 39.77075195 124.82846069 C34.38842279 124.84610641 29.00615724 124.85081547 23.62380195 124.85209227 C20.25857684 124.8535152 16.89336784 124.85778749 13.52814674 124.8630867 C1.78079834 124.88158206 -9.96650471 124.8897579 -21.71386719 124.88818359 C-32.65258966 124.88698224 -43.59111481 124.90808466 -54.52978736 124.93967092 C-63.93129029 124.96584809 -73.33272881 124.97655029 -82.73426789 124.97527277 C-88.34492731 124.97476358 -93.9554113 124.98042349 -99.56603432 125.00162888 C-104.84467764 125.02103547 -110.12297861 125.02111902 -115.40163422 125.00659561 C-117.33412617 125.00450946 -119.2666397 125.00919683 -121.19909477 125.02131653 C-135.38962251 125.1045198 -145.1559638 124.09057824 -155.86743164 113.90039062 C-162.23051442 106.80444822 -163.63725497 98.80517003 -163.40649414 89.52148438 C-162.87421171 81.59786373 -158.88587881 74.903702 -153.19165039 69.51757812 C-145.2595817 62.79370533 -136.78241655 61.94276383 -126.73434448 62.00115776 C-124.52120582 62.01393423 -122.30928797 62.00236736 -120.09619141 61.98512268 C-116.19356919 61.95856446 -112.2912526 61.95282144 -108.3885498 61.95422363 C-102.14418346 61.95646141 -95.90019527 61.94204616 -89.65597534 61.89863777 C-87.49065683 61.88889244 -85.32594934 61.89746624 -83.16064453 61.90733337 C-71.86102809 61.88885941 -62.73629107 60.06282589 -54.00415039 52.51757812 C-49.21711914 46.68229185 -47.03151848 40.36478368 -46.42358398 32.85913086 C-45.57813586 22.73446319 -42.7650661 14.78690818 -35.25415039 7.58007812 C-24.30539877 -0.70335066 -13.16200464 -0.05614856 0 0 Z " fill="#BEC3D2" transform="translate(292.004150390625,102.482421875)"/>
<path d="M0 0 C1.05177626 -0.00453111 2.10355252 -0.00906223 3.18720078 -0.01373065 C6.7052694 -0.02637284 10.22318318 -0.02475436 13.74127197 -0.02310181 C16.26629841 -0.02908717 18.79132301 -0.03589274 21.31634521 -0.04345703 C27.45995303 -0.0592892 33.6035043 -0.06556541 39.7471306 -0.06668179 C44.74353786 -0.06763355 49.73993249 -0.07175022 54.73633575 -0.07808304 C68.91634516 -0.09568881 83.09632434 -0.10492302 97.27634475 -0.10342209 C98.42204036 -0.10330222 98.42204036 -0.10330222 99.59088135 -0.10317993 C100.73798338 -0.10305729 100.73798338 -0.10305729 101.90825918 -0.10293217 C114.29676644 -0.10211958 126.68515203 -0.12125207 139.0736241 -0.14945666 C151.80801723 -0.17821896 164.54235109 -0.1919951 177.27677751 -0.19026911 C184.42055035 -0.18960634 191.56419565 -0.19504904 198.70793915 -0.21662521 C205.42867355 -0.23679438 212.14909453 -0.23612923 218.86985779 -0.22159195 C221.33245996 -0.21950321 223.79507898 -0.22420852 226.25765228 -0.23631287 C229.62781155 -0.25180153 232.99704741 -0.24243224 236.3671875 -0.22705078 C237.33423607 -0.23733791 238.30128463 -0.24762503 239.2976377 -0.25822389 C248.96362037 -0.16119923 257.64746686 2.50151555 264.71881104 9.28305054 C270.38842867 15.82888181 272.95824978 23.09086402 273.75006104 31.64242554 C272.92119169 41.25730989 269.45186943 49.86625703 262.10552979 56.31430054 C251.66151628 64.07912779 241.4596474 63.60468604 228.87896729 63.65805054 C218.3872552 63.8617731 209.95794424 65.84292127 202.19537354 73.22836304 C196.45160902 79.89112988 194.02388959 87.5176477 194.43756104 96.26742554 C195.70694721 104.31896071 199.26073535 112.04865063 205.80474854 117.09164429 C210.50867188 120.04410681 215.01571399 122.08876314 220.43756104 123.26742554 C220.43756104 123.59742554 220.43756104 123.92742554 220.43756104 124.26742554 C211.33578594 124.33715983 202.23410385 124.39035515 193.13211918 124.42286205 C188.90497921 124.43846948 184.67802301 124.45961689 180.45098877 124.4937439 C176.36610056 124.52651416 172.2813883 124.54431552 168.19637871 124.55205727 C166.64357168 124.55756925 165.0907735 124.56833231 163.53804207 124.58461571 C150.71392819 124.71366393 140.98520384 123.55552077 131.43756104 114.26742554 C126.0157359 107.55280512 124.42847418 100.32117585 123.56256104 91.82992554 C122.80413055 85.8683092 121.82572693 81.24230293 118.43756104 76.26742554 C117.75693604 75.23617554 117.07631104 74.20492554 116.37506104 73.14242554 C111.68410047 67.80846726 104.36291382 64.36381089 97.43756104 63.26742554 C95.21397579 63.16841074 92.98782485 63.12142699 90.7620697 63.10920715 C89.77560895 63.10180019 89.77560895 63.10180019 88.7692197 63.09424359 C86.57362693 63.07893013 84.37806327 63.07052475 82.18243408 63.06210327 C80.60535935 63.0525199 79.02828717 63.04250955 77.45121765 63.03210449 C73.17480691 63.00509907 68.89838519 62.98406591 64.62193656 62.96410251 C60.15093728 62.94221602 55.67997171 62.91484036 51.20899963 62.88804626 C42.74476841 62.83815537 34.28051845 62.79320318 25.81625062 62.7500239 C16.17905274 62.70062072 6.54188868 62.64571402 -3.09527647 62.59034431 C-22.91763246 62.47657959 -42.74002073 62.36972856 -62.56243896 62.26742554 C-60.45552957 61.20397233 -58.35563054 60.17630697 -56.19525146 59.22445679 C-47.80537703 55.3954331 -42.92167408 50.52317367 -39.35931396 41.98226929 C-38.01177591 37.39139207 -37.65956915 32.67284663 -37.11322021 27.93148804 C-35.95820475 20.24776811 -33.23441336 13.69279235 -27.56243896 8.26742554 C-18.48794874 1.84737803 -10.93243245 -0.03469361 0 0 Z " fill="#CDD2E1" transform="translate(177.56243896484375,325.7325744628906)"/>
<path d="M0 0 C1.20275574 -0.0071553 2.40551147 -0.01431061 3.64471436 -0.02168274 C4.97964452 -0.02452299 6.31457496 -0.02723472 7.64950562 -0.02983093 C9.05404834 -0.03609689 10.45858941 -0.04274381 11.86312866 -0.04974365 C16.47859546 -0.07077625 21.09406254 -0.08114743 25.70956421 -0.09111023 C27.30017489 -0.09515852 28.8907854 -0.09927547 30.48139572 -0.10346031 C37.95703837 -0.12251269 45.43267116 -0.13674186 52.90833342 -0.14507228 C61.52716664 -0.15483585 70.14574244 -0.18113198 78.764485 -0.22157317 C85.43214907 -0.25178136 92.09973957 -0.26654573 98.76747072 -0.26985329 C102.74673472 -0.27219904 106.72572373 -0.2810967 110.70491409 -0.30631447 C114.45277775 -0.3296819 118.20018709 -0.33379401 121.94810486 -0.32355309 C123.96814885 -0.32282561 125.98817021 -0.34185713 128.00811768 -0.36161804 C138.65208648 -0.3010201 145.71733545 2.08795636 153.51034546 9.35420227 C160.26905853 16.38878118 161.64690977 23.69462486 161.5965271 33.10224915 C161.3662771 42.01752908 158.21258993 47.89779344 152.23300171 54.35420227 C145.60037339 60.30024993 139.00719102 62.23899143 130.27963257 62.36836243 C129.58265038 62.37983716 128.8856682 62.39131189 128.16756535 62.40313435 C125.84437014 62.43988639 123.52114708 62.46953619 121.19784546 62.49873352 C119.5471263 62.52241467 117.8964102 62.54630944 116.24569702 62.57040405 C111.80703641 62.6331017 107.36831481 62.68800838 102.92951584 62.73991013 C100.17610277 62.77210553 97.42270801 62.80563785 94.66931152 62.83921814 C70.49859198 63.12772689 46.34031318 63.22131934 22.17050171 62.83467102 C20.31979568 62.80908112 20.31979568 62.80908112 18.43170166 62.78297424 C14.97842463 62.73218348 11.52575979 62.66738575 8.07284546 62.59638977 C6.58458252 62.57428185 6.58458252 62.57428185 5.06625366 62.55172729 C-4.83614403 62.30424305 -13.92443558 60.3419995 -21.52871704 53.58076477 C-28.65197857 45.84745062 -30.46905422 38.22760413 -30.14590454 27.80342102 C-29.23584437 19.02180943 -25.52531204 11.88536194 -18.76699829 6.14717102 C-12.69086169 2.43500246 -7.15879961 0.0292071 0 0 Z " fill="#CCD1E0" transform="translate(350.7669982910156,102.85282897949219)"/>
</svg>
