<?xml version="1.0" encoding="UTF-8"?>
<svg version="1.1" xmlns="http://www.w3.org/2000/svg" width="512" height="512">
<path d="M0 0 C1.68996094 0.5259375 1.68996094 0.5259375 3.4140625 1.0625 C18.15540576 6.22735019 30.59494294 14.48343889 42 25 C42.66257812 25.58136719 43.32515625 26.16273437 44.0078125 26.76171875 C59.57044912 41.13001349 67.99323569 61.72458961 72.9453125 81.83984375 C73.72824341 85.26201908 73.72824341 85.26201908 77 87 C79.26004309 87.60439682 81.53326941 88.16005502 83.8125 88.6875 C96.20101963 91.80460167 106.35074024 97.62810199 116 106 C116.80566406 106.6084375 117.61132812 107.216875 118.44140625 107.84375 C128.14664094 116.02281801 134.55508077 127.2855271 139 139 C139.433125 140.11117187 139.86625 141.22234375 140.3125 142.3671875 C146.83007549 162.32726244 144.25023688 184.68571551 135.25 203.3125 C131.89785215 209.86126355 127.98672451 215.56513772 123 221 C122.00419922 222.13308594 122.00419922 222.13308594 120.98828125 223.2890625 C107.12433973 238.2036909 87.37350302 246.70744948 67.24124146 248.29672241 C63.40992798 248.43615754 59.58767265 248.49288365 55.75390625 248.51171875 C54.36285385 248.5286274 52.97181614 248.54678554 51.58079529 248.56611633 C47.97578537 248.6129532 44.37083492 248.6431859 40.765625 248.66955566 C37.06433342 248.69970249 33.36324614 248.7461122 29.66210938 248.79101562 C22.44150917 248.8762906 15.22089277 248.94396592 8 249 C8.20858643 249.60835693 8.41717285 250.21671387 8.63208008 250.84350586 C8.90431396 251.64667236 9.17654785 252.44983887 9.45703125 253.27734375 C9.72749268 254.07132568 9.9979541 254.86530762 10.27661133 255.68334961 C14.15370238 268.09972389 11.75256362 281.65836287 6.375 293.25 C-0.16886965 305.32480616 -9.91219423 313.91315196 -23.02167416 318.16272545 C-29.90505689 320.19523318 -36.26184046 320.56730494 -43.4032135 320.52139282 C-44.68808968 320.52904392 -45.97296585 320.53669501 -47.29677767 320.54457796 C-50.82445896 320.56495937 -54.35172971 320.56082099 -57.87944329 320.55221677 C-61.6988827 320.54724956 -65.51822736 320.56535052 -69.33763123 320.58029175 C-76.8042663 320.60569697 -84.27075723 320.60938454 -91.73742826 320.60469122 C-97.80873242 320.60111563 -103.87999306 320.60464387 -109.95129204 320.61314011 C-111.25064812 320.61492567 -111.25064812 320.61492567 -112.57625381 320.61674731 C-114.3363431 320.61917096 -116.09643238 320.62159923 -117.85652166 320.62403207 C-134.33457559 320.64574762 -150.81254751 320.64147413 -167.29060601 320.62926237 C-182.34878264 320.61891964 -197.40670069 320.64145261 -212.46482617 320.67945881 C-227.95101008 320.71824404 -243.43707172 320.73472313 -258.9233045 320.72721231 C-267.60797898 320.72339347 -276.29243323 320.72831293 -284.97706795 320.75664139 C-292.36781874 320.780507 -299.75821362 320.78323636 -307.14896948 320.75906105 C-310.9157485 320.74731135 -314.68187713 320.745005 -318.44861221 320.76906586 C-322.54084292 320.79490129 -326.63153642 320.77379075 -330.72377014 320.7484436 C-331.90170625 320.76319217 -333.07964236 320.77794074 -334.29327351 320.79313624 C-344.26284479 320.66364426 -352.44789476 317.4041879 -359.9375 310.75 C-368.32718771 301.56031762 -369.69757821 290.96325749 -369.17919922 279.05859375 C-368.51537292 271.43273084 -364.26001896 264.41063624 -359 259 C-354.56286338 255.40168602 -350.70664831 252.87254552 -345 252 C-345.09539062 251.27296875 -345.19078125 250.5459375 -345.2890625 249.796875 C-346.82252786 235.88870076 -344.23325954 222.7520224 -335.8125 211.3125 C-328.1191073 202.17969835 -320.18552285 196.27980446 -309 192 C-308.32582031 191.73316406 -307.65164063 191.46632812 -306.95703125 191.19140625 C-303.67162429 190.13978592 -300.38976644 189.91858356 -296.95703125 189.890625 C-296.22653564 189.88466309 -295.49604004 189.87870117 -294.7434082 189.87255859 C-291.49422799 189.87609454 -288.24840527 189.92903969 -285 190 C-284.89042969 189.26523438 -284.78085937 188.53046875 -284.66796875 187.7734375 C-283.55962089 183.17152532 -280.76609488 179.77490595 -278 176 C-277.54496094 175.37609375 -277.08992188 174.7521875 -276.62109375 174.109375 C-270.26022788 166.0631515 -261.80159043 161.57335071 -252.37109375 157.9453125 C-250.08188187 157.21353648 -250.08188187 157.21353648 -249 156 C-248.87808456 154.22675313 -248.82023572 152.44903455 -248.7890625 150.671875 C-248.76070313 149.56070313 -248.73234375 148.44953125 -248.703125 147.3046875 C-248.65207494 144.98190993 -248.60752367 142.65897798 -248.5703125 140.3359375 C-248.539375 139.20929688 -248.5084375 138.08265625 -248.4765625 136.921875 C-248.45674316 135.90706055 -248.43692383 134.89224609 -248.41650391 133.84667969 C-247.79601355 128.11605485 -246.37494707 122.59099211 -245 117 C-245.97861496 116.99635437 -246.95722992 116.99270874 -247.96549988 116.98895264 C-257.19116319 116.95200024 -266.41649278 116.89422501 -275.64190197 116.81609726 C-280.38473577 116.77659966 -285.12738327 116.74442241 -289.87036133 116.72900391 C-294.44823264 116.7138523 -299.02559187 116.67943357 -303.60323524 116.63169098 C-305.34906881 116.6168617 -307.09497547 116.6089581 -308.84087181 116.60811615 C-311.28794223 116.60574933 -313.73359416 116.57869467 -316.18041992 116.54589844 C-316.90115189 116.5509288 -317.62188385 116.55595917 -318.36445618 116.56114197 C-321.89046006 116.48809663 -323.90380106 116.05988819 -326.9223175 114.1807251 C-329.80531643 111.15474392 -330.07260343 109.13839549 -330 105 C-328.23358828 102.19810554 -326.96950178 100.48475089 -324 99 C-321.26494345 98.93471679 -318.55583932 98.92999952 -315.82177734 98.96923828 C-314.06839344 98.98534592 -312.31500573 99.00104299 -310.56161499 99.01638794 C-309.16284685 99.0306954 -309.16284685 99.0306954 -307.73582077 99.0452919 C-301.76700578 99.09679167 -295.79791053 99.09107353 -289.82890892 99.09665108 C-284.58240422 99.10486264 -279.33738434 99.13259161 -274.09130859 99.20214844 C-269.01791729 99.26829923 -263.94689466 99.28061184 -258.8731575 99.25689316 C-256.94264921 99.25750259 -255.01204254 99.27753827 -253.08195114 99.31766129 C-242.37321789 99.88543502 -242.37321789 99.88543502 -233.07565308 95.57028198 C-231.0444295 92.7930615 -229.50280892 90.08652793 -228 87 C-214.40778877 70.83513049 -194.06228053 60.93545555 -173.25 58.25 C-171.83500272 58.14196483 -170.4178808 58.05918559 -169 58 C-168.17628906 57.96003906 -167.35257813 57.92007813 -166.50390625 57.87890625 C-154.15652336 57.57425384 -142.63577063 60.01832434 -131 64 C-130.9071875 63.32066406 -130.814375 62.64132813 -130.71875 61.94140625 C-125.67176907 41.28718537 -106.53476093 22.12595738 -88.9296875 11.28125 C-61.95021277 -4.62868512 -30.26867624 -9.48626554 0 0 Z " fill="#EBEBEB" transform="translate(369,41)"/>
<path d="M0 0 C1.68996094 0.5259375 1.68996094 0.5259375 3.4140625 1.0625 C18.15540576 6.22735019 30.59494294 14.48343889 42 25 C42.66257812 25.58136719 43.32515625 26.16273437 44.0078125 26.76171875 C59.57044912 41.13001349 67.99323569 61.72458961 72.9453125 81.83984375 C73.72824341 85.26201908 73.72824341 85.26201908 77 87 C79.26004309 87.60439682 81.53326941 88.16005502 83.8125 88.6875 C96.20101963 91.80460167 106.35074024 97.62810199 116 106 C116.80566406 106.6084375 117.61132812 107.216875 118.44140625 107.84375 C128.14664094 116.02281801 134.55508077 127.2855271 139 139 C139.433125 140.11117187 139.86625 141.22234375 140.3125 142.3671875 C146.83007549 162.32726244 144.25023688 184.68571551 135.25 203.3125 C131.89785215 209.86126355 127.98672451 215.56513772 123 221 C122.33613281 221.75539063 121.67226563 222.51078125 120.98828125 223.2890625 C106.12521476 239.27853514 84.96816915 247.51484623 63.42553711 248.49926758 C60.79144444 248.5651797 58.16165686 248.61641903 55.52734375 248.64453125 C54.48353641 248.65912667 54.48353641 248.65912667 53.41864204 248.67401695 C49.75474937 248.72418755 46.0911873 248.75734082 42.42700195 248.77563477 C38.66314062 248.79790188 34.90305221 248.88088546 31.14044857 248.97675037 C28.21920706 249.04018173 25.29888754 249.05893032 22.37701607 249.065588 C20.98898694 249.07645813 19.60097789 249.1039786 18.2136364 249.14899635 C13.96355713 249.27791433 10.08188755 249.24756228 6 248 C3.73672823 245.64463246 2.50713679 243.52387938 1.20118713 240.54008484 C-0.12663969 237.73220196 -1.79212844 236.1464443 -4 234 C-4 233.34 -4 232.68 -4 232 C-4.5775 231.72800781 -5.155 231.45601562 -5.75 231.17578125 C-7.99656588 230.00179457 -9.94248663 228.66438933 -12 227.1875 C-17.31010575 223.57946487 -23.02546625 221.28467788 -29 219 C-28.71125 217.87722656 -28.4225 216.75445312 -28.125 215.59765625 C-27.35067877 212.51347204 -26.60464948 209.42473996 -25.8984375 206.32421875 C-25.73520996 205.60838623 -25.57198242 204.89255371 -25.40380859 204.1550293 C-24.69014128 200.34635856 -24.58517633 196.8419054 -25 193 C-25.09410156 191.87335938 -25.18820312 190.74671875 -25.28515625 189.5859375 C-27.1327797 171.97073143 -34.43266807 156.60104944 -48.0703125 145.06640625 C-56.43286668 139.16801804 -65.81467974 134.71462112 -75.86328125 132.66796875 C-78.46617374 131.85426744 -79.41510032 131.22640669 -81 129 C-81.64933144 126.7945615 -82.19812448 124.55885302 -82.6875 122.3125 C-87.72280532 101.69244587 -100.7486848 83.39607903 -118.85083008 72.27441406 C-123.15338638 69.69838108 -127.4755242 67.17129366 -132 65 C-121.93550979 37.70747068 -102.7791951 17.44876917 -76.875 4.6875 C-53.08162683 -6.23587061 -24.98345301 -7.82986568 0 0 Z " fill="#9D9D9D" transform="translate(369,41)"/>
<path d="M0 0 C23.3914327 -0.57714711 44.53321671 8.20431646 61.50390625 24.12109375 C74.11786039 36.42588235 82.15552341 51.55380709 85.828125 68.72265625 C86.33808675 71.28116734 86.33808675 71.28116734 88.50390625 73.12109375 C90.95666856 73.90258246 93.40108816 74.61772682 95.87890625 75.30859375 C114.33888884 80.82529888 127.37673775 92.3879515 136.50390625 109.12109375 C140.55136924 117.39999532 141.66659375 126.01276756 142.50390625 135.12109375 C142.63152344 136.28898437 142.63152344 136.28898437 142.76171875 137.48046875 C143.07322046 142.83829812 141.80767161 147.92745998 140.62890625 153.12109375 C140.45536621 153.88856934 140.28182617 154.65604492 140.10302734 155.44677734 C139.63863521 157.35623086 139.07857523 159.24188425 138.50390625 161.12109375 C136.00590975 162.370092 134.9882393 161.98866269 132.25390625 161.55859375 C118.56844978 160.07961791 105.52615925 163.95372972 94.69140625 172.30859375 C86.03273 179.85846109 81.47850427 188.46111197 77.50390625 199.12109375 C74.56594634 198.51843531 73.27550376 197.95498285 70.75390625 196.12109375 C64.90506876 192.55756362 57.14329161 193.28050276 50.50390625 193.12109375 C50.46523438 191.72310547 50.46523438 191.72310547 50.42578125 190.296875 C49.75168883 175.14511584 46.2523017 161.27024354 34.94140625 150.37109375 C22.53848422 140.30283939 9.01958846 137.91983635 -6.49609375 139.12109375 C-19.56617919 141.40012125 -29.71820261 148.48495754 -37.49609375 159.12109375 C-39.41995457 162.36179569 -41.0253688 165.65353085 -42.49609375 169.12109375 C-42.90859375 170.09046875 -43.32109375 171.05984375 -43.74609375 172.05859375 C-44.8804462 176.69053293 -45.17496241 181.37173027 -45.49609375 186.12109375 C-49.49609375 186.12109375 -49.49609375 186.12109375 -51.62109375 184.37109375 C-56.68510684 180.40795307 -62.58795699 178.14221276 -68.99609375 177.55859375 C-70.15109375 177.41421875 -71.30609375 177.26984375 -72.49609375 177.12109375 C-74.35200508 174.33722676 -74.91409653 172.82871995 -75.68359375 169.68359375 C-79.79245626 155.61073966 -88.51725653 145.89122138 -101.04956055 138.78613281 C-106.60446006 135.82810583 -112.3000759 134.21050348 -118.49609375 133.12109375 C-117.72436007 126.7928776 -115.23128229 123.13942941 -111.49609375 118.12109375 C-110.81353516 117.18716797 -110.81353516 117.18716797 -110.1171875 116.234375 C-103.76579193 108.18203589 -95.29465888 103.69328059 -85.8671875 100.06640625 C-83.57797562 99.33463023 -83.57797562 99.33463023 -82.49609375 98.12109375 C-82.37417831 96.34784688 -82.31632947 94.5701283 -82.28515625 92.79296875 C-82.25679688 91.68179688 -82.2284375 90.570625 -82.19921875 89.42578125 C-82.14816869 87.10300368 -82.10361742 84.78007173 -82.06640625 82.45703125 C-82.03546875 81.33039063 -82.00453125 80.20375 -81.97265625 79.04296875 C-81.95283691 78.0281543 -81.93301758 77.01333984 -81.91259766 75.96777344 C-81.2921073 70.2371486 -79.87104082 64.71208586 -78.49609375 59.12109375 C-79.47470871 59.11744812 -80.45332367 59.11380249 -81.46159363 59.11004639 C-90.68725694 59.07309399 -99.91258653 59.01531876 -109.13799572 58.93719101 C-113.88082952 58.89769341 -118.62347702 58.86551616 -123.36645508 58.85009766 C-127.94432639 58.83494605 -132.52168562 58.80052732 -137.09932899 58.75278473 C-138.84516256 58.73795545 -140.59106922 58.73005185 -142.33696556 58.7292099 C-144.78403598 58.72684308 -147.22968791 58.69978842 -149.67651367 58.66699219 C-150.75761162 58.67453773 -150.75761162 58.67453773 -151.86054993 58.68223572 C-155.38655381 58.60919038 -157.39989481 58.18098194 -160.41841125 56.30181885 C-163.30141018 53.27583767 -163.56869718 51.25948924 -163.49609375 47.12109375 C-161.72968203 44.31919929 -160.46559553 42.60584464 -157.49609375 41.12109375 C-154.7610372 41.05581054 -152.05193307 41.05109327 -149.31787109 41.09033203 C-147.56448719 41.10643967 -145.81109948 41.12213674 -144.05770874 41.13748169 C-142.6589406 41.15178915 -142.6589406 41.15178915 -141.23191452 41.16638565 C-135.26309953 41.21788542 -129.29400428 41.21216728 -123.32500267 41.21774483 C-118.07849797 41.22595639 -112.83347809 41.25368536 -107.58740234 41.32324219 C-102.51401104 41.38939298 -97.44298841 41.40170559 -92.36925125 41.37798691 C-90.43874296 41.37859634 -88.50813629 41.39863202 -86.57804489 41.43875504 C-75.86931164 42.00652877 -75.86931164 42.00652877 -66.57174683 37.69137573 C-64.54052325 34.91415525 -62.99890267 32.20762168 -61.49609375 29.12109375 C-47.90388252 12.95622424 -27.55837428 3.0565493 -6.74609375 0.37109375 C-4.49827805 0.19947281 -2.25170859 0.10923782 0 0 Z " fill="#CCCCCC" transform="translate(202.49609375,98.87890625)"/>
<path d="M0 0 C1.51161131 -0.00576172 1.51161131 -0.00576172 3.05376023 -0.01163983 C4.16404881 -0.01077335 5.27433738 -0.00990687 6.41827106 -0.00901413 C7.59533644 -0.01198525 8.77240183 -0.01495637 9.98513585 -0.01801753 C13.25797612 -0.02520521 16.53078445 -0.02787743 19.80363142 -0.028615 C23.33137802 -0.03046458 26.85911321 -0.03801151 30.38685322 -0.04475021 C38.10390718 -0.05833884 45.82095596 -0.06435926 53.5380199 -0.06876087 C58.35651653 -0.07152277 63.17501115 -0.07576007 67.99350643 -0.08026505 C81.33381715 -0.09245911 94.67412627 -0.10275769 108.01444244 -0.10614014 C108.86846424 -0.1063597 109.72248603 -0.10657927 110.60238727 -0.10680549 C111.45845926 -0.10702377 112.31453126 -0.10724204 113.19654483 -0.10746694 C114.9312863 -0.1079104 116.66602777 -0.10835697 118.40076923 -0.10880661 C119.26126191 -0.10902804 120.1217546 -0.10924947 121.00832281 -0.10947761 C134.94781604 -0.11342464 148.88725695 -0.13087515 162.82672998 -0.15416613 C177.13734271 -0.17788423 191.4479292 -0.19034222 205.75856191 -0.19150805 C213.79374242 -0.19242463 221.8288548 -0.19817248 229.86401653 -0.21632767 C236.70716311 -0.23173494 243.55022052 -0.23684549 250.39338114 -0.22858956 C253.88399458 -0.22468506 257.37442849 -0.22560264 260.8650198 -0.23964691 C264.65229362 -0.25232155 268.4391061 -0.24651334 272.22637653 -0.23606491 C273.87507898 -0.24814952 273.87507898 -0.24814952 275.55708855 -0.26047826 C282.43440272 -0.2160804 288.61619702 0.26086166 294.16322041 4.77986526 C298.76475627 10.65812784 300.6325656 14.99705468 300.45228291 22.56892776 C299.77795016 28.09845631 297.34891875 32.33124405 293.20228291 36.00642776 C287.91636178 39.67420977 283.56863005 40.44324284 277.21400166 40.54549026 C276.09261547 40.57453949 276.09261547 40.57453949 274.94857502 40.60417557 C272.57492485 40.66366695 270.20122537 40.71023369 267.82728291 40.75642776 C266.21202809 40.79463566 264.59679304 40.83368901 262.98157978 40.87361526 C259.03447581 40.96934307 255.08727651 41.05348544 251.13978291 41.13142776 C252.09240009 41.9035762 253.04501728 42.67572464 254.02650166 43.47127151 C257.88564438 46.59931819 260.40570438 50.1396938 261.13978291 55.13142776 C261.68125193 62.1705251 260.31292513 67.55796987 255.76478291 72.94392776 C250.18307869 77.59534794 245.91687498 79.2191856 238.72865009 79.33675003 C237.10742237 79.36666786 237.10742237 79.36666786 235.45344257 79.39719009 C234.29290363 79.41390259 233.13236469 79.43061508 231.93665791 79.44783401 C230.74373127 79.46861511 229.55080463 79.48939621 228.32172871 79.51080704 C224.51113868 79.57619016 220.70047977 79.63513553 216.88978291 79.69392776 C214.30644245 79.73712365 211.72310896 79.78073829 209.13978291 79.82478714 C202.80652238 79.9318601 196.47319334 80.03364749 190.13978291 80.13142776 C191.09240009 80.90099808 192.04501728 81.67056839 193.02650166 82.46345901 C197.61598083 86.17106263 199.17696621 90.24754038 200.01478291 96.00642776 C200.35040408 100.98107943 199.87837042 104.89667903 197.13978291 109.13142776 C193.27353541 113.27900305 189.6192892 116.93875411 183.71587563 117.26564884 C182.74824382 117.26992232 181.78061201 117.2741958 180.78365803 117.27859879 C179.67201283 117.28575409 178.56036762 117.29290939 177.4150362 117.30028152 C176.19474216 117.30297043 174.97444813 117.30565933 173.71717548 117.30842972 C172.43236286 117.31500092 171.14755024 117.32157211 169.8238039 117.32834244 C165.56065332 117.34936793 161.29750246 117.35974488 157.03431416 117.36970901 C155.56502673 117.37375744 154.09573949 117.37787439 152.62645245 117.3820591 C145.72158969 117.40110915 138.81673759 117.41533935 131.91185361 117.42367107 C123.95067676 117.4334367 115.98977844 117.45973912 108.0286997 117.50017196 C101.86975175 117.53037458 95.71088344 117.54514394 89.5518629 117.54845208 C85.87611127 117.55079828 82.20065726 117.5597018 78.52498531 117.58491325 C74.4196009 117.61261691 70.31483505 117.60835023 66.20936298 117.60139847 C64.39410366 117.62061356 64.39410366 117.62061356 62.54217243 117.64021683 C54.94493506 117.59335554 48.95523449 116.89827487 43.29993916 111.31502151 C42.93771259 110.73881058 42.57548603 110.16259964 42.20228291 109.56892776 C41.82200947 108.9901387 41.44173603 108.41134964 41.04993916 107.81502151 C38.13615288 102.42514218 38.16525256 95.62447328 39.78822041 89.80720901 C42.03642435 84.7631617 45.31056594 81.74211814 50.13978291 79.13142776 C53.26359064 78.09015852 55.52496145 77.97590445 58.80457783 77.9261055 C60.54604336 77.89618767 60.54604336 77.89618767 62.32269001 77.86566544 C63.57588535 77.84895294 64.8290807 77.83224045 66.12025166 77.81502151 C68.0449403 77.78384987 68.0449403 77.78384987 70.00851154 77.75204849 C73.41641105 77.6969087 76.82437032 77.64746388 80.23237324 77.5992012 C83.71132938 77.54892698 87.19019898 77.49327185 90.66907978 77.43806839 C97.49257241 77.33058588 104.31614326 77.229119 111.13978291 77.13142776 C110.19747822 76.53459183 109.25517353 75.93775589 108.28431416 75.32283401 C104.00440308 72.34018791 101.78170824 69.05720376 100.13978291 64.13142776 C99.38448991 57.45247974 99.73813823 52.49955946 103.55775166 46.88533401 C105.54567434 44.68143948 107.81117714 42.96471648 110.13978291 41.13142776 C109.55632162 41.130883 108.97286034 41.13033823 108.37171841 41.12977695 C94.13948321 41.11477454 79.9075506 41.07218853 65.67549038 40.9993372 C58.79278402 40.96476303 51.91027636 40.93934168 45.02747822 40.93587112 C38.38129108 40.93249367 31.73554281 40.90307545 25.08948612 40.85799599 C22.55789189 40.84503788 20.02623787 40.84070727 17.4946146 40.84527397 C13.93975842 40.85019154 10.38635475 40.82403251 6.83167744 40.79085159 C5.79229527 40.79947723 4.75291309 40.80810287 3.68203449 40.8169899 C-3.36740817 40.70717637 -9.04249613 39.26137478 -14.86021709 35.13142776 C-18.98750516 30.13821679 -21.31785561 25.04793528 -21.19615459 18.45174026 C-20.41285163 13.0414849 -18.03696296 7.98632016 -13.85240459 4.42049026 C-9.30131331 1.51518107 -5.44086684 0.00777365 0 0 Z " fill="#CDCDCD" transform="translate(72.86021709442139,394.8685722351074)"/>
<path d="M0 0 C1.12664062 0.350625 2.25328125 0.70125 3.4140625 1.0625 C18.15540576 6.22735019 30.59494294 14.48343889 42 25 C42.66257812 25.58136719 43.32515625 26.16273437 44.0078125 26.76171875 C59.57044912 41.13001349 67.99323569 61.72458961 72.9453125 81.83984375 C73.72824341 85.26201908 73.72824341 85.26201908 77 87 C79.26004309 87.60439682 81.53326941 88.16005502 83.8125 88.6875 C96.20101963 91.80460167 106.35074024 97.62810199 116 106 C116.80566406 106.6084375 117.61132812 107.216875 118.44140625 107.84375 C128.14664094 116.02281801 134.55508077 127.2855271 139 139 C139.433125 140.11117187 139.86625 141.22234375 140.3125 142.3671875 C146.83007549 162.32726244 144.25023688 184.68571551 135.25 203.3125 C131.89978951 209.85747872 127.99628636 215.57789378 123 221 C122.278125 221.79019531 121.55625 222.58039063 120.8125 223.39453125 C116.00445484 228.42795353 110.957632 232.40851972 105 236 C104.34 235.67 103.68 235.34 103 235 C103.42410156 234.52433594 103.84820312 234.04867187 104.28515625 233.55859375 C117.70328663 217.54530849 122.61001902 197.17762702 121.26611328 176.63720703 C119.48076977 158.94428902 111.81488368 143.1679174 100 130 C99.48308594 129.39027344 98.96617187 128.78054687 98.43359375 128.15234375 C87.37919308 115.98973248 71.3229011 109.91156927 55.8359375 105.89453125 C53 105 53 105 51 103 C50.39911228 100.50125898 49.87390345 98.01890187 49.375 95.5 C45.18454115 76.29510239 35.55222493 60.12780205 22 46 C21.154375 45.113125 20.30875 44.22625 19.4375 43.3125 C18.633125 42.549375 17.82875 41.78625 17 41 C16.51144531 40.505 16.02289063 40.01 15.51953125 39.5 C4.35953933 28.85735869 -10.27951369 22.083718 -25 18 C-25.9477832 17.73292236 -26.89556641 17.46584473 -27.87207031 17.19067383 C-36.38697365 14.99288006 -44.47796427 14.49306579 -53.25 14.5625 C-54.27013687 14.56805908 -54.27013687 14.56805908 -55.31088257 14.57373047 C-73.17936723 14.71212191 -93.78084723 18.02008389 -108 30 C-108.66 29.67 -109.32 29.34 -110 29 C-82.66493108 -1.22937034 -38.79914052 -12.15973064 0 0 Z " fill="#848484" transform="translate(369,41)"/>
<path d="M0 0 C1.17527252 -0.01606293 2.35054504 -0.03212585 3.56143188 -0.04867554 C8.95372036 -0.09311409 14.34586202 -0.13465297 19.73828125 -0.15722656 C22.58040821 -0.17052951 25.42181094 -0.19831117 28.26367188 -0.23925781 C32.36128745 -0.29829296 36.45813327 -0.31591774 40.55615234 -0.33056641 C41.82101471 -0.35323578 43.08587708 -0.37590515 44.3890686 -0.39926147 C51.62468045 -0.381993 56.91276242 0.17768018 62.39208984 5.19287109 C66.66777041 10.56488001 67.77599706 15.09417164 67.66552734 21.82177734 C66.8890097 28.55529461 63.17020686 32.89984449 58.07568359 37.06396484 C54.74777387 39.29544028 51.73896208 39.33576179 47.85424805 39.38574219 C46.71909256 39.40180511 45.58393707 39.41786804 44.41438293 39.43441772 C39.21792472 39.4789479 34.02155302 39.5203772 28.82495117 39.54296875 C26.08665349 39.55627998 23.34910602 39.58408148 20.61108398 39.625 C16.65920192 39.68404711 12.70767902 39.70166013 8.75537109 39.71630859 C7.53739334 39.73897797 6.31941559 39.76164734 5.06452942 39.78500366 C-2.14057427 39.76716152 -7.08246555 39.01438591 -12.60791016 34.19287109 C-16.74998064 29.8327969 -18.67474275 25.86909099 -18.98291016 19.88037109 C-18.81811547 14.04470049 -16.93994906 9.58204235 -12.85400391 5.39599609 C-8.45214969 1.53633269 -5.93850811 0.07362383 0 0 Z " fill="#CBCBCB" transform="translate(438.60791015625,-0.19287109375)"/>
<path d="M0 0 C0.77918667 -0.00171833 1.55837334 -0.00343666 2.36117172 -0.00520706 C4.96606224 -0.00955566 7.57088979 -0.00657745 10.17578125 -0.00341797 C12.01165796 -0.00460168 13.84753448 -0.00612368 15.68341064 -0.00796509 C21.61838243 -0.01172867 27.55331644 -0.00413396 33.48828125 0.00439453 C35.50777178 0.00666174 37.52726234 0.00889973 39.54675293 0.0111084 C52.33100615 0.02681804 65.11511816 0.06315553 77.89926147 0.11824036 C79.56570336 0.12541982 81.2321462 0.13238483 82.89859009 0.13908386 C91.13584658 0.17234516 99.37226299 0.22490884 107.60888672 0.33892822 C109.68530979 0.36577852 111.76182741 0.38614536 113.83837891 0.39984131 C116.64425097 0.42057407 119.44850365 0.46613852 122.25390625 0.52001953 C123.44442596 0.52187759 123.44442596 0.52187759 124.65899658 0.52377319 C128.126038 0.61867626 130.13999993 0.87424388 132.97167969 2.94873047 C135.19994052 6.1526625 135.03197001 8.3235732 134.48828125 12.12939453 C133.09863281 14.31005859 133.09863281 14.31005859 130.48828125 16.12939453 C127.0753153 16.76412481 123.68660972 16.73440066 120.22265625 16.73876953 C118.62459389 16.7639138 118.62459389 16.7639138 116.99424744 16.78956604 C113.40885004 16.83989587 109.82397327 16.86049911 106.23828125 16.87939453 C103.70938105 16.90467715 101.18049095 16.93098798 98.65161133 16.95825195 C92.30656293 17.02005414 85.96165864 17.05852267 79.61639309 17.08902073 C73.74002508 17.11882599 67.86397112 17.1682692 61.98779297 17.22363281 C52.85810452 17.3089224 43.72848787 17.36861213 34.59851074 17.41247559 C30.98309222 17.43030797 27.36787544 17.45648245 23.75256348 17.48937988 C19.45310099 17.5275331 15.15399811 17.5455756 10.85437202 17.54859734 C9.25837372 17.55294146 7.66237753 17.56416538 6.06648064 17.58267403 C3.87031646 17.60694173 1.67550449 17.60623951 -0.52075195 17.59936523 C-1.75590042 17.60523148 -2.99104889 17.61109772 -4.2636261 17.61714172 C-8.15073439 17.03343727 -9.78904245 15.9236704 -12.51171875 13.12939453 C-13.57421875 9.69189453 -13.57421875 9.69189453 -13.51171875 6.12939453 C-9.72822947 0.12799774 -6.65081336 -0.01829558 0 0 Z " fill="#9C9C9C" transform="translate(52.51171875,139.87060546875)"/>
<path d="M0 0 C2.13329342 -0.00968688 4.26561475 -0.04072669 6.39868164 -0.07226562 C7.77042076 -0.07879872 9.14216672 -0.08404799 10.51391602 -0.08789062 C11.75052979 -0.09723633 12.98714355 -0.10658203 14.26123047 -0.11621094 C20.98645018 0.55396999 26.04261549 3.4447151 30.83813477 8.24023438 C34.0903677 13.76903037 34.69369944 18.97592751 33.83813477 25.24023438 C31.97525035 31.85991798 27.74118688 35.90823816 21.83813477 39.24023438 C16.39955198 41.02152872 10.45092623 40.50344013 4.78613281 40.53540039 C3.37131725 40.54688455 1.95654378 40.56727999 0.54199219 40.59692383 C-16.77935092 40.95934585 -16.77935092 40.95934585 -23.73266602 34.86303711 C-28.092658 30.08480366 -29.68733513 24.79972077 -29.46655273 18.38476562 C-28.5841187 12.17378761 -26.10866773 7.59800199 -21.16186523 3.74023438 C-14.7206443 -0.7887491 -7.5724366 0.02080578 0 0 Z " fill="#C9C9C9" transform="translate(142.161865234375,36.759765625)"/>
<path d="M0 0 C1.08670486 -0.0071553 2.17340973 -0.01431061 3.29304504 -0.02168274 C6.88321024 -0.03858434 10.4721295 -0.01915827 14.06225586 0.00219727 C16.5565959 0.00136877 19.05093589 -0.00108987 21.54527283 -0.00511169 C27.44082395 -0.00833675 33.33591968 0.01353582 39.23137802 0.04484087 C44.60109879 0.07095277 49.97037604 0.06429726 55.34011847 0.04896492 C61.15529449 0.03309365 66.97023247 0.03993367 72.78539848 0.05690193 C75.25778104 0.06209073 77.73018219 0.06159353 80.20256233 0.05535698 C83.65498209 0.04991712 87.10629953 0.0702417 90.55859375 0.09765625 C91.58364014 0.09113037 92.60868652 0.08460449 93.66479492 0.07788086 C100.57637696 0.17137511 100.57637696 0.17137511 103.82591248 2.51210022 C105.46927008 5.01970621 106.0682216 6.63035432 106.21459961 9.63110352 C105.15060887 13.44373698 104.58943451 14.38121358 101.21459961 16.63110352 C99.10748386 16.88557911 99.10748386 16.88557911 96.62879944 16.89179993 C95.21770653 16.90242714 95.21770653 16.90242714 93.77810669 16.91326904 C92.74789398 16.91079163 91.71768127 16.90831421 90.65625 16.90576172 C89.56983719 16.91087265 88.48342438 16.91598358 87.36408997 16.92124939 C83.76342297 16.93517939 80.16294664 16.93418606 76.56225586 16.93188477 C74.06505766 16.93576977 71.56786012 16.94010403 69.07066345 16.94487 C63.83257417 16.95233951 58.59453446 16.95217342 53.35644531 16.94677734 C47.30279885 16.94073698 41.24938477 16.95304959 35.19577795 16.97434741 C29.37105697 16.9940861 23.54642709 16.99713733 17.72167778 16.99361229 C15.2437021 16.99412659 12.7657228 16.99938456 10.28776741 17.00942421 C6.8257762 17.0217288 3.36432598 17.01503251 -0.09765625 17.00341797 C-1.12584473 17.01106171 -2.1540332 17.01870544 -3.21337891 17.02658081 C-4.15692734 17.0195665 -5.10047577 17.01255219 -6.07261658 17.00532532 C-7.30013091 17.00557693 -7.30013091 17.00557693 -8.5524435 17.00583363 C-11.33314233 16.53918262 -12.7152207 15.51106645 -14.78540039 13.63110352 C-15.57055664 11.76391602 -15.57055664 11.76391602 -15.84790039 9.75610352 C-15.96262695 9.09868164 -16.07735352 8.44125977 -16.19555664 7.76391602 C-14.58963373 -0.58688311 -6.69962793 -0.07657057 0 0 Z " fill="#9D9D9D" transform="translate(405.785400390625,363.368896484375)"/>
<path d="M0 0 C0.802099 -0.00861557 1.604198 -0.01723114 2.43060303 -0.02610779 C5.07979685 -0.04879469 7.72793511 -0.04202391 10.37719727 -0.03295898 C12.22038589 -0.03819365 14.06357183 -0.04446956 15.90675354 -0.05174255 C19.76950689 -0.06215198 23.63189199 -0.05757799 27.49462891 -0.04296875 C32.44255868 -0.02578632 37.38932663 -0.04926631 42.33712673 -0.08445835 C46.14361758 -0.10642994 49.94983037 -0.10499138 53.75636482 -0.09669304 C55.58040707 -0.09587326 57.40446967 -0.10274171 59.22845268 -0.11746407 C61.78062984 -0.13490467 64.33071898 -0.12037314 66.8828125 -0.09765625 C68.01058861 -0.11519455 68.01058861 -0.11519455 69.16114807 -0.13308716 C73.10270598 -0.06178102 74.84711364 0.40748559 77.9747467 2.88539124 C80.00610352 5.53344727 80.00610352 5.53344727 80.63110352 8.53344727 C79.777119 12.63257295 78.27227791 13.94578055 75.00610352 16.53344727 C72.0997716 17.02352807 69.7822778 17.20964102 66.8828125 17.16455078 C65.67703552 17.17528374 65.67703552 17.17528374 64.44689941 17.18623352 C61.79808179 17.20309964 59.15096152 17.18373312 56.50219727 17.16235352 C54.65804403 17.16318233 52.81389086 17.16564219 50.96974182 17.16966248 C47.10867015 17.17251893 43.24817908 17.15783289 39.38720703 17.13037109 C34.43818806 17.0962645 29.49020554 17.10231582 24.54113674 17.12103367 C20.73467874 17.13160107 16.928462 17.12266864 13.12202644 17.10764885 C11.29717793 17.10246627 9.47230422 17.10294977 7.64745903 17.1091938 C5.09775452 17.11464391 2.54953526 17.0942798 0 17.06689453 C-0.75387497 17.07342041 -1.50774994 17.07994629 -2.2844696 17.08666992 C-5.7823002 17.0227811 -7.65592599 16.79494529 -10.46031189 14.62510681 C-12.12382989 12.3562308 -12.53731991 11.31254653 -12.49389648 8.53344727 C-12.50936523 7.54344727 -12.50936523 7.54344727 -12.52514648 6.53344727 C-10.82951086 0.14987785 -5.68333285 -0.04919747 0 0 Z " fill="#9D9D9D" transform="translate(19.993896484375,99.466552734375)"/>
<path d="M0 0 C0.85191422 -0.00902847 1.70382843 -0.01805695 2.58155823 -0.02735901 C4.38286829 -0.04186218 6.18423104 -0.05074842 7.9855957 -0.05444336 C10.740648 -0.06634896 13.49346677 -0.11553838 16.24804688 -0.16601562 C17.99868699 -0.17547898 19.74934085 -0.18271443 21.5 -0.1875 C22.32302109 -0.20703232 23.14604218 -0.22656464 23.9940033 -0.24668884 C28.1147107 -0.21419824 29.71604675 -0.17307362 32.86743164 2.68334961 C34.86320317 6.38536288 34.47740898 8.38014686 33.31640625 12.37109375 C31.77319336 14.55273438 31.77319336 14.55273438 29.31640625 16.37109375 C26.41680916 16.76904454 23.90486858 16.93268949 21.0078125 16.90234375 C19.80220924 16.90808411 19.80220924 16.90808411 18.57225037 16.91394043 C16.8752212 16.91665793 15.17815004 16.90930793 13.48120117 16.89257812 C10.89080803 16.87119201 8.3031969 16.89236846 5.71289062 16.91796875 C4.06119182 16.91532489 2.40949474 16.91019872 0.7578125 16.90234375 C-0.01316269 16.91044067 -0.78413788 16.9185376 -1.57847595 16.92687988 C-5.3000238 16.86237817 -7.48041377 16.49980838 -10.65258789 14.49023438 C-13.03344008 12.00606597 -13.60007281 10.7954523 -13.68359375 7.37109375 C-11.60105134 -0.09134988 -6.86875503 0.04464613 0 0 Z " fill="#9D9D9D" transform="translate(472.68359375,323.62890625)"/>
<path d="M0 0 C1.91619141 -0.00773437 1.91619141 -0.00773437 3.87109375 -0.015625 C4.53351074 -0.00724609 5.19592773 0.00113281 5.87841797 0.00976562 C7.90063448 0.0311905 9.91929961 0.00995261 11.94140625 -0.015625 C13.21886719 -0.01046875 14.49632813 -0.0053125 15.8125 0 C16.98103516 0.00451172 18.14957031 0.00902344 19.35351562 0.01367188 C22.9971985 0.6314428 24.17140545 1.64749276 26.40625 4.53125 C26.9375 6.53125 26.9375 6.53125 26.90625 8.53125 C26.9165625 9.19125 26.926875 9.85125 26.9375 10.53125 C26.15213391 13.48792233 24.77999071 14.62719033 22.40625 16.53125 C19.35351562 17.04882812 19.35351562 17.04882812 15.8125 17.0625 C14.53503906 17.06765625 13.25757812 17.0728125 11.94140625 17.078125 C10.94778076 17.06555664 10.94778076 17.06555664 9.93408203 17.05273438 C7.91186552 17.0313095 5.89320039 17.05254739 3.87109375 17.078125 C2.59363281 17.07296875 1.31617188 17.0678125 0 17.0625 C-1.16853516 17.05798828 -2.33707031 17.05347656 -3.54101562 17.04882812 C-7.1846985 16.4310572 -8.35890545 15.41500724 -10.59375 12.53125 C-11.125 10.53125 -11.125 10.53125 -11.09375 8.53125 C-11.10921875 7.54125 -11.10921875 7.54125 -11.125 6.53125 C-9.58941986 0.75024241 -5.35117066 0.02066089 0 0 Z " fill="#9D9D9D" transform="translate(56.59375,68.46875)"/>
<path d="M0 0 C1.00224609 -0.02449219 2.00449219 -0.04898437 3.03710938 -0.07421875 C10.39039351 -0.10365151 10.39039351 -0.10365151 13.6953125 2.25 C15.34166041 4.80889503 15.98966289 6.31584118 16.0625 9.375 C13.78539157 15.01355422 13.78539157 15.01355422 11.0625 16.375 C7.44394197 16.66838566 3.81656781 16.65291549 0.1875 16.6875 C-1.32263672 16.73100586 -1.32263672 16.73100586 -2.86328125 16.77539062 C-10.28070679 16.83941887 -10.28070679 16.83941887 -13.578125 14.5078125 C-15.18122084 11.9926104 -15.79182272 10.36138432 -15.9375 7.375 C-13.5859848 -1.05126281 -7.41199195 0.00949647 0 0 Z " fill="#9D9D9D" transform="translate(426.9375,403.625)"/>
</svg>
