<?xml version="1.0" standalone="no"?>
<!DOCTYPE svg PUBLIC "-//W3C//DTD SVG 20010904//EN"
 "http://www.w3.org/TR/2001/REC-SVG-20010904/DTD/svg10.dtd">
<svg version="1.0" xmlns="http://www.w3.org/2000/svg"
 width="512.000000pt" height="512.000000pt" viewBox="0 0 512.000000 512.000000"
 preserveAspectRatio="xMidYMid meet">

<g transform="translate(0.000000,512.000000) scale(0.100000,-0.100000)"
fill="#000000" stroke="none">
<path d="M2314 3529 c-100 -49 -205 -184 -420 -543 -216 -360 -281 -413 -434
-356 -50 19 -74 22 -149 18 -74 -3 -99 -9 -152 -35 -106 -52 -159 -113 -268
-300 -67 -117 -157 -229 -299 -372 -72 -74 -132 -138 -132 -143 0 -26 23 -48
49 -48 76 0 392 360 502 570 46 89 149 191 213 213 67 23 159 22 224 -3 108
-41 200 -20 293 67 67 63 113 127 254 363 180 299 253 399 339 465 39 29 118
35 153 10 12 -8 45 -59 74 -112 62 -115 144 -201 265 -278 63 -41 89 -65 127
-120 69 -101 133 -161 211 -200 68 -35 70 -35 205 -35 134 0 138 -1 206 -33
102 -49 205 -136 334 -283 285 -322 535 -518 681 -532 45 -4 50 -2 61 20 15
35 -2 65 -43 73 -57 12 -180 83 -270 155 -47 39 -153 141 -235 227 -308 326
-369 380 -501 441 -51 24 -72 27 -212 32 -116 4 -162 10 -185 22 -55 30 -116
90 -165 163 -56 83 -101 125 -195 180 -83 48 -146 118 -196 217 -46 91 -91
146 -136 164 -50 21 -150 18 -199 -7z"/>
<path d="M2031 2334 c-86 -64 -401 -414 -401 -445 0 -27 22 -49 50 -49 22 0
38 12 77 58 200 238 344 382 384 382 27 0 128 -89 200 -176 65 -79 155 -147
209 -159 17 -4 30 -12 30 -18 0 -17 -189 -197 -253 -241 -61 -42 -74 -64 -57
-96 27 -51 119 -1 278 154 127 123 220 262 261 389 25 76 104 77 226 3 146
-89 334 -235 537 -420 66 -59 127 -106 138 -106 11 0 27 11 36 25 15 23 15 27
1 49 -19 28 -231 220 -358 323 -195 158 -360 262 -446 281 -110 25 -194 -34
-252 -175 -30 -74 -36 -83 -60 -83 -47 0 -129 47 -179 101 -129 142 -161 173
-215 210 -84 56 -125 54 -206 -7z"/>
</g>
</svg>
