<?xml version="1.0" standalone="no"?>
<!DOCTYPE svg PUBLIC "-//W3C//DTD SVG 20010904//EN"
 "http://www.w3.org/TR/2001/REC-SVG-20010904/DTD/svg10.dtd">
<svg version="1.0" xmlns="http://www.w3.org/2000/svg"
 width="512.000000pt" height="512.000000pt" viewBox="0 0 512.000000 512.000000"
 preserveAspectRatio="xMidYMid meet">

<g transform="translate(0.000000,512.000000) scale(0.100000,-0.100000)"
fill="#000000" stroke="none">
<path d="M2973 3654 c-34 -17 -68 -52 -143 -149 -25 -32 -87 -95 -138 -142
l-92 -83 -30 15 c-39 20 -77 19 -94 -2 -8 -10 -51 -67 -97 -128 -45 -60 -139
-179 -208 -264 -69 -85 -129 -159 -133 -165 -3 -5 -42 26 -85 70 -52 53 -98
89 -137 108 -70 33 -161 45 -206 26 -42 -17 -122 -108 -172 -193 -169 -294
-477 -637 -850 -949 -112 -94 -127 -118 -93 -152 42 -41 234 -68 337 -47 76
16 161 60 225 116 48 42 55 45 108 45 54 0 58 -2 128 -63 98 -85 152 -121 260
-172 162 -76 279 -93 387 -55 45 16 83 19 211 20 174 0 192 6 192 59 0 80
-106 163 -237 185 -41 8 -96 24 -122 36 -45 22 -171 136 -161 146 2 3 24 0 48
-5 99 -23 159 -8 159 40 0 11 -38 63 -85 116 -181 205 -322 470 -313 587 l3
41 37 -75 c165 -335 575 -697 1104 -972 l131 -68 349 0 c377 0 394 2 394 53 0
33 -11 44 -65 67 -103 43 -237 128 -384 244 -46 36 -92 66 -102 66 -9 0 -41
-20 -69 -44 -87 -74 -143 -92 -188 -60 -39 27 -43 47 -27 116 8 35 18 108 21
164 7 96 6 102 -16 122 l-22 21 44 58 c25 32 62 84 83 115 l38 58 41 -38 c92
-84 208 -147 366 -196 94 -30 126 -28 140 10 12 32 2 53 -44 87 -99 76 -230
344 -331 680 -63 208 -63 213 -22 261 l34 40 37 -73 c116 -227 381 -603 720
-1019 150 -184 174 -205 214 -183 45 24 38 62 -26 134 -41 46 -37 43 104 -64
118 -91 371 -259 388 -259 6 0 22 7 34 16 39 27 28 58 -44 127 -77 72 -198
230 -268 349 -27 45 -60 100 -73 121 l-23 37 -93 0 -93 0 -65 68 c-85 87 -161
179 -411 502 -245 316 -349 439 -403 476 -50 34 -125 42 -172 18z"/>
</g>
</svg>
