<?xml version="1.0" standalone="no"?>
<!DOCTYPE svg PUBLIC "-//W3C//DTD SVG 20010904//EN"
 "http://www.w3.org/TR/2001/REC-SVG-20010904/DTD/svg10.dtd">
<svg version="1.0" xmlns="http://www.w3.org/2000/svg"
 width="512.000000pt" height="512.000000pt" viewBox="0 0 512.000000 512.000000"
 preserveAspectRatio="xMidYMid meet">

<g transform="translate(0.000000,512.000000) scale(0.100000,-0.100000)"
fill="#000000" stroke="none">
<path d="M2970 4789 c-293 -30 -564 -126 -795 -283 -117 -79 -329 -290 -431
-429 -103 -138 -190 -284 -360 -598 -223 -412 -316 -552 -456 -685 -157 -149
-316 -215 -559 -233 -117 -8 -141 -18 -183 -75 -29 -39 -29 -133 0 -172 53
-72 115 -86 291 -65 438 52 750 295 1045 817 25 43 94 169 153 279 329 611
517 834 839 990 206 101 384 139 651 139 154 0 191 -3 258 -22 302 -83 471
-321 399 -558 -12 -38 -28 -79 -37 -91 -15 -21 -15 -21 -72 38 -108 114 -263
167 -448 156 -267 -16 -467 -160 -594 -428 -262 -550 -28 -1252 506 -1518 175
-87 339 -124 553 -125 214 0 343 36 595 168 205 107 279 131 443 145 99 9 126
21 166 75 29 39 29 133 0 172 -52 71 -122 87 -275 64 -141 -20 -247 -58 -469
-165 -286 -138 -374 -160 -566 -135 -377 47 -636 281 -720 648 -25 107 -23
291 4 393 39 146 119 279 200 330 129 82 320 76 384 -12 11 -14 23 -54 28 -89
15 -107 66 -155 163 -155 174 1 371 195 449 445 33 107 33 283 0 390 -31 98
-71 176 -128 247 -217 273 -568 389 -1034 342z"/>
<path d="M255 1747 c-97 -45 -124 -172 -54 -252 36 -41 68 -51 179 -59 122 -8
213 -37 400 -126 336 -160 421 -184 655 -184 236 -1 328 23 635 169 265 126
365 153 540 142 134 -9 218 -36 430 -136 315 -151 407 -176 640 -176 233 0
325 25 640 176 209 99 291 125 438 137 110 10 135 20 176 76 29 39 29 133 0
172 -46 63 -65 69 -192 67 -180 -2 -323 -44 -565 -165 -219 -109 -349 -148
-496 -148 -150 0 -246 28 -491 145 -306 145 -399 170 -630 170 -233 0 -325
-25 -640 -175 -211 -101 -296 -128 -427 -137 -174 -12 -279 16 -553 147 -260
123 -369 156 -550 165 -78 4 -113 2 -135 -8z"/>
<path d="M255 947 c-97 -45 -124 -172 -54 -252 36 -41 68 -51 179 -59 122 -8
213 -37 400 -126 336 -160 421 -184 655 -184 236 -1 328 23 635 169 265 126
365 153 540 142 134 -9 218 -36 430 -136 315 -151 407 -176 640 -176 233 0
325 25 640 176 209 99 291 125 438 137 110 10 135 20 176 76 29 39 29 133 0
172 -46 63 -65 69 -192 67 -180 -2 -323 -44 -565 -165 -219 -109 -349 -148
-496 -148 -150 0 -246 28 -491 145 -306 145 -399 170 -630 170 -233 0 -325
-25 -640 -175 -211 -101 -296 -128 -427 -137 -174 -12 -279 16 -553 147 -260
123 -369 156 -550 165 -78 4 -113 2 -135 -8z"/>
</g>
</svg>
