<?xml version="1.0" encoding="UTF-8"?>
<svg version="1.1" xmlns="http://www.w3.org/2000/svg" width="512" height="512">
<path d="M0 0 C1.27422168 0.68247888 2.55294512 1.35661646 3.8359375 2.02246094 C19.83671752 10.33210297 34.25471251 20.98657174 47.2421875 33.47412109 C49.3669755 35.50544335 51.5101444 37.41009019 53.78125 39.27099609 C57.58698166 42.4919446 60.70026823 46.21623174 63.90625 50.02099609 C65.17855469 51.47892578 65.17855469 51.47892578 66.4765625 52.96630859 C98.21511424 89.49083242 119.83736871 139.35068064 120.109375 188.13037109 C120.11955658 189.39244133 120.11955658 189.39244133 120.12994385 190.68000793 C120.14679147 193.37704227 120.15313112 196.07391266 120.15625 198.77099609 C120.15858643 199.68807343 120.16092285 200.60515076 120.16333008 201.55001831 C120.17491556 213.57377323 119.82226011 225.24110649 117.5625 237.08740234 C116.54242653 243.20177132 116.51571355 248.42680232 118.40625 254.39599609 C123.94505736 277.13425789 119.71381522 302.12212579 108.05859375 322.20458984 C94.70855341 343.03914584 75.05792518 357.35578834 50.90625 363.02099609 C43.81120276 364.43351122 37.11726075 365.05618757 29.90625 365.02099609 C29.91624275 366.24675858 29.91624275 366.24675858 29.92643738 367.49728394 C29.98678998 375.23484296 30.0323463 382.97228628 30.06168652 390.71002007 C30.07727819 394.6871541 30.09839604 398.66409205 30.13256836 402.64111328 C30.16539583 406.4861046 30.18315176 410.33090846 30.19088173 414.17602921 C30.19638361 415.63590567 30.20712635 417.09577301 30.22344017 418.5555687 C30.37943682 433.10594943 27.8332752 444.21149976 17.87109375 455.28271484 C8.28085658 464.42041814 -4.37404806 468.48197339 -16.71875 472.52099609 C-17.43618378 472.75778076 -18.15361755 472.99456543 -18.89279175 473.23852539 C-32.44618838 477.69283574 -46.05542128 481.40953534 -60.09375 484.02099609 C-61.0115625 484.19598633 -61.929375 484.37097656 -62.875 484.55126953 C-90.45306595 489.55375635 -121.5810007 489.17874609 -149.09375 484.02099609 C-150.10840332 483.83827148 -151.12305664 483.65554688 -152.16845703 483.46728516 C-166.28558804 480.8521269 -179.91868913 477.02385251 -193.53125 472.52099609 C-194.56981644 472.18032104 -194.56981644 472.18032104 -195.62936401 471.83276367 C-211.97479307 466.42983133 -226.72489889 460.29603663 -235.83984375 444.86865234 C-240.00625398 435.40661789 -240.50079899 426.59633056 -240.38671875 416.38818359 C-240.3811114 414.90032381 -240.3768467 413.41245841 -240.37385559 411.92459106 C-240.36249625 408.04146563 -240.33310801 404.15868617 -240.29974365 400.2756958 C-240.26884854 396.30021848 -240.25530906 392.32468431 -240.24023438 388.34912109 C-240.20822793 380.57292308 -240.15714219 372.79700838 -240.09375 365.02099609 C-241.69029419 364.94316895 -241.69029419 364.94316895 -243.3190918 364.86376953 C-244.74790283 364.78631448 -246.17669416 364.70849547 -247.60546875 364.63037109 C-248.65196594 364.58082275 -248.65196594 364.58082275 -249.71960449 364.53027344 C-261.22633358 363.87825872 -271.86713093 360.22671484 -282.09375 355.02099609 C-282.9496875 354.62654297 -283.805625 354.23208984 -284.6875 353.82568359 C-303.77093152 344.45235105 -317.06018623 327.33573453 -325.09375 308.02099609 C-330.98906198 290.62263636 -333.39183488 269.54550484 -327.75 251.73193359 C-326.35708695 245.97787613 -327.06408295 240.67361752 -328.16162109 234.93530273 C-332.68536246 210.31541541 -332.33065336 181.48340452 -327.09375 157.02099609 C-326.89507324 156.07627441 -326.69639648 155.13155273 -326.49169922 154.15820312 C-317.81983657 114.1377194 -299.70180553 77.43626589 -271.48828125 47.56787109 C-269.54254182 45.49834074 -267.70692042 43.4023048 -265.90625 41.20849609 C-262.65956811 37.38401489 -258.92236907 34.24707839 -255.09375 31.02099609 C-254.12179688 30.17279297 -253.14984375 29.32458984 -252.1484375 28.45068359 C-184.26217339 -30.54013902 -81.67327532 -43.05465393 0 0 Z " fill="#FDB656" transform="translate(361.09375,24.97900390625)"/>
<path d="M0 0 C0 108.9 0 217.8 0 330 C-2.97 330.99 -5.94 331.98 -9 333 C-11.27531989 334.42657251 -11.27531989 334.42657251 -12.91162109 336.18286133 C-13.5419223 336.80393265 -14.17222351 337.42500397 -14.82162476 338.06489563 C-15.46572296 338.73055038 -16.10982117 339.39620514 -16.7734375 340.08203125 C-17.46386139 340.7738298 -18.15428528 341.46562836 -18.8656311 342.1783905 C-20.31293402 343.63470587 -21.7529907 345.09825534 -23.18603516 346.56860352 C-25.37389312 348.81136534 -27.58495052 351.02904605 -29.80078125 353.24414062 C-31.20975838 354.66786196 -32.61735909 356.09294705 -34.0234375 357.51953125 C-34.67968109 358.17911331 -35.33592468 358.83869537 -36.01205444 359.51826477 C-40.28379865 363.92373626 -44.4562683 368.498536 -44.375 375 C-44.19420577 378.94734064 -43.25515758 381.69243555 -41 385 C-36.36486639 388.80100091 -32.59497264 389.59961239 -26.7578125 389.609375 C-25.98944061 389.62591125 -25.22106873 389.64244751 -24.42941284 389.65948486 C-21.99452561 389.70775935 -19.56026189 389.72928871 -17.125 389.75 C-15.46611481 389.77817708 -13.80725841 389.80810694 -12.1484375 389.83984375 C-8.09867731 389.91678919 -4.05085107 389.95749369 0 390 C0 400.56 0 411.12 0 422 C-2.97 422.99 -5.94 423.98 -9 425 C-13.63538582 429.75127047 -14.15556196 433.165435 -14.20532227 439.57080078 C-14.21522186 440.35137848 -14.22512146 441.13195618 -14.23532104 441.93618774 C-14.26696978 444.52253155 -14.29170676 447.10889375 -14.31640625 449.6953125 C-14.33697287 451.48607874 -14.35796926 453.27684008 -14.37937927 455.06759644 C-14.43463013 459.78578743 -14.4840261 464.50402245 -14.53222656 469.22229004 C-14.5824196 474.03495207 -14.63811712 478.84755 -14.69335938 483.66015625 C-14.80097781 493.1067161 -14.90241459 502.55333156 -15 512 C-17.52286435 511.85725367 -20.04538246 511.71040872 -22.56787109 511.5612793 C-23.27306381 511.52179924 -23.97825653 511.48231918 -24.70481873 511.44164276 C-31.43367723 511.0380856 -37.99819963 510.04255586 -44.625 508.8125 C-45.82793701 508.59182861 -47.03087402 508.37115723 -48.27026367 508.14379883 C-111.54972062 496.15502151 -111.54972062 496.15502151 -127.84765625 474.55078125 C-134.60973076 463.96738698 -135.43022452 453.64913119 -135.29296875 441.3671875 C-135.2873614 439.87932771 -135.2830967 438.39146232 -135.28010559 436.90359497 C-135.26874625 433.02046954 -135.23935801 429.13769008 -135.20599365 425.25469971 C-135.17509854 421.27922239 -135.16155906 417.30368822 -135.14648438 413.328125 C-135.11447793 405.55192699 -135.06339219 397.77601229 -135 390 C-136.59654419 389.92217285 -136.59654419 389.92217285 -138.2253418 389.84277344 C-139.65415283 389.76531838 -141.08294416 389.68749937 -142.51171875 389.609375 C-143.55821594 389.55982666 -143.55821594 389.55982666 -144.62585449 389.50927734 C-156.13258358 388.85726263 -166.77338093 385.20571874 -177 380 C-177.8559375 379.60554688 -178.711875 379.21109375 -179.59375 378.8046875 C-198.67718152 369.43135496 -211.96643623 352.31473843 -220 333 C-225.89531198 315.60164026 -228.29808488 294.52450874 -222.65625 276.7109375 C-221.26333695 270.95688003 -221.97033295 265.65262143 -223.06787109 259.91430664 C-227.59161246 235.29441931 -227.23690336 206.46240843 -222 182 C-221.80132324 181.05527832 -221.60264648 180.11055664 -221.39794922 179.13720703 C-212.72608657 139.11672331 -194.60805553 102.4152698 -166.39453125 72.546875 C-164.44879182 70.47734465 -162.61317042 68.3813087 -160.8125 66.1875 C-157.56581811 62.36301879 -153.82861907 59.2260823 -150 56 C-149.02804688 55.15179688 -148.05609375 54.30359375 -147.0546875 53.4296875 C-115.32577876 25.85835991 -75.70957101 8.04380977 -34.25 1.5625 C-33.23542725 1.3984668 -32.22085449 1.23443359 -31.17553711 1.06542969 C-20.60196251 -0.42472176 -10.97703351 0 0 0 Z " fill="#FDC377" transform="translate(256,0)"/>
<path d="M0 0 C14.989736 11.65410793 25.16267026 28.53520432 28.515625 47.234375 C30.75910333 67.91924522 27.19927517 87.93584059 14.28125 104.7734375 C13.16428876 106.13424239 12.03914137 107.4883658 10.90625 108.8359375 C10.26558594 109.66609375 9.62492188 110.49625 8.96484375 111.3515625 C-2.1394822 124.75260862 -21.37597403 133.31912967 -38.51953125 135.0859375 C-59.8899454 136.44928131 -79.27090385 130.49662576 -95.62353516 116.52929688 C-110.21355581 103.46474872 -120.24748551 84.71991936 -121.48046875 64.9921875 C-122.21126716 44.07964394 -116.31935558 25.50996837 -102.09375 9.8359375 C-101.34351563 8.99289063 -100.59328125 8.14984375 -99.8203125 7.28125 C-72.91498584 -21.36552175 -30.92227924 -21.62997816 0 0 Z " fill="#994C0F" transform="translate(392.09375,195.1640625)"/>
<path d="M0 0 C15.00801233 11.66831728 25.17011128 28.56204922 28.5234375 47.28125 C30.7596231 68.04583055 26.83378323 88.86596569 13.76953125 105.546875 C13.15464844 106.30226563 12.53976563 107.05765625 11.90625 107.8359375 C11.1225 108.8878125 10.33875 109.9396875 9.53125 111.0234375 C-3.34239678 124.81663047 -22.06346114 134.03610847 -40.96875 135.2421875 C-61.58219572 135.927861 -80.79818237 129.99974095 -96.26953125 116.0390625 C-111.12814419 102.04151893 -120.84881401 83.06763344 -121.56884766 62.46313477 C-121.76304199 42.4630218 -115.66548276 24.78951941 -102.09375 9.8359375 C-101.34351562 8.99289063 -100.59328125 8.14984375 -99.8203125 7.28125 C-72.91498584 -21.36552175 -30.92227924 -21.62997816 0 0 Z " fill="#BF6015" transform="translate(212.09375,195.1640625)"/>
<path d="M0 0 C0.82242188 -0.02835937 1.64484375 -0.05671875 2.4921875 -0.0859375 C9.16208423 1.08178923 14.05182711 6.9947351 18.640625 11.58984375 C19.33766541 12.28259903 20.03470581 12.97535431 20.75286865 13.68910217 C22.2176675 15.14818188 23.67988505 16.60985709 25.13964844 18.07397461 C27.37308958 20.31058687 29.61955906 22.53351553 31.8671875 24.75585938 C33.29247679 26.17887655 34.71698329 27.60267827 36.140625 29.02734375 C36.81144104 29.68895004 37.48225708 30.35055634 38.17340088 31.0322113 C42.64609049 35.54975254 45.38288819 39.24252765 45.5 45.8125 C45.378882 50.36956483 44.19161546 52.90488251 41.125 56.375 C36.6684894 59.88669503 33.76327346 60.87774431 28.11328125 60.89257812 C27.43929291 60.8995874 26.76530457 60.90659668 26.07089233 60.91381836 C23.85933323 60.93131771 21.64907043 60.91980598 19.4375 60.90625 C17.89102942 60.90894727 16.3445605 60.91283165 14.7980957 60.91784668 C11.56347441 60.92373075 8.32929618 60.91521455 5.09472656 60.89648438 C0.95863067 60.87369485 -3.1764269 60.88682388 -7.31248474 60.91077423 C-10.50394444 60.92526213 -13.69515994 60.92061266 -16.8866272 60.91026306 C-18.41118494 60.90760401 -19.93576521 60.91083655 -21.46029663 60.92018127 C-23.59521801 60.93039712 -25.72848258 60.91477939 -27.86328125 60.89257812 C-29.07540283 60.88939575 -30.28752441 60.88621338 -31.53637695 60.88293457 C-36.35742876 60.14946486 -39.49750023 57.94249974 -42.6875 54.3125 C-45.13235599 50.32352444 -45.7087316 45.93375259 -44.875 41.375 C-41.9653533 35.513721 -38.26171498 31.33438896 -33.625 26.76171875 C-32.92987305 26.06609329 -32.23474609 25.37046783 -31.51855469 24.65376282 C-30.05633101 23.19386798 -28.59044172 21.7376363 -27.12109375 20.28491211 C-24.87319055 18.06070963 -22.63901563 15.82337178 -20.40625 13.58398438 C-18.97995864 12.16326697 -17.55290147 10.74331789 -16.125 9.32421875 C-15.45823242 8.65653976 -14.79146484 7.98886078 -14.10449219 7.3009491 C-13.47704102 6.68302994 -12.84958984 6.06511078 -12.203125 5.4284668 C-11.6555957 4.88554489 -11.10806641 4.34262299 -10.54394531 3.7832489 C-7.20951741 0.96967293 -4.32721485 0.0674021 0 0 Z " fill="#994C0F" transform="translate(255.875,329.625)"/>
<path d="M0 0 C4.49418478 4.98004259 5.14523135 8.03724089 5.11352539 14.57080078 C5.11367142 15.35137848 5.11381744 16.13195618 5.1139679 16.93618774 C5.11326986 19.52259069 5.10548257 22.10892209 5.09765625 24.6953125 C5.09579168 26.48607341 5.09436796 28.27683483 5.09336853 30.06759644 C5.08954641 34.78584191 5.07971871 39.5040567 5.06866455 44.22229004 C5.05844389 49.03490789 5.0538695 53.84753068 5.04882812 58.66015625 C5.03809618 68.10678649 5.02050183 77.5533859 5 87 C-4.9 87 -14.8 87 -25 87 C-25.09043574 76.67293388 -25.16379361 66.34613156 -25.20724869 56.01875877 C-25.22810691 51.22313071 -25.25639228 46.42778804 -25.30175781 41.63232422 C-25.34527858 37.00279568 -25.36915039 32.37354135 -25.37950897 27.74382401 C-25.38688917 25.97919016 -25.40130111 24.21457101 -25.42292023 22.45005417 C-25.45203762 19.97467591 -25.45595261 17.50042482 -25.45410156 15.02490234 C-25.46848267 14.29841492 -25.48286377 13.57192749 -25.49768066 12.82342529 C-25.45673448 7.7494734 -24.1519637 4.92635156 -21 1 C-14.87545732 -4.5503668 -6.8368762 -4.40598688 0 0 Z " fill="#994C0F" transform="translate(266,425)"/>
<path d="M0 0 C4.23527343 2.45118389 6.62863106 4.58542653 8.8203125 9.046875 C9.08934425 11.64687798 9.20127123 13.99764464 9.16088867 16.59106445 C9.16154579 17.7040667 9.16154579 17.7040667 9.16221619 18.83955383 C9.16013441 21.28002693 9.136833 23.7198039 9.11328125 26.16015625 C9.1076831 27.85694504 9.10341404 29.55373868 9.10041809 31.25053406 C9.08898649 35.70746343 9.05953393 40.16409758 9.02630615 44.62091064 C8.99556886 49.17236335 8.98190494 53.72386395 8.96679688 58.27539062 C8.93466252 67.19934816 8.88348663 76.12308699 8.8203125 85.046875 C1.94231213 84.43314574 -4.5461198 83.14790748 -11.2421875 81.484375 C-12.68368164 81.13342773 -12.68368164 81.13342773 -14.15429688 80.77539062 C-16.49736232 80.20419557 -18.83905668 79.62795077 -21.1796875 79.046875 C-21.2724897 70.02370222 -21.343504 61.00069448 -21.38693619 51.97714806 C-21.40778468 47.78683962 -21.43605166 43.59685841 -21.48144531 39.40673828 C-21.52500169 35.36075258 -21.5488452 31.31508105 -21.55919647 27.26887894 C-21.56657036 25.72752565 -21.58097007 24.18618898 -21.60260773 22.64496994 C-21.63177361 20.48087564 -21.63563826 18.31806875 -21.63378906 16.15380859 C-21.64267151 14.92358978 -21.65155396 13.69337097 -21.66070557 12.4258728 C-21.00552015 7.82340515 -19.00281477 4.67032642 -15.5390625 1.5859375 C-10.40882183 -1.32783997 -5.55190608 -2.4277152 0 0 Z " fill="#BF6015" transform="translate(202.1796875,422.953125)"/>
<path d="M0 0 C4.72908808 2.67635205 6.66713096 4.99581707 8.8203125 10.08203125 C9.18107605 13.42306519 9.18107605 13.42306519 9.16088867 17.09716797 C9.16154579 18.10797676 9.16154579 18.10797676 9.16221619 19.13920593 C9.16014087 21.3470141 9.13687101 23.55404471 9.11328125 25.76171875 C9.10768078 27.30013616 9.10341281 28.83855895 9.10041809 30.37698364 C9.08900469 34.41140712 9.05956818 38.44550275 9.02630615 42.47979736 C8.9955293 46.60237189 8.98189654 50.72499977 8.96679688 54.84765625 C8.93469469 62.92593112 8.88354132 71.00394031 8.8203125 79.08203125 C4.760078 80.09138541 0.69679086 81.08786795 -3.3671875 82.08203125 C-4.51767578 82.36820312 -5.66816406 82.654375 -6.85351562 82.94921875 C-8.52124023 83.35527344 -8.52124023 83.35527344 -10.22265625 83.76953125 C-11.24383545 84.02089844 -12.26501465 84.27226562 -13.31713867 84.53125 C-16.02275718 85.05183638 -18.43384338 85.18789512 -21.1796875 85.08203125 C-21.27252236 75.4242056 -21.34352066 65.76653445 -21.38693619 56.10835934 C-21.4077775 51.62326695 -21.43603155 47.13848068 -21.48144531 42.65356445 C-21.52502701 38.32228667 -21.54885059 33.99130265 -21.55919647 29.65982246 C-21.5665658 28.01044658 -21.58095648 26.36108609 -21.60260773 24.71183586 C-21.63180675 22.3947002 -21.6356368 20.07876575 -21.63378906 17.76147461 C-21.64711273 15.78624062 -21.64711273 15.78624062 -21.66070557 13.77110291 C-21.01562221 8.82376541 -19.22999001 5.02981863 -15.5390625 1.5234375 C-10.38093276 -1.29350229 -5.55043794 -2.33755003 0 0 Z " fill="#994C0F" transform="translate(322.1796875,422.91796875)"/>
<path d="M0 0 C0 19.8 0 39.6 0 60 C-5.65125 60.0825 -11.3025 60.165 -17.125 60.25 C-18.89762207 60.28641602 -20.67024414 60.32283203 -22.49658203 60.36035156 C-23.9169799 60.37204468 -25.33739128 60.38223503 -26.7578125 60.390625 C-27.48282959 60.41108887 -28.20784668 60.43155273 -28.95483398 60.45263672 C-34.13758192 60.456166 -36.99761126 59.24192736 -41 56 C-44.50174409 52.01525672 -45.11599233 48.58385433 -45.42578125 43.328125 C-44.13077375 36.24716658 -38.65987598 31.22877692 -33.75 26.38671875 C-33.05487305 25.69109329 -32.35974609 24.99546783 -31.64355469 24.27876282 C-30.18133101 22.81886798 -28.71544172 21.3626363 -27.24609375 19.90991211 C-24.99819055 17.68570963 -22.76401563 15.44837178 -20.53125 13.20898438 C-19.10495864 11.78826697 -17.67790147 10.36831789 -16.25 8.94921875 C-15.58323242 8.28153976 -14.91646484 7.61386078 -14.22949219 6.9259491 C-13.60204102 6.30802994 -12.97458984 5.69011078 -12.328125 5.0534668 C-11.7805957 4.51054489 -11.23306641 3.96762299 -10.66894531 3.4082489 C-6.93928068 0.26117387 -5.06554567 0 0 0 Z " fill="#BD5F15" transform="translate(256,330)"/>
<path d="M0 0 C0 29.7 0 59.4 0 90 C-4.95 90 -9.9 90 -15 90 C-15.09043574 79.67293388 -15.16379361 69.34613156 -15.20724869 59.01875877 C-15.22810691 54.22313071 -15.25639228 49.42778804 -15.30175781 44.63232422 C-15.34527858 40.00279568 -15.36915039 35.37354135 -15.37950897 30.74382401 C-15.38688917 28.97919016 -15.40130111 27.21457101 -15.42292023 25.45005417 C-15.45203762 22.97467591 -15.45595261 20.50042482 -15.45410156 18.02490234 C-15.46848267 17.29841492 -15.48286377 16.57192749 -15.49768066 15.82342529 C-15.45673448 10.7494734 -14.1519637 7.92635156 -11 4 C-7.49152264 0.8204424 -4.68122696 0 0 0 Z " fill="#BF6015" transform="translate(256,422)"/>
</svg>
