<?xml version="1.0" encoding="UTF-8"?>
<svg version="1.1" xmlns="http://www.w3.org/2000/svg" width="512" height="512">
<path d="M0 0 C1.40318481 -0.01469078 1.40318481 -0.01469078 2.8347168 -0.02967834 C23.21842982 -0.19911385 43.000744 -0.13176194 63.0078125 4.23828125 C64.54719482 4.56771729 64.54719482 4.56771729 66.11767578 4.90380859 C113.1738309 15.23000011 160.32253032 38.58082275 187.78125 79.671875 C203.48089402 104.42900595 208.51372007 129.37628242 208.40625 158.40234375 C208.40827939 160.37470608 208.41119794 162.34706768 208.41494751 164.31942749 C208.41932818 168.41875473 208.41307773 172.51788363 208.39892578 176.6171875 C208.3818138 181.82218482 208.39171537 187.02671848 208.40964317 192.23169899 C208.42057789 196.29337952 208.41699108 200.35495336 208.4092598 204.41663742 C208.40728562 206.33401929 208.4096168 208.25141147 208.41669846 210.16878128 C208.4980207 238.35187315 202.51756072 264.94040553 183.0078125 286.23828125 C182.20988281 287.12902344 181.41195313 288.01976562 180.58984375 288.9375 C156.80364373 314.16310698 120.58369358 327.69927252 89.859375 342.1328125 C80.48414081 346.54537688 71.19008238 351.06552833 62.0703125 355.98828125 C61.27181885 356.41189941 60.4733252 356.83551758 59.65063477 357.27197266 C34.48346535 371.12315174 27.64186891 403.03644618 18.85009766 428.4296875 C10.88365362 451.32610389 10.88365362 451.32610389 7.0078125 454.23828125 C5.8940625 454.25890625 4.7803125 454.27953125 3.6328125 454.30078125 C-0.03949765 454.856879 -0.03949765 454.856879 -1.62890625 457.34375 C-3.06628269 460.00978795 -4.26450516 462.29269285 -4.9921875 465.23828125 C-4.21723563 467.89218975 -4.21723563 467.89218975 -2.9921875 470.23828125 C-2.21217441 474.52835324 -3.1649187 476.92487771 -5.4296875 480.48828125 C-17.60437481 497.45300947 -32.31040258 508.40919301 -52.9921875 512.23828125 C-58.27127314 512.75683613 -63.5060318 512.82148039 -68.8046875 512.73828125 C-69.84943237 512.72997284 -69.84943237 512.72997284 -70.9152832 512.72149658 C-82.00168478 512.61842184 -92.41436028 511.71537559 -102.9921875 508.23828125 C-103.99427246 507.92479736 -103.99427246 507.92479736 -105.01660156 507.60498047 C-145.10066268 494.8335672 -171.21998636 462.40223742 -190.01831055 426.36474609 C-210.42890481 386.08096514 -218.10722156 340.30521108 -218.1953125 295.5390625 C-218.19813988 294.55740805 -218.20096725 293.57575359 -218.20388031 292.56435204 C-218.21879268 287.36020016 -218.22807002 282.15607539 -218.23242188 276.9519043 C-218.23679053 272.70767545 -218.25063085 268.46365172 -218.2734375 264.21948242 C-218.47808297 225.35210677 -215.95167643 188.53400052 -203.9921875 151.23828125 C-203.61078613 150.0469458 -203.61078613 150.0469458 -203.22167969 148.83154297 C-202.48495357 146.58157952 -201.71667312 144.3461063 -200.9296875 142.11328125 C-200.70869385 141.45577881 -200.4877002 140.79827637 -200.26000977 140.12084961 C-199.10446145 137.00540479 -198.1471297 135.35678066 -195.484375 133.3203125 C-192.77194845 132.14266022 -190.91750617 131.98753965 -187.9921875 132.23828125 C-187.51110475 130.82226411 -187.03240609 129.40543688 -186.5546875 127.98828125 C-186.28785156 127.199375 -186.02101563 126.41046875 -185.74609375 125.59765625 C-185.49730469 124.8190625 -185.24851563 124.04046875 -184.9921875 123.23828125 C-184.75371094 122.5215625 -184.51523438 121.80484375 -184.26953125 121.06640625 C-184.17800781 120.463125 -184.08648437 119.85984375 -183.9921875 119.23828125 C-184.9821875 118.24828125 -184.9821875 118.24828125 -185.9921875 117.23828125 C-186.79517174 110.33411769 -185.02607444 106.45780464 -181.3046875 100.73828125 C-180.81282959 99.96073486 -180.32097168 99.18318848 -179.81420898 98.38208008 C-174.49150636 90.15547789 -168.42039463 82.61859813 -161.9921875 75.23828125 C-161.49074219 74.6570752 -160.98929688 74.07586914 -160.47265625 73.47705078 C-134.20382367 43.24883281 -97.93553528 22.13748978 -59.9921875 10.23828125 C-59.24936523 10.00270508 -58.50654297 9.76712891 -57.74121094 9.52441406 C-39.1598573 3.72756097 -19.48225625 0.16891416 0 0 Z " fill="#FE4755" transform="translate(260.9921875,-0.23828125)"/>
<path d="M0 0 C1.40318481 -0.01469078 1.40318481 -0.01469078 2.8347168 -0.02967834 C23.21842982 -0.19911385 43.000744 -0.13176194 63.0078125 4.23828125 C64.54719482 4.56771729 64.54719482 4.56771729 66.11767578 4.90380859 C113.1738309 15.23000011 160.32253032 38.58082275 187.78125 79.671875 C203.48089402 104.42900595 208.51372007 129.37628242 208.40625 158.40234375 C208.40827939 160.37470608 208.41119794 162.34706768 208.41494751 164.31942749 C208.41932818 168.41875473 208.41307773 172.51788363 208.39892578 176.6171875 C208.3818138 181.82218482 208.39171537 187.02671848 208.40964317 192.23169899 C208.42057789 196.29337952 208.41699108 200.35495336 208.4092598 204.41663742 C208.40728562 206.33401929 208.4096168 208.25141147 208.41669846 210.16878128 C208.4980207 238.35187315 202.51756072 264.94040553 183.0078125 286.23828125 C182.20988281 287.12902344 181.41195313 288.01976562 180.58984375 288.9375 C156.80364373 314.16310698 120.58369358 327.69927252 89.859375 342.1328125 C80.48414081 346.54537688 71.19008238 351.06552833 62.0703125 355.98828125 C61.27181885 356.41189941 60.4733252 356.83551758 59.65063477 357.27197266 C34.48346535 371.12315174 27.64186891 403.03644618 18.85009766 428.4296875 C10.88365362 451.32610389 10.88365362 451.32610389 7.0078125 454.23828125 C5.8940625 454.25890625 4.7803125 454.27953125 3.6328125 454.30078125 C-0.03949765 454.856879 -0.03949765 454.856879 -1.62890625 457.34375 C-3.06628269 460.00978795 -4.26450516 462.29269285 -4.9921875 465.23828125 C-4.21723563 467.89218975 -4.21723563 467.89218975 -2.9921875 470.23828125 C-2.21217441 474.52835324 -3.1649187 476.92487771 -5.4296875 480.48828125 C-17.60437481 497.45300947 -32.31040258 508.40919301 -52.9921875 512.23828125 C-58.27127314 512.75683613 -63.5060318 512.82148039 -68.8046875 512.73828125 C-69.84943237 512.72997284 -69.84943237 512.72997284 -70.9152832 512.72149658 C-82.00168478 512.61842184 -92.41436028 511.71537559 -102.9921875 508.23828125 C-103.99427246 507.92479736 -103.99427246 507.92479736 -105.01660156 507.60498047 C-145.10066268 494.8335672 -171.21998636 462.40223742 -190.01831055 426.36474609 C-210.42890481 386.08096514 -218.10722156 340.30521108 -218.1953125 295.5390625 C-218.19813988 294.55740805 -218.20096725 293.57575359 -218.20388031 292.56435204 C-218.21879268 287.36020016 -218.22807002 282.15607539 -218.23242188 276.9519043 C-218.23679053 272.70767545 -218.25063085 268.46365172 -218.2734375 264.21948242 C-218.47808297 225.35210677 -215.95167643 188.53400052 -203.9921875 151.23828125 C-203.61078613 150.0469458 -203.61078613 150.0469458 -203.22167969 148.83154297 C-202.48495357 146.58157952 -201.71667312 144.3461063 -200.9296875 142.11328125 C-200.70869385 141.45577881 -200.4877002 140.79827637 -200.26000977 140.12084961 C-199.10046818 136.99463865 -198.13906359 135.35082562 -195.46875 133.3046875 C-192.38981273 131.97889905 -191.10811634 132.03984708 -187.9921875 133.23828125 C-185.6796875 134.86328125 -185.6796875 134.86328125 -183.9921875 137.23828125 C-183.40595763 143.26046084 -184.9943944 147.67987322 -187.1171875 153.17578125 C-198.15988868 183.60917378 -202.46940711 215.58435663 -202.4296875 247.86328125 C-202.43001984 249.10837967 -202.43001984 249.10837967 -202.43035889 250.37863159 C-202.38312645 266.88636698 -200.87839085 283.26463223 -198.1796875 299.55078125 C-198.00719482 300.59435791 -197.83470215 301.63793457 -197.65698242 302.71313477 C-197.11914552 305.89147991 -196.56171752 309.06547042 -195.9921875 312.23828125 C-195.81848633 313.20668945 -195.64478516 314.17509766 -195.46582031 315.17285156 C-189.76077313 345.99697895 -178.33726848 378.23159555 -158.9921875 403.23828125 C-158.55696777 403.80144043 -158.12174805 404.36459961 -157.67333984 404.94482422 C-143.99942976 422.34842982 -127.24439777 435.94778868 -105.2578125 440.84765625 C-93.33543414 442.27377806 -80.28809868 442.5866349 -68.9921875 438.23828125 C-67.7081181 437.80535665 -66.42285505 437.37596381 -65.13671875 436.94921875 C-56.86725159 434.12693775 -49.76542041 430.90362476 -42.9921875 425.23828125 C-42.36054688 424.74070312 -41.72890625 424.243125 -41.078125 423.73046875 C-29.0961621 413.22645722 -25.09695456 394.22699822 -22.1796875 379.23828125 C-16.08166404 348.49407964 -2.77943374 320.35884437 23.98388672 302.43676758 C25.6479789 301.35421299 27.32788078 300.29608872 29.0078125 299.23828125 C30.53921875 298.27341797 30.53921875 298.27341797 32.1015625 297.2890625 C70.12674527 274.53855873 70.12674527 274.53855873 84.0078125 276.23828125 C84.9978125 276.89828125 85.9878125 277.55828125 87.0078125 278.23828125 C87.0078125 278.89828125 87.0078125 279.55828125 87.0078125 280.23828125 C87.76707031 279.87734375 88.52632813 279.51640625 89.30859375 279.14453125 C90.30246094 278.68046875 91.29632813 278.21640625 92.3203125 277.73828125 C93.30644531 277.27421875 94.29257812 276.81015625 95.30859375 276.33203125 C98.0078125 275.23828125 98.0078125 275.23828125 101.0078125 275.23828125 C100.8840625 274.18640625 100.7603125 273.13453125 100.6328125 272.05078125 C101.0078125 268.23828125 101.0078125 268.23828125 103.32421875 265.82421875 C107.84012213 262.32698516 113.11169201 260.3008955 118.3203125 258.05078125 C147.85132263 244.87355298 173.83228779 227.4407908 186.0078125 196.23828125 C196.06440148 169.22214848 195.64888679 133.33689766 183.94335938 106.82763672 C179.04820249 96.49999979 173.38902599 86.98638613 166.0078125 78.23828125 C165.20085937 77.26890625 164.39390625 76.29953125 163.5625 75.30078125 C137.28033843 45.17436321 97.6110051 27.99801342 59.0703125 20.05078125 C58.33329102 19.89593262 57.59626953 19.74108398 56.83691406 19.58154297 C42.40230017 16.75791373 27.81391542 15.82479103 13.1328125 15.86328125 C12.33921326 15.86382507 11.54561401 15.8643689 10.72796631 15.8649292 C-43.3639283 16.03356586 -95.84573592 35.30645987 -135.7265625 72.1640625 C-137.78734121 74.05074094 -139.904103 75.83100551 -142.0546875 77.61328125 C-154.1265381 88.18522256 -163.30315871 103.03704177 -171.3984375 116.7890625 C-172.9921875 119.23828125 -172.9921875 119.23828125 -174.9921875 120.23828125 C-182.09077905 120.68898548 -182.09077905 120.68898548 -184.9921875 119.23828125 C-186.6185961 115.98546406 -186.49804791 112.75704322 -185.9921875 109.23828125 C-184.77588725 106.17127697 -183.10046665 103.49827396 -181.3046875 100.73828125 C-180.81282959 99.96073486 -180.32097168 99.18318848 -179.81420898 98.38208008 C-174.49150636 90.15547789 -168.42039463 82.61859813 -161.9921875 75.23828125 C-161.49074219 74.6570752 -160.98929688 74.07586914 -160.47265625 73.47705078 C-134.20382367 43.24883281 -97.93553528 22.13748978 -59.9921875 10.23828125 C-59.24936523 10.00270508 -58.50654297 9.76712891 -57.74121094 9.52441406 C-39.1598573 3.72756097 -19.48225625 0.16891416 0 0 Z " fill="#974D36" transform="translate(260.9921875,-0.23828125)"/>
<path d="M0 0 C0.76879486 -0.00358521 1.53758972 -0.00717041 2.3296814 -0.01086426 C18.50644917 -0.05145895 34.24482756 1.53268697 50.0625 5 C51.8578418 5.39191528 51.8578418 5.39191528 53.68945312 5.79174805 C81.70186023 12.13279976 109.76756544 24.16729963 132.1875 42.3125 C132.97785645 42.94260986 132.97785645 42.94260986 133.78417969 43.58544922 C158.48535777 63.35372141 176.13083547 89.80823257 179.875 121.80078125 C182.16034372 149.77676443 180.42626607 182.12388878 161.4765625 204.6640625 C158.82443443 207.66142448 156.01912468 210.4851787 153.1875 213.3125 C152.62804687 213.94285156 152.06859375 214.57320312 151.4921875 215.22265625 C137.93619316 230.23361333 116.17355915 240.14299114 97.83447266 247.7644043 C92.96208319 249.78326708 92.96208319 249.78326708 89.1875 253.3125 C89.208125 254.42625 89.22875 255.54 89.25 256.6875 C88.1875 260.3125 88.1875 260.3125 85.53125 261.87890625 C77.31410256 265.3125 77.31410256 265.3125 74.1875 265.3125 C73.795625 264.8175 73.40375 264.3225 73 263.8125 C70.77055414 261.96744136 69.18968102 261.91882716 66.34838867 261.98681641 C61.75770878 262.6787119 57.62604079 264.82953742 53.4375 266.75 C52.42905029 267.2022998 51.42060059 267.65459961 50.3815918 268.12060547 C47.31062497 269.50453311 44.24905206 270.90789369 41.1875 272.3125 C39.41812416 273.10841848 37.64860198 273.90401179 35.87890625 274.69921875 C26.73063045 278.86251672 18.27589216 283.29127493 10.1875 289.3125 C9.33027344 289.94800781 8.47304688 290.58351563 7.58984375 291.23828125 C-17.14995087 310.31889565 -28.05991331 335.88301516 -34.25 365.75 C-38.24653425 384.9220312 -43.75288808 402.73712001 -60.05078125 414.99609375 C-78.05904137 426.64849736 -100.74043199 430.38116609 -121.6875 426.3125 C-148.65668316 418.74282065 -168.96634482 397.31348849 -182.46875 373.60546875 C-212.76054292 318.746825 -221.95612669 252.6038295 -213.5625 190.8125 C-213.46007996 190.04769318 -213.35765991 189.28288635 -213.25213623 188.49490356 C-210.88988908 171.26010312 -206.66399591 155.08322835 -200.81640625 138.6953125 C-197.84883991 130.67360654 -197.84883991 130.67360654 -197.8125 122.3125 C-199.66966187 119.40440457 -199.66966187 119.40440457 -201.8125 117.3125 C-200.19839566 113.02134456 -198.48822294 109.05212868 -195.8125 105.3125 C-193.50390625 104.59765625 -193.50390625 104.59765625 -191 104.5 C-188.34120123 104.40150329 -188.34120123 104.40150329 -185.8125 103.3125 C-182.64944092 99.23130464 -180.34298629 94.79926765 -177.90820312 90.25927734 C-166.87085112 70.64879497 -148.81753731 54.37098369 -130.8125 41.3125 C-130.27383301 40.91740234 -129.73516602 40.52230469 -129.18017578 40.11523438 C-108.43181854 25.06359142 -84.74240614 14.2667159 -59.99414062 7.8828125 C-57.96256759 7.35172984 -55.94225948 6.79067422 -53.921875 6.21875 C-36.12592197 1.38528128 -18.37423038 0.03426171 0 0 Z M-36.8125 29.3125 C-37.51729492 29.43608887 -38.22208984 29.55967773 -38.94824219 29.68701172 C-75.9176875 36.45571842 -108.46486479 53.80515949 -135.8125 79.3125 C-136.62589844 80.06015625 -137.43929687 80.8078125 -138.27734375 81.578125 C-171.88462631 113.64573743 -186.16972076 162.59944896 -191.8125 207.3125 C-191.90893799 208.06144531 -192.00537598 208.81039062 -192.10473633 209.58203125 C-193.07078977 218.37716071 -192.99858392 227.20618127 -192.99780273 236.04296875 C-192.99997327 238.77880807 -193.01813836 241.51423249 -193.03710938 244.25 C-193.08805946 259.97053797 -191.76447485 275.3916419 -189 290.875 C-188.82823242 291.83986328 -188.65646484 292.80472656 -188.47949219 293.79882812 C-186.81216949 302.82444257 -184.57883357 311.56553173 -181.8125 320.3125 C-181.40306152 321.63435303 -181.40306152 321.63435303 -180.98535156 322.98291016 C-174.93353538 342.27850749 -166.97640573 360.75300061 -153.8125 376.3125 C-153.10738281 377.17875 -152.40226562 378.045 -151.67578125 378.9375 C-142.86766838 389.3111482 -132.45069324 396.3612822 -119.8125 401.3125 C-119.14089844 401.57933594 -118.46929687 401.84617187 -117.77734375 402.12109375 C-103.62862713 406.63002542 -85.65436511 402.76851962 -72.8125 396.3125 C-63.51465178 390.2331377 -59.65335454 379.29349616 -55.8125 369.3125 C-55.47476563 368.45140625 -55.13703125 367.5903125 -54.7890625 366.703125 C-52.75515573 361.33361113 -51.08401352 355.89119097 -49.5 350.375 C-39.25275299 315.09338934 -24.18205261 278.7828691 9.3515625 259.74609375 C18.23338005 255.25624934 27.62807026 251.88980902 36.93359375 248.3984375 C71.52207434 235.40272519 107.23588849 221.49543809 134.1875 195.3125 C135.31865234 194.27416016 135.31865234 194.27416016 136.47265625 193.21484375 C145.7699651 184.4278503 152.44337426 174.1634386 157.1875 162.3125 C157.48269531 161.6628125 157.77789062 161.013125 158.08203125 160.34375 C164.55322754 145.29742167 164.35426014 125.31273411 158.734375 110.06640625 C154.70796049 99.98743163 149.2509729 91.50728889 142.1875 83.3125 C141.67316406 82.67699219 141.15882813 82.04148438 140.62890625 81.38671875 C125.39306721 62.76513771 102.17558923 50.51969707 80.09375 42.05322266 C78.36345614 41.3808723 76.64932875 40.66728153 74.9375 39.94921875 C62.40951721 34.78781768 49.07651939 31.83765391 35.75 29.5625 C35.07815674 29.44696777 34.40631348 29.33143555 33.71411133 29.21240234 C21.88414028 27.33045885 9.95171494 27.10652246 -2 27.125 C-3.08874924 27.12590637 -3.08874924 27.12590637 -4.19949341 27.12683105 C-15.16978647 27.15157732 -25.98781582 27.38652217 -36.8125 29.3125 Z " fill="#FD7A89" transform="translate(273.8125,14.6875)"/>
<path d="M0 0 C1.40318481 -0.01469078 1.40318481 -0.01469078 2.8347168 -0.02967834 C23.21842982 -0.19911385 43.000744 -0.13176194 63.0078125 4.23828125 C64.03406738 4.45790527 65.06032227 4.6775293 66.11767578 4.90380859 C113.1738309 15.23000011 160.32253032 38.58082275 187.78125 79.671875 C203.48089402 104.42900595 208.51372007 129.37628242 208.40625 158.40234375 C208.40827939 160.37470608 208.41119794 162.34706768 208.41494751 164.31942749 C208.41932818 168.41875473 208.41307773 172.51788363 208.39892578 176.6171875 C208.3818138 181.82218482 208.39171537 187.02671848 208.40964317 192.23169899 C208.42057789 196.29337952 208.41699108 200.35495336 208.4092598 204.41663742 C208.40728562 206.33401929 208.4096168 208.25141147 208.41669846 210.16878128 C208.4980207 238.35187315 202.51756072 264.94040553 183.0078125 286.23828125 C182.20988281 287.12902344 181.41195313 288.01976562 180.58984375 288.9375 C156.80364373 314.16310698 120.58369358 327.69927252 89.859375 342.1328125 C80.48414081 346.54537688 71.19008238 351.06552833 62.0703125 355.98828125 C61.27181885 356.41189941 60.4733252 356.83551758 59.65063477 357.27197266 C34.48346535 371.12315174 27.64186891 403.03644618 18.85009766 428.4296875 C10.91585666 451.23354887 10.91585666 451.23354887 7.0078125 454.23828125 C2.61433493 454.88916682 0.69783239 454.71266992 -2.9921875 452.17578125 C-4.9921875 449.23828125 -4.9921875 449.23828125 -4.77905273 446.03466797 C-3.95718818 442.06942013 -2.79791208 438.34849194 -1.40234375 434.55859375 C-1.14228043 433.83679932 -0.8822171 433.11500488 -0.61427307 432.37133789 C0.231362 430.03249175 1.0875812 427.69771596 1.9453125 425.36328125 C2.53663731 423.74203065 3.12794577 422.1207741 3.71923828 420.49951172 C27.66231787 355.08954582 27.66231787 355.08954582 54.5703125 341.17578125 C55.58770508 340.63759766 56.60509766 340.09941406 57.65332031 339.54492188 C75.64851359 330.12677666 94.0236413 321.41789992 112.48095703 312.94848633 C133.16273684 303.45444933 152.6188218 293.33197482 169.0078125 277.23828125 C169.94173828 276.32369141 169.94173828 276.32369141 170.89453125 275.390625 C185.03955606 260.4191493 190.5390159 240.24430396 192.0078125 220.23828125 C191.54632813 220.90472656 191.08484375 221.57117188 190.609375 222.2578125 C172.49328921 247.85662938 147.88198817 262.03343494 120.0078125 275.23828125 C119.17765625 275.63619873 118.3475 276.03411621 117.4921875 276.4440918 C116.30689453 276.99577026 116.30689453 276.99577026 115.09765625 277.55859375 C114.05339478 278.04803467 114.05339478 278.04803467 112.98803711 278.54736328 C109.7288942 279.68450721 107.24770017 279.21024755 104.0078125 278.23828125 C102.0703125 277.11328125 102.0703125 277.11328125 101.0078125 275.23828125 C100.4453125 271.86328125 100.4453125 271.86328125 101.0078125 268.23828125 C105.92702746 263.16224568 111.91006744 260.81999505 118.3203125 258.05078125 C147.85132263 244.87355298 173.83228779 227.4407908 186.0078125 196.23828125 C196.06440148 169.22214848 195.64888679 133.33689766 183.94335938 106.82763672 C179.04820249 96.49999979 173.38902599 86.98638613 166.0078125 78.23828125 C165.20085937 77.26890625 164.39390625 76.29953125 163.5625 75.30078125 C137.28033843 45.17436321 97.6110051 27.99801342 59.0703125 20.05078125 C58.33329102 19.89593262 57.59626953 19.74108398 56.83691406 19.58154297 C42.40230017 16.75791373 27.81391542 15.82479103 13.1328125 15.86328125 C12.33921326 15.86382507 11.54561401 15.8643689 10.72796631 15.8649292 C-43.3639283 16.03356586 -95.84573592 35.30645987 -135.7265625 72.1640625 C-137.78734121 74.05074094 -139.904103 75.83100551 -142.0546875 77.61328125 C-154.1265381 88.18522256 -163.30315871 103.03704177 -171.3984375 116.7890625 C-172.9921875 119.23828125 -172.9921875 119.23828125 -174.9921875 120.23828125 C-182.09077905 120.68898548 -182.09077905 120.68898548 -184.9921875 119.23828125 C-186.6185961 115.98546406 -186.49804791 112.75704322 -185.9921875 109.23828125 C-184.77588725 106.17127697 -183.10046665 103.49827396 -181.3046875 100.73828125 C-180.81282959 99.96073486 -180.32097168 99.18318848 -179.81420898 98.38208008 C-174.49150636 90.15547789 -168.42039463 82.61859813 -161.9921875 75.23828125 C-161.24001953 74.36647217 -161.24001953 74.36647217 -160.47265625 73.47705078 C-134.20382367 43.24883281 -97.93553528 22.13748978 -59.9921875 10.23828125 C-59.24936523 10.00270508 -58.50654297 9.76712891 -57.74121094 9.52441406 C-39.1598573 3.72756097 -19.48225625 0.16891416 0 0 Z " fill="#010000" transform="translate(260.9921875,-0.23828125)"/>
<path d="M0 0 C2.3125 1.625 2.3125 1.625 4 4 C4.58622987 10.02217959 2.9977931 14.44159197 0.875 19.9375 C-10.16770118 50.37089253 -14.47721961 82.34607538 -14.4375 114.625 C-14.43783234 115.87009842 -14.43783234 115.87009842 -14.43817139 117.14035034 C-14.39093895 133.64808573 -12.88620335 150.02635098 -10.1875 166.3125 C-10.01500732 167.35607666 -9.84251465 168.39965332 -9.66479492 169.47485352 C-9.12695802 172.65319866 -8.56953002 175.82718917 -8 179 C-7.73944824 180.4526123 -7.73944824 180.4526123 -7.47363281 181.93457031 C-1.76858563 212.7586977 9.65491902 244.9933143 29 270 C29.43521973 270.56315918 29.87043945 271.12631836 30.31884766 271.70654297 C43.99275774 289.11014857 60.74778973 302.70950743 82.734375 307.609375 C94.65675336 309.03549681 107.70408882 309.34835365 119 305 C120.2840694 304.5670754 121.56933245 304.13768256 122.85546875 303.7109375 C131.12493591 300.8886565 138.22676709 297.66534351 145 292 C145.63164062 291.50242187 146.26328125 291.00484375 146.9140625 290.4921875 C158.8960254 279.98817597 162.89523294 260.98871697 165.8125 246 C171.91052346 215.25579839 185.21275376 187.12056312 211.97607422 169.19848633 C213.6401664 168.11593174 215.32006828 167.05780747 217 166 C218.53140625 165.03513672 218.53140625 165.03513672 220.09375 164.05078125 C258.80632242 140.88901159 258.80632242 140.88901159 272 143 C274.4375 144.625 274.4375 144.625 276 147 C276.5 150 276.5 150 276 153 C273.10615861 156.51605792 270.08135636 158.10462161 265.93359375 159.8828125 C264.73476563 160.40512451 263.5359375 160.92743652 262.30078125 161.46557617 C261.66994629 161.73614838 261.03911133 162.00672058 260.38916016 162.28549194 C257.09030439 163.70449719 253.80874996 165.16228262 250.52734375 166.62109375 C249.87651825 166.91021133 249.22569275 167.19932892 248.55514526 167.49720764 C234.9163154 173.5844811 222.34230199 180.20585705 211 190 C210.2678125 190.62003906 209.535625 191.24007812 208.78125 191.87890625 C192.74563131 206.61004009 185.73966337 228.08896567 181.60693359 248.83398438 C176.98679278 271.99554135 169.74058389 294.86410565 149.33886719 308.75610352 C136.51225994 317.02339514 119.38674451 324.11212856 104.015625 324.1328125 C102.61183594 324.13474609 102.61183594 324.13474609 101.1796875 324.13671875 C99.72949219 324.13091797 99.72949219 324.13091797 98.25 324.125 C97.29867187 324.12886719 96.34734375 324.13273437 95.3671875 324.13671875 C69.18531478 324.10085317 47.39477646 312.37821183 28.9375 294.375 C16.92267245 282.20036933 8.19757806 267.91001684 0 253 C7.03797134 275.94107967 17.28277875 297.97042729 32 317 C32.76441406 317.98871094 33.52882812 318.97742188 34.31640625 319.99609375 C49.52578485 339.06733195 69.09668904 353.95850382 93 360 C94.00417969 360.29777344 95.00835937 360.59554688 96.04296875 360.90234375 C103.92873422 362.98664473 111.55915354 363.31058399 119.6875 363.375 C120.73260742 363.38885742 121.77771484 363.40271484 122.85449219 363.41699219 C138.14258704 363.32533116 150.50299301 357.94297146 161.63671875 347.51953125 C164.94296036 343.99469515 167.69801648 340.18325438 170.40625 336.1875 C172 334 172 334 174 333 C176.09375 333.015625 176.09375 333.015625 178.5 333.25 C179.69109375 333.35054688 179.69109375 333.35054688 180.90625 333.453125 C183 334 183 334 185 337 C185.81121328 341.25886972 184.81373592 343.72036141 182.5625 347.25 C170.38781269 364.21472822 155.68178492 375.17091176 135 379 C129.72091436 379.51855488 124.4861557 379.58319914 119.1875 379.5 C118.14275513 379.49169159 118.14275513 379.49169159 117.0769043 379.48321533 C105.99050272 379.38014059 95.57782722 378.47709434 85 375 C83.99791504 374.68651611 83.99791504 374.68651611 82.97558594 374.36669922 C42.89152482 361.59528595 16.77220114 329.16395617 -2.02612305 293.12646484 C-22.43671731 252.84268389 -30.11503406 207.06692983 -30.203125 162.30078125 C-30.20595238 161.3191268 -30.20877975 160.33747234 -30.21169281 159.32607079 C-30.22660518 154.12191891 -30.23588252 148.91779414 -30.24023438 143.71362305 C-30.24460303 139.4693942 -30.25844335 135.22537047 -30.28125 130.98120117 C-30.48589547 92.11382552 -27.95948893 55.29571927 -16 18 C-15.74573242 17.20577637 -15.49146484 16.41155273 -15.22949219 15.59326172 C-14.49276607 13.34329827 -13.72448562 11.10782505 -12.9375 8.875 C-12.71650635 8.21749756 -12.4955127 7.55999512 -12.26782227 6.88256836 C-11.10828068 3.7563574 -10.14687609 2.11254437 -7.4765625 0.06640625 C-4.39762523 -1.2593822 -3.11592884 -1.19843417 0 0 Z " fill="#020100" transform="translate(73,133)"/>
<path d="M0 0 C6.72930803 5.64688057 11.34387172 11.94534791 12.30859375 20.84765625 C12.69859259 30.57399106 10.4319702 36.97538262 3.984375 44.28515625 C-7.04983941 54.90261077 -22.00255502 58.58331106 -36.9375 58.375 C-37.99219482 58.36484863 -39.04688965 58.35469727 -40.13354492 58.34423828 C-54.23921623 58.06267053 -66.76165142 54.47209618 -77.43359375 44.77734375 C-83.96574074 37.36555601 -86.43733619 30.16419286 -86.33984375 20.42578125 C-85.58988757 12.86587817 -81.67177993 6.7389651 -76.13671875 1.66015625 C-55.05188644 -14.72202608 -21.69466002 -16.67878938 0 0 Z " fill="#040202" transform="translate(302,126)"/>
<path d="M0 0 C0.33 0 0.66 0 1 0 C-0.44421298 24.40221937 -8.7751825 44.75057562 -26 62 C-26.69609375 62.70769531 -27.3921875 63.41539062 -28.109375 64.14453125 C-46.25342125 81.40950549 -71.53783074 91.44391295 -93.9296875 101.7421875 C-136.60696426 119.31933657 -136.60696426 119.31933657 -167 152 C-167.83917969 153.48113281 -167.83917969 153.48113281 -168.6953125 154.9921875 C-174.53373749 165.881529 -178.4379431 177.58863098 -182.61474609 189.18554688 C-184.06356972 193.19224076 -185.55594014 197.18217081 -187.05078125 201.171875 C-187.80869474 203.2037861 -188.5658401 205.2359814 -189.32263184 207.26831055 C-189.81131262 208.5772107 -190.30207795 209.8853347 -190.79504395 211.19262695 C-191.48585271 213.02698592 -192.16692525 214.86500235 -192.84765625 216.703125 C-193.23961182 217.75145508 -193.63156738 218.79978516 -194.03540039 219.87988281 C-195.08817102 223.2852001 -195.73334572 226.44425443 -196 230 C-194.207809 232.46172153 -194.207809 232.46172153 -192 234 C-193.2976183 239.29860806 -195.15015702 243.34525646 -198 248 C-199.216875 247.896875 -200.43375 247.79375 -201.6875 247.6875 C-205.01692681 247.7108644 -205.79180076 247.84258106 -208.5625 249.9375 C-209.9082609 251.6283278 -211.24531078 253.32666701 -212.54296875 255.0546875 C-221.70872897 267.17782116 -232.65707722 275.66061352 -248 278 C-276.98916156 280.51897888 -303.39540538 273.32885781 -326 255 C-327.72145649 253.37673611 -329.36126401 251.70853401 -331 250 C-326.84989822 250.7144479 -323.36702716 252.81284886 -319.6875 254.75 C-303.86958497 262.84845334 -288.41529937 266.35902275 -270.625 266.3125 C-269.40039062 266.32861328 -268.17578125 266.34472656 -266.9140625 266.36132812 C-250.68263928 266.36992528 -236.59545652 262.64094879 -224.625 251.25 C-211.9165287 237.59864212 -204.84601424 219.67059353 -198.9375 202.25 C-198.41812939 200.74830413 -197.89760746 199.24700598 -197.37597656 197.74609375 C-195.20994622 191.50114214 -193.08223641 185.24331683 -190.95703125 178.984375 C-184.23805732 159.29128035 -176.81269507 140.07720748 -162 125 C-161.47696289 124.44852295 -160.95392578 123.8970459 -160.41503906 123.32885742 C-156.49740849 119.27131147 -152.50734144 115.95852089 -147.75 112.9375 C-147.01934326 112.47182617 -146.28868652 112.00615234 -145.53588867 111.52636719 C-131.79612922 102.97543218 -117.09552022 96.01377782 -102.60798645 88.83709717 C-99.56025265 87.32715436 -96.51384573 85.8145578 -93.4675293 84.30175781 C-89.44814626 82.30597769 -85.42298322 80.32258497 -81.39379883 78.34667969 C-50.4793078 63.09406141 -21.37959414 43.98535181 -6 12 C-5.64160005 10.3385433 -5.30277791 8.6724875 -5 7 C-3.84375 4.98046875 -3.84375 4.98046875 -2.5 3.1875 C-2.0565625 2.58292969 -1.613125 1.97835937 -1.15625 1.35546875 C-0.7746875 0.90816406 -0.393125 0.46085938 0 0 Z " fill="#8A4433" transform="translate(453,219)"/>
<path d="M0 0 C3.36501787 2.6242117 5.56009069 5.00295139 6.4921875 9.234375 C6.71056943 13.0624817 6.14925962 15.65398905 4.625 19.1875 C-2.22053139 26.52199792 -12.11203113 30.95998115 -22.12109375 31.3984375 C-23.89322901 31.40628459 -25.66550097 31.39833283 -27.4375 31.375 C-28.31470703 31.38660156 -29.19191406 31.39820313 -30.09570312 31.41015625 C-41.37010429 31.36030628 -50.54968729 27.87049221 -58.9375 20.375 C-61.50341738 17.42030726 -61.94665713 15.56543442 -62.3125 11.6875 C-61.92617509 7.12886603 -61.0058134 5.44568853 -58 2 C-41.08299865 -11.6266612 -18.06872561 -11.2669927 0 0 Z " fill="#F1E6D1" transform="translate(293,138)"/>
<path d="M0 0 C0.8971875 1.0828125 0.8971875 1.0828125 1.8125 2.1875 C9.21901516 9.59401516 21.01076546 12.19680073 31.15454102 12.38037109 C45.25109934 12.3504796 55.8384725 9.31153958 68 2 C68.16618438 7.43876141 67.66946499 9.80632573 64 14 C54.84771791 20.75329971 45.83950183 23.52349015 34.5625 23.375 C33.24668945 23.39240234 33.24668945 23.39240234 31.90429688 23.41015625 C20.62989571 23.36030628 11.45031271 19.87049221 3.0625 12.375 C-0.38678599 8.40309493 -0.09588146 5.08171727 0 0 Z " fill="#E2D3BB" transform="translate(231,146)"/>
<path d="M0 0 C2.32472205 2.85306797 3.7508258 5.54074837 5 9 C4.01 9 3.02 9 2 9 C1.34 6.03 0.68 3.06 0 0 Z " fill="#874530" transform="translate(72,384)"/>
</svg>
