<?xml version="1.0" encoding="UTF-8"?>
<svg version="1.1" xmlns="http://www.w3.org/2000/svg" width="512" height="512">
<path d="M0 0 C0.98174194 0.00465271 1.96348389 0.00930542 2.97497559 0.01409912 C17.33893498 0.09375948 31.45490044 0.42957263 45.5625 3.375 C46.55475586 3.57899414 47.54701172 3.78298828 48.56933594 3.99316406 C89.58620593 12.66616797 126.18826441 29.1240027 156.5625 58.375 C157.20316406 58.96410156 157.84382813 59.55320313 158.50390625 60.16015625 C180.4860631 80.91824868 192.64028177 111.36406507 193.62569618 141.29448509 C193.74306287 146.88188217 193.75360898 152.47016014 193.765625 158.05859375 C193.76845238 158.95244341 193.77127975 159.84629307 193.77419281 160.76722908 C193.78911948 165.50294405 193.79838863 170.2386291 193.80273438 174.97436523 C193.80819249 179.80833673 193.83218301 184.64202281 193.86070633 189.47590542 C193.87954822 193.2434208 193.88454972 197.01087056 193.88607025 200.77842903 C193.88905179 202.5574098 193.8969228 204.33639072 193.91025543 206.11532402 C194.09626345 232.85341752 189.48309603 258.43619833 171.5625 279.375 C170.91925781 280.16261719 170.27601563 280.95023437 169.61328125 281.76171875 C147.44851565 307.85960357 111.29525776 321.60463593 80.90625 335.41015625 C43.37762096 352.46064051 22.87533741 366.33022522 7.98681641 405.54296875 C5.55208165 412.05373219 3.23517871 418.60758567 0.89962769 425.15438843 C-23.02727742 492.1969991 -23.02727742 492.1969991 -51.375 506.75 C-52.01896729 507.08410889 -52.66293457 507.41821777 -53.32641602 507.76245117 C-63.21415027 512.56959015 -73.29046963 512.73426776 -84.125 512.6875 C-84.79113312 512.68567719 -85.45726624 512.68385437 -86.14358521 512.68197632 C-95.95816754 512.63669073 -104.99415863 512.21372565 -114.4375 509.375 C-115.65566406 509.0346875 -116.87382812 508.694375 -118.12890625 508.34375 C-154.2774086 497.36943544 -180.66016395 468.13918701 -198.16455078 435.77197266 C-212.67411995 408.45034816 -221.73063306 379.0508646 -226.75 348.5625 C-226.89735596 347.67111328 -227.04471191 346.77972656 -227.1965332 345.86132812 C-227.67389778 342.70462554 -228.06494453 339.54588473 -228.4375 336.375 C-228.52363556 335.68216919 -228.60977112 334.98933838 -228.69851685 334.2755127 C-230.98764797 315.22326774 -230.77866394 296.07365655 -230.75317383 276.91699219 C-230.7485485 273.14961794 -230.75545433 269.38256699 -230.77368164 265.61523438 C-230.88034136 243.34267559 -230.57591092 221.4698702 -227.4375 199.375 C-227.32163544 198.55725098 -227.20577087 197.73950195 -227.08639526 196.89697266 C-226.43437718 192.46554913 -225.64163387 188.07799377 -224.75 183.6875 C-224.49581299 182.41406738 -224.24162598 181.14063477 -223.97973633 179.82861328 C-213.65945516 129.4895519 -189.0802387 82.59437316 -148.4375 50.375 C-147.92380859 49.96314453 -147.41011719 49.55128906 -146.88085938 49.12695312 C-139.08428117 42.88776785 -131.07587959 37.41735689 -122.4375 32.375 C-121.26014598 31.66060217 -120.08306969 30.94574644 -118.90625 30.23046875 C-101.39561625 19.78439856 -82.13756769 12.47738353 -62.4375 7.375 C-61.69371094 7.18212402 -60.94992188 6.98924805 -60.18359375 6.79052734 C-40.33826398 1.77231896 -20.43363184 -0.17397932 0 0 Z " fill="#FE4755" transform="translate(274.4375,-0.375)"/>
<path d="M0 0 C0.98174194 0.00465271 1.96348389 0.00930542 2.97497559 0.01409912 C17.33893498 0.09375948 31.45490044 0.42957263 45.5625 3.375 C46.55475586 3.57899414 47.54701172 3.78298828 48.56933594 3.99316406 C89.58620593 12.66616797 126.18826441 29.1240027 156.5625 58.375 C157.20316406 58.96410156 157.84382813 59.55320313 158.50390625 60.16015625 C180.4860631 80.91824868 192.64028177 111.36406507 193.62569618 141.29448509 C193.74306287 146.88188217 193.75360898 152.47016014 193.765625 158.05859375 C193.76845238 158.95244341 193.77127975 159.84629307 193.77419281 160.76722908 C193.78911948 165.50294405 193.79838863 170.2386291 193.80273438 174.97436523 C193.80819249 179.80833673 193.83218301 184.64202281 193.86070633 189.47590542 C193.87954822 193.2434208 193.88454972 197.01087056 193.88607025 200.77842903 C193.88905179 202.5574098 193.8969228 204.33639072 193.91025543 206.11532402 C194.09626345 232.85341752 189.48309603 258.43619833 171.5625 279.375 C170.91925781 280.16261719 170.27601563 280.95023437 169.61328125 281.76171875 C147.44851565 307.85960357 111.29525776 321.60463593 80.90625 335.41015625 C43.37762096 352.46064051 22.87533741 366.33022522 7.98681641 405.54296875 C5.55208165 412.05373219 3.23517871 418.60758567 0.89962769 425.15438843 C-23.02727742 492.1969991 -23.02727742 492.1969991 -51.375 506.75 C-52.01896729 507.08410889 -52.66293457 507.41821777 -53.32641602 507.76245117 C-63.21415027 512.56959015 -73.29046963 512.73426776 -84.125 512.6875 C-84.79113312 512.68567719 -85.45726624 512.68385437 -86.14358521 512.68197632 C-95.95816754 512.63669073 -104.99415863 512.21372565 -114.4375 509.375 C-115.65566406 509.0346875 -116.87382812 508.694375 -118.12890625 508.34375 C-154.2774086 497.36943544 -180.66016395 468.13918701 -198.16455078 435.77197266 C-212.67411995 408.45034816 -221.73063306 379.0508646 -226.75 348.5625 C-226.89735596 347.67111328 -227.04471191 346.77972656 -227.1965332 345.86132812 C-227.67389778 342.70462554 -228.06494453 339.54588473 -228.4375 336.375 C-228.52363556 335.68216919 -228.60977112 334.98933838 -228.69851685 334.2755127 C-230.98764797 315.22326774 -230.77866394 296.07365655 -230.75317383 276.91699219 C-230.7485485 273.14961794 -230.75545433 269.38256699 -230.77368164 265.61523438 C-230.88034136 243.34267559 -230.57591092 221.4698702 -227.4375 199.375 C-227.32163544 198.55725098 -227.20577087 197.73950195 -227.08639526 196.89697266 C-226.43437718 192.46554913 -225.64163387 188.07799377 -224.75 183.6875 C-224.49581299 182.41406738 -224.24162598 181.14063477 -223.97973633 179.82861328 C-213.65945516 129.4895519 -189.0802387 82.59437316 -148.4375 50.375 C-147.92380859 49.96314453 -147.41011719 49.55128906 -146.88085938 49.12695312 C-139.08428117 42.88776785 -131.07587959 37.41735689 -122.4375 32.375 C-121.26014598 31.66060217 -120.08306969 30.94574644 -118.90625 30.23046875 C-101.39561625 19.78439856 -82.13756769 12.47738353 -62.4375 7.375 C-61.69371094 7.18212402 -60.94992188 6.98924805 -60.18359375 6.79052734 C-40.33826398 1.77231896 -20.43363184 -0.17397932 0 0 Z M-53.4375 41.375 C-54.34693359 41.59961914 -55.25636719 41.82423828 -56.19335938 42.05566406 C-85.55573614 49.44465778 -113.17836669 64.74784136 -135.27734375 85.37109375 C-137.29646429 87.24416579 -139.37913063 88.99436841 -141.5 90.75 C-171.16329599 116.72767605 -185.8156631 158.9927129 -193.4375 196.375 C-193.67146484 197.51799561 -193.67146484 197.51799561 -193.91015625 198.68408203 C-194.88788205 203.56280165 -195.71218497 208.45272758 -196.4375 213.375 C-196.59412109 214.39424561 -196.59412109 214.39424561 -196.75390625 215.43408203 C-200.52454588 241.10664902 -199.58745022 268.69728079 -196.4375 294.375 C-196.293125 295.64988281 -196.14875 296.92476563 -196 298.23828125 C-191.36233615 334.8012918 -178.89273047 372.31306288 -154.4375 400.375 C-153.88578125 401.01179688 -153.3340625 401.64859375 -152.765625 402.3046875 C-144.49945395 411.18468313 -133.81737324 417.43262761 -122.4375 421.375 C-121.2 421.808125 -119.9625 422.24125 -118.6875 422.6875 C-108.0029497 425.0024859 -96.70948906 423.69912979 -86.4375 420.375 C-85.468125 420.08496094 -84.49875 419.79492188 -83.5 419.49609375 C-72.5927178 415.95419097 -67.6114417 410.31756545 -62.32672119 400.23419189 C-59.74884504 394.84434458 -58.03613343 389.08485289 -56.23922729 383.39926147 C-55.48193685 381.00540082 -54.70643914 378.61810512 -53.92602539 376.23168945 C-52.64592476 372.31268283 -51.37687099 368.39023332 -50.11193848 364.46630859 C-43.35059471 343.50063595 -35.94415577 322.07710997 -22.4375 304.375 C-21.74269531 303.44945312 -21.04789063 302.52390625 -20.33203125 301.5703125 C-3.73182217 280.35730196 17.4726314 271.12536931 41.99682617 262.19921875 C73.99787393 250.4517146 106.33171558 236.54379943 132.5625 214.375 C133.40039062 213.68921875 134.23828125 213.0034375 135.1015625 212.296875 C151.33760661 198.57155936 164.49105996 177.83262538 166.5625 156.375 C168.10955821 131.23990846 162.45516736 112.01421874 145.9296875 92.92089844 C127.14985086 71.68626886 101.85015442 58.14217521 75.5625 48.375 C74.43070312 47.94445313 73.29890625 47.51390625 72.1328125 47.0703125 C60.58854359 42.93083078 48.61414957 40.53774836 36.5625 38.375 C35.05284668 38.09136597 35.05284668 38.09136597 33.51269531 37.80200195 C22.20734119 35.90956921 10.87312607 35.93506491 -0.5625 35.9375 C-2.15705017 35.93589874 -2.15705017 35.93589874 -3.78381348 35.93426514 C-20.87614883 35.95902359 -36.83091556 37.06598619 -53.4375 41.375 Z " fill="#FE7A8A" transform="translate(274.4375,-0.375)"/>
<path d="M0 0 C0.33 0 0.66 0 1 0 C1.07032087 7.88598287 1.12321903 15.77188873 1.15543652 23.65810871 C1.17091964 27.32223604 1.19182852 30.98614486 1.22631836 34.65014648 C1.50713259 65.31374298 -0.0262637 94.49384496 -21 119 C-21.64324219 119.78761719 -22.28648437 120.57523437 -22.94921875 121.38671875 C-45.11398435 147.48460357 -81.26724224 161.22963593 -111.65625 175.03515625 C-149.18487904 192.08564051 -169.68716259 205.95522522 -184.57568359 245.16796875 C-187.01041835 251.67873219 -189.32732129 258.23258567 -191.66287231 264.77938843 C-215.58977742 331.8219991 -215.58977742 331.8219991 -243.9375 346.375 C-244.58146729 346.70910889 -245.22543457 347.04321777 -245.88891602 347.38745117 C-255.77665027 352.19459015 -265.85296963 352.35926776 -276.6875 352.3125 C-277.35363312 352.31067719 -278.01976624 352.30885437 -278.70608521 352.30697632 C-288.52066754 352.26169073 -297.55665863 351.83872565 -307 349 C-308.21816406 348.6596875 -309.43632812 348.319375 -310.69140625 347.96875 C-346.8399086 336.99443544 -373.22266395 307.76418701 -390.72705078 275.39697266 C-405.23661995 248.07534816 -414.29313306 218.6758646 -419.3125 188.1875 C-419.45985596 187.29611328 -419.60721191 186.40472656 -419.7590332 185.48632812 C-422.74734837 165.72528445 -423.27627233 146.01189588 -423.125 126.0625 C-423.11493186 123.71029035 -423.10581291 121.35807643 -423.09765625 119.00585938 C-423.07598851 113.33714395 -423.04282581 107.66859312 -423 102 C-422.67 102 -422.34 102 -422 102 C-421.92483154 102.8751123 -421.84966309 103.75022461 -421.7722168 104.65185547 C-419.83747246 128.45476629 -419.83747246 128.45476629 -416 152 C-415.77860352 153.06831055 -415.55720703 154.13662109 -415.32910156 155.23730469 C-405.59871955 201.3846119 -387.55471097 253.69229304 -346.0625 280.75 C-340.26017793 284.40544734 -334.41125104 287.55419315 -328 290 C-327.04996094 290.391875 -326.09992188 290.78375 -325.12109375 291.1875 C-308.57506449 297.0344404 -288.40287659 295.74634397 -272 290 C-271.36030273 289.78037598 -270.72060547 289.56075195 -270.06152344 289.33447266 C-252.68139904 283.26474557 -239.34150914 274.12045994 -231.01635742 257.35131836 C-225.81900596 245.32737122 -223.00368332 232.46709077 -220.02319336 219.76391602 C-214.65449426 196.99723851 -206.841484 177.6725866 -190 161 C-189.24460937 160.22269531 -188.48921875 159.44539062 -187.7109375 158.64453125 C-177.63722496 148.86506804 -164.87363368 142.18258763 -152.2734375 136.234375 C-151.37101822 135.80675369 -150.46859894 135.37913239 -149.53883362 134.93855286 C-140.39700389 130.64915081 -131.10870885 126.73382578 -121.78161621 122.86813354 C-72.6286528 102.94037839 -72.6286528 102.94037839 -30 72 C-28.96746094 71.08154297 -28.96746094 71.08154297 -27.9140625 70.14453125 C-8.40853049 52.06529308 -2.41375711 25.37620966 0 0 Z " fill="#994E37" transform="translate(467,160)"/>
<path d="M0 0 C0.33 0 0.66 0 1 0 C1.07531413 6.20318072 1.12913969 12.40608346 1.16479492 18.60961914 C1.17969083 20.7109034 1.20001441 22.81215766 1.22631836 24.91333008 C1.57009213 53.12300132 -1.94876118 79.74013148 -21 102 C-21.64324219 102.78761719 -22.28648437 103.57523437 -22.94921875 104.38671875 C-45.11398435 130.48460357 -81.26724224 144.22963593 -111.65625 158.03515625 C-149.18487904 175.08564051 -169.68716259 188.95522522 -184.57568359 228.16796875 C-187.01041835 234.67873219 -189.32732129 241.23258567 -191.66287231 247.77938843 C-215.58977742 314.8219991 -215.58977742 314.8219991 -243.9375 329.375 C-244.58146729 329.70910889 -245.22543457 330.04321777 -245.88891602 330.38745117 C-255.77665027 335.19459015 -265.85296963 335.35926776 -276.6875 335.3125 C-277.35363312 335.31067719 -278.01976624 335.30885437 -278.70608521 335.30697632 C-288.52066754 335.26169073 -297.55665863 334.83872565 -307 332 C-308.21816406 331.6596875 -309.43632812 331.319375 -310.69140625 330.96875 C-348.00958004 319.63933519 -374.06971222 289.29056765 -392 256 C-392.40734375 255.25105469 -392.8146875 254.50210938 -393.234375 253.73046875 C-394.22193445 251.85342939 -395.11978288 249.92970677 -396 248 C-395.505 247.01 -395.505 247.01 -395 246 C-394.3709375 246.96679688 -393.741875 247.93359375 -393.09375 248.9296875 C-388.07164391 256.59261809 -382.9581468 264.02146192 -377 271 C-375.95585937 272.22783203 -375.95585937 272.22783203 -374.890625 273.48046875 C-355.36557518 295.80964806 -329.72925162 311.33268649 -300 315 C-295.34987111 315.28469492 -290.72034926 315.32526123 -286.0625 315.3125 C-284.89009766 315.32861328 -283.71769531 315.34472656 -282.50976562 315.36132812 C-265.62179682 315.37065334 -250.93324483 310.83276328 -238.65234375 298.921875 C-222.42386242 281.04425492 -215.6199381 257.27827696 -208.09112549 234.85565186 C-189.28648131 178.88301786 -162.9296321 156.83947554 -111.0680542 131.02554321 C-108.39542817 129.70019425 -105.71791769 128.38495751 -103.03952026 127.07131958 C-79.13752995 115.34794655 -56.53702135 103.44612168 -37 85 C-35.93458984 84.01386719 -35.93458984 84.01386719 -34.84765625 83.0078125 C-13.32409392 62.43442662 -4.42089517 32.72944288 -1.39453125 3.96484375 C-1 1 -1 1 0 0 Z " fill="#8C4534" transform="translate(467,177)"/>
<path d="M0 0 C1.32390747 -0.00821777 1.32390747 -0.00821777 2.67456055 -0.01660156 C16.06258239 0.12841763 28.5550159 3.9177908 38.375 13.3125 C42.53225219 17.72229555 43.73939784 21.71641833 44.0625 27.75 C43.71852565 35.57994242 40.86974768 39.96419889 35.32421875 45.27734375 C30.15528989 49.61997847 24.78118456 52.27277084 18.375 54.3125 C17.36759766 54.65087891 17.36759766 54.65087891 16.33984375 54.99609375 C1.94066034 59.018987 -15.20672284 56.76774869 -28.125 49.5 C-34.86120912 45.03908281 -40.29169426 40.27319017 -42.625 32.3125 C-43.56223176 25.83388546 -42.52195657 20.6094356 -38.625 15.3125 C-33.7017258 10.02167292 -28.38510721 5.89908446 -21.625 3.3125 C-20.89667969 3.01472656 -20.16835937 2.71695313 -19.41796875 2.41015625 C-13.00039968 0.21706572 -6.71494683 0.03047188 0 0 Z " fill="#F3E8D2" transform="translate(264.625,118.6875)"/>
<path d="M0 0 C2.14774831 2.14774831 4.28277249 4.29765525 6.375 6.5 C17.00808694 16.62674946 30.20408236 18.41697925 44.28125 18.2109375 C56.61028203 17.80760487 68.51422463 14.57733542 77.5625 5.8125 C80.04948663 3.06200384 80.04948663 3.06200384 82 0 C85.29084521 4.93626782 84.74282922 10.24474658 84 16 C80.89462786 23.88740908 73.93301373 29.51798051 66.515625 33.25 C64.03684648 34.29693751 61.56338721 35.18381751 59 36 C57.99259766 36.33837891 57.99259766 36.33837891 56.96484375 36.68359375 C42.56566034 40.706487 25.41827716 38.45524869 12.5 31.1875 C5.76379088 26.72658281 0.33330574 21.96069017 -2 14 C-2.54217125 8.92807536 -2.38217097 4.61545625 0 0 Z " fill="#E5D4BD" transform="translate(224,137)"/>
</svg>
