<?xml version="1.0" encoding="UTF-8"?>
<svg version="1.1" xmlns="http://www.w3.org/2000/svg" width="512" height="512">
<path d="M0 0 C1.02734253 0.5215416 2.05468506 1.04308319 3.11315918 1.58042908 C4.21995529 2.12849716 5.3267514 2.67656525 6.46708679 3.24124146 C9.48041725 4.73730344 12.48697162 6.24555687 15.49079919 7.76052189 C18.64494993 9.34837638 21.80612113 10.92214447 24.9662323 12.49809265 C30.26760757 15.14471035 35.56313204 17.80275298 40.85534668 20.46763611 C46.9659987 23.54445356 53.08575464 26.60252202 59.21065837 29.65085816 C65.11674237 32.5908691 71.01596264 35.54440716 76.91225243 38.50400543 C79.41590858 39.76037291 81.92188946 41.01191432 84.4298954 42.25957489 C87.9315963 44.00243775 91.42316577 45.76499475 94.91394043 47.52964783 C95.95140411 48.0430925 96.9888678 48.55653717 98.05776978 49.08554077 C103.76396019 51.99368928 107.74188638 54.41747333 110.69006348 60.31382751 C110.79216986 62.17534264 110.82955557 64.04053339 110.8372345 65.90483093 C110.84796745 67.6881633 110.84796745 67.6881633 110.85891724 69.50752258 C110.86160614 70.81871063 110.86429504 72.12989868 110.86706543 73.4808197 C110.87332934 74.87037832 110.87997608 76.25993526 110.88697815 77.64949036 C110.90439584 81.4306401 110.91494226 85.21177719 110.92318368 88.99295712 C110.92833282 91.35523893 110.93440863 93.7175168 110.94069481 96.07979584 C110.9597501 103.47053987 110.97397982 110.86127389 110.98230678 118.25203776 C110.99207775 126.78375127 111.018392 135.31520522 111.05880767 143.84682727 C111.08897116 150.44053961 111.10377591 157.03417758 111.10708779 163.62795758 C111.10943826 167.566341 111.11839775 171.50444725 111.14354897 175.44275665 C111.16683869 179.14956059 111.1710596 182.85590506 111.16078758 186.56276321 C111.16005655 188.56788822 111.17914208 190.57298993 111.19885254 192.57801819 C111.13539697 203.54566234 111.13539697 203.54566234 106.69006348 208.31382751 C104.76037598 209.88804626 104.76037598 209.88804626 102.81506348 211.00132751 C102.1782666 211.3764447 101.54146973 211.75156189 100.88537598 212.13804626 C98.18109898 213.58642238 95.43566813 214.94570813 92.69006348 216.31382751 C93.8157373 216.28353455 94.94141113 216.25324158 96.10119629 216.22203064 C108.08323681 215.90319364 120.06581505 215.62321845 132.04943848 215.37101746 C134.47662965 215.31845001 136.90364983 215.26114111 139.33068848 215.20201111 C143.20022882 215.10967898 147.06973879 215.05207201 150.94006348 215.00132751 C152.06058105 214.97167908 153.18109863 214.94203064 154.33557129 214.91148376 C160.33306716 214.86643215 164.08112266 215.07932059 168.69006348 219.31382751 C170.84601152 221.61232653 172.81101291 224.02027337 174.75256348 226.50132751 C175.3127417 227.20330261 175.87291992 227.90527771 176.45007324 228.62852478 C180.9638131 234.31247014 185.35508206 240.08988506 189.7364502 245.87608337 C194.22991688 251.78346005 198.92226344 257.50818803 203.66589355 263.21543884 C207.97436254 268.41029027 212.11547312 273.70515966 216.20178223 279.07554626 C218.95420104 282.6792972 221.78785896 286.2161944 224.62756348 289.75132751 C249.20079374 320.3572463 249.20079374 320.3572463 249.10119629 328.30796814 C248.27258713 334.36606549 245.26551444 339.6475593 242.56506348 345.06382751 C241.92352084 346.38737672 241.28407642 347.71194477 240.64660645 349.03746033 C239.32472271 351.78200863 237.99402612 354.52200681 236.65686035 357.25914001 C233.91852185 362.88180816 231.29324836 368.55631623 228.66494751 374.23100281 C227.22475257 377.33686757 225.77599068 380.43872299 224.32678223 383.54039001 C224.03367661 384.16781097 223.74057098 384.79523193 223.43858337 385.44166565 C221.20337535 390.22303814 218.95836023 394.99975573 216.70959473 399.77476501 C216.20590111 400.84443512 216.20590111 400.84443512 215.69203186 401.93571472 C213.99840858 405.53142047 212.30303546 409.12628948 210.60534668 412.72007751 C207.3486536 419.62040241 204.12166856 426.53185934 200.96350098 433.47789001 C200.37256494 434.77205673 199.78150324 436.06616608 199.19030762 437.36021423 C198.09592531 439.75601466 197.01376629 442.15612791 195.93786621 444.56040955 C189.94497716 457.68637067 189.94497716 457.68637067 184.69006348 460.31382751 C176.96189881 461.3873546 169.12634025 461.54225041 161.33728027 461.75035095 C160.15537613 461.78457657 158.97347198 461.81880219 157.75575256 461.85406494 C153.88370108 461.96470531 150.01152941 462.06964889 146.13928223 462.17320251 C144.79746731 462.20945794 143.45565327 462.24574611 142.1138401 462.28206635 C136.53497509 462.4326062 130.9560676 462.58133668 125.37701702 462.7248497 C117.41553235 462.92965754 109.45451455 463.14533599 101.49374264 463.37624526 C95.87251301 463.53843904 90.2510393 463.68855361 84.62924129 463.82966447 C81.27988318 463.91403539 77.93105586 464.00514754 74.58212852 464.10599518 C70.8535871 464.21705301 67.12505442 464.30836702 63.39587402 464.3948822 C62.29393707 464.4321492 61.19200012 464.4694162 60.05667114 464.5078125 C53.60478098 464.63239074 48.97421027 464.25695681 43.95959473 459.76304626 C43.23836426 458.89099548 43.23836426 458.89099548 42.50256348 458.00132751 C41.91475098 457.29492126 41.32693848 456.58851501 40.72131348 455.86070251 C37.34048772 451.62166714 33.98092076 447.36720232 30.64709473 443.09117126 C27.69273309 439.3067233 24.69551645 435.55775211 21.69006348 431.81382751 C16.43916615 425.26584863 11.24233877 418.67710449 6.06652832 412.06968689 C4.64716353 410.25910306 3.22559879 408.45026747 1.80334473 406.64195251 C1.0841687 405.72748352 1.0841687 405.72748352 0.35046387 404.79454041 C-0.54737222 403.65301261 -1.44531022 402.51156497 -2.34338379 401.370224 C-6.0161589 396.69817017 -9.66427408 392.00705613 -13.30993652 387.31382751 C-13.31404541 388.13060974 -13.3181543 388.94739197 -13.3223877 389.78892517 C-13.35537576 393.50628427 -13.4260298 397.2220161 -13.49743652 400.93882751 C-13.5061377 402.86662048 -13.5061377 402.86662048 -13.51501465 404.83335876 C-13.54401855 406.07730408 -13.57302246 407.32124939 -13.60290527 408.60289001 C-13.61861572 409.74451599 -13.63432617 410.88614197 -13.6505127 412.06236267 C-14.49000965 416.20172603 -16.23687604 418.54344524 -19.30993652 421.31382751 C-22.80828339 423.55898607 -26.48898726 425.37662389 -30.2154541 427.21153259 C-31.31524094 427.76675598 -32.41502777 428.32197937 -33.54814148 428.89402771 C-36.55150795 430.40633029 -39.56058281 431.90585905 -42.57337022 433.39921784 C-45.7343304 434.9689303 -48.88824332 436.55269126 -52.04325867 438.13430786 C-57.34183432 440.78766906 -62.64604745 443.42947899 -67.95373535 446.06455994 C-74.07764917 449.1050553 -80.19205601 452.16402266 -86.30174142 455.23299676 C-92.19460978 458.19247782 -98.09419847 461.13831812 -103.99686241 464.07820702 C-106.50170892 465.32609676 -109.0040971 466.57872622 -111.50458717 467.83532143 C-115.0016102 469.59184127 -118.50833888 471.3283843 -122.01623535 473.06309509 C-123.56028549 473.84305092 -123.56028549 473.84305092 -125.13552856 474.63876343 C-137.32936094 480.61941155 -137.32936094 480.61941155 -143.71753788 478.52416134 C-146.51151929 477.31721783 -149.1950499 475.97672829 -151.89538574 474.57286072 C-152.89974104 474.07122312 -153.90409634 473.56958551 -154.93888664 473.05274677 C-157.03707922 472.00361722 -159.13129085 470.94649071 -161.22158051 469.88170242 C-165.03205863 467.94722563 -168.86920216 466.07067373 -172.7092762 464.19584942 C-183.81228261 458.76743865 -194.86698946 453.23928943 -205.93151855 447.73301697 C-210.29571948 445.56217588 -214.6637251 443.39927353 -219.03503418 441.24278259 C-224.37157334 438.60999919 -229.70114797 435.96360333 -235.02602768 433.30732155 C-237.04022684 432.30541049 -239.05682028 431.30829722 -241.07587051 430.31619835 C-243.88342883 428.93547364 -246.68167942 427.53740332 -249.47839355 426.13487244 C-250.71568207 425.53392509 -250.71568207 425.53392509 -251.97796631 424.9208374 C-261.25214598 420.21662127 -261.25214598 420.21662127 -263.30993652 415.31382751 C-264.02589067 410.70885564 -263.98239006 406.16149836 -263.94104004 401.50914001 C-263.94618231 400.09927979 -263.95346591 398.689426 -263.96272278 397.27958679 C-263.98120646 393.46123607 -263.96831805 389.64358538 -263.94863248 385.82526398 C-263.93221925 381.82421079 -263.94106258 377.823201 -263.94615173 373.8221283 C-263.95066972 367.10375314 -263.93482131 360.38565666 -263.90686035 353.66734314 C-263.87480961 345.90665704 -263.87482504 338.1464735 -263.89207512 330.38575172 C-263.90795428 322.91166017 -263.90119777 315.43775237 -263.88413811 307.96366882 C-263.87727627 304.78673901 -263.87829109 301.60995687 -263.88568306 298.43302917 C-263.89336008 294.68997081 -263.88117441 290.94748243 -263.85383415 287.20452118 C-263.84369388 285.18041242 -263.85311813 283.15623511 -263.86315918 281.13212585 C-263.81251667 276.31156795 -263.70713896 272.34373559 -261.96455383 267.82537842 C-257.90851342 263.9879319 -253.29163664 261.76598368 -248.3026123 259.32432556 C-247.18025177 258.7593486 -246.05789124 258.19437164 -244.90151978 257.61227417 C-241.83425024 256.06897866 -238.75739907 254.54578231 -235.67817545 253.02650809 C-232.45126807 251.43067702 -229.23285149 249.81789102 -226.01327515 248.20733643 C-220.60665095 245.50589495 -215.19398638 242.81689437 -209.77722168 240.135849 C-203.5216332 237.03950937 -197.27456772 233.92651783 -191.0321008 230.80381745 C-184.37558584 227.47420722 -177.71303352 224.15682286 -171.04865408 220.8429873 C-169.13318972 219.88951008 -167.21886661 218.93377487 -165.30478287 217.97752953 C-161.73326696 216.19416066 -158.15511116 214.42453382 -154.5760498 212.65635681 C-153.51921997 212.12703552 -152.46239014 211.59771423 -151.37353516 211.05235291 C-149.90577133 210.33126595 -149.90577133 210.33126595 -148.40835571 209.59561157 C-147.56365786 209.17661433 -146.71896 208.75761709 -145.84866524 208.32592297 C-143.01326456 207.19555559 -140.32824125 206.7161278 -137.30993652 206.31382751 C-137.63442087 205.77410246 -137.95890522 205.2343774 -138.29322243 204.67829704 C-139.53545369 201.78936496 -139.56718885 199.62585178 -139.57736206 196.48231506 C-139.58589203 195.29067749 -139.594422 194.09903992 -139.60321045 192.87129211 C-139.60230408 191.56729462 -139.60139771 190.26329712 -139.60046387 188.91978455 C-139.60644951 187.52992899 -139.61325515 186.14007675 -139.62081909 184.75022888 C-139.6384827 180.97743814 -139.64317462 177.20473813 -139.64445066 173.43191004 C-139.64587262 171.07396534 -139.65014306 168.71604368 -139.6554451 166.35810471 C-139.67394657 158.12962632 -139.68211557 149.90121273 -139.68054199 141.67271423 C-139.67934055 134.00640209 -139.70044288 126.34037147 -139.73202932 118.67413056 C-139.75819363 112.08885918 -139.76890923 105.50367973 -139.76763117 98.91835678 C-139.76712158 94.98672645 -139.77280299 91.05534633 -139.79398727 87.12376785 C-139.81337249 83.42512312 -139.81349265 79.72696718 -139.79895401 76.02830505 C-139.79587089 74.02798594 -139.81254038 72.02766677 -139.82983398 70.02742004 C-139.79544561 65.11950201 -139.72743223 61.29878405 -137.80007935 56.75177002 C-134.51247712 53.53308508 -131.09520159 51.65841202 -126.98181152 49.65391541 C-125.72965851 49.0199426 -125.72965851 49.0199426 -124.45220947 48.37316227 C-122.66243261 47.46942717 -120.86902898 46.572845 -119.0723877 45.68283463 C-116.34755095 44.33246836 -113.63326882 42.96292349 -110.92126465 41.58699036 C-105.14462289 38.66109772 -99.35299194 35.76564575 -93.55993652 32.87242126 C-91.44187704 31.81305373 -89.32387689 30.75356757 -87.20593262 29.69396973 C-82.81318743 27.49686731 -78.41973675 25.30118412 -74.02575684 23.10655212 C-68.38992509 20.29151346 -62.75592829 17.47282371 -57.12243652 14.65310574 C-52.77042266 12.47529701 -48.41746296 10.29938448 -44.06420898 8.12405586 C-41.98423908 7.08440433 -39.90456589 6.04415896 -37.82519531 5.00330925 C-34.93825799 3.5585759 -32.05005833 2.11639854 -29.16149902 0.6749115 C-28.30446381 0.24538177 -27.44742859 -0.18414795 -26.56442261 -0.62669373 C-25.77999786 -1.01749619 -24.99557312 -1.40829865 -24.18737793 -1.8109436 C-23.50688385 -2.15100213 -22.82638977 -2.49106066 -22.12527466 -2.84142399 C-14.2567935 -6.50293889 -7.2844792 -3.57325081 0 0 Z M-6.95056152 264.90367126 C-10.13765867 266.24151088 -12.89267615 266.9047918 -16.30993652 267.31382751 C-16.1514624 267.83041931 -15.99298828 268.34701111 -15.82971191 268.8792572 C-15.15785587 272.02615645 -15.08894216 275.05020903 -14.99353027 278.26695251 C-14.97274918 278.92717407 -14.95196808 279.58739563 -14.93055725 280.2676239 C-14.86543506 282.36625766 -14.80635151 284.46501124 -14.74743652 286.56382751 C-14.70421573 287.99092299 -14.66060032 289.41800657 -14.61657715 290.84507751 C-14.50979241 294.33453473 -14.40842087 297.82412504 -14.30993652 301.31382751 C-11.7176108 298.12412718 -10.01128187 294.83525322 -8.27868652 291.11460876 C-8.0014978 290.52012436 -7.72430908 289.92563995 -7.4387207 289.31314087 C-6.85490183 288.05768988 -6.27344302 286.80113899 -5.69421387 285.54356384 C-4.81926828 283.64656007 -3.93433228 281.75446327 -3.04821777 279.86265564 C-0.06467282 273.4463244 2.63424024 267.09070197 4.69006348 260.31382751 C0.59815139 260.31382751 -3.33030058 263.13941968 -6.95056152 264.90367126 Z " fill="#B1E4F9" transform="translate(263.3099365234375,18.686172485351563)"/>
<path d="M0 0 C1.02891357 0.52468369 2.05782715 1.04936737 3.11791992 1.58995056 C4.22632233 2.14123123 5.33472473 2.6925119 6.47671509 3.26049805 C9.49403614 4.76486274 12.50460459 6.28137079 15.51262236 7.80416822 C18.66953961 9.39901437 21.83397963 10.97880089 24.99746704 12.56056213 C30.30282428 15.21601609 35.60273411 17.88208238 40.89916992 20.55528259 C47.01961381 23.64428859 53.14691401 26.7193133 59.27839887 29.78633916 C65.81730769 33.0572558 72.35160139 36.33730412 78.88431215 39.62057924 C80.76379533 40.56449716 82.64407489 41.50681243 84.52451706 42.44881821 C88.02549522 44.20340302 91.52120819 45.96831205 95.01635742 47.73448181 C96.57794586 48.51543465 96.57794586 48.51543465 98.17108154 49.31216431 C99.12141266 49.79444992 100.07174377 50.27673553 101.0508728 50.77363586 C101.87709326 51.18990927 102.70331371 51.60618267 103.55457115 52.03507042 C105.64423853 53.27107641 107.13625137 54.42159414 108.67895508 56.29161072 C108.67895508 56.95161072 108.67895508 57.61161072 108.67895508 58.29161072 C93.38367726 65.97429108 78.08497124 73.650095 62.78214741 81.31773281 C55.67685491 84.87811329 48.57270253 88.44073411 41.47119141 92.00865173 C35.28147367 95.11846201 29.08965772 98.22404697 22.89528626 101.32457787 C19.61553821 102.96640725 16.33687919 104.61033207 13.06072426 106.25932121 C9.40327969 108.10012616 5.74118227 109.93148181 2.07861328 111.7620697 C0.45049713 112.58421715 0.45049713 112.58421715 -1.21051025 113.42297363 C-2.21025375 113.92078339 -3.20999725 114.41859314 -4.24003601 114.93148804 C-5.10559962 115.36565253 -5.97116323 115.79981703 -6.86295605 116.24713802 C-9.32104492 117.29161072 -9.32104492 117.29161072 -14.32104492 118.29161072 C-14.32104492 167.46161072 -14.32104492 216.63161072 -14.32104492 267.29161072 C-14.98104492 267.29161072 -15.64104492 267.29161072 -16.32104492 267.29161072 C-16.32104492 268.28161072 -16.32104492 269.27161072 -16.32104492 270.29161072 C-31.39253903 277.83903106 -46.46517329 285.38416883 -61.53917408 292.92658138 C-68.53805358 296.42860073 -75.536556 299.93136974 -82.53417969 303.43589783 C-88.63235697 306.4899656 -94.73123291 309.54263279 -100.83095664 312.59361082 C-104.06153037 314.20955027 -107.29174669 315.82619523 -110.5211277 317.44451714 C-114.12367629 319.24980969 -117.72778093 321.05197392 -121.33203125 322.85386658 C-122.94288101 323.66198792 -122.94288101 323.66198792 -124.58627319 324.48643494 C-125.56643906 324.97583054 -126.54660492 325.46522614 -127.55647278 325.9694519 C-128.40913129 326.39624206 -129.2617898 326.82303221 -130.14028645 327.26275539 C-134.53266133 329.33502444 -138.52376681 329.82018556 -143.32104492 329.29161072 C-145.88148855 328.31295707 -148.0277297 327.3414544 -150.39916992 326.03379822 C-151.09194534 325.67063004 -151.78472076 325.30746185 -152.49848938 324.93328857 C-154.03964195 324.12388855 -155.57702539 323.30728244 -157.1111145 322.48457336 C-161.53042499 320.1168291 -165.98028424 317.80750882 -170.42651367 315.49082947 C-171.44595566 314.95808914 -172.46539764 314.42534882 -173.51573181 313.87646484 C-189.65404659 305.47255693 -205.96870455 297.41246134 -222.2509613 289.29232025 C-226.62498269 287.11043074 -230.99786352 284.92625783 -235.37084961 282.74229431 C-243.68642527 278.58974764 -252.00327913 274.43976851 -260.32104492 270.29161072 C-260.32104492 268.97161072 -260.32104492 267.65161072 -260.32104492 266.29161072 C-246.38543364 258.88555771 -232.34466291 251.70763486 -218.23901367 244.63145447 C-217.18273584 244.10127779 -216.12645802 243.57110111 -215.03817177 243.02485847 C-209.47566001 240.23329057 -203.91191051 237.44420739 -198.34716797 234.65708923 C-192.61539043 231.78560934 -186.88835667 228.90479209 -181.16224194 226.02204037 C-176.732274 223.79401428 -172.29878945 221.57305837 -167.86431313 219.35402107 C-165.74947027 218.29416697 -163.63597745 217.23161442 -161.52388573 216.16628838 C-158.5852219 214.68481854 -155.64170025 213.21347079 -152.69677734 211.74449158 C-151.83182648 211.30561111 -150.96687561 210.86673065 -150.07571411 210.41455078 C-145.81060262 208.30038155 -142.13479877 206.73368922 -137.32104492 206.29161072 C-137.64552927 205.75188566 -137.97001362 205.21216061 -138.30433083 204.65608025 C-139.54656209 201.76714816 -139.57829725 199.60363498 -139.58847046 196.46009827 C-139.59700043 195.26846069 -139.6055304 194.07682312 -139.61431885 192.84907532 C-139.61341248 191.54507782 -139.6125061 190.24108032 -139.61157227 188.89756775 C-139.61755791 187.50771219 -139.62436355 186.11785995 -139.63192749 184.72801208 C-139.6495911 180.95522134 -139.65428302 177.18252133 -139.65555906 173.40969324 C-139.65698102 171.05174854 -139.66125145 168.69382688 -139.6665535 166.33588791 C-139.68505497 158.10740953 -139.69322396 149.87899593 -139.69165039 141.65049744 C-139.69044895 133.98418529 -139.71155128 126.31815467 -139.74313772 118.65191376 C-139.76930202 112.06664238 -139.78001763 105.48146294 -139.77873957 98.89613998 C-139.77822998 94.96450966 -139.78391138 91.03312954 -139.80509567 87.10155106 C-139.82448089 83.40290632 -139.82460105 79.70475038 -139.81006241 76.00608826 C-139.80697929 74.00576915 -139.82364878 72.00544998 -139.84094238 70.00520325 C-139.80655401 65.09728521 -139.73854062 61.27656725 -137.81118774 56.72955322 C-134.52358552 53.51086828 -131.10630998 51.63619522 -126.99291992 49.63169861 C-125.74076691 48.99772581 -125.74076691 48.99772581 -124.46331787 48.35094547 C-122.673541 47.44721038 -120.88013737 46.5506282 -119.08349609 45.66061783 C-116.35865935 44.31025156 -113.64437722 42.9407067 -110.93237305 41.56477356 C-105.15573129 38.63888093 -99.36410034 35.74342896 -93.57104492 32.85020447 C-91.45298544 31.79083693 -89.33498529 30.73135078 -87.21704102 29.67175293 C-82.82429583 27.47465051 -78.43084515 25.27896732 -74.03686523 23.08433533 C-68.40103349 20.26929666 -62.76703669 17.45060691 -57.13354492 14.63088894 C-52.78153106 12.45308021 -48.42857136 10.27716768 -44.07531738 8.10183907 C-41.99534748 7.06218754 -39.91567429 6.02194216 -37.83630371 4.98109245 C-34.94936639 3.5363591 -32.06116673 2.09418174 -29.17260742 0.6526947 C-28.3155722 0.22316498 -27.45853699 -0.20636475 -26.57553101 -0.64891052 C-25.79110626 -1.03971298 -25.00668152 -1.43051544 -24.19848633 -1.8331604 C-23.51799225 -2.17321893 -22.83749817 -2.51327745 -22.13638306 -2.86364079 C-14.25510525 -6.53111047 -7.28787438 -3.5913525 0 0 Z " fill="#B1E4F9" transform="translate(263.321044921875,18.708389282226563)"/>
<path d="M0 0 C0.29302468 4.7774601 -0.50472586 7.79797214 -2.5703125 12.09375 C-3.40925049 13.86250488 -3.40925049 13.86250488 -4.26513672 15.66699219 C-4.88499465 16.94470827 -5.50495191 18.22237618 -6.125 19.5 C-6.76570544 20.84219186 -7.40516937 22.18497698 -8.04345703 23.52832031 C-9.36860503 26.31480829 -10.6990397 29.09867745 -12.03320312 31.88085938 C-14.7419445 37.54013489 -17.38263624 43.23077976 -20.02511597 48.92120361 C-23.98656356 57.44552078 -27.97556616 65.95696186 -31.98046875 74.4609375 C-32.3162645 75.1740509 -32.65206024 75.88716431 -32.99803162 76.62188721 C-34.6916549 80.21759296 -36.38702802 83.81246196 -38.0847168 87.40625 C-41.34140988 94.3065749 -44.56839491 101.21803182 -47.7265625 108.1640625 C-48.31749853 109.45822922 -48.90856024 110.75233856 -49.49975586 112.04638672 C-50.59413816 114.44218715 -51.67629718 116.8423004 -52.75219727 119.24658203 C-58.74508632 132.37254316 -58.74508632 132.37254316 -64 135 C-71.74483373 136.08066448 -79.594005 136.21948728 -87.40039062 136.40478516 C-88.58711365 136.43579819 -89.77383667 136.46681122 -90.996521 136.49876404 C-94.8830126 136.59926266 -98.76961159 136.69442455 -102.65625 136.7890625 C-104.68250204 136.83969147 -106.70874275 136.89075782 -108.73498297 136.9418577 C-115.08626287 137.10195849 -121.43762887 137.25823725 -127.7890625 137.41210938 C-134.33714341 137.57081588 -140.88503305 137.73617667 -147.43286753 137.90471995 C-153.06951426 138.0495694 -158.70625399 138.19027865 -164.34308767 138.32765996 C-167.70383327 138.40961331 -171.06452037 138.49315277 -174.42512512 138.58070755 C-178.16156822 138.67691777 -181.89811332 138.76635241 -185.63476562 138.85400391 C-187.30384979 138.89911858 -187.30384979 138.89911858 -189.00665283 138.94514465 C-190.02140686 138.96756729 -191.03616089 138.98998993 -192.08166504 139.01309204 C-192.96428261 139.03483805 -193.84690018 139.05658405 -194.75626373 139.07898903 C-197 139 -197 139 -200 138 C-198.55598042 133.33967345 -196.68358373 128.98442744 -194.578125 124.59375 C-194.24176529 123.88493683 -193.90540558 123.17612366 -193.55885315 122.4458313 C-192.83569023 120.92275734 -192.11099794 119.40040876 -191.38491821 117.87872314 C-189.84010531 114.64088437 -188.30292791 111.3994416 -186.76545715 108.15811157 C-185.97966682 106.50151114 -185.19352197 104.84507883 -184.4070282 103.18881226 C-180.84383424 95.68223623 -177.32033144 88.15757457 -173.8125 80.625 C-173.24187563 79.40038426 -172.6712376 78.17577489 -172.10058594 76.95117188 C-170.96727553 74.51871063 -169.83436637 72.08606295 -168.70166016 69.65332031 C-165.80525765 63.4336112 -162.90208415 57.21705945 -160 51 C-158.84889383 48.53388427 -157.69785297 46.06773807 -156.546875 43.6015625 C-156.26061752 42.98821045 -155.97436005 42.3748584 -155.6794281 41.74291992 C-153.80762632 37.7318463 -151.93708724 33.72018571 -150.06726074 29.70819092 C-148.77347147 26.93228405 -147.47928086 24.15656439 -146.18505859 21.38085938 C-145.56734449 20.05575778 -144.94982773 18.73056417 -144.33251953 17.40527344 C-143.47738555 15.56942963 -142.62152129 13.73392604 -141.765625 11.8984375 C-141.27868164 10.85349121 -140.79173828 9.80854492 -140.29003906 8.73193359 C-139.22252605 6.47124649 -138.12256326 4.23353795 -137 2 C-136.17740189 2.00523682 -135.35480377 2.01047363 -134.50727844 2.01586914 C-114.48249695 2.12505392 -94.50829096 1.82396468 -74.49572754 1.1449585 C-67.12136687 0.89528883 -59.74635611 0.66659689 -52.37109375 0.4453125 C-51.65297642 0.4237421 -50.93485909 0.40217171 -50.19498062 0.37994766 C-33.46225315 -0.11628619 -16.73852116 -0.23870203 0 0 Z " fill="#90D8F9" transform="translate(512,344)"/>
<path d="M0 0 C4.49128886 4.49128886 2.94905546 15.14691227 2.99414062 21.36328125 C2.83588774 36.20561072 -2.15093695 47.07068492 -9.34521484 60.00927734 C-11.66512029 64.20208374 -13.75288886 68.48770447 -15.8125 72.8125 C-16.14314453 73.45767578 -16.47378906 74.10285156 -16.81445312 74.76757812 C-18.9045966 79.01646935 -19.61714078 82.29363071 -19 87 C-17.41146631 90.08993501 -17.41146631 90.08993501 -15 93 C-14.54641113 93.58120605 -14.09282227 94.16241211 -13.62548828 94.76123047 C-12.12265911 96.66868676 -10.59645528 98.55500556 -9.0625 100.4375 C-7.51588323 102.33818501 -5.97689936 104.24064847 -4.47070312 106.17358398 C-3.05660809 107.99362299 -3.05660809 107.99362299 -1.52929688 109.48461914 C3.33783325 114.8716157 2.75565331 121.57089993 2.65185547 128.44311523 C2.62500386 130.56219507 2.65168601 132.67600217 2.68359375 134.79492188 C2.68029009 136.15626156 2.67388472 137.51759799 2.6640625 138.87890625 C2.65842285 140.1016626 2.6527832 141.32441895 2.64697266 142.58422852 C1.84145921 146.83703554 0.15400696 149.1708557 -3 152 C-6.50928923 154.24545354 -10.20017701 156.06313811 -13.93725586 157.89770508 C-15.04025528 158.45292847 -16.1432547 159.00815186 -17.27967834 159.5802002 C-20.29123957 161.09238855 -23.30849009 162.59184258 -26.32929683 164.08539033 C-29.49676383 165.65462231 -32.65686896 167.2385524 -35.81800842 168.82048035 C-41.12512914 171.47354656 -46.43761312 174.11560591 -51.75366211 176.75073242 C-57.89224258 179.79370023 -64.02295936 182.85204652 -70.14950269 185.91916925 C-76.05474589 188.87525285 -81.96450449 191.82218812 -87.87668037 194.7643795 C-90.38781877 196.01410932 -92.89751338 197.26667173 -95.40611076 198.52149391 C-98.91049206 200.27360974 -102.42150905 202.01214727 -105.93334961 203.74926758 C-106.96990692 204.26923813 -108.00646423 204.78920868 -109.07443237 205.32493591 C-110.514786 206.03340164 -110.514786 206.03340164 -111.98423767 206.75617981 C-112.81288802 207.16780271 -113.64153837 207.5794256 -114.49529934 208.00352192 C-117 209 -117 209 -123 210 C-123 160.5 -123 111 -123 60 C-119.37 58.68 -115.74 57.36 -112 56 C-110.12267446 55.17301558 -108.25883306 54.31290608 -106.42524719 53.39300537 C-105.46774063 52.91631409 -104.51023407 52.4396228 -103.52371216 51.94848633 C-102.01211014 51.18459595 -102.01211014 51.18459595 -100.4699707 50.40527344 C-99.37596451 49.85848938 -98.28195831 49.31170532 -97.15480042 48.74835205 C-94.1905244 47.26535553 -91.2289925 45.77712958 -88.26860833 44.28639507 C-85.16116624 42.72322009 -82.05026489 41.16695922 -78.93974304 39.60992432 C-73.06571495 36.66827058 -67.19476966 33.72051918 -61.32493991 30.77049851 C-54.63555483 27.4089696 -47.94271172 24.0543533 -41.2495867 20.70027876 C-27.49589524 13.80780511 -13.74651556 6.90677548 0 0 Z " fill="#90D8F9" transform="translate(247,288)"/>
<path d="M0 0 C1.32146593 2.64293185 1.13497512 4.63006903 1.14717102 7.59100342 C1.15432632 8.77989166 1.16148163 9.96877991 1.16885376 11.19369507 C1.17154266 12.50488312 1.17423157 13.81607117 1.17700195 15.16699219 C1.18326587 16.55655081 1.1899126 17.94610775 1.19691467 19.33566284 C1.21433237 23.11681258 1.22487878 26.89794967 1.2331202 30.6791296 C1.23826934 33.04141141 1.24434515 35.40368929 1.25063133 37.76596832 C1.26968663 45.15671235 1.28391634 52.54744637 1.2922433 59.93821025 C1.30201427 68.46992375 1.32832853 77.00137771 1.36874419 85.53299975 C1.39890768 92.1267121 1.41371243 98.72035007 1.41702431 105.31413007 C1.41937479 109.25251348 1.42833428 113.19061973 1.45348549 117.12892914 C1.47677521 120.83573307 1.48099613 124.54207755 1.47072411 128.2489357 C1.46999308 130.2540607 1.4890786 132.25916242 1.50878906 134.26419067 C1.4453647 145.22644092 1.4453647 145.22644092 -3 150 C-4.859375 151.5390625 -4.859375 151.5390625 -6.75 152.625 C-7.36359375 152.98851562 -7.9771875 153.35203125 -8.609375 153.7265625 C-9.39828125 154.14679688 -10.1871875 154.56703125 -11 155 C-11.55397964 155.32131393 -12.10795929 155.64262787 -12.6787262 155.97367859 C-17.77211828 158.77330165 -21.89958089 159.63179527 -27.66796875 159.73046875 C-28.48363815 159.75908493 -29.29930756 159.78770111 -30.13969421 159.81718445 C-32.75979899 159.90142624 -35.37894038 159.95517345 -38 160 C-38.87094299 160.01629456 -39.74188599 160.03258911 -40.63922119 160.04937744 C-47.78330209 160.17584616 -54.92881624 160.29118424 -62.07397461 160.32592773 C-64.75428741 160.34138239 -67.43331072 160.38145987 -70.11328125 160.42578125 C-70.91953445 160.42387283 -71.72578766 160.42196442 -72.55647278 160.41999817 C-77.81396185 160.53421787 -80.84461892 161.50448465 -85 165 C-87.79381517 168.06862991 -89.30283048 171.57206878 -90.99609375 175.33984375 C-91.56044287 176.58012546 -92.12489932 177.82035833 -92.68945312 179.06054688 C-93.56494673 180.99919243 -94.43810562 182.93884988 -95.30883789 184.87963867 C-96.15686331 186.76501722 -97.01355533 188.64627709 -97.87109375 190.52734375 C-98.37568115 191.64874756 -98.88026855 192.77015137 -99.40014648 193.92553711 C-101.66408124 198.27617505 -103.97950647 201.93079512 -108.53125 204.01953125 C-109.49998047 204.4690918 -109.49998047 204.4690918 -110.48828125 204.92773438 C-111.15214844 205.21970703 -111.81601562 205.51167969 -112.5 205.8125 C-113.49580078 206.27946289 -113.49580078 206.27946289 -114.51171875 206.75585938 C-117.96504381 208.32398602 -120.14618547 209 -124 209 C-124 159.83 -124 110.66 -124 60 C-115.75 56.04 -107.5 52.08 -99 48 C-90.29547473 43.67739755 -90.29547473 43.67739755 -81.6078186 39.32208252 C-77.51868231 37.2619882 -73.42814786 35.20474014 -69.33578491 33.15106201 C-60.51083282 28.72203277 -51.68785093 24.28910853 -42.86865234 19.84863281 C-37.42186655 17.1064786 -31.97221098 14.37010439 -26.52064133 11.63747406 C-24.45659359 10.60142409 -22.39365879 9.56315377 -20.33186722 8.52262115 C-17.47606438 7.08156078 -14.6166856 5.64785266 -11.75634766 4.21582031 C-10.90873871 3.7858374 -10.06112976 3.35585449 -9.18783569 2.9128418 C-8.41208191 2.52630432 -7.63632812 2.13976685 -6.83706665 1.74151611 C-6.16436548 1.40313343 -5.49166431 1.06475075 -4.79857826 0.71611404 C-3 0 -3 0 0 0 Z " fill="#90D7F9" transform="translate(373,77)"/>
<path d="M0 0 C1.02891357 0.52468369 2.05782715 1.04936737 3.11791992 1.58995056 C4.78052353 2.41687157 4.78052353 2.41687157 6.47671509 3.26049805 C9.49403614 4.76486274 12.50460459 6.28137079 15.51262236 7.80416822 C18.66953961 9.39901437 21.83397963 10.97880089 24.99746704 12.56056213 C30.30282428 15.21601609 35.60273411 17.88208238 40.89916992 20.55528259 C47.01961381 23.64428859 53.14691401 26.7193133 59.27839887 29.78633916 C65.81730769 33.0572558 72.35160139 36.33730412 78.88431215 39.62057924 C80.76379533 40.56449716 82.64407489 41.50681243 84.52451706 42.44881821 C88.02549522 44.20340302 91.52120819 45.96831205 95.01635742 47.73448181 C96.57794586 48.51543465 96.57794586 48.51543465 98.17108154 49.31216431 C99.12141266 49.79444992 100.07174377 50.27673553 101.0508728 50.77363586 C101.87709326 51.18990927 102.70331371 51.60618267 103.55457115 52.03507042 C105.64423853 53.27107641 107.13625137 54.42159414 108.67895508 56.29161072 C108.67895508 56.95161072 108.67895508 57.61161072 108.67895508 58.29161072 C93.47866437 66.00872882 78.266908 73.7026905 63.04120827 81.36954498 C55.97138389 84.93020266 48.90547221 88.49823876 41.84838867 92.08409119 C35.695047 95.21070934 29.53472511 98.32304328 23.36572874 101.41866636 C20.10161966 103.05722059 16.84136067 104.70254893 13.58937454 106.36505127 C9.9524994 108.22398381 6.30038276 110.05083904 2.64624023 111.87559509 C1.57880585 112.42728867 0.51137146 112.97898224 -0.58840942 113.5473938 C-7.5724893 116.99174546 -13.98266959 119.09160011 -21.63394928 116.51174736 C-23.8358092 115.56943761 -25.90254621 114.48525671 -28.00073242 113.33067322 C-28.79900452 112.91331909 -29.59727661 112.49596497 -30.41973877 112.06596375 C-33.02184219 110.70093103 -35.60833435 109.308703 -38.19604492 107.91661072 C-40.01754672 106.95671143 -41.84032091 105.99922306 -43.66430664 105.04405212 C-46.46329925 103.57778147 -49.26137582 102.10999063 -52.05557251 100.63459778 C-61.12116174 95.84779822 -70.26943451 91.23605233 -79.44604492 86.66661072 C-80.94435458 85.91819425 -82.44264581 85.16974091 -83.94091797 84.42124939 C-93.1564698 79.82523348 -102.42084179 75.34195547 -111.73193359 70.94224548 C-120.06831573 66.98463226 -128.21471097 62.69840971 -136.32104492 58.29161072 C-136.32104492 57.30161072 -136.32104492 56.31161072 -136.32104492 55.29161072 C-131.05354525 50.70848876 -123.75342642 47.8684798 -117.54638672 44.78282166 C-115.97178429 43.99409668 -115.97178429 43.99409668 -114.3653717 43.18943787 C-110.91894038 41.46438007 -107.46967752 39.74507089 -104.02026367 38.02598572 C-101.61735125 36.82512594 -99.21457829 35.62399078 -96.81196594 34.42253113 C-91.78925304 31.9116413 -86.76500808 29.40383992 -81.73974609 26.89805603 C-75.93135679 24.00174631 -70.12508678 21.1012245 -64.31999463 18.19831252 C-58.7242448 15.40013256 -53.12735626 12.60423865 -47.52982521 9.80962372 C-45.1512635 8.62193616 -42.77294531 7.43376079 -40.39487267 6.2450943 C-37.08049413 4.58898539 -33.76481379 2.93551379 -30.44873047 1.28282166 C-29.4622049 0.78933228 -28.47567932 0.2958429 -27.45925903 -0.21260071 C-26.55796768 -0.66111389 -25.65667633 -1.10962708 -24.72807312 -1.57173157 C-23.94479991 -1.96253025 -23.1615267 -2.35332893 -22.35451794 -2.75597 C-14.35101257 -6.50457781 -7.43071332 -3.66174133 0 0 Z " fill="#E3F5FE" transform="translate(263.321044921875,18.708389282226563)"/>
<path d="M0 0 C4.00197931 -0.09885949 8.00383074 -0.16196291 12.00671387 -0.21417236 C13.62614395 -0.25629601 13.62614395 -0.25629601 15.27828979 -0.29927063 C21.07318118 -0.33139228 24.48584498 0.14968101 29.03015137 4.12567139 C30.69836426 5.77874756 30.69836426 5.77874756 32.00280762 7.41864014 C32.5028833 8.0398877 33.00295898 8.66113525 33.51818848 9.3012085 C34.03776123 9.96515625 34.55733398 10.629104 35.09265137 11.31317139 C35.9329187 12.36613403 35.9329187 12.36613403 36.79016113 13.44036865 C41.30390099 19.12431401 45.69516995 24.90172893 50.07653809 30.68792725 C54.57000477 36.59530392 59.26235133 42.3200319 64.00598145 48.02728271 C68.31445044 53.22213414 72.45556101 58.51700354 76.54187012 63.88739014 C79.29428893 67.49114107 82.12794685 71.02803827 84.96765137 74.56317139 C89.88576863 80.68867853 94.77920935 86.8319452 99.60827637 93.02801514 C101.06144148 94.88666019 102.52644455 96.73626831 104.01452637 98.56707764 C104.82663574 99.58608154 104.82663574 99.58608154 105.65515137 100.62567139 C106.10116699 101.17223389 106.54718262 101.71879639 107.00671387 102.28192139 C108.4038914 104.79897403 108.60291032 107.29908671 109.03015137 110.12567139 C96.00578967 110.52233141 82.98128263 110.91380815 69.95658016 111.29912567 C63.90510006 111.47830343 57.85367832 111.65909783 51.80236816 111.84393311 C36.21271399 112.31916241 20.62269542 112.75645674 5.03015137 113.12567139 C4.13553444 113.14766602 3.24091751 113.16966064 2.31919098 113.19232178 C-2.28715134 113.30392802 -6.89269179 113.3960294 -11.50015068 113.44496155 C-13.38918284 113.46846629 -15.27795339 113.51072283 -17.16664124 113.55377197 C-24.62257344 113.58791351 -28.20052488 112.85880216 -33.54626465 107.56439209 C-33.93483643 107.06512207 -34.3234082 106.56585205 -34.72375488 106.05145264 C-35.40607178 105.18737793 -35.40607178 105.18737793 -36.10217285 104.30584717 C-36.57413086 103.68951416 -37.04608887 103.07318115 -37.53234863 102.43817139 C-38.04555664 101.7831665 -38.55876465 101.12816162 -39.08752441 100.45330811 C-43.43578024 94.88338065 -47.69507671 89.24391546 -51.9654541 83.61419678 C-56.48007713 77.69253191 -61.18799622 71.94755978 -65.94763184 66.22210693 C-70.23468373 61.05406378 -74.34410628 55.78454291 -78.40734863 50.43817139 C-81.36548369 46.57850945 -84.45148567 42.82502521 -87.53234863 39.06317139 C-92.10117851 33.4762474 -96.54268942 27.83385612 -100.82141113 22.02020264 C-102.37391448 19.92855722 -103.94522247 17.87062834 -105.55578613 15.82489014 C-105.98020996 15.27929443 -106.40463379 14.73369873 -106.84191895 14.17156982 C-108.02699703 12.65027317 -109.22082156 11.13580166 -110.41516113 9.62176514 C-110.92820801 8.7980542 -111.44125488 7.97434326 -111.96984863 7.12567139 C-111.63984863 6.13567139 -111.30984863 5.14567139 -110.96984863 4.12567139 C-108.73583447 3.0086643 -107.4494989 2.96367738 -104.96951294 2.89152527 C-104.13215607 2.86490814 -103.29479919 2.83829102 -102.43206787 2.81086731 C-101.51077087 2.78641037 -100.58947388 2.76195343 -99.64025879 2.73675537 C-98.67057159 2.70734863 -97.7008844 2.67794189 -96.70181274 2.64764404 C-93.4709652 2.55096632 -90.23996668 2.46120152 -87.00891113 2.37176514 C-84.74713296 2.30622836 -82.48536345 2.24039217 -80.22360229 2.17427063 C-75.45696969 2.03598732 -70.69025694 1.90105679 -65.92346191 1.76849365 C-59.89644787 1.60067001 -53.86968879 1.42514321 -47.84296036 1.24739647 C-34.48460181 0.85451288 -21.12574833 0.49884958 -7.76515198 0.19106293 C-5.17667851 0.13050983 -2.58834548 0.06575662 0 0 Z " fill="#E3F5FE" transform="translate(402.9698486328125,233.87432861328125)"/>
<path d="M0 0 C2.10455499 1.03011399 4.20051917 2.0778955 6.2893219 3.1395874 C7.43980515 3.70862289 8.59028839 4.27765839 9.77563477 4.86393738 C12.91490425 6.41754326 16.04380939 7.99101201 19.17080951 9.56913853 C22.44856651 11.2200427 25.73429737 12.85493918 29.01882935 14.49230957 C34.52781459 17.24182156 40.03007255 20.00444103 45.52857971 22.77484131 C51.8874404 25.97850633 58.25680639 29.16046525 64.63211292 32.33126092 C70.76923697 35.38427752 76.89837691 38.45300258 83.02411079 41.52880096 C85.6303403 42.83702548 88.23930363 44.13954879 90.85062981 45.43756866 C94.49076504 47.24797378 98.1189599 49.08112929 101.74635315 50.91693115 C102.83357666 51.45424362 103.92080017 51.99155609 105.04096985 52.54515076 C106.02365341 53.0470845 107.00633698 53.54901825 108.01879883 54.06616211 C108.87765906 54.49756123 109.7365193 54.92896034 110.6214056 55.37343216 C112.56495667 56.78704834 112.56495667 56.78704834 113.34909153 58.95710373 C113.42032702 59.56098545 113.49156252 60.16486717 113.56495667 60.78704834 C98.49346256 68.33446869 83.42082829 75.87960645 68.34682751 83.422019 C61.34794801 86.92403836 54.34944559 90.42680736 47.3518219 93.93133545 C41.25364462 96.98540322 35.15476868 100.03807041 29.05504495 103.08904845 C25.82447122 104.70498789 22.5942549 106.32163285 19.36487389 107.93995476 C15.7623253 109.74524731 12.15822066 111.54741154 8.55397034 113.3493042 C7.4800705 113.88805176 6.40617065 114.42679932 5.29972839 114.98187256 C4.31956253 115.47126816 3.33939667 115.96066376 2.32952881 116.46488953 C1.05054104 117.10507475 1.05054104 117.10507475 -0.25428486 117.75819302 C-4.64665974 119.83046206 -8.63776522 120.31562318 -13.43504333 119.78704834 C-15.99548697 118.8083947 -18.14172811 117.83689202 -20.51316833 116.52923584 C-21.20594376 116.16606766 -21.89871918 115.80289948 -22.61248779 115.4287262 C-24.15364036 114.61932617 -25.6910238 113.80272006 -27.22511292 112.98001099 C-31.6444234 110.61226672 -36.09428265 108.30294644 -40.54051208 105.98626709 C-41.55995407 105.45352676 -42.57939606 104.92078644 -43.62973022 104.37190247 C-59.768045 95.96799456 -76.08270296 87.90789897 -92.36495972 79.78775787 C-96.73898111 77.60586836 -101.11186193 75.42169545 -105.48484802 73.23773193 C-113.80042368 69.08518526 -122.11727754 64.93520613 -130.43504333 60.78704834 C-130.43504333 59.46704834 -130.43504333 58.14704834 -130.43504333 56.78704834 C-111.08076452 46.51599774 -91.53204975 36.63994549 -71.95620441 26.7993145 C-66.25440586 23.93303395 -60.556026 21.06036019 -54.86497498 18.17279053 C-49.30638321 15.35257711 -43.74013384 12.5480699 -38.16806602 9.75458145 C-36.05902078 8.69394499 -33.95273199 7.62780824 -31.84934425 6.55599594 C-28.91947711 5.06438123 -25.98018925 3.59317955 -23.03782654 2.12640381 C-22.18006622 1.68392807 -21.32230591 1.24145233 -20.43855286 0.78556824 C-12.85957192 -2.94557661 -7.73323786 -3.42925327 0 0 Z " fill="#E3F5FE" transform="translate(133.43504333496094,228.21295166015625)"/>
<path d="M0 0 C3.04263267 -0.10845027 6.08136204 -0.18752063 9.125 -0.25 C9.9809375 -0.28351563 10.836875 -0.31703125 11.71875 -0.3515625 C17.37169794 -0.43853093 20.59896916 0.12186391 25 4 C27.16149671 6.29326016 29.12107251 8.70660312 31.0625 11.1875 C31.90276733 12.24046265 31.90276733 12.24046265 32.76000977 13.31469727 C37.27374963 18.99864263 41.66501858 24.77605755 46.04638672 30.56225586 C50.5398534 36.46963253 55.23219996 42.19436051 59.97583008 47.90161133 C64.28429907 53.09646276 68.42540964 58.39133215 72.51171875 63.76171875 C75.26413756 67.36546968 78.09779548 70.90236689 80.9375 74.4375 C85.85561726 80.56300714 90.74905798 86.70627381 95.578125 92.90234375 C97.03129011 94.7609888 98.49629318 96.61059693 99.984375 98.44140625 C100.79648437 99.46041016 100.79648437 99.46041016 101.625 100.5 C102.07101562 101.0465625 102.51703125 101.593125 102.9765625 102.15625 C104.37374003 104.67330265 104.57275895 107.17341532 105 110 C91.9756383 110.39666003 78.95113126 110.78813676 65.92642879 111.17345428 C59.87494869 111.35263204 53.82352695 111.53342644 47.7722168 111.71826172 C32.18256262 112.19349103 16.59254406 112.63078535 1 113 C0.10538307 113.02199463 -0.78923386 113.04398926 -1.71096039 113.06665039 C-6.31730271 113.17825663 -10.92284316 113.27035802 -15.53030205 113.31929016 C-17.41933421 113.3427949 -19.30810476 113.38505144 -21.1967926 113.42810059 C-27.46809142 113.45681756 -31.26871373 113.27520601 -36 109 C-38.5546875 106.2734375 -38.5546875 106.2734375 -40.875 103.375 C-41.65617187 102.41335938 -42.43734375 101.45171875 -43.2421875 100.4609375 C-45 98 -45 98 -45 96 C-43.58537224 95.96574669 -43.58537224 95.96574669 -42.14216614 95.93080139 C-33.15707818 95.71291754 -24.17205744 95.49242086 -15.18709278 95.26950932 C-10.57031503 95.15504999 -5.95351994 95.04144127 -1.33666992 94.92993164 C9.73681165 94.66197265 20.80955493 94.3754815 31.88176727 94.05924225 C33.83632102 94.00457774 35.79099048 93.95409363 37.7456665 93.9039917 C40.74392802 93.82434201 43.74086015 93.72720604 46.73828125 93.62109375 C47.54154343 93.60264908 48.3448056 93.58420441 49.17240906 93.56520081 C53.56233152 93.38231425 56.49969492 92.71345688 60 90 C61.58324757 86.83350487 61.64374236 83.42541806 61 80 C58.17466727 75.18622219 54.6141991 70.97344458 51.0625 66.6875 C46.4259654 61.04165175 41.90970923 55.32459995 37.5 49.5 C32.70322361 43.1713522 27.77681954 36.96908868 22.74755859 30.82397461 C18.24526009 25.31956925 13.83059609 19.75160291 9.45703125 14.14453125 C7.90222259 12.15467279 6.33823291 10.17192496 4.76171875 8.19921875 C3.79685547 6.98685547 3.79685547 6.98685547 2.8125 5.75 C2.26207031 5.06421875 1.71164062 4.3784375 1.14453125 3.671875 C0 2 0 2 0 0 Z " fill="#D3EFFB" transform="translate(407,234)"/>
<path d="M0 0 C1.1084024 0.55128067 2.21680481 1.10256134 3.35879517 1.67054749 C6.37611622 3.17491218 9.38668467 4.69142022 12.39470243 6.21421766 C15.55161969 7.8090638 18.71605971 9.38885033 21.87954712 10.97061157 C27.18490436 13.62606553 32.48481419 16.29213182 37.78125 18.96533203 C43.90169389 22.05433803 50.02899408 25.12936274 56.16047895 28.1963886 C62.69938777 31.46730524 69.23368147 34.74735355 75.76639223 38.03062868 C77.64587541 38.97454659 79.52615497 39.91686187 81.40659714 40.85886765 C84.90757529 42.61345246 88.40328827 44.37836149 91.8984375 46.14453125 C93.46002594 46.92548409 93.46002594 46.92548409 95.05316162 47.72221375 C96.00349274 48.20449936 96.95382385 48.68678497 97.93295288 49.1836853 C98.75917334 49.59995871 99.58539379 50.01623211 100.43665123 50.44511986 C102.5263186 51.68112585 104.01833145 52.83164358 105.56103516 54.70166016 C105.56103516 55.36166016 105.56103516 56.02166016 105.56103516 56.70166016 C90.36074444 64.41877826 75.14898808 72.11273994 59.92328835 79.77959442 C52.85346397 83.3402521 45.78755228 86.9082882 38.73046875 90.49414062 C32.57712708 93.62075878 26.41680519 96.73309271 20.24780881 99.8287158 C16.98369974 101.46727003 13.72344075 103.11259837 10.47145462 104.77510071 C6.83457948 106.63403325 3.18246284 108.46088848 -0.47167969 110.28564453 C-1.53911407 110.8373381 -2.60654846 111.38903168 -3.70632935 111.95744324 C-10.61305942 115.36364815 -17.04118252 117.51022237 -24.62650108 114.96871185 C-26.51865646 114.15289256 -28.27568433 113.22409868 -30.06396484 112.20166016 C-30.68658203 111.86779297 -31.30919922 111.53392578 -31.95068359 111.18994141 C-33.4568415 110.3789333 -34.94951651 109.54296239 -36.43896484 108.70166016 C-32.79297332 105.68184611 -28.75728128 103.73735803 -24.53686523 101.66088867 C-23.74451981 101.26697937 -22.95217438 100.87307007 -22.13581848 100.46722412 C-20.41901825 99.6142937 -18.70131152 98.76318601 -16.98280525 97.9136982 C-14.26127102 96.56803203 -11.54245545 95.21701481 -8.82432556 93.86448669 C-1.09686252 90.02061528 6.63563253 86.18691211 14.36938477 82.35571289 C19.10327638 80.01014296 23.83421838 77.65870889 28.56347847 75.30381584 C30.36401026 74.40882779 32.16570389 73.51617313 33.96858025 72.62591743 C36.4916507 71.38000737 39.01093436 70.12672961 41.52954102 68.87182617 C42.27204102 68.50754013 43.01454102 68.14325409 43.77954102 67.76792908 C50.73804045 64.4341784 50.73804045 64.4341784 55.56103516 58.70166016 C55.91735238 54.92469759 56.07497959 52.54628312 54.07476807 49.2591095 C50.7688783 45.89572687 47.23914055 44.14396745 43.02880859 42.0949707 C42.16991028 41.66508347 41.31101196 41.23519623 40.42608643 40.7922821 C37.59640228 39.37952375 34.75860991 37.98393964 31.92041016 36.58837891 C29.95262357 35.61008303 27.98536551 34.63072341 26.01861572 33.65034485 C20.84861486 31.07678161 15.67156851 28.51771625 10.49291992 25.96160889 C5.20660448 23.34917613 -0.07291681 20.72308913 -5.35302734 18.09814453 C-15.70840437 12.95260032 -26.07127624 7.82234739 -36.43896484 2.70166016 C-33.68271684 -0.20810811 -30.93464923 -1.78507511 -27.31396484 -3.54833984 C-26.23888672 -4.08974609 -25.16380859 -4.63115234 -24.05615234 -5.18896484 C-15.15796345 -7.91799902 -7.89587919 -4.02642078 0 0 Z " fill="#D3EFFB" transform="translate(266.43896484375,20.29833984375)"/>
<path d="M0 0 C1.15048325 0.56903549 2.30096649 1.13807098 3.48631287 1.72434998 C6.62558235 3.27795585 9.75448749 4.85142461 12.88148761 6.42955112 C16.15924461 8.0804553 19.44497547 9.71535178 22.72950745 11.35272217 C28.2384927 14.10223415 33.74075065 16.86485363 39.23925781 19.63525391 C45.5981185 22.83891893 51.96748449 26.02087785 58.34279102 29.19167352 C64.47991507 32.24469012 70.60905502 35.31341518 76.73478889 38.38921356 C79.3410184 39.69743808 81.94998174 40.99996139 84.56130791 42.29798126 C88.20144315 44.10838637 91.829638 45.94154189 95.45703125 47.77734375 C96.54425476 48.31465622 97.63147827 48.85196869 98.75164795 49.40556335 C99.73433151 49.9074971 100.71701508 50.40943085 101.72947693 50.92657471 C102.58833716 51.35797382 103.4471974 51.78937294 104.3320837 52.23384476 C106.27563477 53.64746094 106.27563477 53.64746094 107.05976963 55.81751633 C107.13100513 56.42139805 107.20224062 57.02527977 107.27563477 57.64746094 C92.20414066 65.19488128 77.13150639 72.74001905 62.05750561 80.2824316 C55.05862611 83.78445095 48.06012369 87.28721996 41.0625 90.79174805 C34.96432272 93.84581582 28.86544678 96.89848301 22.76572305 99.94946104 C19.53514932 101.56540049 16.304933 103.18204545 13.07555199 104.80036736 C9.4730034 106.60565991 5.86889876 108.40782414 2.26464844 110.2097168 C1.1907486 110.74846436 0.11684875 111.28721191 -0.98959351 111.84228516 C-1.96975937 112.33168076 -2.94992523 112.82107635 -3.95979309 113.32530212 C-5.23878086 113.96548735 -5.23878086 113.96548735 -6.54360676 114.61860561 C-10.96244956 116.7033619 -14.91603725 117.57019854 -19.72436523 116.64746094 C-24.54420344 114.57663894 -29.13135403 112.17619745 -33.72436523 109.64746094 C-30.25936562 105.62116169 -26.31394629 103.68979276 -21.62280273 101.41723633 C-20.80934387 101.01503372 -19.99588501 100.61283112 -19.15777588 100.19844055 C-17.39599994 99.32848769 -15.63241788 98.46218497 -13.86724854 97.59913826 C-11.07252558 96.2319875 -8.28331197 94.85415485 -5.49536133 93.47325134 C2.43057074 89.55000121 10.36650822 85.64716933 18.30493164 81.74926758 C23.164524 79.36220158 28.01820408 76.96344772 32.86859131 74.55773735 C34.71624474 73.64447142 36.56621474 72.73587661 38.41851807 71.83207893 C41.00922669 70.56794462 43.59222678 69.28919679 46.17407227 68.00708008 C46.93886902 67.63860962 47.70366577 67.27013916 48.49163818 66.89050293 C52.76600664 64.74585498 55.65073519 62.80457629 58.27563477 58.64746094 C58.87715798 55.03832163 58.72047489 53.36003798 56.77764893 50.24787903 C53.48999489 46.83092194 49.97436084 45.09980348 45.7434082 43.04077148 C44.88450989 42.61088425 44.02561157 42.18099701 43.14068604 41.73808289 C40.31100189 40.32532453 37.47320952 38.92974042 34.63500977 37.53417969 C32.66722318 36.55588381 30.69996512 35.57652419 28.73321533 34.59614563 C23.56321447 32.02258239 18.38616812 29.46351704 13.20751953 26.90740967 C7.92120409 24.29497691 2.6416828 21.66888991 -2.63842773 19.04394531 C-12.99380476 13.8984011 -23.35667663 8.76814817 -33.72436523 3.64746094 C-33.72436523 2.98746094 -33.72436523 2.32746094 -33.72436523 1.64746094 C-31.56712121 0.45976479 -29.40127433 -0.70188711 -27.22436523 -1.85253906 C-26.62366211 -2.18640625 -26.02295898 -2.52027344 -25.40405273 -2.86425781 C-24.79819336 -3.18007812 -24.19233398 -3.49589844 -23.56811523 -3.82128906 C-23.02348633 -4.11455078 -22.47885742 -4.4078125 -21.91772461 -4.70996094 C-13.50229862 -7.1753885 -7.40896607 -3.76581243 0 0 Z " fill="#D2EEFB" transform="translate(139.724365234375,231.3525390625)"/>
<path d="M0 0 C3.74013152 0.95900808 5.17767731 2.5258146 7.4375 5.625 C8.19838184 8.69896264 7.95612153 10.35768437 7.4375 13.625 C4.89517292 16.61597304 3.2800303 17.46702557 -0.5625 18.1875 C-4.69857554 17.41198584 -6.11249553 16.01177089 -8.5625 12.625 C-9.25 9.125 -9.25 9.125 -8.5625 5.625 C-5.86037215 2.67151142 -3.9169298 0.95534873 0 0 Z " fill="#75CEF9" transform="translate(306.5625,192.375)"/>
<path d="M0 0 C3.00342896 2.05497771 3.83287356 3.47633714 4.9375 6.9375 C5.01221891 10.59872681 4.21363944 12.1304674 2 15 C-1.13871188 16.56935594 -3.53855822 16.35201103 -7 16 C-10 13.9375 -10 13.9375 -12 11 C-12.06944397 7.04169355 -11.5699479 4.85492184 -9.375 1.5625 C-6.0382229 -0.63274809 -3.91451456 -0.55921637 0 0 Z " fill="#75CEF9" transform="translate(342,182)"/>
<path d="M0 0 C2.5625 2.0625 2.5625 2.0625 4 5 C4 8.95524221 3.56831266 11.17910394 1.3125 14.4375 C-1.75578596 16.51066619 -3.35973134 16.59432958 -7 16 C-10.73400421 13.92555322 -11.78947087 12.64328346 -13.125 8.5625 C-13 5 -13 5 -11.0625 2.0625 C-6.84415924 -0.77842337 -5.01492456 -0.79601977 0 0 Z " fill="#75CEF9" transform="translate(343,150)"/>
</svg>
