<?xml version="1.0" encoding="UTF-8"?>
<svg version="1.1" xmlns="http://www.w3.org/2000/svg" width="512" height="512">
<path d="M0 0 C1.11093018 0.55582764 2.22186035 1.11165527 3.36645508 1.68432617 C4.26960197 2.13409065 4.26960197 2.13409065 5.19099426 2.59294128 C6.45300737 3.22443424 7.7125711 3.86084426 8.96972656 4.50195312 C10.88512007 5.47685401 12.8094243 6.43210084 14.7355957 7.38549805 C15.96729232 8.00479485 17.19843226 8.62520033 18.42895508 9.24682617 C19.53650146 9.8060376 20.64404785 10.36524902 21.78515625 10.94140625 C24.61958158 12.61811859 26.62589128 14.11304821 28.69848633 16.66479492 C28.85897461 18.39536133 28.85897461 18.39536133 29.02270508 20.16088867 C29.34375925 23.92559438 29.34375925 23.92559438 32.71801758 25.94995117 C33.96922844 26.56961104 35.23449801 27.16153477 36.51098633 27.72729492 C37.14069336 28.04633789 37.77040039 28.36538086 38.41918945 28.6940918 C40.49398614 29.72645537 40.49398614 29.72645537 43.69848633 30.66479492 C45.82318423 29.98012037 45.82318423 29.98012037 47.69848633 28.66479492 C52.81411748 26.96208485 55.76104651 28.22202571 60.37524414 30.47338867 C61.26566406 30.92842773 62.15608398 31.3834668 63.07348633 31.85229492 C64.02578125 32.3240918 64.97807617 32.79588867 65.95922852 33.28198242 C68.19510891 34.39272337 70.42721697 35.51107478 72.65649414 36.63500977 C76.52274305 38.58254867 80.40489024 40.49707546 84.28860474 42.40950012 C87.93073171 44.20378537 91.5695256 46.00475643 95.20758057 47.80728149 C97.03338889 48.71156625 98.8598455 49.61454327 100.68695068 50.51620483 C103.28247421 51.79911921 105.87377911 53.09018719 108.46411133 54.38354492 C109.25067108 54.77069168 110.03723083 55.15783844 110.84762573 55.55671692 C111.57474762 55.92173813 112.30186951 56.28675934 113.05102539 56.6628418 C113.68558655 56.97829956 114.32014771 57.29375732 114.97393799 57.61877441 C117.49887777 59.15027036 119.3189725 60.52797104 120.27437878 63.38986588 C120.79727786 66.19471644 120.82119328 68.8339029 120.81874084 71.6885376 C120.82080284 73.53948532 120.82080284 73.53948532 120.82290649 75.42782593 C120.8193676 76.79229761 120.8157328 78.15676904 120.81201172 79.52124023 C120.8117296 80.96023558 120.81188806 82.39923106 120.81245422 83.83822632 C120.81274123 87.74283621 120.80686004 91.64741541 120.79988027 95.55201817 C120.79363072 99.63328966 120.79304166 103.71456186 120.79185486 107.7958374 C120.78874627 115.52347505 120.78053923 123.25109855 120.77050537 130.97872996 C120.75932958 139.77671868 120.75383008 148.57470807 120.74880993 157.37270212 C120.73835624 175.47007441 120.72076593 193.56743353 120.69848633 211.66479492 C121.27620285 211.65591248 121.85391937 211.64703003 122.44914246 211.63787842 C128.46745907 211.5493156 134.48559027 211.4890237 140.50439453 211.44506836 C142.74991374 211.42496552 144.99538068 211.39767887 147.24072266 211.36303711 C150.47026473 211.31446182 153.69911407 211.29181255 156.92895508 211.27416992 C158.43234688 211.24320221 158.43234688 211.24320221 159.96611023 211.21160889 C166.95162738 211.20936511 166.95162738 211.20936511 170.71484375 213.50415039 C173.23173221 216.24562275 175.57532296 219.07761553 177.82348633 222.03979492 C178.79734127 223.30029147 179.77130252 224.5607059 180.74536133 225.82104492 C181.23713867 226.46170898 181.72891602 227.10237305 182.2355957 227.76245117 C184.49657531 230.70263027 186.7830537 233.62253345 189.07348633 236.53979492 C189.52087158 237.11060791 189.96825684 237.6814209 190.42919922 238.26953125 C193.9889792 242.79736017 197.61773327 247.26650546 201.26098633 251.72729492 C205.16527523 256.50872113 209.01723749 261.3190264 212.76098633 266.22729492 C216.32732391 270.90162088 219.95455098 275.51813213 223.63598633 280.10229492 C228.90538381 286.6638052 234.11922273 293.26663569 239.30883789 299.89135742 C241.74882734 303.00521606 244.19243224 306.11623338 246.63598633 309.22729492 C247.08466064 309.79907471 247.53333496 310.37085449 247.99560547 310.95996094 C249.92721142 313.41979453 251.8115239 315.77897621 254.01489258 318.00463867 C256.53201219 321.98180446 256.56521124 325.08402847 255.69848633 329.66479492 C254.13397939 333.94389657 252.0988888 337.93242724 250.01098633 341.97729492 C249.12304131 343.7528154 248.23516016 345.52837078 247.35079956 347.30567932 C246.73784447 348.53669559 246.12284942 349.76669807 245.50588989 350.99571228 C243.29174198 355.41842391 241.17705378 359.87957894 239.11645508 364.37573242 C238.82789139 365.00483017 238.5393277 365.63392792 238.24201965 366.28208923 C236.85575591 369.31025389 235.47675749 372.34156322 234.10205078 375.375 C232.67240917 378.49207995 231.20730748 381.58534167 229.69848633 384.66479492 C229.28985352 385.50220215 228.8812207 386.33960938 228.46020508 387.20239258 C227.33463774 389.26791864 226.35229279 390.99154598 224.69848633 392.66479492 C223.53188477 392.82850586 222.3652832 392.9922168 221.16333008 393.16088867 C217.7399934 393.26735633 217.7399934 393.26735633 216.39038086 395.21606445 C215.21811955 397.34749489 214.21776259 399.4909975 213.26098633 401.72729492 C212.73601562 402.86521484 212.73601562 402.86521484 212.20043945 404.02612305 C211.34246902 405.89485317 210.51721018 407.77854022 209.69848633 409.66479492 C210.19348633 410.15979492 210.68848633 410.65479492 211.19848633 411.16479492 C213.36173988 414.77021751 213.49139884 417.64200035 212.69848633 421.66479492 C210.95890349 426.2160291 208.78652161 430.51522687 206.57348633 434.85229492 C205.42400293 437.15776333 204.27556235 439.46375197 203.12817383 441.77026367 C202.55808594 442.90125488 201.98799805 444.03224609 201.40063477 445.19750977 C199.15214325 449.77769859 197.09575528 454.43143042 195.06225586 459.11132812 C193.69848633 461.66479492 193.69848633 461.66479492 190.69848633 463.66479492 C188.02871704 464.05235291 188.02871704 464.05235291 184.61889648 464.24267578 C183.97180033 464.2792652 183.32470417 464.31585463 182.65799904 464.35355282 C171.77236041 464.92391696 160.86784648 465.13930865 149.97192383 465.41870117 C147.491012 465.48431918 145.01010592 465.55015459 142.52920532 465.61619568 C137.35358321 465.75333204 132.17791364 465.88844217 127.00219727 466.02197266 C120.39775064 466.19244284 113.79342289 466.36709352 107.18912315 466.54315281 C102.07424411 466.67919705 96.95931993 466.81347574 91.84437943 466.94718742 C89.41012056 467.01094381 86.97587293 467.07513067 84.54163742 467.13977242 C78.12566978 467.30947758 71.70973727 467.46381894 65.29296112 467.59941483 C62.99676946 467.65727826 60.70437479 467.74322643 58.409729 467.84347534 C57.25801208 467.87982086 56.10629517 467.91616638 54.91967773 467.95361328 C54.00086823 467.99441513 53.08205872 468.03521698 52.13540649 468.07725525 C46.3301588 467.09468947 42.93501467 461.71913904 39.57348633 457.28979492 C38.60095971 456.03058021 37.62829976 454.77146846 36.65551758 453.51245117 C36.16390137 452.87194824 35.67228516 452.23144531 35.16577148 451.5715332 C32.88471027 448.60729226 30.57341997 445.6670844 28.26098633 442.72729492 C27.81102295 442.15390381 27.36105957 441.5805127 26.89746094 440.98974609 C23.50457699 436.67158478 20.07454321 432.38412611 16.63598633 428.10229492 C11.22562961 421.36377353 5.93701217 414.53746267 0.69848633 407.66479492 C0.67270508 408.41245117 0.64692383 409.16010742 0.62036133 409.93041992 C0.56364258 410.91526367 0.50692383 411.90010742 0.44848633 412.91479492 C0.40208008 413.88932617 0.35567383 414.86385742 0.30786133 415.86791992 C-0.45344396 419.36211598 -1.63728369 420.32573363 -4.30151367 422.66479492 C-6.67947102 424.11243916 -6.67947102 424.11243916 -9.36701965 425.46833801 C-10.38892899 425.98854523 -11.41083832 426.50875244 -12.4637146 427.04472351 C-13.57912628 427.6023085 -14.69453796 428.15989349 -15.84375 428.734375 C-17.03525602 429.33693575 -18.2264354 429.94014279 -19.41731262 430.54394531 C-22.64491629 432.17750967 -25.87764771 433.80065819 -29.11191773 435.42097688 C-31.13369034 436.43439906 -33.15435775 437.44999058 -35.17465782 438.46634483 C-42.22652572 442.0137594 -49.28268752 445.55246691 -56.34277344 449.08349609 C-62.91844415 452.37254927 -69.4841424 455.68091717 -76.0455454 458.99832803 C-81.68514849 461.84856286 -87.33161039 464.68487243 -92.98355502 467.51055449 C-96.3566227 469.19722987 -99.72662424 470.88943275 -103.08976173 472.59583473 C-106.25267805 474.20007646 -109.42378737 475.78679302 -112.60195732 477.36058807 C-114.31826357 478.21586107 -116.02567074 479.08892013 -117.73272705 479.96250916 C-127.35397522 484.68838162 -127.35397522 484.68838162 -133.30151367 482.66479492 C-137.30760372 480.96592887 -141.18240717 479.05553471 -145.06420898 477.09106445 C-146.23084076 476.51052307 -147.39747253 475.92998169 -148.59945679 475.33184814 C-151.7856033 473.74587434 -154.96537844 472.14750532 -158.14396763 470.54645014 C-161.47585634 468.87042591 -164.81295808 467.20484143 -168.14935303 465.53781128 C-173.74781526 462.73855341 -179.34229058 459.93145705 -184.93432617 457.11938477 C-191.39786485 453.86914913 -197.86697204 450.63022744 -204.33930516 447.39754403 C-210.57160878 444.28454475 -216.80047681 441.16473488 -223.02761078 438.04140854 C-225.67565363 436.7133018 -228.3247755 435.38738409 -230.97476959 434.0631752 C-234.67222965 432.21496625 -238.36455341 430.35671806 -242.05639648 428.49731445 C-243.15670197 427.94862701 -244.25700745 427.39993958 -245.39065552 426.83462524 C-246.39436188 426.32709717 -247.39806824 425.81956909 -248.43218994 425.29666138 C-249.3052541 424.85826494 -250.17831825 424.41986851 -251.0778389 423.96818733 C-253.23768024 422.70221047 -254.74760188 421.6222545 -256.30151367 419.66479492 C-256.60260038 417.16472176 -256.72179899 414.91214927 -256.70556641 412.41113281 C-256.71242966 411.67584854 -256.71929291 410.94056427 -256.72636414 410.18299866 C-256.74467449 407.75095338 -256.7407887 405.31955063 -256.73510742 402.88745117 C-256.73966738 401.19738047 -256.74497239 399.50731162 -256.75099182 397.81724548 C-256.75993134 394.2739204 -256.75749052 390.73082059 -256.74755859 387.1875 C-256.73607064 382.64650416 -256.75627296 378.10628613 -256.78547573 373.56539249 C-256.80382214 370.07465168 -256.80354838 366.58409777 -256.79783821 363.09332085 C-256.79768479 361.41917264 -256.80374644 359.74501192 -256.81612968 358.0709095 C-256.83100825 355.72939408 -256.82038724 353.38932181 -256.80322266 351.04785156 C-256.81289063 350.35628967 -256.82255859 349.66472778 -256.83251953 348.95220947 C-256.78135028 345.61881943 -256.47918993 343.90198233 -254.45765686 341.20335388 C-252.30151367 339.66479492 -252.30151367 339.66479492 -249.30151367 339.66479492 C-249.30151367 333.39479492 -249.30151367 327.12479492 -249.30151367 320.66479492 C-250.95151367 320.00479492 -252.60151367 319.34479492 -254.30151367 318.66479492 C-256.79802057 316.16828802 -256.56581181 315.36057264 -256.60791016 311.91137695 C-256.62389755 310.92340118 -256.63988495 309.93542542 -256.65635681 308.91751099 C-256.66171951 307.84669281 -256.66708221 306.77587463 -256.67260742 305.67260742 C-256.68163589 304.57512177 -256.69066437 303.47763611 -256.69996643 302.34689331 C-256.71449466 300.02173603 -256.72336202 297.69653763 -256.72705078 295.37133789 C-256.73894316 291.81090456 -256.78810292 288.25220571 -256.83862305 284.69213867 C-256.84808715 282.43563674 -256.85532224 280.17912413 -256.86010742 277.92260742 C-256.8894059 276.32245285 -256.8894059 276.32245285 -256.91929626 274.68997192 C-256.87410454 267.29687575 -256.87410454 267.29687575 -253.95166016 264.07080078 C-252.63983765 263.37482788 -252.63983765 263.37482788 -251.30151367 262.66479492 C-249.83584961 261.79661133 -249.83584961 261.79661133 -248.34057617 260.91088867 C-242.07881038 257.59372899 -235.78309285 254.38910167 -229.37367249 251.36616516 C-211.59659486 242.98106062 -194.06146085 234.10195526 -176.49151611 225.29412842 C-172.05979921 223.0730712 -167.62688875 220.85439868 -163.1940918 218.63549805 C-154.5620927 214.3142036 -145.93137394 209.99035896 -137.30151367 205.66479492 C-137.30004711 204.93149837 -137.29858055 204.19820183 -137.29706955 203.44268417 C-137.26003263 185.60746876 -137.20105945 167.77244971 -137.11761093 149.93738937 C-137.07778602 141.31250441 -137.04541113 132.68771115 -137.03051758 124.06274414 C-137.01751888 116.54601162 -136.99060008 109.02948056 -136.94690061 101.51286149 C-136.9242454 97.53209214 -136.9086054 93.55157166 -136.90962982 89.57073212 C-136.91037406 85.82446761 -136.89251939 82.07875406 -136.86034584 78.33263206 C-136.85182109 76.95721384 -136.85011438 75.58173399 -136.85571098 74.20630074 C-136.86233249 72.32905747 -136.84210202 70.4517766 -136.82049561 68.574646 C-136.81496485 66.99837999 -136.81496485 66.99837999 -136.80932236 65.39027023 C-136.15993949 61.90494787 -135.05820553 60.84423627 -132.30151367 58.66479492 C-129.92355633 57.21715069 -129.92355633 57.21715069 -127.23600769 55.86125183 C-125.70314369 55.08094101 -125.70314369 55.08094101 -124.13931274 54.28486633 C-123.02390106 53.72728134 -121.90848938 53.16969635 -120.75927734 52.59521484 C-119.56777132 51.9926541 -118.37659195 51.38944706 -117.18571472 50.78564453 C-113.95811106 49.15208017 -110.72537963 47.52893165 -107.49110961 45.90861297 C-105.469337 44.89519078 -103.44866959 43.87959927 -101.42836952 42.86324501 C-94.37650163 39.31583044 -87.32033982 35.77712293 -80.26025391 32.24609375 C-73.68458319 28.95704058 -67.11888494 25.64867267 -60.55748194 22.33126181 C-54.91787885 19.48102699 -49.27141695 16.64471741 -43.61947232 13.81903535 C-40.24640465 12.13235998 -36.8764031 10.4401571 -33.51326561 8.73375511 C-30.35034929 7.12951339 -27.17923998 5.54279682 -24.00107002 3.96900177 C-22.28476377 3.11372878 -20.57735661 2.24066971 -18.87030029 1.36708069 C-11.37970617 -2.31223325 -7.81541894 -3.16072811 0 0 Z " fill="#010202" transform="translate(256.301513671875,15.335205078125)"/>
<path d="M0 0 C-1.96096644 6.42975734 -4.46477127 12.36689412 -7.44921875 18.3828125 C-8.30580843 20.14430283 -9.16191403 21.90602863 -10.01757812 23.66796875 C-11.3550859 26.40699167 -12.69676534 29.1437503 -14.04711914 31.87646484 C-15.36004091 34.53947328 -16.65568436 37.2103449 -17.94921875 39.8828125 C-18.35540939 40.69340118 -18.76160004 41.50398987 -19.18009949 42.33914185 C-21.45059694 47.06283499 -22.62083118 50.63501632 -22 56 C-21.01979625 57.0194119 -20.02196992 58.02246356 -19 59 C-19.40050004 63.54734417 -21.48993501 67.3274295 -23.5625 71.3125 C-23.89185547 71.95767578 -24.22121094 72.60285156 -24.56054688 73.26757812 C-25.36824255 74.84785228 -26.18337613 76.42432105 -27 78 C-27.9075 77.9175 -28.815 77.835 -29.75 77.75 C-33.00219904 77.69172955 -33.00219904 77.69172955 -34.99169922 79.60571289 C-37.35954479 82.42864767 -38.79973213 85.23071057 -40.3828125 88.55859375 C-40.68315399 89.18476089 -40.98349548 89.81092804 -41.29293823 90.45606995 C-42.24490827 92.44620204 -43.18488491 94.44174516 -44.125 96.4375 C-44.76358307 97.77444218 -45.40289916 99.11103449 -46.04296875 100.44726562 C-48.49376222 105.58441815 -50.90794403 110.70436267 -53 116 C-64.89028505 116.77634082 -76.76421601 117.25261452 -88.67578125 117.53515625 C-90.41961612 117.5783861 -92.1634464 117.62180156 -93.90727234 117.66539001 C-97.53506282 117.75542625 -101.16289463 117.84344751 -104.79077148 117.92993164 C-109.37891511 118.03943896 -113.96692463 118.15372009 -118.55491352 118.26950932 C-122.14912022 118.35972296 -125.7433836 118.44749439 -129.33766747 118.53457451 C-131.02650845 118.5757377 -132.71533323 118.61757289 -134.40413857 118.66017342 C-146.60491077 118.96589314 -158.79554411 119.04660127 -171 119 C-169.48639664 114.33296873 -167.66295626 109.94262274 -165.54296875 105.5234375 C-165.20396545 104.80933716 -164.86496216 104.09523682 -164.51568604 103.35949707 C-163.78803763 101.82748821 -163.05887631 100.29619718 -162.32833862 98.76556396 C-160.38375215 94.69079103 -158.45046631 90.61065678 -156.515625 86.53125 C-156.12712875 85.71292694 -155.73863251 84.89460388 -155.33836365 84.05148315 C-151.99819816 77.01090585 -148.70793489 69.94826616 -145.4375 62.875 C-140.85901644 52.98623204 -136.25316771 43.11074638 -131.61868286 33.24810791 C-130.92714033 31.77614477 -130.23610117 30.30394502 -129.54562378 28.83148193 C-128.57492415 26.76192726 -127.60218325 24.69334361 -126.62890625 22.625 C-126.07275635 21.44164062 -125.51660645 20.25828125 -124.94360352 19.0390625 C-122.37889 13.65197505 -119.67982206 8.33044923 -117 3 C-116.21692978 2.97716446 -115.43385956 2.95432892 -114.62705994 2.93080139 C-107.08731944 2.71084474 -99.54759296 2.49041499 -92.00788021 2.26950932 C-88.13571299 2.15607409 -84.26354136 2.04279494 -80.39135742 1.92993164 C-75.89500445 1.79885228 -71.39866987 1.6671531 -66.90234375 1.53515625 C-66.15787428 1.51334856 -65.41340481 1.49154087 -64.64637566 1.46907234 C-56.50411269 1.23010838 -48.36224001 0.9827981 -40.22094727 0.71264648 C-39.51667319 0.68938073 -38.81239912 0.66611498 -38.08678341 0.6421442 C-34.77631733 0.53256429 -31.46593553 0.42123063 -28.15562439 0.30702209 C-18.76712011 -0.00732864 -9.39272454 -0.11595956 0 0 Z " fill="#8FD6F7" transform="translate(492,348)"/>
<path d="M0 0 C4.56135539 0.62401307 8.31276059 2.4629311 12.36328125 4.53515625 C13.07292526 4.89210068 13.78256927 5.2490451 14.51371765 5.61680603 C16.78287102 6.75974226 19.04773198 7.91090256 21.3125 9.0625 C22.79203541 9.80980395 24.27185092 10.55655364 25.75195312 11.30273438 C28.70832341 12.7938602 31.66291983 14.28842365 34.61645508 15.78515625 C38.87079875 17.93859747 43.13787574 20.06595468 47.40625 22.19140625 C53.71210592 25.33542452 59.95986515 28.57851972 66.1875 31.875 C74.74647814 36.3822248 83.38765522 40.65699735 92.17456055 44.70263672 C92.98449463 45.0792041 93.79442871 45.45577148 94.62890625 45.84375 C95.33088135 46.16537109 96.03285645 46.48699219 96.75610352 46.81835938 C97.49658936 47.20830078 98.2370752 47.59824219 99 48 C100.0222316 48.43455505 101.0444632 48.86911011 102.09767151 49.3168335 C105.42723155 52.39497024 105.45872533 52.97928024 105.7215271 57.3024292 C105.73895791 59.57236067 105.72288513 61.84268995 105.68115234 64.11230469 C105.68246658 65.97123604 105.68246658 65.97123604 105.68380737 67.86772156 C105.68034371 71.26286404 105.65026594 74.65581585 105.60836363 78.05057049 C105.57084738 81.59926074 105.56733063 85.14798042 105.56021118 88.69683838 C105.54156469 95.41539551 105.49233126 102.13336663 105.43211424 108.85166574 C105.36504222 116.50086498 105.33205852 124.15009227 105.30194163 131.79951239 C105.23923128 147.53334761 105.13370116 163.26659823 105 179 C99.45463532 177.3668833 94.48253445 174.87890793 89.33862305 172.29077148 C88.38350327 171.81416077 87.42838348 171.33755005 86.44432068 170.84649658 C83.29815393 169.27526077 80.15489764 167.69829703 77.01171875 166.12109375 C74.8256515 165.02746399 72.63943624 163.93413006 70.45307922 162.84107971 C65.87820135 160.55285952 61.30467841 158.26196083 56.73217773 155.96899414 C50.85821759 153.02349724 44.98162031 150.08330895 39.10409832 147.14492702 C34.59361261 144.88954856 30.08417026 142.63209095 25.57508278 140.37391853 C23.40748032 139.28852186 21.23963218 138.20361571 19.07153893 137.11919975 C16.05147955 135.60809177 13.0327494 134.09436257 10.0144043 132.57983398 C8.65937805 131.90266075 8.65937805 131.90266075 7.27697754 131.21180725 C6.05104134 130.59564041 6.05104134 130.59564041 4.80033875 129.96702576 C4.08636775 129.60920234 3.37239676 129.25137892 2.63679028 128.88271236 C1 128 1 128 0 127 C-0.10802912 124.96067862 -0.14629135 122.91763702 -0.15771484 120.87548828 C-0.17310806 118.90807175 -0.17310806 118.90807175 -0.18881226 116.90090942 C-0.19396914 115.8426615 -0.19396914 115.8426615 -0.19923019 114.76303482 C-0.21098768 112.56091451 -0.23043213 110.35899314 -0.25234985 108.1569519 C-0.31407115 101.89457808 -0.36802639 95.63222309 -0.40136719 89.36962891 C-0.42229245 85.54279952 -0.45757995 81.71632979 -0.50212479 77.88970566 C-0.51630488 76.42969874 -0.52501176 74.96962816 -0.52817917 73.50955582 C-0.53307781 71.46739343 -0.55782765 69.42530772 -0.58349609 67.38330078 C-0.59562637 65.63909348 -0.59562637 65.63909348 -0.60800171 63.85964966 C-0.76854981 61.02969939 -0.76854981 61.02969939 -2.27603149 59.2260437 C-4.29205648 57.72570109 -4.29205648 57.72570109 -8 56 C-8 49.4 -8 42.8 -8 36 C-6.35 35.34 -4.7 34.68 -3 34 C-0.54621071 30.31931607 -0.69353786 28.31946281 -0.5859375 23.92578125 C-0.55688828 22.90003242 -0.55688828 22.90003242 -0.5272522 21.8535614 C-0.46756003 19.67333375 -0.42111369 17.49305298 -0.375 15.3125 C-0.33681057 13.8326595 -0.29775826 12.352841 -0.2578125 10.87304688 C-0.16186798 7.2488995 -0.07779849 3.62458743 0 0 Z " fill="#B0E3F8" transform="translate(15,299)"/>
<path d="M0 0 C5.61840027 1.64741863 10.65290958 4.19245549 15.86083984 6.81689453 C17.34875251 7.56067006 17.34875251 7.56067006 18.86672401 8.31947136 C22.06667676 9.92019216 25.26384694 11.52638408 28.4609375 13.1328125 C30.44032944 14.12397934 32.41990205 15.11478546 34.3996582 16.10522461 C41.72696213 19.77411259 49.05077064 23.44997808 56.375 27.125 C80.939375 39.438125 80.939375 39.438125 106 52 C106 94.24 106 136.48 106 180 C102.74961545 178.69984618 99.71770346 177.42154246 96.60906982 175.86802673 C95.76222626 175.44601486 94.91538269 175.02400299 94.0428772 174.58920288 C93.12735077 174.13042755 92.21182434 173.67165222 91.26855469 173.19897461 C90.29407379 172.71261032 89.3195929 172.22624603 88.31558228 171.72514343 C85.10000496 170.1195527 81.88589696 168.51104541 78.671875 166.90234375 C76.43945065 165.78646832 74.20696693 164.67071167 71.97442627 163.55506897 C66.70153614 160.91945511 61.42968107 158.28177913 56.15818715 155.64337403 C51.34923314 153.23674863 46.53881504 150.83306201 41.72802424 148.43011087 C36.52390307 145.83058874 31.32090494 143.22882624 26.11838531 140.62610054 C23.90338799 139.51826736 21.68809122 138.41103268 19.47249603 137.30439568 C16.38531705 135.76206893 13.29942245 134.21720283 10.21386719 132.67163086 C9.29024384 132.2108313 8.36662048 131.75003174 7.41500854 131.27526855 C6.57944427 130.85607651 5.74388 130.43688446 4.88299561 130.00498962 C4.1529771 129.63979186 3.4229586 129.2745941 2.67081833 128.89832973 C1 128 1 128 0 127 C-0.09608663 125.35509451 -0.12187787 123.70604309 -0.12025452 122.05833435 C-0.12162918 120.98836212 -0.12300385 119.91838989 -0.12442017 118.81599426 C-0.12082489 117.63204575 -0.11722961 116.44809723 -0.11352539 115.22827148 C-0.11367142 113.989422 -0.11381744 112.75057251 -0.1139679 111.47418213 C-0.11338892 108.06730167 -0.10835959 104.66048116 -0.10139394 101.25361133 C-0.09515993 97.69683174 -0.09455656 94.14005142 -0.09336853 90.58326721 C-0.09025535 83.84363418 -0.08204215 77.10401729 -0.07201904 70.36439139 C-0.06085748 62.69341602 -0.05534735 55.02243989 -0.05032361 47.35145843 C-0.03985952 31.56762959 -0.02226035 15.78381687 0 0 Z " fill="#AFE2F7" transform="translate(135,94)"/>
<path d="M0 0 C3.69647754 3.55761166 6.93512998 7.30526147 10.0625 11.375 C11.03190758 12.62289677 12.00198288 13.87027507 12.97265625 15.1171875 C13.71926514 16.0777002 13.71926514 16.0777002 14.48095703 17.05761719 C16.95972841 20.2271937 19.48019193 23.36302095 22 26.5 C26.3190495 31.88404916 30.59921527 37.29669269 34.85546875 42.73046875 C38.21052303 47.00840329 41.59850489 51.25892647 45 55.5 C49.33159165 60.90211857 53.64766059 66.31568579 57.89941406 71.78100586 C60.27620049 74.832602 62.68939791 77.84274206 65.16796875 80.8125 C65.68351318 81.44019287 66.19905762 82.06788574 66.73022461 82.71459961 C67.72014927 83.91825259 68.72179117 85.11239357 69.73657227 86.29516602 C73.05714969 90.36989824 73.05714969 90.36989824 72.7890625 93.32568359 C71.89511193 96.35549009 70.69500405 99.01366584 69.296875 101.84765625 C68.73548828 102.99548584 68.17410156 104.14331543 67.59570312 105.32592773 C67.29543213 105.93363007 66.99516113 106.5413324 66.68579102 107.16744995 C65.07433484 110.43077483 63.48330145 113.70404192 61.890625 116.9765625 C61.56336426 117.64801804 61.23610352 118.31947357 60.89892578 119.01127625 C57.6861004 125.6164164 54.58028512 132.26958307 51.5 138.9375 C50.9726123 140.07872314 50.44522461 141.21994629 49.90185547 142.39575195 C48.82268643 144.73166448 47.7437493 147.06768416 46.66503906 149.40380859 C44.0475832 155.05705271 41.40651177 160.69921381 38.76715088 166.34225464 C32.44371798 179.86407036 26.19378776 193.41820997 20 207 C16.01861522 205.67287174 15.0536611 203.73745389 12.5625 200.375 C11.66809772 199.18251907 10.7722029 197.99115647 9.875 196.80078125 C9.40578125 196.1763916 8.9365625 195.55200195 8.453125 194.90869141 C6.04653688 191.7476185 3.55453425 188.65635205 1.0625 185.5625 C-2.83797449 180.70717638 -6.71825328 175.83748836 -10.5625 170.9375 C-11.01375244 170.36249756 -11.46500488 169.78749512 -11.92993164 169.19506836 C-14.18164366 166.3238633 -16.42982535 163.44992789 -18.67578125 160.57421875 C-23.57538666 154.30926612 -28.53135573 148.09746909 -33.5625 141.9375 C-38.44360872 135.96111811 -43.20515308 129.90925084 -47.87890625 123.76953125 C-49.94667049 120.96062368 -49.94667049 120.96062368 -52.40234375 118.51171875 C-52.92957031 117.68285156 -53.45679688 116.85398437 -54 116 C-52.79455296 111.26038187 -50.65102533 106.9177467 -48.54296875 102.5234375 C-48.20387482 101.80915588 -47.86478088 101.09487427 -47.51541138 100.35894775 C-46.78766924 98.82675682 -46.05841664 97.29528256 -45.32778931 95.76446533 C-43.38592127 91.69529944 -41.45550504 87.62070081 -39.5234375 83.546875 C-39.13535416 82.72937775 -38.74727081 81.91188049 -38.34742737 81.0696106 C-34.96443881 73.93885518 -31.62799141 66.78741823 -28.3125 59.625 C-27.79880859 58.51656738 -27.28511719 57.40813477 -26.75585938 56.26611328 C-25.71365484 54.01702547 -24.6716634 51.7678389 -23.62988281 49.51855469 C-6.95510176 13.52140901 -6.95510176 13.52140901 0 0 Z " fill="#B0E2F7" transform="translate(288,253)"/>
<path d="M0 0 C1.25831803 15.95067903 -1.33537806 26.69617841 -8.75 40.75 C-9.58722257 42.40689467 -10.42057277 44.06575184 -11.25 45.7265625 C-12.77427253 48.77169925 -14.3223068 51.80212546 -15.89355469 54.82324219 C-21.0413379 63.94882688 -21.0413379 63.94882688 -22 74 C-20.74577602 76.52219575 -20.74577602 76.52219575 -18.8125 78.875 C-18.09578125 79.80828125 -17.3790625 80.7415625 -16.640625 81.703125 C-15.76290133 82.80406882 -14.88243 83.9028248 -14 85 C-13.45923828 85.67611328 -12.91847656 86.35222656 -12.36132812 87.04882812 C-6.44436547 94.75638494 -6.44436547 94.75638494 0 102 C0.08748207 103.92667507 0.10697334 105.85651861 0.09765625 107.78515625 C0.09282227 109.53989258 0.09282227 109.53989258 0.08789062 111.33007812 C0.07532227 113.17762695 0.07532227 113.17762695 0.0625 115.0625 C0.05798828 116.29806641 0.05347656 117.53363281 0.04882812 118.80664062 C0.03699608 121.87114117 0.02051173 124.93554721 0 128 C-2.16509667 129.16964992 -4.33205304 130.33565173 -6.5 131.5 C-7.08136719 131.81453125 -7.66273438 132.1290625 -8.26171875 132.453125 C-15.03104099 136.08204001 -21.91817779 139.47811813 -28.79321289 142.90063477 C-32.48930349 144.74193314 -36.18196677 146.59007946 -39.875 148.4375 C-41.39060868 149.19534515 -42.90623377 149.95315746 -44.421875 150.7109375 C-45.55399414 151.27699707 -45.55399414 151.27699707 -46.70898438 151.85449219 C-50.14355469 153.57177734 -50.14355469 153.57177734 -53.578125 155.2890625 C-54.70645248 155.8532489 -54.70645248 155.8532489 -55.85757446 156.42883301 C-57.36352738 157.18177907 -58.86952881 157.93462811 -60.37557983 158.68737793 C-64.01406826 160.50609963 -67.65176242 162.32636999 -71.28759766 164.15039062 C-78.95451166 167.99490088 -86.634883 171.80426846 -94.375 175.5 C-95.28765625 175.94085938 -96.2003125 176.38171875 -97.140625 176.8359375 C-98.00945312 177.25101563 -98.87828125 177.66609375 -99.7734375 178.09375 C-100.54091309 178.46177734 -101.30838867 178.82980469 -102.09912109 179.20898438 C-104 180 -104 180 -106 180 C-106 138.09 -106 96.18 -106 53 C-84.16437954 41.50756818 -84.16437954 41.50756818 -76.96435547 37.91748047 C-76.12438019 37.49661667 -75.28440491 37.07575287 -74.41897583 36.64213562 C-71.73602517 35.29851942 -69.05168009 33.95771994 -66.3671875 32.6171875 C-64.46853928 31.66752548 -62.56995037 30.71774486 -60.67141724 29.76785278 C-56.7410636 27.80194732 -52.81000722 25.83745659 -48.87841797 23.87402344 C-43.82979141 21.35259474 -38.78300864 18.8274994 -33.73672295 16.30138969 C-29.83944201 14.35095036 -25.94121839 12.40240145 -22.04269791 10.45444107 C-20.17877956 9.52281577 -18.31515889 8.59059465 -16.45183945 7.65777206 C-13.8710332 6.36610831 -11.28897191 5.07698992 -8.70654297 3.78857422 C-7.93582458 3.40220291 -7.1651062 3.0158316 -6.37103271 2.61775208 C-1.1142778 0 -1.1142778 0 0 0 Z " fill="#8ED6F6" transform="translate(241,298)"/>
<path d="M0 0 C0 42.24 0 84.48 0 128 C-18.37837637 137.18918818 -18.37837637 137.18918818 -27.09765625 136.96484375 C-28.06046005 136.97334854 -29.02326385 136.98185333 -30.01524353 136.99061584 C-33.03231326 137.00980966 -36.04566978 136.97571237 -39.0625 136.9375 C-41.07877861 136.93701286 -43.09506166 136.94025054 -45.11132812 136.94726562 C-48.04744782 136.9565428 -50.98345053 136.96486837 -53.91958618 136.96347046 C-59.51461714 136.96523666 -65.09562443 137.02183356 -70.68359375 137.31640625 C-71.8223999 137.3738501 -72.96120605 137.43129395 -74.13452148 137.49047852 C-77.38176813 138.06788362 -78.70367838 138.64975363 -81 141 C-82.66786114 143.82982941 -82.66786114 143.82982941 -84.09375 147.13671875 C-84.3671521 147.73498978 -84.6405542 148.3332608 -84.92224121 148.94966125 C-85.79176177 150.85781202 -86.64625573 152.7722461 -87.5 154.6875 C-88.07318791 155.95554459 -88.64739744 157.22312792 -89.22265625 158.49023438 C-89.50246338 159.10698029 -89.78227051 159.7237262 -90.07055664 160.35916138 C-90.89000953 162.16345993 -91.71061814 163.96723345 -92.53125 165.77099609 C-93.41454049 167.7128844 -94.29158135 169.65765878 -95.15625 171.60791016 C-96.93382013 175.45034325 -98.02409156 177.46875062 -102 179 C-102.99 179 -103.98 179 -105 179 C-105 137.09 -105 95.18 -105 52 C-83.15567261 40.50298558 -83.15567261 40.50298558 -76.16381836 37.00927734 C-75.34495651 36.59816711 -74.52609467 36.18705688 -73.68241882 35.76348877 C-71.0692361 34.45228037 -68.4546575 33.14388988 -65.83984375 31.8359375 C-63.98846218 30.90863462 -62.13710879 29.98127548 -60.28578186 29.05386353 C-56.45383423 27.13493167 -52.62109314 25.21759567 -48.7878418 23.30126953 C-43.86866369 20.84173198 -38.95229354 18.37663448 -34.03655148 15.91023827 C-30.23680995 14.00483196 -26.43527533 12.10302581 -22.63321114 10.20225906 C-20.81721318 9.29366966 -19.00186444 8.38378148 -17.18717766 7.47257614 C-14.67214642 6.21019501 -12.15466441 4.95284312 -9.63647461 3.69677734 C-8.88805298 3.31975677 -8.13963135 2.94273621 -7.36853027 2.55429077 C-2.22833885 0 -2.22833885 0 0 0 Z " fill="#8FD6F7" transform="translate(361,94)"/>
<path d="M0 0 C0.85730713 0.45560303 1.71461426 0.91120605 2.59790039 1.38061523 C3.54729492 1.87368164 4.49668945 2.36674805 5.47485352 2.87475586 C7.45388014 3.91696515 9.43045724 4.96383921 11.40454102 6.01538086 C12.35522461 6.5071582 13.3059082 6.99893555 14.28540039 7.50561523 C15.14383545 7.96009033 16.00227051 8.41456543 16.88671875 8.8828125 C19.95509457 10.04620618 22.2512835 10.16735532 25.50805664 9.87670898 C26.16805664 9.34045898 26.82805664 8.80420898 27.50805664 8.25170898 C28.49805664 7.57108398 28.49805664 7.57108398 29.50805664 6.87670898 C33.91428509 8.03823626 37.8370159 9.93373261 41.88305664 12.00170898 C42.94266602 12.54053711 44.00227539 13.07936523 45.09399414 13.63452148 C45.89063477 14.04444336 46.68727539 14.45436523 47.50805664 14.87670898 C47.42555664 15.94920898 47.34305664 17.02170898 47.25805664 18.12670898 C47.16561251 21.76296335 47.16561251 21.76296335 48.89770508 23.78588867 C52.77354262 26.89032869 57.07578868 28.90463844 61.52368164 31.07983398 C62.49464783 31.56248718 63.46561401 32.04514038 64.46600342 32.54241943 C67.55967229 34.07808348 70.65872531 35.60251069 73.75805664 37.12670898 C75.85998416 38.1676389 77.96155111 39.20929724 80.06274414 40.25170898 C85.20703192 42.8018342 90.35578201 45.34276265 95.50805664 47.87670898 C95.50805664 48.86670898 95.50805664 49.85670898 95.50805664 50.87670898 C82.56458875 57.43020118 69.61303856 63.96746487 56.65197468 70.48609257 C50.63407452 73.51309038 44.61890011 76.54528363 38.60986328 79.58984375 C32.81316628 82.52680055 27.00922721 85.44910688 21.20064354 88.36248589 C18.98337148 89.47759965 16.76857392 90.59764749 14.55629921 91.7226429 C11.46235345 93.29494226 8.36015298 94.84962539 5.25537109 96.40039062 C4.33827362 96.87152283 3.42117615 97.34265503 2.47628784 97.82806396 C1.62799911 98.247397 0.77971039 98.66673004 -0.09428406 99.09877014 C-0.82710948 99.46840913 -1.5599349 99.83804811 -2.31496716 100.21888828 C-6.56153942 101.50208244 -10.08853813 99.76596519 -13.88960266 97.85826111 C-14.73789139 97.43617874 -15.58618011 97.01409637 -16.46017456 96.57922363 C-17.37727203 96.11528198 -18.29436951 95.65134033 -19.23925781 95.17333984 C-20.215345 94.68551529 -21.19143219 94.19769073 -22.19709778 93.69508362 C-25.41935074 92.08291301 -28.63727097 90.46228559 -31.85522461 88.84155273 C-34.08984108 87.72144661 -36.32472325 86.60187043 -38.55986023 85.48280334 C-43.83890022 82.83814333 -49.11524164 80.18815302 -54.39029807 77.53556019 C-60.98719628 74.21868203 -67.58825293 70.91011146 -74.18920898 67.60131836 C-85.96013451 61.69977208 -97.72734448 55.79085636 -109.49194336 49.87670898 C-106.9971134 47.93330144 -104.56647507 46.28959576 -101.73739624 44.87918091 C-101.00590363 44.51205994 -100.27441101 44.14493896 -99.52075195 43.76669312 C-98.72797852 43.37390167 -97.93520508 42.98111023 -97.1184082 42.57641602 C-95.85415512 41.94407043 -95.85415512 41.94407043 -94.56436157 41.2989502 C-91.77908095 39.90700606 -88.99100796 38.52075398 -86.20288086 37.13452148 C-84.25939754 36.16464668 -82.3160916 35.19441635 -80.37295532 34.22384644 C-75.25263322 31.66750296 -70.12993018 29.11596677 -65.00671387 26.56542969 C-59.82198043 23.98324255 -54.63946793 21.39660646 -49.45678711 18.81030273 C-41.06480693 14.62308881 -32.67152633 10.43849636 -24.27630615 6.25778198 C-23.52789459 5.88502136 -22.77948303 5.51226074 -22.00839233 5.12820435 C-21.27608776 4.76784214 -20.54378319 4.40747993 -19.78928757 4.03619766 C-18.13664207 3.20209377 -16.50060715 2.33477714 -14.87627029 1.44680405 C-13.56764086 0.74512289 -13.56764086 0.74512289 -12.23257446 0.02926636 C-11.44502085 -0.40525911 -10.65746723 -0.83978458 -9.84604836 -1.28747749 C-6.11671031 -2.61156082 -3.50163488 -1.57842873 0 0 Z " fill="#E3F5FE" transform="translate(254.491943359375,32.123291015625)"/>
<path d="M0 0 C0.89120544 0.45459091 1.78241089 0.90918182 2.70062256 1.37754822 C3.65749466 1.8556192 4.61436676 2.33369019 5.60023499 2.82624817 C8.74864141 4.40218722 11.88973314 5.99215752 15.03094482 7.5823822 C17.21768643 8.68041772 19.4048725 9.7775685 21.59248352 10.87387085 C27.33931915 13.75681806 33.08004617 16.65172852 38.81958008 19.54917908 C44.68131204 22.50565255 50.54874663 25.45076192 56.41571045 28.39683533 C67.91936296 34.17544571 79.41679174 39.96632785 90.90985107 45.76597595 C89.72832929 49.3105413 89.22970263 49.42195673 86.03358459 51.03839111 C84.78240593 51.67997414 84.78240593 51.67997414 83.50595093 52.33451843 C82.58389862 52.79441162 81.66184631 53.25430481 80.71185303 53.72813416 C79.7459877 54.21946335 78.78012238 54.71079254 77.7849884 55.2170105 C74.5780049 56.84432544 71.36362476 58.4563276 68.14813232 60.0667572 C65.92175905 61.18797222 63.69553926 62.30949206 61.46946716 63.43130493 C56.79634202 65.78285825 52.11915941 68.12616413 47.43939209 70.46446228 C42.62947857 72.86808355 37.82746174 75.28669551 33.03216553 77.71934509 C27.24985277 80.6521088 21.45809177 83.5652538 15.65837669 86.46344566 C13.44672518 87.5722263 11.23832274 88.68751205 9.03325844 89.80933571 C5.9495862 91.37561404 2.85432395 92.91613209 -0.24517822 94.45079041 C-1.15710938 94.92080475 -2.06904053 95.39081909 -3.00860596 95.87507629 C-9.20057199 98.89451023 -9.20057199 98.89451023 -13.10063171 98.33099365 C-14.08717239 97.81453781 -15.07371307 97.29808197 -16.09014893 96.76597595 C-17.57076398 96.06563045 -19.05143159 95.36539608 -20.53213501 94.66523743 C-22.27927181 93.79455282 -24.02422081 92.91946941 -25.76739502 92.0408783 C-26.72412109 91.56266129 -27.68084717 91.08444427 -28.66656494 90.59173584 C-31.81748403 89.01558156 -34.96553409 87.43378465 -38.11358643 85.85191345 C-40.30202042 84.75583072 -42.49063171 83.6601019 -44.67941284 82.56471252 C-50.43178926 79.68471141 -56.18174669 76.79991286 -61.93121338 73.91410828 C-67.80174874 70.96860011 -73.6745594 68.02763597 -79.54718018 65.08628845 C-91.06373415 59.31729578 -102.57781568 53.54338631 -114.09014893 47.76597595 C-114.09014893 47.10597595 -114.09014893 46.44597595 -114.09014893 45.76597595 C-101.18371276 39.20756116 -88.2668469 32.67011205 -75.33769131 26.15659237 C-69.33441127 23.13176476 -63.33466795 20.10028895 -57.34283447 17.05284119 C-51.56058888 14.11284294 -45.76973921 11.19049464 -39.97249031 8.28019905 C-37.76173126 7.16650159 -35.55415188 6.0464691 -33.34985161 4.92004204 C-30.26290555 3.34392738 -27.16544386 1.79067218 -24.06451416 0.24229431 C-22.69965378 -0.46440399 -22.69965378 -0.46440399 -21.30722046 -1.18537903 C-13.07122405 -5.24351177 -8.02765309 -3.98075534 0 0 Z " fill="#E2F4FD" transform="translate(139.09014892578125,239.23402404785156)"/>
<path d="M0 0 C3.78883664 -0.15587028 7.57790047 -0.26755334 11.36863708 -0.36529541 C13.01587031 -0.41870767 14.66257118 -0.49340549 16.30778503 -0.59088135 C28.22028542 -1.28584055 28.22028542 -1.28584055 33.33686829 2.92034912 C36.00896947 5.87165698 38.1445798 9.0913089 40.30586243 12.4286499 C41.28769019 13.68936721 42.2830285 14.93991081 43.30195618 16.1708374 C44.10762024 17.20466553 44.9132843 18.23849365 45.74336243 19.3036499 C46.67174762 20.49115008 47.60013304 21.67865007 48.52851868 22.8661499 C49.45440601 24.05356719 50.38018822 25.24106646 51.30586243 26.4286499 C57.0899444 33.84166688 62.920387 41.2086594 68.86836243 48.4911499 C73.5855015 54.26664796 78.16774327 60.11995478 82.68476868 66.0536499 C86.31924963 70.78004111 90.12404674 75.37221 93.9289093 79.96185303 C94.71684875 80.91994873 94.71684875 80.91994873 95.52070618 81.8973999 C96.21861267 82.73947998 96.21861267 82.73947998 96.93061829 83.59857178 C98.56947735 85.7794501 99.93501639 88.07213755 101.30586243 90.4286499 C91.38727641 91.35130907 81.50344654 91.66862346 71.54927063 91.8744812 C67.07473144 91.96704888 62.60043572 92.06965093 58.12617493 92.17474365 C57.25426514 92.19520248 56.38235535 92.21566132 55.48402405 92.23674011 C50.09227136 92.36901246 44.70949974 92.5666534 39.32368469 92.85760498 C35.80682869 93.0441385 32.2888618 93.17167107 28.76924133 93.29388428 C26.05361966 93.39955347 23.34162918 93.52627398 20.62763977 93.66497803 C16.15789097 93.88729316 11.68921453 94.03757454 7.2155304 94.15420532 C5.42157249 94.21150337 3.62814891 94.2900487 1.83613586 94.3913269 C-12.03186578 95.15408652 -12.03186578 95.15408652 -16.4052887 92.31964111 C-19.86809156 89.17370285 -22.2481427 85.40153663 -24.69413757 81.4286499 C-25.67181284 80.16470965 -26.66653477 78.91342584 -27.69023132 77.6864624 C-28.49589539 76.65263428 -29.30155945 75.61880615 -30.13163757 74.5536499 C-31.06002276 73.36614973 -31.98840819 72.17864973 -32.91679382 70.9911499 C-33.84268116 69.80373261 -34.76846336 68.61623334 -35.69413757 67.4286499 C-41.47822145 60.01563048 -47.30875666 52.64871966 -53.25663757 45.3661499 C-57.1609247 40.58472588 -61.01295415 35.77446735 -64.75663757 30.8661499 C-69.42245169 24.74942795 -74.21176727 18.73818886 -79.03007507 12.7411499 C-79.48221375 12.17654053 -79.93435242 11.61193115 -80.40019226 11.0302124 C-81.5994439 9.54585566 -82.82165286 8.08012663 -84.04570007 6.6161499 C-85.69413757 4.4286499 -85.69413757 4.4286499 -85.69413757 2.4286499 C-80.70589828 2.28135803 -75.71761259 2.13572093 -70.72929382 1.9911499 C-69.57308596 1.95761602 -69.57308596 1.95761602 -68.39352036 1.92340469 C-59.05609496 1.65365275 -49.71848901 1.39769953 -40.37992859 1.17034912 C-39.52629321 1.14954473 -38.67265783 1.12874035 -37.79315472 1.10730553 C-34.36366491 1.02403277 -30.93416733 0.94114792 -27.50462914 0.85988998 C-18.33263017 0.64210884 -9.16654853 0.39293922 0 0 Z " fill="#E3F5FE" transform="translate(387.6941375732422,242.57135009765625)"/>
<path d="M0 0 C1.72376296 0.77701904 3.42017826 1.61658755 5.08984375 2.50390625 C6.03923828 2.99697266 6.98863281 3.49003906 7.96679688 3.99804688 C9.9458235 5.04025616 11.9224006 6.08713022 13.89648438 7.13867188 C14.84716797 7.63044922 15.79785156 8.12222656 16.77734375 8.62890625 C18.06499634 9.3106189 18.06499634 9.3106189 19.37866211 10.00610352 C22.44703793 11.1694972 24.74322686 11.29064633 28 11 C28.66 10.46375 29.32 9.9275 30 9.375 C30.66 8.92125 31.32 8.4675 32 8 C36.40622845 9.16152727 40.32895926 11.05702362 44.375 13.125 C45.43460937 13.66382813 46.49421875 14.20265625 47.5859375 14.7578125 C48.38257813 15.16773437 49.17921875 15.57765625 50 16 C49.9175 17.0725 49.835 18.145 49.75 19.25 C49.65755587 22.88625436 49.65755587 22.88625436 51.38964844 24.90917969 C55.26548598 28.01361971 59.56773204 30.02792946 64.015625 32.203125 C64.98659119 32.6857782 65.95755737 33.1684314 66.95794678 33.66571045 C70.05161565 35.20137449 73.15066867 36.72580171 76.25 38.25 C78.35192752 39.29092992 80.45349447 40.33258825 82.5546875 41.375 C87.69897528 43.92512522 92.84772537 46.46605367 98 49 C98 49.99 98 50.98 98 52 C85.05653211 58.55349219 72.10498192 65.09075588 59.14391804 71.60938358 C53.12601788 74.63638139 47.11084347 77.66857465 41.10180664 80.71313477 C35.30510964 83.65009157 29.50117057 86.5723979 23.6925869 89.4857769 C21.47531484 90.60089066 19.26051728 91.7209385 17.04824257 92.84593391 C13.95429681 94.41823327 10.85209634 95.97291641 7.74731445 97.52368164 C6.83021698 97.99481384 5.91311951 98.46594604 4.9682312 98.95135498 C4.11994247 99.37068802 3.27165375 99.79002106 2.3976593 100.22206116 C1.66483388 100.59170014 0.93200846 100.96133913 0.1769762 101.3421793 C-4.70441813 102.81719875 -8.74162865 100.27773351 -13 98 C-10.27285496 94.72266289 -6.6701009 93.15268274 -2.9140625 91.32641602 C-2.19667908 90.971521 -1.47929565 90.61662598 -0.74017334 90.25097656 C0.81525714 89.48230597 2.37203491 88.71635697 3.92999268 87.95282173 C6.39574614 86.74373333 8.85731409 85.52649475 11.31787109 84.30686951 C18.31352787 80.84113658 25.31638109 77.39007351 32.32226562 73.94506836 C36.60929378 71.83629919 40.89140663 69.71781441 45.17071533 67.59342766 C46.80189626 66.78622539 48.43499113 65.98287886 50.07000732 65.18347359 C52.35596266 64.06569758 54.63551418 62.93575935 56.9140625 61.80297852 C57.59051819 61.47609543 58.26697388 61.14921234 58.96392822 60.81242371 C62.51225779 59.03102517 65.05968873 57.52478455 67 54 C67.66676878 50.54250051 67.66676878 50.54250051 67 47 C63.37829132 42.65838728 59.43247003 40.36784457 54.45581055 37.9440918 C53.71380905 37.57272598 52.97180756 37.20136017 52.20732117 36.81874084 C49.77174301 35.6026831 47.32940853 34.40091838 44.88671875 33.19921875 C43.18949056 32.35527098 41.49270393 31.51043465 39.79634094 30.66474915 C35.34391547 28.44805311 30.88561424 26.2434383 26.42596436 24.0413208 C21.8708473 21.78939731 17.32141467 19.52605138 12.77148438 17.26367188 C3.85316987 12.83127631 -5.07139639 8.41162829 -14 4 C-5.62442328 -1.58371781 -5.62442328 -1.58371781 0 0 Z " fill="#D0EBF7" transform="translate(252,31)"/>
<path d="M0 0 C1.74796333 0.86678065 3.49050628 1.74454723 5.22853088 2.63108826 C6.18540298 3.10915924 7.14227509 3.58723022 8.12814331 4.07978821 C11.27654973 5.65572726 14.41764147 7.24569756 17.55885315 8.83592224 C19.74559475 9.93395776 21.93278082 11.03110854 24.12039185 12.12741089 C29.86722747 15.0103581 35.6079545 17.90526856 41.3474884 20.80271912 C47.20922036 23.75919259 53.07665496 26.70430196 58.94361877 29.65037537 C70.44727129 35.42898575 81.94470007 41.21986789 93.4377594 47.01951599 C92.25623762 50.56408134 91.75761095 50.67549677 88.56149292 52.29193115 C87.31031425 52.93351418 87.31031425 52.93351418 86.03385925 53.58805847 C85.11180695 54.04795166 84.18975464 54.50784485 83.23976135 54.98167419 C81.79096336 55.71866798 81.79096336 55.71866798 80.31289673 56.47055054 C77.10591323 58.09786548 73.89153308 59.70986764 70.67604065 61.32029724 C68.44966737 62.44151226 66.22344758 63.5630321 63.99737549 64.68484497 C59.32425035 67.03639829 54.64706773 69.37970417 49.96730042 71.71800232 C45.1573869 74.12162359 40.35537007 76.54023555 35.56007385 78.97288513 C29.7777611 81.90564884 23.9860001 84.81879384 18.18628502 87.7169857 C15.97463351 88.82576634 13.76623107 89.94105209 11.56116676 91.06287575 C8.47749452 92.62915408 5.38223228 94.16967213 2.2827301 95.70433044 C1.37079895 96.17434479 0.4588678 96.64435913 -0.48069763 97.12861633 C-6.72584897 100.17398541 -6.72584897 100.17398541 -10.96661377 99.39077759 C-11.82317062 98.93826126 -12.67972748 98.48574493 -13.5622406 98.01951599 C-14.6759906 97.48326599 -15.7897406 96.94701599 -16.9372406 96.39451599 C-17.8034906 95.94076599 -18.6697406 95.48701599 -19.5622406 95.01951599 C-15.83366817 93.15165107 -12.09799476 91.29811488 -8.36277771 89.44358826 C-1.05387782 85.81368135 6.25193877 82.17761116 13.55605412 78.53808689 C17.97411567 76.33690202 22.39327599 74.13798356 26.81495667 71.94407654 C31.09507082 69.82030301 35.37223697 67.69069999 39.64741325 65.55700493 C41.27666181 64.74515214 42.9069651 63.93541247 44.53833199 63.12782478 C46.81760657 61.99905835 49.09302932 60.8628652 51.36769104 59.72483826 C52.38001801 59.22676414 52.38001801 59.22676414 53.41279602 58.71862793 C57.91599581 56.49200917 57.91599581 56.49200917 61.4377594 53.01951599 C62.34971051 49.50199028 62.82657513 47.09263423 61.57423401 43.63621521 C58.27410696 39.59430438 54.00542983 37.81240742 49.37916565 35.52732849 C48.36222122 35.01147186 47.34527679 34.49561523 46.29751587 33.96412659 C44.12676721 32.8653096 41.95280451 31.77282296 39.7759552 30.68614197 C36.49754708 29.04936556 33.22808504 27.39596212 29.96070862 25.73728943 C24.53879516 22.98902794 19.10693002 20.26124671 13.66993713 17.54295349 C10.31626366 15.86499845 6.96587199 14.18060182 3.61549377 12.49607849 C1.46139174 11.41756425 -0.69289787 10.33942455 -2.84739685 9.26170349 C-4.33325035 8.5133876 -4.33325035 8.5133876 -5.84912109 7.74995422 C-10.35143776 5.50627254 -14.70963083 3.4196299 -19.5622406 2.01951599 C-12.61225891 -3.44118391 -8.01250417 -3.74396778 0 0 Z " fill="#CFEBF6" transform="translate(136.56224060058594,237.98048400878906)"/>
<path d="M0 0 C3.88933516 -0.79857072 7.12300355 -0.93718744 11 0 C14.50811757 2.974969 17.08416515 6.49047847 19.72314453 10.22070312 C21.42348706 12.59012881 23.2356381 14.86045427 25.05419922 17.13964844 C26.45502478 18.89698484 27.84088361 20.66515275 29.22265625 22.4375 C29.6830127 23.02789062 30.14336914 23.61828125 30.61767578 24.2265625 C31.07384277 24.81179688 31.53000977 25.39703125 32 26 C37.78408197 33.41301698 43.61452458 40.78000949 49.5625 48.0625 C54.27963907 53.83799806 58.86188084 59.69130488 63.37890625 65.625 C67.0133872 70.35139121 70.81818431 74.9435601 74.62304688 79.53320312 C75.14833984 80.17193359 75.67363281 80.81066406 76.21484375 81.46875 C76.91275024 82.31083008 76.91275024 82.31083008 77.62475586 83.16992188 C79.26361493 85.35080019 80.62915397 87.64348765 82 90 C72.08141398 90.92265916 62.19758411 91.23997356 52.2434082 91.4458313 C47.76886901 91.53839898 43.29457329 91.64100103 38.8203125 91.74609375 C37.94840271 91.76655258 37.07649292 91.78701141 36.17816162 91.80809021 C30.78610293 91.94037006 25.40305915 92.13908745 20.0168457 92.42797852 C15.34649709 92.67760138 10.67425472 92.84263976 6 93 C5.2554657 93.02723145 4.5109314 93.05446289 3.74383545 93.08251953 C-1.60706597 93.27480996 -6.95646674 93.41472474 -12.31005859 93.50582886 C-14.13088183 93.54331853 -15.95147597 93.59479708 -17.77148438 93.66091919 C-32.3797477 94.17478531 -32.3797477 94.17478531 -36.51123047 91.17919922 C-38.04441098 89.14913393 -38.99103482 87.31504541 -40 85 C-30.83660432 84.17212955 -21.699257 83.79396188 -12.50535965 83.61557388 C-10.16671933 83.5691239 -7.82829941 83.51631726 -5.48983765 83.4616394 C1.14802522 83.30653636 7.78588341 83.15464023 14.42431641 83.02587891 C18.51153786 82.94614328 22.59824486 82.85257776 26.6849556 82.75005722 C28.23090171 82.71386605 29.77697624 82.68276417 31.32313156 82.65701675 C33.48336049 82.62051408 35.64250308 82.56634228 37.80224609 82.50830078 C39.02656342 82.48244904 40.25088074 82.45659729 41.51229858 82.42996216 C45.61486498 81.92419974 48.32957698 80.87873694 52 79 C53.69329925 75.61340151 53.78515219 72.62240668 53 69 C50.79007953 64.98964433 47.8997179 61.52560178 45 58 C44.00988286 56.77907853 43.02032726 55.55770153 42.03125 54.3359375 C40.4020645 52.32809955 38.76985402 50.3230167 37.12988281 48.32397461 C32.60459686 42.79802865 28.26938199 37.14507712 23.96411133 31.44702148 C19.40231937 25.44524385 14.6344266 19.63009413 9.75610352 13.88305664 C6.06382911 9.4836702 2.91214694 4.95081414 0 0 Z " fill="#D0EBF7" transform="translate(407,243)"/>
<path d="M0 0 C3.71317907 1.14770989 5.2692056 1.85342428 7.4375 5.0625 C8 8 8 8 7.4375 11.0625 C5.375 13.9375 5.375 13.9375 2.4375 16.0625 C-1.55298721 16.69257693 -3.57935857 16.69271887 -7 14.5 C-9.19271887 11.07935857 -9.19257693 9.05298721 -8.5625 5.0625 C-5.90798953 1.20139386 -4.7398766 0.08315573 0 0 Z " fill="#050708" transform="translate(335.5625,183.9375)"/>
<path d="M0 0 C2.5 1.625 2.5 1.625 4 4 C4 7.89442816 3.54017686 10.18973471 1.375 13.4375 C-1.98693999 15.64930263 -4.05974542 15.6332552 -8 15 C-11.21279089 12.28148463 -11.90640581 10.59276322 -12.5625 6.4375 C-12 3 -12 3 -9.9375 0.5 C-6.0725552 -1.47358883 -4.13162753 -1.20192801 0 0 Z " fill="#040607" transform="translate(339,154)"/>
<path d="M0 0 C2.5 1 2.5 1 4 3 C4.56153595 7.42209561 4.79893062 9.72171101 2.4375 13.5 C-0.94888329 15.58392818 -3.09385318 15.55802097 -7 15 C-9.4375 13.5 -9.4375 13.5 -11 11 C-11.6227188 7.48305406 -11.63278358 4.26556715 -10 1 C-6.74351663 -0.62824168 -3.51599278 -0.49521025 0 0 Z " fill="#020404" transform="translate(307,196)"/>
</svg>
