<?xml version="1.0" encoding="UTF-8"?>
<svg version="1.1" xmlns="http://www.w3.org/2000/svg" width="512" height="512">
<path d="M0 0 C1.18400391 0.01281006 2.36800781 0.02562012 3.58789062 0.03881836 C20.13165044 0.42363663 31.16248528 5.9506872 43.6875 16.6875 C45.37998488 18.13150786 47.07256204 19.57539411 48.76660156 21.01757812 C49.9119065 21.99705581 51.05201147 22.98265044 52.18652344 23.97460938 C61.97656548 32.42989953 72.59372262 37.55574796 84.56469727 42.22827148 C91.83607919 45.11070805 97.65784777 48.28489491 103.5 53.5 C104.22074707 54.13623291 104.94149414 54.77246582 105.68408203 55.42797852 C112.81475074 61.89222121 117.12916072 69.97256592 120.59765625 78.84765625 C123.98699662 87.10202036 128.64290806 94.57283387 133.25 102.1875 C134.13481413 103.66559709 135.01893348 105.14411031 135.90234375 106.62304688 C139.26871919 112.90099966 139.26871919 112.90099966 143.5 118.5 C145.37444038 118.59509562 147.24943425 118.68407779 149.12548828 118.73876953 C158.74134609 119.04542096 166.86740816 119.98547101 174.375 126.5625 C182.64076595 136.17124042 182.10022243 147.79925033 181.96655273 159.77978516 C181.93749065 162.62591578 181.94599578 165.47018932 181.95898438 168.31640625 C181.95274804 170.15105059 181.94435792 171.98568914 181.93359375 173.8203125 C181.93652939 174.65805206 181.93946503 175.49579163 181.94248962 176.35891724 C181.82623179 183.73434385 180.43817553 191.14949942 175.3125 196.75 C174.78269531 197.35328125 174.25289063 197.9565625 173.70703125 198.578125 C170.56723037 201.31225249 167.07038756 203.37470509 163.5 205.5 C164.06847656 206.68851563 164.63695312 207.87703125 165.22265625 209.1015625 C178.30711753 236.97579236 184.89942402 266.01902011 188.5 296.5 C188.65903809 297.81738159 188.65903809 297.81738159 188.82128906 299.16137695 C192.44409948 334.7240007 189.87774738 371.20445221 182.48193359 406.06518555 C180.64902891 414.87340708 179.07755813 422.73768825 182.25 431.4375 C182.61222656 432.44683594 182.97445313 433.45617187 183.34765625 434.49609375 C184.74222418 438.13142505 186.16527944 441.75166401 187.66796875 445.34375 C191.73255141 455.87731633 190.91670569 470.60522761 186.75 480.90625 C179.16032872 496.65481791 168.60677762 505.88778086 152.203125 511.66015625 C136.4813277 515.22575374 122.33511104 512.1743708 108.3125 504.8125 C99.73498334 500.36711526 91.65864777 500.0733903 82.375 502.0625 C80.34963364 502.45144978 78.32354332 502.83664219 76.296875 503.21875 C75.20826172 503.42757813 74.11964844 503.63640625 72.99804688 503.8515625 C67.22910994 504.92095784 61.43957917 505.85183508 55.6416626 506.74801636 C53.74910396 507.0431469 51.85859212 507.35131913 49.96826172 507.66040039 C24.09662062 511.66383511 -1.79330318 513.00951462 -27.93847656 512.89111328 C-31.73930292 512.87402269 -35.53949842 512.88422062 -39.34030342 512.90143299 C-65.95278761 513.00339145 -92.33203796 511.36156957 -118.625 507.0625 C-119.98829983 506.84990346 -121.35174838 506.63825873 -122.71533203 506.42749023 C-128.92863144 505.45716965 -135.12065527 504.40353105 -141.296875 503.21875 C-142.33312012 503.02337646 -143.36936523 502.82800293 -144.43701172 502.62670898 C-146.30696911 502.26760382 -148.17377519 501.89135483 -150.03564453 501.49243164 C-159.98784875 499.56237149 -168.39311399 501.91369505 -177.25 506.5 C-190.4616827 513.19068702 -205.74086699 515.38957281 -220.1875 510.875 C-235.64639475 504.57286535 -245.96996566 494.31157421 -252.59765625 478.95703125 C-256.81658264 466.30025207 -255.75039072 451.58479763 -250.5 439.5 C-249.76855839 437.66757311 -249.03928907 435.83427718 -248.3125 434 C-247.98894531 433.2265625 -247.66539062 432.453125 -247.33203125 431.65625 C-243.77030743 422.42586714 -245.90785126 413.48474288 -247.89373779 404.12411499 C-256.30810588 363.95504268 -258.08610488 321.118635 -251.5 280.5 C-251.25056641 278.89656738 -251.25056641 278.89656738 -250.99609375 277.26074219 C-247.20888399 253.5626278 -240.34876866 231.09651015 -230.19921875 209.35571289 C-229.32370319 207.36262384 -229.32370319 207.36262384 -229.5 204.5 C-231.0159375 203.7575 -231.0159375 203.7575 -232.5625 203 C-239.03195392 199.27317462 -243.81327843 193.5825497 -246.06640625 186.4453125 C-247.02771064 182.13243334 -247.01690863 178.79227158 -245.375 174.6875 C-243.5 172.5 -243.5 172.5 -237.5 170.5 C-237.5 165.22 -237.5 159.94 -237.5 154.5 C-239.15 154.17 -240.8 153.84 -242.5 153.5 C-245.36189924 150.87014664 -246.38404096 149.22474401 -247 145.375 C-245.97812485 137.4554676 -243.64720085 130.31304264 -237.51953125 124.93359375 C-231.10786094 120.38217594 -224.8385672 119.26401601 -217.15234375 118.8984375 C-216.41431519 118.85807373 -215.67628662 118.81770996 -214.91589355 118.77612305 C-213.11090302 118.67824011 -211.30548437 118.58830666 -209.5 118.5 C-209.14284912 117.6435791 -208.78569824 116.7871582 -208.41772461 115.90478516 C-207.0646715 112.67637908 -205.70100658 109.45287261 -204.33032227 106.23193359 C-203.74344439 104.84698525 -203.16063565 103.46030425 -202.58227539 102.07177734 C-195.58994166 85.30228433 -186.65561423 71.26746128 -169.5 63.5 C-161.48502329 60.83111253 -153.50948201 59.42331345 -145.125 58.5625 C-134.51301455 57.43468085 -127.42900313 53.52567988 -120.5 45.5 C-119.97277344 44.84644531 -119.44554687 44.19289062 -118.90234375 43.51953125 C-110.55088486 33.31219261 -98.57585702 27.1211004 -85.5 25.5 C-83.84168818 25.43678345 -82.1826392 25.39168812 -80.5234375 25.359375 C-79.60433594 25.34003906 -78.68523437 25.32070313 -77.73828125 25.30078125 C-75.85307293 25.26734645 -73.96753419 25.24873082 -72.08203125 25.24609375 C-58.16360475 24.8782911 -47.32724286 17.23169659 -35.94335938 9.93945312 C-24.28826234 2.69596684 -13.70331204 -0.22623393 0 0 Z " fill="#A57662" transform="translate(288.5,-0.5)"/>
<path d="M0 0 C1.18400391 0.01281006 2.36800781 0.02562012 3.58789062 0.03881836 C20.13165044 0.42363663 31.16248528 5.9506872 43.6875 16.6875 C45.37998488 18.13150786 47.07256204 19.57539411 48.76660156 21.01757812 C49.9119065 21.99705581 51.05201147 22.98265044 52.18652344 23.97460938 C61.97656548 32.42989953 72.59372262 37.55574796 84.56469727 42.22827148 C91.83607919 45.11070805 97.65784777 48.28489491 103.5 53.5 C104.22074707 54.13623291 104.94149414 54.77246582 105.68408203 55.42797852 C112.81475074 61.89222121 117.12916072 69.97256592 120.59765625 78.84765625 C123.98699662 87.10202036 128.64290806 94.57283387 133.25 102.1875 C134.13481413 103.66559709 135.01893348 105.14411031 135.90234375 106.62304688 C139.26871919 112.90099966 139.26871919 112.90099966 143.5 118.5 C145.37444038 118.59509562 147.24943425 118.68407779 149.12548828 118.73876953 C158.74134609 119.04542096 166.86740816 119.98547101 174.375 126.5625 C182.64076595 136.17124042 182.10022243 147.79925033 181.96655273 159.77978516 C181.93749065 162.62591578 181.94599578 165.47018932 181.95898438 168.31640625 C181.95274804 170.15105059 181.94435792 171.98568914 181.93359375 173.8203125 C181.93652939 174.65805206 181.93946503 175.49579163 181.94248962 176.35891724 C181.82623179 183.73434385 180.43817553 191.14949942 175.3125 196.75 C174.78269531 197.35328125 174.25289063 197.9565625 173.70703125 198.578125 C170.56723037 201.31225249 167.07038756 203.37470509 163.5 205.5 C164.06847656 206.68851563 164.63695312 207.87703125 165.22265625 209.1015625 C178.30711753 236.97579236 184.89942402 266.01902011 188.5 296.5 C188.65903809 297.81738159 188.65903809 297.81738159 188.82128906 299.16137695 C192.44409948 334.7240007 189.87774738 371.20445221 182.48193359 406.06518555 C180.64902891 414.87340708 179.07755813 422.73768825 182.25 431.4375 C182.61222656 432.44683594 182.97445313 433.45617187 183.34765625 434.49609375 C184.74222418 438.13142505 186.16527944 441.75166401 187.66796875 445.34375 C191.73255141 455.87731633 190.91670569 470.60522761 186.75 480.90625 C179.16032872 496.65481791 168.60677762 505.88778086 152.203125 511.66015625 C136.4813277 515.22575374 122.33511104 512.1743708 108.3125 504.8125 C99.73498334 500.36711526 91.65864777 500.0733903 82.375 502.0625 C80.34963364 502.45144978 78.32354332 502.83664219 76.296875 503.21875 C75.20826172 503.42757813 74.11964844 503.63640625 72.99804688 503.8515625 C67.22910994 504.92095784 61.43957917 505.85183508 55.6416626 506.74801636 C53.74910396 507.0431469 51.85859212 507.35131913 49.96826172 507.66040039 C24.09662062 511.66383511 -1.79330318 513.00951462 -27.93847656 512.89111328 C-31.73930292 512.87402269 -35.53949842 512.88422062 -39.34030342 512.90143299 C-65.95278761 513.00339145 -92.33203796 511.36156957 -118.625 507.0625 C-119.98829983 506.84990346 -121.35174838 506.63825873 -122.71533203 506.42749023 C-128.92863144 505.45716965 -135.12065527 504.40353105 -141.296875 503.21875 C-142.33312012 503.02337646 -143.36936523 502.82800293 -144.43701172 502.62670898 C-146.30696911 502.26760382 -148.17377519 501.89135483 -150.03564453 501.49243164 C-159.98784875 499.56237149 -168.39311399 501.91369505 -177.25 506.5 C-190.4616827 513.19068702 -205.74086699 515.38957281 -220.1875 510.875 C-235.64639475 504.57286535 -245.96996566 494.31157421 -252.59765625 478.95703125 C-256.81658264 466.30025207 -255.75039072 451.58479763 -250.5 439.5 C-249.76855839 437.66757311 -249.03928907 435.83427718 -248.3125 434 C-247.98894531 433.2265625 -247.66539062 432.453125 -247.33203125 431.65625 C-243.77030743 422.42586714 -245.90785126 413.48474288 -247.89373779 404.12411499 C-256.30810588 363.95504268 -258.08610488 321.118635 -251.5 280.5 C-251.25056641 278.89656738 -251.25056641 278.89656738 -250.99609375 277.26074219 C-247.20888399 253.5626278 -240.34876866 231.09651015 -230.19921875 209.35571289 C-229.32370319 207.36262384 -229.32370319 207.36262384 -229.5 204.5 C-231.0159375 203.7575 -231.0159375 203.7575 -232.5625 203 C-239.03195392 199.27317462 -243.81327843 193.5825497 -246.06640625 186.4453125 C-247.02771064 182.13243334 -247.01690863 178.79227158 -245.375 174.6875 C-243.5 172.5 -243.5 172.5 -237.5 170.5 C-237.5 165.22 -237.5 159.94 -237.5 154.5 C-239.15 154.17 -240.8 153.84 -242.5 153.5 C-245.36189924 150.87014664 -246.38404096 149.22474401 -247 145.375 C-245.97812485 137.4554676 -243.64720085 130.31304264 -237.51953125 124.93359375 C-231.10786094 120.38217594 -224.8385672 119.26401601 -217.15234375 118.8984375 C-216.41431519 118.85807373 -215.67628662 118.81770996 -214.91589355 118.77612305 C-213.11090302 118.67824011 -211.30548437 118.58830666 -209.5 118.5 C-209.14284912 117.6435791 -208.78569824 116.7871582 -208.41772461 115.90478516 C-207.0646715 112.67637908 -205.70100658 109.45287261 -204.33032227 106.23193359 C-203.74344439 104.84698525 -203.16063565 103.46030425 -202.58227539 102.07177734 C-195.58994166 85.30228433 -186.65561423 71.26746128 -169.5 63.5 C-161.48502329 60.83111253 -153.50948201 59.42331345 -145.125 58.5625 C-134.51301455 57.43468085 -127.42900313 53.52567988 -120.5 45.5 C-119.97277344 44.84644531 -119.44554687 44.19289062 -118.90234375 43.51953125 C-110.55088486 33.31219261 -98.57585702 27.1211004 -85.5 25.5 C-83.84168818 25.43678345 -82.1826392 25.39168812 -80.5234375 25.359375 C-79.60433594 25.34003906 -78.68523437 25.32070313 -77.73828125 25.30078125 C-75.85307293 25.26734645 -73.96753419 25.24873082 -72.08203125 25.24609375 C-58.16360475 24.8782911 -47.32724286 17.23169659 -35.94335938 9.93945312 C-24.28826234 2.69596684 -13.70331204 -0.22623393 0 0 Z M-207.5 205.5 C-208.78634936 207.73026402 -210.0702443 209.96188203 -211.3527832 212.19433594 C-211.89552258 213.13447037 -211.89552258 213.13447037 -212.44922638 214.09359741 C-215.18194664 218.85670284 -217.60303279 223.66551701 -219.6875 228.75 C-220.01790283 229.54809082 -220.34830566 230.34618164 -220.6887207 231.16845703 C-223.71942095 238.69372057 -225.9748314 246.33025564 -227.91894531 254.19873047 C-228.49992502 256.49970306 -229.13226277 258.7815544 -229.7734375 261.06640625 C-242.11115826 306.57164499 -240.36627191 356.7092342 -230.09301758 402.35668945 C-226.51840107 418.86760366 -227.92151739 433.8674536 -235.4140625 449.125 C-238.40671404 455.67007963 -238.60989395 463.38246596 -236.74609375 470.296875 C-232.57391997 481.09544244 -225.8999017 488.7168897 -215.45703125 493.7734375 C-206.83108029 496.97588636 -197.37281154 496.51446586 -189.06640625 492.78125 C-186.17641204 491.33845228 -183.30822877 489.85572988 -180.4375 488.375 C-166.93493006 481.59804475 -153.34216808 482.41718442 -138.9375 485.6875 C-128.04250354 488.16046572 -117.13471113 489.77829479 -106.0625 491.1875 C-104.88504715 491.34078262 -104.88504715 491.34078262 -103.68380737 491.49716187 C-79.94337091 494.56987683 -56.37419597 495.87942046 -32.4375 495.8125 C-30.50067352 495.81076279 -30.50067352 495.81076279 -28.52471924 495.80899048 C-10.12362307 495.77641839 7.9709462 495.2763272 26.23144531 492.91455078 C29.52312167 492.49706748 32.81628894 492.14475107 36.1171875 491.80859375 C47.72285242 490.59013052 59.05941608 488.76854159 70.44921875 486.21337891 C90.29658795 481.76709763 106.0055635 483.21110745 124.03125 492.7578125 C131.43165926 496.47468472 139.75046257 496.77761984 147.73828125 494.62890625 C160.02893755 489.86569129 166.29251084 482.29747734 171.875 470.625 C173.79791423 461.01042885 172.24231789 453.39276217 168.5 444.5 C167.75919816 442.54603836 167.02979644 440.58771223 166.3125 438.625 C165.98894531 437.76132812 165.66539062 436.89765625 165.33203125 436.0078125 C160.60250645 421.75262508 164.10403499 406.73487999 167.2109375 392.54296875 C179.73176975 335.20756628 175.52143912 263.42831735 146.5 211.5 C146.09985813 210.48173315 145.69971626 209.4634663 145.28744888 208.41434288 C143.63522503 205.99894657 142.74214091 205.55018103 139.83478022 204.94766259 C136.12678765 204.73828243 132.44270533 204.72903343 128.73162842 204.7784729 C127.28448917 204.77585712 125.83735267 204.77060487 124.39023137 204.7629379 C120.4083553 204.74949635 116.42744417 204.77355421 112.44569111 204.80360627 C108.15396941 204.82947403 103.86230383 204.82075188 99.57052612 204.81619263 C92.13305477 204.81304376 84.69589879 204.83189711 77.25850677 204.86561966 C66.5052912 204.91434509 55.7522284 204.93000454 44.99891439 204.93754761 C27.55322623 204.95068521 10.10770621 204.99063061 -7.33789062 205.04736328 C-24.28644976 205.10242235 -41.23496326 205.14490027 -58.18359375 205.17041016 C-59.22799131 205.1719865 -60.27238887 205.17356284 -61.34843484 205.17518695 C-66.58777695 205.18301707 -71.82711939 205.19059934 -77.06646204 205.19805837 C-120.54442452 205.26027684 -164.02220359 205.36597162 -207.5 205.5 Z " fill="#383838" transform="translate(288.5,-0.5)"/>
<path d="M0 0 C0.88365234 0.00974854 1.76730469 0.01949707 2.67773438 0.02954102 C17.30519026 0.42644126 26.10809146 7.57967993 37.01171875 16.59765625 C49.8161419 27.17942482 61.70542983 35.35021869 77.37353516 41.16894531 C88.66998563 45.45976629 97.69499772 52.4988803 102.75 63.6875 C103.56531619 65.60297041 104.37779853 67.51964941 105.1875 69.4375 C109.23399005 78.29568175 114.15503303 86.54464103 119.22485352 94.84741211 C119.73588623 95.6853833 120.24691895 96.52335449 120.7734375 97.38671875 C121.47025635 98.52113403 121.47025635 98.52113403 122.18115234 99.6784668 C123.1875 101.4375 123.1875 101.4375 123.1875 102.4375 C20.2275 102.4375 -82.7325 102.4375 -188.8125 102.4375 C-186.29845681 89.86728407 -179.96308708 75.55466328 -169.8125 67.4375 C-162.29978805 62.43937345 -156.26736336 60.48442686 -147.3125 60.125 C-130.97677303 58.99839814 -117.64352525 52.65438479 -106.8125 40.4375 C-105.7874187 39.19098124 -104.76615595 37.94130532 -103.75 36.6875 C-98.92010684 30.92106246 -91.98193338 26.91086998 -84.43164062 26.21948242 C-81.64176946 26.08790883 -78.85472919 26.00164581 -76.0625 25.9375 C-58.20835029 25.52057617 -45.1893155 20.26906842 -30.0625 10.8125 C-19.94780897 4.50755421 -12.14648376 -0.14962724 0 0 Z " fill="#D5E4E5" transform="translate(287.8125,16.5625)"/>
<path d="M0 0 C0.65175249 -0.00581376 1.30350497 -0.01162753 1.97500753 -0.01761746 C4.16842374 -0.03226594 6.36072934 -0.01831103 8.55413818 -0.00457001 C10.13866881 -0.00917704 11.72319517 -0.01552863 13.30771255 -0.02347898 C17.66927279 -0.04022269 22.03048426 -0.0319032 26.39204597 -0.01953411 C31.09287032 -0.01050648 35.7936335 -0.02444195 40.4944458 -0.0354538 C49.70624226 -0.05326811 58.91790858 -0.04938609 68.1297102 -0.03780323 C75.61433673 -0.02878062 83.09892672 -0.02753982 90.58355713 -0.0318985 C91.64759899 -0.03251143 92.71164086 -0.03312436 93.80792642 -0.03375587 C95.96930537 -0.03503473 98.13068431 -0.03633158 100.29206324 -0.03764623 C120.57353582 -0.04906057 140.85493615 -0.03592495 161.13639688 -0.01444477 C178.55009424 0.00342698 195.96368494 0.00032311 213.37738037 -0.01811981 C233.58479952 -0.03951147 253.79215531 -0.04796185 273.9995842 -0.03567076 C276.15314483 -0.03439652 278.30670547 -0.03313904 280.46026611 -0.0318985 C282.04977943 -0.03097285 282.04977943 -0.03097285 283.67140412 -0.03002849 C291.1496242 -0.02657047 298.62780419 -0.03241366 306.10601807 -0.04181671 C315.21578288 -0.05301915 324.32540978 -0.0500337 333.43515873 -0.02869374 C338.08577124 -0.01815962 342.73615356 -0.01410154 347.38676453 -0.02729034 C351.64048136 -0.03917141 355.89375369 -0.03272305 360.14742994 -0.01138014 C361.68976255 -0.00689579 363.23213238 -0.00922121 364.77444124 -0.01888329 C366.86477557 -0.03097846 368.95357047 -0.01864547 371.04382324 0 C372.20663692 0.00064941 373.36945061 0.00129882 374.56750107 0.00196791 C378.14801926 0.60962206 379.3224661 1.67092514 381.52191162 4.50336456 C382.04330444 6.54521942 382.04330444 6.54521942 382.07122803 8.73358917 C382.09029205 9.55802017 382.10935608 10.38245117 382.1289978 11.23186493 C382.12626358 12.5554174 382.12626358 12.5554174 382.12347412 13.90570831 C382.13204437 14.82042404 382.14061462 15.73513977 382.14944458 16.67757416 C382.16091794 18.60994917 382.16194128 20.54241054 382.15325928 22.47480011 C382.14693941 25.4278813 382.19385224 28.37695107 382.24456787 31.32953644 C382.24911431 33.20908868 382.25052063 35.08865168 382.24847412 36.96820831 C382.26689362 37.8485524 382.28531311 38.72889648 382.30429077 39.63591766 C382.29183319 40.46350082 382.27937561 41.29108398 382.26654053 42.14374542 C382.26779938 42.86670303 382.26905823 43.58966064 382.27035522 44.33452606 C381.338732 47.03418212 379.98050309 48.65243971 377.75522745 50.42421609 C372.5210409 52.95339909 366.12398521 52.18369655 360.41448975 52.13828278 C358.84615423 52.14404481 357.27782546 52.15198649 355.7095108 52.161919 C351.40186879 52.18280456 347.09478016 52.17246956 342.78713608 52.15698791 C338.14082833 52.14568526 333.49461641 52.1631317 328.84832764 52.17688751 C319.7470692 52.19913607 310.64601677 52.19431152 301.54475021 52.17982431 C294.14885516 52.16853843 286.75301789 52.16699835 279.3571167 52.17244339 C277.77897871 52.17359264 277.77897871 52.17359264 276.16895914 52.1747651 C274.03174271 52.17636371 271.89452631 52.17798477 269.75730991 52.17962806 C249.71038295 52.1938903 229.66357025 52.17748536 209.61666203 52.15062623 C192.41054216 52.12828703 175.20459095 52.13216703 157.99847412 52.15522003 C138.02393567 52.18196962 118.0494974 52.19251696 98.07494354 52.17715871 C95.94553122 52.17556595 93.81611889 52.17399409 91.68670654 52.17244339 C90.63895884 52.17167201 89.59121114 52.17090063 88.5117135 52.17010588 C81.12356826 52.16578636 73.73548649 52.17308087 66.34735107 52.18484116 C57.34525971 52.19885534 48.34338638 52.19508897 39.34132004 52.16843744 C34.74710844 52.15528469 30.15326053 52.15017163 25.55905151 52.1666832 C21.3545611 52.18156573 17.15077198 52.17342307 12.94634533 52.14679544 C11.42422778 52.1412032 9.90205117 52.14406764 8.3799715 52.15617438 C-4.41861575 52.25017822 -4.41861575 52.25017822 -8.3649292 49.09698296 C-10.3406481 46.672054 -11.25381787 45.42188573 -11.66558838 42.37836456 C-12.46142453 38.1249559 -12.46142453 38.1249559 -15.47808838 35.50336456 C-16.79808838 35.17336456 -18.11808838 34.84336456 -19.47808838 34.50336456 C-19.47808838 28.89336456 -19.47808838 23.28336456 -19.47808838 17.50336456 C-17.49808838 16.51336456 -15.51808838 15.52336456 -13.47808838 14.50336456 C-11.2235748 11.621222 -11.2235748 11.621222 -11.10308838 8.06586456 C-9.91844001 1.31336886 -6.47159612 0.00361426 0 0 Z " fill="#8E6050" transform="translate(70.47808837890625,136.49663543701172)"/>
<path d="M0 0 C1.13888672 -0.02900391 2.27777344 -0.05800781 3.45117188 -0.08789062 C13.71242834 -0.16407357 22.68931443 1.98046827 30.78125 8.546875 C34.01365912 11.75092965 36.31801792 15.37591617 38.5625 19.3125 C39.490625 20.859375 39.490625 20.859375 40.4375 22.4375 C43.51164015 30.41915303 42.4441176 40.11022928 39.375 47.875 C37.28767914 52.29415645 34.96326166 55.81457372 31.5625 59.3125 C33.3637917 63.14024487 35.68939658 66.45205866 38.125 69.8984375 C41.61258942 75.75531321 41.92722866 81.23458094 41.9375 87.875 C41.96199219 88.71224609 41.98648438 89.54949219 42.01171875 90.41210938 C42.0311023 94.49234567 41.87319866 96.77664746 39.7890625 100.37109375 C36.78297144 102.9921942 35.28063128 102.92448249 31.46484375 102.67578125 C28.83193843 102.17298824 27.37714995 101.27232195 25.5625 99.3125 C24.15567077 95.09201232 24.28178433 90.79906669 24.22070312 86.38085938 C23.98465179 80.51251334 22.16112901 76.850836 17.87890625 72.66796875 C13.53875077 69.77775385 9.99153078 68.98057031 4.77734375 68.67578125 C3.61195068 68.60270752 2.44655762 68.52963379 1.24584961 68.4543457 C0.36034424 68.40753662 -0.52516113 68.36072754 -1.4375 68.3125 C-1.41655273 69.2003418 -1.39560547 70.08818359 -1.37402344 71.00292969 C-1.30574323 74.30544455 -1.2556513 77.6072067 -1.21777344 80.91015625 C-1.19769018 82.33801121 -1.17041748 83.76578425 -1.13574219 85.19335938 C-1.08707331 87.24890368 -1.06450033 89.30335855 -1.046875 91.359375 C-1.02592773 92.59526367 -1.00498047 93.83115234 -0.98339844 95.10449219 C-1.4375 98.3125 -1.4375 98.3125 -3.21582031 100.70800781 C-5.87060944 102.62529069 -8.10101083 102.87164768 -11.33984375 103.0390625 C-14.75092815 101.85756958 -16.67163186 99.3416366 -18.4375 96.3125 C-19.13501001 93.34759333 -19.11230636 90.4845719 -19.06860352 87.44897461 C-19.07575882 86.57830856 -19.08291412 85.70764252 -19.09028625 84.81059265 C-19.10713679 81.9448024 -19.08779391 79.08058441 -19.06640625 76.21484375 C-19.06723521 74.21757376 -19.06969561 72.22030384 -19.07371521 70.22303772 C-19.07657062 66.04260662 -19.06189557 61.86271206 -19.03442383 57.68237305 C-19.00031959 52.32658224 -19.00636915 46.97174928 -19.0250864 41.61591244 C-19.03565869 37.4937391 -19.02671682 33.37178834 -19.01170158 29.2496357 C-19.00652249 27.27489445 -19.00699826 25.30012993 -19.01324654 23.32539177 C-19.01870234 20.56529679 -18.99831298 17.8065699 -18.97094727 15.04663086 C-18.97747314 14.23246704 -18.98399902 13.41830322 -18.99072266 12.57946777 C-18.92422182 8.63118131 -18.7116084 6.74102437 -16.52915955 3.32911682 C-11.90125056 -1.13275611 -6.10335624 0.05027476 0 0 Z " fill="#393837" transform="translate(393.4375,272.6875)"/>
<path d="M0 0 C6.57282204 4.58219593 11.2271847 10.24875156 13.734375 17.90625 C14.01223962 20.55826207 14.15595103 22.97011332 14.13842773 25.61401367 C14.14529099 26.34988205 14.15215424 27.08575043 14.15922546 27.84391785 C14.17739293 30.25421934 14.1736727 32.66386412 14.16796875 35.07421875 C14.17253344 36.75857249 14.17783986 38.44292437 14.18385315 40.12727356 C14.19276294 43.64669393 14.19038323 47.16588707 14.18041992 50.68530273 C14.16889712 55.19479604 14.1892026 59.70351013 14.21833706 64.21290112 C14.23667493 67.68647736 14.23641208 71.15986567 14.23069954 74.63347816 C14.23054622 76.2964621 14.23659947 77.95945869 14.24899101 79.62239647 C14.26386482 81.9443215 14.25325464 84.26479058 14.23608398 86.58666992 C14.24575195 87.27194763 14.25541992 87.95722534 14.26538086 88.66326904 C14.21341197 92.01820288 13.92870701 93.6591224 11.82801819 96.33052063 C8.93536304 98.50760682 7.14364716 98.47448292 3.63671875 98.3046875 C0.73671361 97.69729423 -0.54871171 96.24125208 -2.265625 93.90625 C-3.67474596 91.08800808 -3.37746053 88.73373718 -3.36328125 85.5859375 C-3.36005859 84.32910156 -3.35683594 83.07226562 -3.35351562 81.77734375 C-3.34094727 79.79927734 -3.34094727 79.79927734 -3.328125 77.78125 C-3.32310989 76.44140789 -3.31854701 75.101564 -3.31445312 73.76171875 C-3.30263595 70.47654343 -3.28470001 67.19139119 -3.265625 63.90625 C-11.515625 63.90625 -19.765625 63.90625 -28.265625 63.90625 C-28.21341797 66.85111328 -28.21341797 66.85111328 -28.16015625 69.85546875 C-28.13201714 72.43488728 -28.10471711 75.01431506 -28.078125 77.59375 C-28.05298828 78.88732422 -28.02785156 80.18089844 -28.00195312 81.51367188 C-27.99228516 82.76083984 -27.98261719 84.00800781 -27.97265625 85.29296875 C-27.9569458 86.43983154 -27.94123535 87.58669434 -27.92504883 88.76831055 C-28.30387033 92.25862798 -29.17720598 94.11269999 -31.265625 96.90625 C-34.39963385 98.47325442 -37.89717595 98.75789561 -41.265625 97.90625 C-44.03089287 95.15508028 -45.17784379 93.48632701 -45.76683044 89.59417725 C-45.7670797 87.70629486 -45.7670797 87.70629486 -45.76733398 85.78027344 C-45.77273697 85.08198929 -45.77813995 84.38370514 -45.78370667 83.66426086 C-45.79617491 81.36427922 -45.7797104 79.06555478 -45.76171875 76.765625 C-45.76187385 75.15765314 -45.76336472 73.54968091 -45.76612854 71.94171143 C-45.76751192 68.57246355 -45.75497074 65.20364163 -45.73217773 61.83447266 C-45.70388452 57.53623693 -45.70650623 53.23871353 -45.71926785 48.94042587 C-45.72625908 45.61846952 -45.71839517 42.29667478 -45.70601082 38.97473907 C-45.70152321 37.39126457 -45.70113576 35.80777253 -45.70507622 34.22429657 C-45.72150056 21.809723 -44.89678682 12.52271111 -35.84375 3.1484375 C-25.19376894 -6.11381875 -12.15620264 -6.81776444 0 0 Z " fill="#383737" transform="translate(344.265625,277.09375)"/>
<path d="M0 0 C2.99321953 2.21788541 3.90060918 3.38266347 4.49879456 7.09811401 C4.49862839 8.31467682 4.49846222 9.53123962 4.49829102 10.78466797 C4.50380981 11.45836426 4.50932861 12.13206055 4.51501465 12.82617188 C4.52432128 14.28516606 4.52445075 15.74424149 4.51642036 17.20324326 C4.50377627 19.51596266 4.51509218 21.82749091 4.53245544 24.14016724 C4.55915988 28.21827208 4.56475127 32.29608475 4.56335449 36.37426758 C4.56112663 42.89426308 4.57533977 49.41389587 4.61894035 55.93375015 C4.62875045 58.20609988 4.62007521 60.477876 4.61024475 62.75021362 C4.61639237 64.15232717 4.62330524 65.55443763 4.63110352 66.95654297 C4.62966087 68.78377396 4.62966087 68.78377396 4.62818909 70.6479187 C5.12731827 75.14784468 6.66496719 78.45957753 9.625 81.875 C13.3664378 83.64726001 16.93845731 83.53039824 21 83 C25.26994552 81.23632685 26.98475774 79.09733019 29 75 C29.43620456 71.6642377 29.43620456 71.6642377 29.35302734 67.99414062 C29.35518753 67.30893845 29.35734772 66.62373627 29.35957336 65.91777039 C29.36265026 64.43693486 29.3590843 62.9560736 29.34955978 61.4752655 C29.335779 59.12926675 29.34228267 56.78410982 29.35440063 54.43811035 C29.38530799 47.7710203 29.38047446 41.10412888 29.36035156 34.43701172 C29.34942692 30.35263888 29.36263595 26.26890077 29.39024734 22.18461609 C29.39568195 20.63132623 29.39163903 19.07797265 29.37784958 17.5247345 C29.35877202 15.35107288 29.3702134 13.17948593 29.38818359 11.00585938 C29.38460342 9.15317444 29.38460342 9.15317444 29.38095093 7.26306152 C30.17281705 3.08906627 31.71065442 1.60401315 35 -1 C38.97137281 -1.7446324 40.44099683 -1.37266878 43.8125 0.875 C46.45257598 3.43964524 46.96120023 4.20562066 47.14044189 7.87538147 C47.1506839 9.71996193 47.1506839 9.71996193 47.16113281 11.60180664 C47.16858017 12.61931503 47.16858017 12.61931503 47.17617798 13.65737915 C47.19081558 15.90831512 47.19760699 18.15918044 47.203125 20.41015625 C47.20887861 21.97757468 47.21463631 23.5449931 47.22039795 25.1124115 C47.23091485 28.4052666 47.23675185 31.69809726 47.24023438 34.9909668 C47.24569668 39.19168473 47.26967278 43.39207484 47.29820633 47.59269047 C47.3169253 50.83482267 47.32204338 54.07687772 47.32357025 57.31905937 C47.32658045 58.86627415 47.33455329 60.41348811 47.34775543 61.96064949 C47.4339159 72.84162419 47.06683254 82.2142082 40 91 C33.2573733 97.84567995 27.05296938 101.42254784 17.1875 101.5 C8.12964352 101.4259007 1.92207628 98.84689991 -4.8125 92.875 C-13.18218915 83.39756397 -13.74207892 73.15556223 -13.62890625 61.1328125 C-13.62973667 59.5238326 -13.63220254 57.9148528 -13.63621521 56.30587769 C-13.63905565 52.95560782 -13.62453594 49.60601307 -13.59692383 46.25585938 C-13.56267693 41.96845417 -13.56893035 37.68224139 -13.5875864 33.3947773 C-13.59816069 30.08153368 -13.58921762 26.76856684 -13.57420158 23.45534897 C-13.56903355 21.8741526 -13.5694848 20.29292719 -13.57574654 18.71173477 C-13.58121096 16.50526981 -13.56079449 14.30050879 -13.53344727 12.09423828 C-13.52724869 10.84168243 -13.52105011 9.58912659 -13.5146637 8.2986145 C-12.90954331 4.42023936 -11.73033286 2.76616526 -9 0 C-5.81452856 -1.59273572 -3.39809153 -0.76164121 0 0 Z " fill="#383737" transform="translate(158,274)"/>
<path d="M0 0 C0.97259766 0.50853516 0.97259766 0.50853516 1.96484375 1.02734375 C7.9946036 4.73492037 10.91396472 10.82792944 14 17 C14.68839635 23.99869622 14.68839635 23.99869622 11.9375 28 C8.22192774 30.52975133 6.4117517 30.7878128 2 30 C-1.42791308 27.42906519 -2.83564724 25.39033781 -4.5 21.4375 C-6.19426437 17.55481082 -7.30833482 16.0509251 -11 14 C-15.91336509 13.37608062 -17.9727839 13.46736943 -22.375 15.75 C-25.48159336 18.41279431 -26.80639672 20.25809173 -27.26069641 24.3455658 C-27.2653038 25.20984695 -27.26991119 26.07412811 -27.2746582 26.96459961 C-27.28419022 27.94919662 -27.29372223 28.93379364 -27.30354309 29.94822693 C-27.30217598 31.53426476 -27.30217598 31.53426476 -27.30078125 33.15234375 C-27.30506638 34.24462784 -27.3093515 35.33691193 -27.31376648 36.46229553 C-27.31950713 38.77132474 -27.320012 41.08037203 -27.31567383 43.3894043 C-27.31251501 46.92072425 -27.33597328 50.45120556 -27.36132812 53.98242188 C-27.36360125 56.22656144 -27.36430455 58.47070326 -27.36328125 60.71484375 C-27.372491 61.77017807 -27.38170074 62.82551239 -27.39118958 63.91282654 C-27.3508634 70.3076708 -26.73462818 73.94983779 -22.375 78.8125 C-18.65109479 80.67445261 -15.07951516 80.53907879 -11 80 C-7.09144549 78.33678531 -5.60462638 76.85661275 -4 73 C-3.55188863 70.64435404 -3.55188863 70.64435404 -3.375 68.25 C-3.30023438 67.45078125 -3.22546875 66.6515625 -3.1484375 65.828125 C-3.09945312 65.22484375 -3.05046875 64.6215625 -3 64 C-4.1446875 63.9071875 -4.1446875 63.9071875 -5.3125 63.8125 C-8 63 -8 63 -9.875 60.875 C-11.3670761 57.06191664 -11.13941332 54.91673328 -10 51 C-7.30367164 48.26459442 -5.66668471 47.10478832 -1.84375 46.50390625 C-0.18859375 46.53291016 -0.18859375 46.53291016 1.5 46.5625 C3.15515625 46.56443359 3.15515625 46.56443359 4.84375 46.56640625 C8.32164691 47.04418664 10.20443007 47.90824433 13 50 C17.50526086 56.75789129 15.77092948 68.69157763 14.3828125 76.44921875 C11.65753743 84.90239495 6.0534702 91.53853767 -1.5625 96.0625 C-9.70755039 99.67694455 -19.35864132 99.34680004 -27.625 96.25 C-35.62534801 92.43465252 -40.46316326 86.69544144 -44.05786133 78.625 C-45.44380593 73.29239948 -45.36589629 68.07571533 -45.40625 62.5859375 C-45.41765015 61.37990875 -45.42905029 60.17388 -45.4407959 58.93130493 C-45.45966009 56.38115934 -45.47274963 53.8309654 -45.48046875 51.28076172 C-45.49983024 47.40894808 -45.56188344 43.5392822 -45.625 39.66796875 C-45.63806694 37.18230419 -45.64856518 34.69662453 -45.65625 32.2109375 C-45.6809436 31.06676361 -45.70563721 29.92258972 -45.7310791 28.7437439 C-45.6809808 19.55499295 -43.19185765 11.74790323 -37.02307129 4.76083374 C-26.31785525 -5.50850623 -13.01886579 -6.86037623 0 0 Z " fill="#383837" transform="translate(267,277)"/>
<path d="M0 0 C5.99550754 4.06725116 10.55991415 9.10507851 13 16 C13.62572246 19.48763341 13.76632682 22.52972328 13 26 C10.31281187 29.42005762 8.72186921 29.89868502 4.4375 30.5 C1 30 1 30 -1.25 28.5 C-3.2084108 25.70227029 -4.12185384 23.0431665 -5.21875 19.8359375 C-6.2848464 17.33061095 -7.61968291 16.26454345 -10 15 C-13.70602135 13.76465955 -16.09753614 13.54471255 -20 14 C-23.71209807 15.92207449 -26.34707295 18.2132094 -27.80078125 22.19140625 C-28.4956322 26.33945588 -28.22461474 28.53349246 -26.375 32.375 C-22.2757908 36.90570491 -18.76772624 38.2790416 -12.75 38.875 C-3.54095328 40.16385078 2.66024078 43.56450419 8.4921875 50.84765625 C13.82116578 58.45456567 15.41685015 65.73098798 14 75 C10.87664086 84.19349174 5.64398822 91.72257587 -2.9375 96.4375 C-10.30680824 99.33979605 -19.39109666 99.25972654 -26.97265625 97.1875 C-34.40641138 93.87850235 -40.40846526 87.73750317 -44 80.4375 C-45.26126615 76.1018976 -45.65358634 73.50248368 -45 69 C-42.77936558 65.9355245 -40.17058171 64.25695696 -36.4375 63.4375 C-32.94949997 64.24242308 -31.48344776 65.38919595 -29 68 C-27.89135461 70.2580498 -26.95422 72.51680893 -26.08984375 74.87890625 C-24.74888973 77.48871999 -23.54203805 78.54740683 -21 80 C-16.22846462 80.86120395 -12.20572876 80.70334178 -8 78.25 C-5.02129941 74.89896183 -4.12537688 73.12839194 -3.625 68.625 C-4.07168615 64.30703393 -5.2315711 62.30673452 -8 59 C-11.02715524 57.00807473 -14.08743872 56.58166793 -17.63525391 56.06347656 C-25.1105901 54.95538009 -30.58731236 53.59751112 -36 48 C-36.54914063 47.4740625 -37.09828125 46.948125 -37.6640625 46.40625 C-43.09099058 40.7387192 -46.15675109 33.79846957 -46.4375 25.9375 C-45.97327961 16.65309226 -42.47547005 9.64316151 -36 3 C-25.34191668 -5.45651013 -11.92917383 -6.79942792 0 0 Z " fill="#383837" transform="translate(114,277)"/>
<path d="M0 0 C3.43660298 2.81176607 5.54816 4.56640841 6.09057617 9.09082031 C6.07486572 10.15913086 6.05915527 11.22744141 6.04296875 12.328125 C6.03330078 13.48828125 6.02363281 14.6484375 6.01367188 15.84375 C5.98853516 17.0503125 5.96339844 18.256875 5.9375 19.5 C5.91719727 21.33304687 5.91719727 21.33304687 5.89648438 23.203125 C5.86114281 26.21893821 5.8073365 29.23452477 5.75 32.25 C-2.5 32.25 -10.75 32.25 -19.25 32.25 C-19.38510945 28.04058993 -19.48419583 23.83552719 -19.5625 19.625 C-19.60439453 18.43519531 -19.64628906 17.24539063 -19.68945312 16.01953125 C-19.82758347 6.12939854 -19.82758347 6.12939854 -16.84765625 2.5 C-11.4903734 -2.14029312 -6.63571624 -3.57307797 0 0 Z " fill="#A57662" transform="translate(335.25,291.75)"/>
<path d="M0 0 C13.93548387 0 13.93548387 0 18 3 C21.95839952 7.04262079 25.11978336 10.30292878 25.3125 16.125 C25.21790648 22.00871714 23.39258849 26.10924792 19.66796875 30.609375 C13.61236752 36.06708142 8.84276619 34 0 34 C0 22.78 0 11.56 0 0 Z " fill="#A47662" transform="translate(393,290)"/>
<path d="M0 0 C1.485 -0.05607422 1.485 -0.05607422 3 -0.11328125 C11.22162328 -0.21220452 11.22162328 -0.21220452 14.9140625 2.64453125 C18.03741441 6.29540581 18.03741441 6.29540581 17.875 9.4375 C17.18070187 13.81157822 16.66387526 14.74341124 13.25 17.375 C10.56445312 17.89257812 10.56445312 17.89257812 7.53125 17.90625 C6.43425781 17.91140625 5.33726562 17.9165625 4.20703125 17.921875 C3.06621094 17.90640625 1.92539062 17.8909375 0.75 17.875 C-0.96123047 17.89820313 -0.96123047 17.89820313 -2.70703125 17.921875 C-3.80402344 17.91671875 -4.90101563 17.9115625 -6.03125 17.90625 C-7.53268555 17.89948242 -7.53268555 17.89948242 -9.06445312 17.89257812 C-12.4715166 17.23594407 -13.63586089 16.08003251 -15.75 13.375 C-16.75 9.9375 -16.75 9.9375 -16.75 6.375 C-12.30593533 -0.67420603 -7.66764425 0.10813344 0 0 Z " fill="#3B3C3C" transform="translate(340.75,84.625)"/>
<path d="M0 0 C1.485 -0.05607422 1.485 -0.05607422 3 -0.11328125 C11.22075987 -0.21219414 11.22075987 -0.21219414 14.91015625 2.6796875 C17.25 5.375 17.25 5.375 17.9375 8.875 C17.03771682 13.45571437 16.0421488 14.63135032 12.25 17.375 C8.23847533 18.12072972 4.3193746 18.07284083 0.25 18 C-1.37035156 18.02900391 -1.37035156 18.02900391 -3.0234375 18.05859375 C-10.88176845 18.01008553 -10.88176845 18.01008553 -14.96484375 15.0234375 C-17.1700227 11.7518591 -17.47566031 10.24518831 -16.75 6.375 C-12.10145902 -0.59781147 -7.79999268 0.1099999 0 0 Z " fill="#3B3B3B" transform="translate(272.75,84.625)"/>
<path d="M0 0 C1.13244141 -0.03222656 2.26488281 -0.06445312 3.43164062 -0.09765625 C11.4505438 -0.10710693 11.4505438 -0.10710693 14.46142578 1.87524414 C17.01863336 4.7499634 17.5625 6.45996116 17.5625 10.3125 C16.21020642 14.79197248 16.21020642 14.79197248 13.5625 16.625 C9.14019405 18.09910198 4.82021583 17.84995829 0.1875 17.875 C-0.75867188 17.895625 -1.70484375 17.91625 -2.6796875 17.9375 C-11.47177099 17.98689373 -11.47177099 17.98689373 -15.4375 14.625 C-17.00221233 11.49557535 -17.13451958 8.01417777 -16.4375 4.625 C-11.91967577 -1.02920947 -6.74299778 -0.03824729 0 0 Z " fill="#3A3B3B" transform="translate(298.4375,42.375)"/>
<path d="M0 0 C1.485 -0.05607422 1.485 -0.05607422 3 -0.11328125 C11.22075987 -0.21219414 11.22075987 -0.21219414 14.91015625 2.6796875 C17.25 5.375 17.25 5.375 17.9375 8.875 C17.03725715 13.45805451 16.04848099 14.6347333 12.25 17.375 C8.21675169 18.09507387 4.27355446 18.02733007 0.1875 17.9375 C-0.90111328 17.94845703 -1.98972656 17.95941406 -3.11132812 17.97070312 C-11.09654571 17.89699342 -11.09654571 17.89699342 -14.02905273 15.55444336 C-16.45984438 12.47603834 -16.75 10.26836946 -16.75 6.375 C-12.30593533 -0.67420603 -7.66764425 0.10813344 0 0 Z " fill="#3B3B3B" transform="translate(178.75,84.625)"/>
<path d="M0 0 C1.62035156 -0.02900391 1.62035156 -0.02900391 3.2734375 -0.05859375 C11.13176845 -0.01008553 11.13176845 -0.01008553 15.21484375 2.9765625 C17.4200227 6.2481409 17.72566031 7.75481169 17 11.625 C15.20006226 14.32490662 13.916227 16.1668865 11 17.625 C7.40235402 17.91882599 3.79574606 17.90296031 0.1875 17.9375 C-0.81087891 17.96650391 -1.80925781 17.99550781 -2.83789062 18.02539062 C-10.23107012 18.08942216 -10.23107012 18.08942216 -14.13671875 15.73046875 C-16.35151502 13.2277954 -16.93227262 12.13295536 -17.375 8.8125 C-17 5.625 -17 5.625 -15.2265625 2.96484375 C-10.35494093 -0.56796657 -5.86725513 -0.10502247 0 0 Z " fill="#3A3A3A" transform="translate(222,59.375)"/>
</svg>
