<?xml version="1.0" standalone="no"?>
<!DOCTYPE svg PUBLIC "-//W3C//DTD SVG 20010904//EN"
 "http://www.w3.org/TR/2001/REC-SVG-20010904/DTD/svg10.dtd">
<svg version="1.0" xmlns="http://www.w3.org/2000/svg"
 width="512.000000pt" height="512.000000pt" viewBox="0 0 512.000000 512.000000"
 preserveAspectRatio="xMidYMid meet">

<g transform="translate(0.000000,512.000000) scale(0.100000,-0.100000)"
fill="#000000" stroke="none">
<path d="M2450 5108 c-168 -24 -353 -120 -471 -245 -49 -51 -124 -163 -140
-208 l-13 -36 -51 8 c-27 4 -113 8 -190 8 -167 -1 -259 -21 -400 -90 -111 -53
-202 -121 -286 -213 -77 -85 -121 -156 -165 -265 -32 -79 -35 -82 -71 -90
-129 -25 -269 -131 -328 -247 -89 -175 -65 -393 57 -527 l20 -22 -47 -63
c-108 -142 -151 -283 -142 -457 8 -141 40 -237 118 -352 78 -115 236 -232 372
-275 47 -14 59 -23 63 -43 74 -341 339 -608 686 -691 84 -20 174 -26 194 -12
16 10 34 48 34 70 0 35 -43 63 -113 72 -333 48 -601 296 -657 611 -16 92 -27
104 -111 124 -261 64 -439 279 -439 532 0 141 49 259 158 375 50 54 72 85 72
103 0 17 -21 48 -64 95 -84 91 -110 156 -104 256 11 163 130 285 308 313 73
12 94 29 105 88 11 61 88 213 142 278 94 115 231 205 388 255 109 34 273 39
403 10 96 -21 104 -21 128 -5 14 9 30 28 36 43 82 205 183 319 353 397 99 46
164 59 285 59 123 0 201 -18 310 -72 98 -48 224 -170 269 -259 17 -35 43 -70
57 -79 23 -16 30 -16 112 5 159 38 333 25 475 -37 166 -74 311 -239 361 -413
22 -78 34 -85 144 -92 112 -7 194 -41 258 -106 70 -71 89 -121 89 -231 0 -87
-3 -99 -29 -145 -65 -113 -65 -119 -7 -193 46 -57 90 -153 113 -244 17 -68 20
-101 15 -188 -6 -113 -18 -161 -64 -255 -85 -176 -246 -314 -430 -368 -108
-32 -120 -52 -98 -158 19 -90 19 -150 0 -224 -45 -172 -168 -316 -350 -405
-104 -52 -176 -70 -305 -76 -121 -6 -140 -16 -140 -74 0 -63 23 -75 149 -74
449 4 833 376 807 781 l-5 92 47 15 c122 41 294 172 384 294 49 65 112 197
134 277 25 93 30 266 9 366 -19 96 -61 202 -109 279 l-34 53 18 31 c31 53 52
145 51 225 -1 125 -49 238 -141 331 -83 82 -189 132 -309 146 l-59 6 -22 59
c-82 225 -333 431 -593 485 -79 17 -261 19 -322 4 -66 -16 -73 -13 -110 44
-39 61 -138 163 -199 205 -175 120 -391 170 -606 139z"/>
<path d="M2494 2474 c-57 -21 -118 -75 -142 -128 -15 -31 -33 -126 -61 -331
-22 -158 -42 -289 -44 -292 -3 -2 -87 107 -187 242 -203 274 -224 294 -321
302 -79 8 -137 -15 -188 -74 -44 -49 -68 -127 -55 -179 13 -54 43 -102 333
-520 l291 -418 -6 -71 c-17 -218 -72 -471 -164 -753 -64 -194 -65 -203 -18
-236 20 -14 95 -16 609 -16 578 0 587 0 613 21 36 28 34 60 -10 155 -74 160
-156 445 -194 674 -6 36 -14 137 -17 226 l-6 160 369 326 c412 364 417 368
438 420 71 170 -111 346 -279 269 -22 -10 -161 -104 -309 -210 -147 -106 -270
-190 -272 -188 -2 2 -15 102 -28 223 -26 235 -37 278 -89 332 -67 70 -177 98
-263 66z m143 -160 c32 -20 40 -60 72 -362 23 -218 32 -277 46 -292 24 -26 47
-32 77 -21 14 5 173 115 355 245 185 132 340 236 352 236 11 0 30 -9 42 -21
45 -45 40 -51 -385 -425 -220 -194 -404 -360 -409 -370 -14 -24 -2 -376 17
-491 32 -200 75 -367 140 -541 l44 -117 -451 -3 c-247 -1 -452 0 -455 2 -2 3
10 47 26 98 89 271 140 519 158 759 5 70 3 102 -6 120 -7 13 -148 219 -313
458 -315 454 -322 467 -282 511 28 31 75 26 111 -12 17 -18 122 -157 234 -308
236 -321 247 -333 290 -333 64 0 65 2 124 429 29 215 59 401 65 413 26 47 96
59 148 25z"/>
</g>
</svg>
